<mxfile host="app.diagrams.net" modified="2023-09-27T22:18:12.940Z" agent="Mozilla/5.0 (Windows NT 10.0; Win64; x64) AppleWebKit/537.36 (KHTML, like Gecko) Chrome/117.0.0.0 Safari/537.36 Edg/117.0.2045.43" etag="WziUxyn37W8xhNNCMWWG" version="21.8.2" type="device">
  <diagram name="Página-1" id="m1WE5Lpx8Pzac6gl9VGn">
    <mxGraphModel dx="1426" dy="793" grid="1" gridSize="10" guides="1" tooltips="1" connect="1" arrows="1" fold="1" page="1" pageScale="1" pageWidth="1169" pageHeight="827" math="0" shadow="0">
      <root>
        <mxCell id="0" />
        <mxCell id="1" parent="0" />
        <mxCell id="oppUOhQf9yuuZf2d47us-74" value="&lt;h1&gt;Projeto de banco de dados: SaudeConnect&lt;/h1&gt;&lt;div style=&quot;font-size: 15px;&quot;&gt;&lt;font style=&quot;font-size: 15px;&quot;&gt;&lt;b style=&quot;&quot;&gt;Tema: sistema de agendamento para hospital pediátrico&lt;/b&gt;&lt;br&gt;&lt;/font&gt;&lt;/div&gt;&lt;p style=&quot;font-size: 15px;&quot;&gt;&lt;b&gt;&lt;font style=&quot;font-size: 13px;&quot;&gt;INTEGRANTES DO GRUPO:&lt;/font&gt;&lt;/b&gt;&lt;/p&gt;&lt;p style=&quot;font-size: 14px;&quot;&gt;&lt;font style=&quot;font-size: 14px;&quot;&gt;Alexssandro Cruz Ferreira: Matrícula-202203456873&amp;nbsp;&lt;/font&gt;&lt;/p&gt;&lt;p style=&quot;font-size: 14px;&quot;&gt;&lt;font style=&quot;font-size: 14px;&quot;&gt;Victor Guilherme Cavalcante de Vasconcelos: Matrícula-202104418396&amp;nbsp;&lt;/font&gt;&lt;/p&gt;&lt;p style=&quot;font-size: 14px;&quot;&gt;&lt;font style=&quot;font-size: 14px;&quot;&gt;Honorio Rios Sanchez Junior: Matrícula-202103005667&amp;nbsp;&lt;/font&gt;&lt;/p&gt;&lt;p style=&quot;font-size: 14px;&quot;&gt;&lt;font style=&quot;font-size: 14px;&quot;&gt;Mikaela Queiroz: Matrícula-202302743961&lt;/font&gt;&lt;/p&gt;" style="text;html=1;strokeColor=none;fillColor=none;spacing=5;spacingTop=-20;whiteSpace=wrap;overflow=hidden;rounded=0;" parent="1" vertex="1">
          <mxGeometry x="20" y="30" width="490" height="260" as="geometry" />
        </mxCell>
        <mxCell id="oppUOhQf9yuuZf2d47us-80" value="" style="rounded=0;whiteSpace=wrap;html=1;verticalAlign=top;fillColor=none;" parent="1" vertex="1">
          <mxGeometry x="20" y="30" width="490" height="270" as="geometry" />
        </mxCell>
        <mxCell id="oppUOhQf9yuuZf2d47us-47" value="" style="group" parent="1" vertex="1" connectable="0">
          <mxGeometry x="370" y="490" width="320" height="200" as="geometry" />
        </mxCell>
        <mxCell id="oppUOhQf9yuuZf2d47us-48" value="Colunas:" style="rounded=0;whiteSpace=wrap;html=1;" parent="oppUOhQf9yuuZf2d47us-47" vertex="1">
          <mxGeometry y="40" width="80" height="40" as="geometry" />
        </mxCell>
        <mxCell id="oppUOhQf9yuuZf2d47us-49" value="Tipos:" style="rounded=0;whiteSpace=wrap;html=1;" parent="oppUOhQf9yuuZf2d47us-47" vertex="1">
          <mxGeometry x="80" y="40" width="80" height="40" as="geometry" />
        </mxCell>
        <mxCell id="oppUOhQf9yuuZf2d47us-50" value="Null?:" style="rounded=0;whiteSpace=wrap;html=1;" parent="oppUOhQf9yuuZf2d47us-47" vertex="1">
          <mxGeometry x="160" y="40" width="80" height="40" as="geometry" />
        </mxCell>
        <mxCell id="oppUOhQf9yuuZf2d47us-51" value="nome_paciente" style="rounded=0;whiteSpace=wrap;html=1;" parent="oppUOhQf9yuuZf2d47us-47" vertex="1">
          <mxGeometry y="80" width="80" height="40" as="geometry" />
        </mxCell>
        <mxCell id="oppUOhQf9yuuZf2d47us-52" value="varchar(200)" style="rounded=0;whiteSpace=wrap;html=1;" parent="oppUOhQf9yuuZf2d47us-47" vertex="1">
          <mxGeometry x="80" y="80" width="80" height="40" as="geometry" />
        </mxCell>
        <mxCell id="oppUOhQf9yuuZf2d47us-53" value="not" style="rounded=0;whiteSpace=wrap;html=1;" parent="oppUOhQf9yuuZf2d47us-47" vertex="1">
          <mxGeometry x="160" y="80" width="80" height="40" as="geometry" />
        </mxCell>
        <mxCell id="oppUOhQf9yuuZf2d47us-54" value="not" style="rounded=0;whiteSpace=wrap;html=1;" parent="oppUOhQf9yuuZf2d47us-47" vertex="1">
          <mxGeometry x="160" y="120" width="80" height="40" as="geometry" />
        </mxCell>
        <mxCell id="oppUOhQf9yuuZf2d47us-55" value="varchar(200)" style="rounded=0;whiteSpace=wrap;html=1;" parent="oppUOhQf9yuuZf2d47us-47" vertex="1">
          <mxGeometry x="80" y="120" width="80" height="40" as="geometry" />
        </mxCell>
        <mxCell id="oppUOhQf9yuuZf2d47us-56" value="nome_medico" style="rounded=0;whiteSpace=wrap;html=1;" parent="oppUOhQf9yuuZf2d47us-47" vertex="1">
          <mxGeometry y="120" width="80" height="40" as="geometry" />
        </mxCell>
        <mxCell id="oppUOhQf9yuuZf2d47us-57" value="Chave:" style="rounded=0;whiteSpace=wrap;html=1;" parent="oppUOhQf9yuuZf2d47us-47" vertex="1">
          <mxGeometry x="239.99999999999997" y="40" width="80" height="40" as="geometry" />
        </mxCell>
        <mxCell id="oppUOhQf9yuuZf2d47us-58" value="n/a" style="rounded=0;whiteSpace=wrap;html=1;" parent="oppUOhQf9yuuZf2d47us-47" vertex="1">
          <mxGeometry x="239.99999999999997" y="80" width="80" height="40" as="geometry" />
        </mxCell>
        <mxCell id="oppUOhQf9yuuZf2d47us-59" value="n/a" style="rounded=0;whiteSpace=wrap;html=1;" parent="oppUOhQf9yuuZf2d47us-47" vertex="1">
          <mxGeometry x="239.99999999999997" y="120" width="80" height="40" as="geometry" />
        </mxCell>
        <mxCell id="oppUOhQf9yuuZf2d47us-60" value="Tabela agendamentos" style="rounded=0;whiteSpace=wrap;html=1;" parent="oppUOhQf9yuuZf2d47us-47" vertex="1">
          <mxGeometry width="320" height="40" as="geometry" />
        </mxCell>
        <mxCell id="oppUOhQf9yuuZf2d47us-61" value="&lt;font style=&quot;font-size: 9px;&quot;&gt;data_agendamento&lt;/font&gt;" style="rounded=0;whiteSpace=wrap;html=1;" parent="oppUOhQf9yuuZf2d47us-47" vertex="1">
          <mxGeometry y="160" width="80" height="40" as="geometry" />
        </mxCell>
        <mxCell id="oppUOhQf9yuuZf2d47us-62" value="DATE" style="rounded=0;whiteSpace=wrap;html=1;" parent="oppUOhQf9yuuZf2d47us-47" vertex="1">
          <mxGeometry x="80" y="160" width="80" height="40" as="geometry" />
        </mxCell>
        <mxCell id="oppUOhQf9yuuZf2d47us-63" value="not" style="rounded=0;whiteSpace=wrap;html=1;" parent="oppUOhQf9yuuZf2d47us-47" vertex="1">
          <mxGeometry x="160" y="160" width="80" height="40" as="geometry" />
        </mxCell>
        <mxCell id="oppUOhQf9yuuZf2d47us-64" value="n/a" style="rounded=0;whiteSpace=wrap;html=1;" parent="oppUOhQf9yuuZf2d47us-47" vertex="1">
          <mxGeometry x="239.99999999999997" y="160" width="80" height="40" as="geometry" />
        </mxCell>
        <mxCell id="oppUOhQf9yuuZf2d47us-65" value="Modelo Lógico" style="text;strokeColor=none;fillColor=none;html=1;fontSize=24;fontStyle=1;verticalAlign=middle;align=center;" parent="1" vertex="1">
          <mxGeometry x="330" y="380" width="100" height="40" as="geometry" />
        </mxCell>
        <mxCell id="oppUOhQf9yuuZf2d47us-79" value="" style="group" parent="1" vertex="1" connectable="0">
          <mxGeometry x="560" y="20" width="595" height="270" as="geometry" />
        </mxCell>
        <mxCell id="oppUOhQf9yuuZf2d47us-1" value="medicos" style="rounded=0;whiteSpace=wrap;html=1;" parent="oppUOhQf9yuuZf2d47us-79" vertex="1">
          <mxGeometry y="80" width="120" height="80" as="geometry" />
        </mxCell>
        <mxCell id="oppUOhQf9yuuZf2d47us-2" value="agendamentos" style="rounded=0;whiteSpace=wrap;html=1;" parent="oppUOhQf9yuuZf2d47us-79" vertex="1">
          <mxGeometry x="440" y="80" width="120" height="80" as="geometry" />
        </mxCell>
        <mxCell id="oppUOhQf9yuuZf2d47us-3" value="possuem" style="rhombus;whiteSpace=wrap;html=1;" parent="oppUOhQf9yuuZf2d47us-79" vertex="1">
          <mxGeometry x="210" y="80" width="140" height="80" as="geometry" />
        </mxCell>
        <mxCell id="oppUOhQf9yuuZf2d47us-6" value="" style="endArrow=none;html=1;rounded=0;exitX=1;exitY=0.5;exitDx=0;exitDy=0;" parent="oppUOhQf9yuuZf2d47us-79" source="oppUOhQf9yuuZf2d47us-1" target="oppUOhQf9yuuZf2d47us-3" edge="1">
          <mxGeometry width="50" height="50" relative="1" as="geometry">
            <mxPoint x="160" y="90" as="sourcePoint" />
            <mxPoint x="210" y="40" as="targetPoint" />
          </mxGeometry>
        </mxCell>
        <mxCell id="oppUOhQf9yuuZf2d47us-7" value="" style="endArrow=none;html=1;rounded=0;exitX=1;exitY=0.5;exitDx=0;exitDy=0;" parent="oppUOhQf9yuuZf2d47us-79" edge="1">
          <mxGeometry width="50" height="50" relative="1" as="geometry">
            <mxPoint x="350" y="119.66" as="sourcePoint" />
            <mxPoint x="440" y="119.66" as="targetPoint" />
          </mxGeometry>
        </mxCell>
        <mxCell id="oppUOhQf9yuuZf2d47us-8" value="(1,n)" style="text;html=1;strokeColor=none;fillColor=none;align=center;verticalAlign=middle;whiteSpace=wrap;rounded=0;" parent="oppUOhQf9yuuZf2d47us-79" vertex="1">
          <mxGeometry x="370" y="80" width="60" height="30" as="geometry" />
        </mxCell>
        <mxCell id="oppUOhQf9yuuZf2d47us-9" value="(n,1)" style="text;html=1;strokeColor=none;fillColor=none;align=center;verticalAlign=middle;whiteSpace=wrap;rounded=0;" parent="oppUOhQf9yuuZf2d47us-79" vertex="1">
          <mxGeometry x="140" y="80" width="60" height="30" as="geometry" />
        </mxCell>
        <mxCell id="oppUOhQf9yuuZf2d47us-10" value="Modelo Conceitual" style="text;strokeColor=none;fillColor=none;html=1;fontSize=24;fontStyle=1;verticalAlign=middle;align=center;" parent="oppUOhQf9yuuZf2d47us-79" vertex="1">
          <mxGeometry x="230" width="100" height="40" as="geometry" />
        </mxCell>
        <mxCell id="oppUOhQf9yuuZf2d47us-13" value="" style="ellipse;whiteSpace=wrap;html=1;aspect=fixed;fillColor=none;" parent="oppUOhQf9yuuZf2d47us-79" vertex="1">
          <mxGeometry x="25" y="190" width="20" height="20" as="geometry" />
        </mxCell>
        <mxCell id="oppUOhQf9yuuZf2d47us-18" value="" style="endArrow=none;html=1;rounded=0;entryX=0.086;entryY=1.004;entryDx=0;entryDy=0;entryPerimeter=0;exitX=0.5;exitY=0;exitDx=0;exitDy=0;" parent="oppUOhQf9yuuZf2d47us-79" edge="1">
          <mxGeometry width="50" height="50" relative="1" as="geometry">
            <mxPoint x="35.000000000000014" y="190" as="sourcePoint" />
            <mxPoint x="35.000000000000014" y="160" as="targetPoint" />
          </mxGeometry>
        </mxCell>
        <mxCell id="oppUOhQf9yuuZf2d47us-20" value="" style="ellipse;whiteSpace=wrap;html=1;aspect=fixed;fillColor=none;fillStyle=solid;" parent="oppUOhQf9yuuZf2d47us-79" vertex="1">
          <mxGeometry x="490" y="190" width="20" height="20" as="geometry" />
        </mxCell>
        <mxCell id="oppUOhQf9yuuZf2d47us-21" value="" style="ellipse;whiteSpace=wrap;html=1;aspect=fixed;fillColor=none;" parent="oppUOhQf9yuuZf2d47us-79" vertex="1">
          <mxGeometry x="440" y="190" width="20" height="20" as="geometry" />
        </mxCell>
        <mxCell id="oppUOhQf9yuuZf2d47us-22" value="" style="ellipse;whiteSpace=wrap;html=1;aspect=fixed;fillColor=none;" parent="oppUOhQf9yuuZf2d47us-79" vertex="1">
          <mxGeometry x="540" y="190" width="20" height="20" as="geometry" />
        </mxCell>
        <mxCell id="oppUOhQf9yuuZf2d47us-23" value="data" style="text;html=1;align=center;verticalAlign=middle;resizable=0;points=[];autosize=1;strokeColor=none;fillColor=none;fontSize=11;" parent="oppUOhQf9yuuZf2d47us-79" vertex="1">
          <mxGeometry x="430" y="205" width="40" height="30" as="geometry" />
        </mxCell>
        <mxCell id="oppUOhQf9yuuZf2d47us-24" value="paciente" style="text;html=1;align=center;verticalAlign=middle;resizable=0;points=[];autosize=1;strokeColor=none;fillColor=none;fontSize=10;" parent="oppUOhQf9yuuZf2d47us-79" vertex="1">
          <mxGeometry x="520" y="205" width="60" height="30" as="geometry" />
        </mxCell>
        <mxCell id="oppUOhQf9yuuZf2d47us-25" value="medico" style="text;html=1;strokeColor=none;fillColor=none;align=center;verticalAlign=middle;whiteSpace=wrap;rounded=0;fontSize=11;" parent="oppUOhQf9yuuZf2d47us-79" vertex="1">
          <mxGeometry x="480" y="210" width="40" height="20" as="geometry" />
        </mxCell>
        <mxCell id="oppUOhQf9yuuZf2d47us-26" value="" style="endArrow=none;html=1;rounded=0;entryX=0.5;entryY=1;entryDx=0;entryDy=0;" parent="oppUOhQf9yuuZf2d47us-79" edge="1">
          <mxGeometry width="50" height="50" relative="1" as="geometry">
            <mxPoint x="500" y="190" as="sourcePoint" />
            <mxPoint x="499.76" y="160" as="targetPoint" />
          </mxGeometry>
        </mxCell>
        <mxCell id="oppUOhQf9yuuZf2d47us-27" value="" style="endArrow=none;html=1;rounded=0;entryX=0.086;entryY=1.004;entryDx=0;entryDy=0;entryPerimeter=0;exitX=0.5;exitY=0;exitDx=0;exitDy=0;" parent="oppUOhQf9yuuZf2d47us-79" edge="1">
          <mxGeometry width="50" height="50" relative="1" as="geometry">
            <mxPoint x="449.76" y="190" as="sourcePoint" />
            <mxPoint x="449.76" y="160" as="targetPoint" />
          </mxGeometry>
        </mxCell>
        <mxCell id="oppUOhQf9yuuZf2d47us-28" value="" style="endArrow=none;html=1;rounded=0;entryX=0.086;entryY=1.004;entryDx=0;entryDy=0;entryPerimeter=0;exitX=0.5;exitY=0;exitDx=0;exitDy=0;" parent="oppUOhQf9yuuZf2d47us-79" edge="1">
          <mxGeometry width="50" height="50" relative="1" as="geometry">
            <mxPoint x="549.76" y="190" as="sourcePoint" />
            <mxPoint x="549.76" y="160" as="targetPoint" />
          </mxGeometry>
        </mxCell>
        <mxCell id="oppUOhQf9yuuZf2d47us-98" value="" style="ellipse;whiteSpace=wrap;html=1;aspect=fixed;fillColor=none;" parent="oppUOhQf9yuuZf2d47us-79" vertex="1">
          <mxGeometry x="65" y="190" width="20" height="20" as="geometry" />
        </mxCell>
        <mxCell id="oppUOhQf9yuuZf2d47us-15" value="nome" style="text;html=1;align=center;verticalAlign=middle;resizable=0;points=[];autosize=1;strokeColor=none;fillColor=none;fontSize=11;" parent="oppUOhQf9yuuZf2d47us-79" vertex="1">
          <mxGeometry x="10" y="200" width="50" height="30" as="geometry" />
        </mxCell>
        <mxCell id="oppUOhQf9yuuZf2d47us-99" value="cpf" style="text;html=1;align=center;verticalAlign=middle;resizable=0;points=[];autosize=1;strokeColor=none;fillColor=none;fontSize=11;" parent="oppUOhQf9yuuZf2d47us-79" vertex="1">
          <mxGeometry x="55" y="200" width="40" height="30" as="geometry" />
        </mxCell>
        <mxCell id="oppUOhQf9yuuZf2d47us-102" value="" style="endArrow=none;html=1;rounded=0;entryX=0.086;entryY=1.004;entryDx=0;entryDy=0;entryPerimeter=0;exitX=0.5;exitY=0;exitDx=0;exitDy=0;" parent="oppUOhQf9yuuZf2d47us-79" edge="1">
          <mxGeometry width="50" height="50" relative="1" as="geometry">
            <mxPoint x="75" y="190" as="sourcePoint" />
            <mxPoint x="75" y="160" as="targetPoint" />
          </mxGeometry>
        </mxCell>
        <mxCell id="oppUOhQf9yuuZf2d47us-66" value="Modelo Físico" style="text;strokeColor=none;fillColor=none;html=1;fontSize=24;fontStyle=1;verticalAlign=middle;align=center;" parent="1" vertex="1">
          <mxGeometry x="885.74" y="379.89300424219056" width="99.99999999999999" height="40.10798303123795" as="geometry" />
        </mxCell>
        <mxCell id="oppUOhQf9yuuZf2d47us-90" value="" style="group" parent="1" vertex="1" connectable="0">
          <mxGeometry x="30" y="490" width="320" height="280" as="geometry" />
        </mxCell>
        <mxCell id="oppUOhQf9yuuZf2d47us-46" value="" style="group" parent="oppUOhQf9yuuZf2d47us-90" vertex="1" connectable="0">
          <mxGeometry width="320" height="200" as="geometry" />
        </mxCell>
        <mxCell id="oppUOhQf9yuuZf2d47us-29" value="Colunas:" style="rounded=0;whiteSpace=wrap;html=1;" parent="oppUOhQf9yuuZf2d47us-46" vertex="1">
          <mxGeometry y="40" width="80" height="40" as="geometry" />
        </mxCell>
        <mxCell id="oppUOhQf9yuuZf2d47us-32" value="nome" style="rounded=0;whiteSpace=wrap;html=1;" parent="oppUOhQf9yuuZf2d47us-46" vertex="1">
          <mxGeometry y="80" width="80" height="40" as="geometry" />
        </mxCell>
        <mxCell id="oppUOhQf9yuuZf2d47us-37" value="cpf" style="rounded=0;whiteSpace=wrap;html=1;" parent="oppUOhQf9yuuZf2d47us-46" vertex="1">
          <mxGeometry y="120" width="80" height="40" as="geometry" />
        </mxCell>
        <mxCell id="oppUOhQf9yuuZf2d47us-41" value="Tabela medicos" style="rounded=0;whiteSpace=wrap;html=1;" parent="oppUOhQf9yuuZf2d47us-46" vertex="1">
          <mxGeometry width="320" height="40" as="geometry" />
        </mxCell>
        <mxCell id="oppUOhQf9yuuZf2d47us-77" value="" style="group" parent="oppUOhQf9yuuZf2d47us-46" vertex="1" connectable="0">
          <mxGeometry x="80" y="40" width="240" height="160" as="geometry" />
        </mxCell>
        <mxCell id="oppUOhQf9yuuZf2d47us-30" value="Tipos:" style="rounded=0;whiteSpace=wrap;html=1;" parent="oppUOhQf9yuuZf2d47us-77" vertex="1">
          <mxGeometry width="80" height="40" as="geometry" />
        </mxCell>
        <mxCell id="oppUOhQf9yuuZf2d47us-33" value="varchar(200)" style="rounded=0;whiteSpace=wrap;html=1;" parent="oppUOhQf9yuuZf2d47us-77" vertex="1">
          <mxGeometry y="40" width="80" height="40" as="geometry" />
        </mxCell>
        <mxCell id="oppUOhQf9yuuZf2d47us-35" value="not" style="rounded=0;whiteSpace=wrap;html=1;" parent="oppUOhQf9yuuZf2d47us-77" vertex="1">
          <mxGeometry x="80" y="80" width="80" height="40" as="geometry" />
        </mxCell>
        <mxCell id="oppUOhQf9yuuZf2d47us-36" value="varchar(14)" style="rounded=0;whiteSpace=wrap;html=1;" parent="oppUOhQf9yuuZf2d47us-77" vertex="1">
          <mxGeometry y="80" width="80" height="40" as="geometry" />
        </mxCell>
        <mxCell id="oppUOhQf9yuuZf2d47us-40" value="n/a" style="rounded=0;whiteSpace=wrap;html=1;" parent="oppUOhQf9yuuZf2d47us-77" vertex="1">
          <mxGeometry x="160" y="80" width="80" height="40" as="geometry" />
        </mxCell>
        <mxCell id="oppUOhQf9yuuZf2d47us-78" value="" style="group" parent="oppUOhQf9yuuZf2d47us-77" vertex="1" connectable="0">
          <mxGeometry x="80" width="160" height="80" as="geometry" />
        </mxCell>
        <mxCell id="oppUOhQf9yuuZf2d47us-31" value="Null?:" style="rounded=0;whiteSpace=wrap;html=1;" parent="oppUOhQf9yuuZf2d47us-78" vertex="1">
          <mxGeometry width="80" height="40" as="geometry" />
        </mxCell>
        <mxCell id="oppUOhQf9yuuZf2d47us-34" value="not" style="rounded=0;whiteSpace=wrap;html=1;" parent="oppUOhQf9yuuZf2d47us-78" vertex="1">
          <mxGeometry y="40" width="80" height="40" as="geometry" />
        </mxCell>
        <mxCell id="oppUOhQf9yuuZf2d47us-38" value="Chave:" style="rounded=0;whiteSpace=wrap;html=1;" parent="oppUOhQf9yuuZf2d47us-78" vertex="1">
          <mxGeometry x="80" width="80" height="40" as="geometry" />
        </mxCell>
        <mxCell id="oppUOhQf9yuuZf2d47us-39" value="n/a" style="rounded=0;whiteSpace=wrap;html=1;" parent="oppUOhQf9yuuZf2d47us-78" vertex="1">
          <mxGeometry x="80" y="40" width="80" height="40" as="geometry" />
        </mxCell>
        <mxCell id="oppUOhQf9yuuZf2d47us-91" value="" style="shape=image;verticalLabelPosition=bottom;labelBackgroundColor=default;verticalAlign=top;aspect=fixed;imageAspect=0;image=data:image/png,iVBORw0KGgoAAAANSUhEUgAAA8gAAAM4CAYAAAAQwMsbAAAAAXNSR0IArs4c6QAAIABJREFUeF7snQm8JUdd7+veubPv+yQzTGbJZCb7voIB5YFReQ+Upwgi7+lTQYkLmxgIqGwhAiIYFNQnPohhR0CEYARCWLInQLaZyWyZTGYy+77fufd9/tVd3dXV1V1LV/fpc87v6IfMvae7uurbyz3f8//XvwY+/827RlntrwYOYTGG0XZ0I+npaKc61KnjWpyjujcZZS27COoeMNoHARAAARAAARAAgYoEBthAxRa6ePeBzox9oEPHLTpT7elO/edjoF5BboeMtM0HGxPjtg285mcj5LdmwGgeBEAABEAABEAABAoI9J1EN2SMEOVCZa/tXqxJkCHGujNWuxi3WIh7RV5bjLi2hwQaBgEQAAEQAAEQ6G4CDblc7ZBaLeE1Q4YoNyfKgQUZYtyoGLfU1toqwy3FVfsfExwABEAABEAABEAABKoSqNn/vLvXWmmuCRhEuX5RDiDI7ZBiQtU2AQoeMW7bAIl5y+b0thCR9wMfO4IACIAACIAACIBANxCoyQW9h95KaQ4MCaJcdnlUm6dcQZAhxrVHi1tme22R4ZZh8X54Y0cQAAEQAAEQAAEQ6HUCgb3QG1frpDkgmDbJcsBheZ/rdEc/UfYQZIixerZ6MVIcQoYhsgHuazQBAiAAAiAAAiAAAiCQIxBCxFohzSEGItFpiywHHlbFO8BNlB0FuR1y3Bbx6hUxhgxXvOewOwiAAAiAAAiAAAiAQMcJhJCyjklziM5DlEuuQXtJdhDkzspxp6U4uAzLp6+hwVUV4Ya62fGHa9AOAFpQnGgMBEAABEAABECAMRZYpvqBaVVkjYlz1Y6WKWKNbdtcQx0+PN04Nt1kloLcOTnulF/UKsTi1NQ4uCoyXGO3rC7Kyht1/QAqE0ADIAACIAACIAACINAMgc5bT6VxVul+rdJcpWOWRDqVjt3A0CpFki0EuTNy3AnH6VYp9pXhTjC2vF/LN+vajgcZPRoBARAAARAAARAAge4h0Fkb8ubk2+1apNm3Mw6j74QsNzCsAgLlkWSDIDcvx027TyNSTKcm0MC6ToYDjdvh/samIAACIAACIAACIAACvUygQ2ble9hg0uzbAcdroWlZbmhYCoViSS4R5N6V426SYh8hbtxJGz+g413egc19zlsHuolDggAIgAAIgAAIdDGBYOLVxQxyXW/YtnwOF+S8+RzY4zw3JcsNDcdKkgsEuVk5bsqvGhHjAINxlasAhzTfLo0cxNwNly1cObq0jW1BAARAAARAAARAoJ8JBJG8pgE2YGGuhwjC0fWgHtx7V5TzkWSNIPeWHNcuxQHF0VboAh5Sf3vUfgCPu1Kziy2vMEdDKyAAAiAAAiAAAiAAArYEgoif7cGqbFezXNo2H5SX7UE9udUtyzV3XzPqrCQrgtw7clyrGAcUSBvJC3i41gqxDQfPexi7gQAIgAAIgAAIgAAIdAGBoJLoO96a7cym+aAcbA7oyapOUa6x2wWjTSVZEuTekOPaxDiwpZqEMPDh0guhtobz15ppjJ73YtfsVtu12DUE0FEQAAEQAAEQAIG6CNQpJ3X1OWS7QSXS1LGabM3UbPAxmg5o4lCklrW169kh790iSY4FufvluBYZCSyTNsIY+JDBqmcXXWc2Y/K+RgPuWMv1EbB/aAoEQAAEQAAEQAAE2k6gW6Q8uFiqJyawENo0F3xMNgd1vCDruD5q6KZhVAMkyN9r1I5DC2At4hO4kyaJDHy44FJs6r/jvVPL5rVcB7X0FI2CAAiAAAiAAAiAQG8SqEOQQpNqu2iahLDt/ecRWNMgHE9q4OaMR29UkEOLYFApCtw5G6kMdshgDUXXi03fjVdWwA2CnueA/UJTIAACIAACIAACIAACbgRCy5Pb0fNbt1U4baSwrX3vdkluTJBDOlxQYQrYMRuxDHa4YA11ToiDnseqT8c69m80N6OOAaBNEAABEAABEACB1hLIr07T2q76dKxTIh1UOm0s1wKOTTNt7HdoUbbhYIHTuEkjghzQ5VgwqQrYqcbEuOE+G68ewwbBzlXVjsj7Q1pD0kRbIAACIAACIAAC/UCghTLehEC3TTptBLFtfe5GSa5dkEM5XTDZCtShbpNim/76PN+DnRefg+v2aZEAt45NKMZoBwRAAARAAARAoOMEmhBE60G2TKDrYhNMPm1M1wDfpok29TekKNuM3fra1WzYFYIcTDQCyLGNaAY4TJBCWzZ9tbl4gvG3OZhpm5YIcKuYmJjhfRAAARAAARAAgb4kUJcoOsNskUCHYhJEPgOYnk0TbelrKEm2GbPzNSrtUKsghxDFICISoCMm2QxwCEgxXZgBBDjINVPlrsK+IAACIAACIAACINAnBIIIZ4cEOkjfqWozCzCAANZnaqI9/azOyzTWKrdfbYJcVRiDSE7FTnSDFJv6aHNxBGFddiBIb0InxPmyOafYBgRAAARAAARAoHcIBBGbFuAIIqTV3aqURIg+Vj5fAezP1EQ7+ljtZJrG6HvJ1yLIFb20eiGuih0wSUyl5ivtHKbidDAhrii+wfrhe/UH2M90rQQ4BJoAARAAARAAARAAAScCleXH6Wj1bFxZVKu5VzKoyv0IEWGuYIKmXStfK6YDGC6PqnwrHl7bu+CCXNH/qslxxYOXyU6lpivsXFXAKkuohwRXPmaA52xVbgG6gCZAAARAAARAAARAoKcJVJarAHS8BKuiPHsdUxprJW4VjLBs10p9orFV6le1E1Lh0PULcgUP7D0xrgCjitxVklMLGa7UfsWHYBUuFQ8ddvcK10bYjqA1EAABEAABEACB1hMI/em/QwOuLGAV+m0ltBUczar9gv5X4uJ5bfSiKHuiqFeQq3zmryRdngc2yZZXs147VUubrsau/ElTqW3Lh5jpPFg20/xmnue6+Y7iiCAAAiAAAiAAAn1LIKQ1NAixkjRa9tMotd0mzB7n2rSL93kwNVxyjoznpXRfy5Nv2KxyinVVT/CWsAoHDppK7dmPKmLoz6z4avBus6DJKuMLc2lTRWyLkHiwg6EhEAABEAABEAABEOgjAhUkKBQlb4Er6ECpnHkKcyXh862O7XhuaosoO/ZDnJYqzKgNz8MmV0UlQa7qH95S5nngTouxrzT6cyp//Hi3GzfrO55KD0XPc1/pmDXt3ENDqYkQmgUBEAABEACB/iVQ9UN+q8h1YDBV5dkoaQ0Ls9d4HLnXIsqOfWiDJHsLcpUP995i5nnQToqxr0T6Myp+HPq06dt/p4ey53l1OkbFjbugixVHiN1BAARAAARAAAR6nYCnqzSLpYFO+shmm6LLzv13ZNorouw47GoR5Cqy4CNpvLceB+2UGPtKpRebkixin/Z8+659cnqcs5BP4A4fPuRQ0BYIgAAIgAAIgAAItIqAr3wEG0TADjgLJ0/jLQkhe0SXjRHrAnBOfXdkFlyUHY8fIprsc0jnCHIV6fARNh8x5j7N9Obo3H+HHXzk0o+J/g7xaquEldUDzIGPVXuGjRo+XIguF7bhe75q7RQaBwEQAAEQAAEQaAUBX2FqReeVTvhISqVxVDigk3BKnSw8Xw3JslO/HfkUbe50TPmEOh6fdq1yP7gezkmQq8iJlwx4HDCYGHPLtivy5CrGfizCSbFrf/mRLVn4PMxqbNqnO/Fw7c699wGwIwiAAAiAAAiAAAh0mEAV6air664y49QPj8Z9JLCTsmzdXx8WBbJvfcwukWRrQa4qMc5S6HHAYHJseWwX0XQeP5fSDkqxJQPTQylQM6bDFL7vxd37aNgRBEAABEAABEAABHqfQKfF2sPt9CfFsSEfEeyULFv31ZVBByW56nVnO1QrQa4qOc6S4njAYGLMpdQucmgrx+5jDyPFtv3LHM1y7LoeVtjV+a+IM1PnIzS5g9311mSPcCwQAAEQAAEQAIFOE/DIy+10lwuOX1VqXIZlK0DaNj12tpbQ+IChZNmWqXX/fMYeSpQdj2079qLrxuZwRkGuKj7OMuN4wGBybHlcG/F0H3OHpNhyzHLvPHaxeq45M7Nq1Xejdkhru5j4ssR+IAACIAACIAACOgJVP+iHo9oeGa+LiY0U5Xg67mQtox2QZeu+uY65RyW5VJCrypDzB3yHA7ZRjOl6dxqzxsOc9vcpsOXAOBpP9cev65iqH1FtIcAg4iY7P5bwdNAiCIAACIAACIBAbxMIK56dFeoQY3H0QKoQ5XSBWAtpmSw7HNKWiXW/XMcbQpSdj+kASHP2Sit0f/6b3yu0hypy5CwSDgdroxxbjzfAvGKbKHbmOnBhW8ElrRk4PWKKNq7QUchukDOARkAABEAABEAABHqXgK10lROoJjEudKv018nNnDZmzFpKyyo1W2K0YWDdH9dxdpkkewmyg1Npr10nWXI4WBA5DnA8MWjrcTYdLXYZo4drWo/b5clWVJXMoY16+uXQgcCb9tp4AuNBcyAAAiAAAiDQlQRsRKabBhZmPJYW6ADGp19OXuiwsbWYxuPT9t0SkWncTn1xGWPDkmwap+lSKVy+ShdBdnCr3HGdP9A7HEwnxw67O+ULm6K0VuOsKMWmPmTgO4Bw2NQtZVz/VYnp2qz+BYvXEex2sjrPdk1hKxAAARAAARAAARBoBYGqYhFqEP79sDTFgo66HNfBD51SsV0k1VeWTeN06YNLmrmOWV3HolNsGmfZ9artqyzILuKkO5CTTDgcrKvEuIVS7IC6ghCXh6Gdro1QT924nU4eO/BQ0BwIgAAIgAAIgAAIdJRAFRmp2nHzsf3E2dxu2nNrYbbeMEAatmHYpvHVJa9NirJpjKZrT+5rUqTLRaKKDmAtIg4HqyTHFY+jjrN0fIofWrNwKbRlOR7LzfjwXPqZ8iiWYb/2TJds9v0mjuHWI2wNAiAAAiAAAiAAAiCgI1BVXGyolh/DXZpd+mztwZYbushqrp8lQ7UZk8uxbSPKTUmyzfhM15Lo68DnvlFcpMvUiHjfSVgs7a0JMbZNYTaOT/JF47YxNNtj25aRtsTqIcT1y7AtM9vrEduBAAiAAAiAAAiAAAh0J4EQokMjDynNtn2ydGDrVGxbYc30r2I0WVw1tsduRJStwZrOu909UVmQneTG0uK85bhC+zpcxrE5inEnpNg4htzA80Ls3ka20ar7213K7dqqH8fcrjOA3oAACIAACIBA7xOwFbdeIlF1zPr93aLMNn2wdjrLDW2Ete2iXCmabMnJ/OWI+W7wFmRnAaggr1a7Wm3EmK2khkqntj1eyEix27kJJ8RuxzVfnE1t0a39booPjgMCIAACIAACINA/BGzkr400fPtdVZhtjmvtdpYblsly6LRrLpzM8gsEi/43JclVRNlLkJ2FwlNerXaz2qi7xdhmiPbnJIwQ2x+v+Udom/tGNNrev+bPGI4IAiAAAiAAAiBQRMBGwDpJr8398+lbFWG2OZ6FQwZJwe42UQ4p4fL9YHNO1PvHSZC9Ptjb2J2mUJXVbhYb2UZwjWOzTKe2Op5FvyORKn/cGfvMd68uxHbHqf/R3FQ/mjpO/cRwBBAAARAAARAAARAoJ+AjED5MmzqOqW+u/fAVZtNxrEQ5CoOahlQa4e1Y2rVNv5Wh1SXJEUYzRwHaWpC9pMFkeHEvVKk07mbcIFDEWOOXRRyMYmzRZxspjrYxmLMixebts/ed6/bGu9Zig7qOWVe7FkMyb2I8j+YmsAUIgAAIgAAIgECPEnD4QN80ARfZcOlbXe2W9cH1mPnty8XLpn3rU23YsEgwXaLJLjJpJbSmPrdQko2C7C0YFh/+vYpxGdo1iqqQcov+yZ5ZxqH0mBbHsdikVin2PscOT7zQxwjdXuFQbE6OA4eiTU1feQQ4BJoAARAAARAAARBoOQH7GFfFgVgbWbXj2MihyxFCt6c7tssxOibLJefPen6yxcVmy8Ioyo6SzCXdZt6z53VsGlepIHtLiIVUdEqOrcdkkVJdRYwtEPF71tzftKPmbaPHgO12Lg8sedsQ7YdoI9N/W+AFg4bA+l4N2A8EQAAEQAAEQKAtBCycqLyrnkJS1KhJVGy4hWij7Di27We3qx5V5pJoOmEeouySci242DAwCm0XSbJWkCvJiYWItFqOLcSYS6Zmbm9sn6X3sgUeC4HN6prpfJnet3n4FG3j27bvfoV9tQGrnZFdZfTN7RucV3Ndx5FAAARAAARAAARiAjai0UZYJk9L+mw0OrfR+fLy3c+md6a2OxJVLuDedDS52yQ5+hIif3XnBLnyB3GPFGij25RsYJNSbTUmJUToPNe4rI8W4UerPkpSbtre9L7NA0C3jWu7rttXEWALzL7Dzu0XbFzBeoSGQAAEQAAEQAAEQCBLwCRzIXlZSXQggXYdl+v2tlxM7bpElYtkTe1LKUJHUXadm2zdx7L06DoiyRWvK5VDIshBPvAbTTcfeTXuUkGOrcZkKcZ0QbhGjY1js0p37ly02IqfdNe6bp+54S1ghRbgSv21fXJiOxAAARAAARAAARDoQgIm+XMdUt0C7dpf1+3Lxmtqq9GosqMka6XX4mQZxxxQko2R6WgQrpdkbnsxJi7IlUXBQm50gmncrU451tiWcyGugv6ZxmXH216M7dozXzOu7bhub1y3KmAKtHPfzHjMW5hOvLkFbAECIAACIAACIAACfgQCCILrgU2SZNueldo4js+1b67bF42trB1XUdbKq3LgQiy61OESadX223BiTMxKxdYxkmwlyQFEmcY08Nn/uLNaYM5SCkIu5VSWVm0lRh2KGlv1zWGJJrv2yh9NLm24bFsmw9UuuGg8Tn2xfTpbXsu2zWE7EAABEAABEAABEOgaAo4CajMuk0BZtVG2kUOfXfrism0bRNlFkrlDuoiyxbcXpV8KNB1JDiHJ3oLsIBOtkWMHMeYS5lCIqwyHWebso8VV5dDcl/Q2d9m2SIiryLDT8YueTg7Xqc1D2mUbm/nxLu1hWxAAARAAARAAARAQBKwjanUgcxBTH4E0dbnQ2Rz65SLBLtuqfTft6xpVLo9Qa8h5pFxHjplboLj0tLROkiuIsl8E2UE6WiHHjmJcKMcOKdVmuWtGis39iK512+3ijXM3iI8IOx1Td0s6XIemB638PsTWhRa2BQEQAAEQAAEQ6GYCtYm2g6zq+JnEUruPviHr02N7TNvtOiHLLtFkm3PvIsq9IsluguwoJKHk2Dul2lGMXdc1LsJRLn71i7FJPE3vZ25mzSBdZNjpWOpTxPF60zp0URaA9aPSfsMA3bU/GLYEARAAARAAARAAAYlARR91YmkjVsYGK3TYRVC10WaHY5uOZXrfR/5dospFx9cO0WPdZNH/2kW5rjnJ6QCMl2SyqXWKteOnfyc59izGVSpfDnLsKsYET9fl4v50VoqtJbVpGXa8pnL+HFB+K3Wl0s7W9yo2BAEQAAEQAAEQAAEzAQf5UxursGuuX5Ul2rEzLqJaRZrdinDZnK7ySb62sqzrl0s0OZHDQPOT64gm57O+LSZIy6fA8pqyiyA7CkBH5TiUGBdYcF1ibC2xyn1WtJ9Ve8pgaokMO147Yngh0pytD229ofkh15YtrM5/WzqLfoAACIAACIBAlxJwkbKuGaKtRDi6iW783hJt3Uf7Tua2tDhGcfTW/rhZfyveL7gomyK2AUS5WyXZLMiO8iCLjXFXj8ixbdTYJAj1Ro1T1TT2wwgp/zjxkuIK0WHTGJIeOo6ligQbD2XcwP/PlDUP/0NgTxAAARAAARAAARAIQqBWiTdJlp8n8nE7y7OF0PJ2bbfTGr2LwEYN2B7PVpTzbeb71EQ0OdePknNd+EVCoArXoa+VckF2lIy6I8ch5LheMaZLJZLjsr76CpazGHtEiK37Znlt+EpwafOWxzb9VbEeq6khh/d9eTgcApuCAAiAAAiAAAj0GAFnAQgwfh+x0x62bN6rp0Bb87CVYYvtbCPMnYkq60E2IcqZYzQoyXWmWxcLsqOEdEyOpbzgUiktm69aFsnW5B3rj2OOGvsImbMUR3aePJ9MadNWfbK8Flzlry4JthqT4x8O17E5No/NQQAEQAAEQAAEQKB2AtZi6dCTSiIdUJ6tx2Yjw6bIuMyndAz24mpCbifeFaPJ1AnPQl42ohw6klyXJOsF2VKIuItpxNNHfLwqVdcox0VjKJNjL5ktuBuc2wopxZbn30YaC5uyPIaKJ5T82vTd9KCyet/0DYVVI9gIBEAABEAABEAABCQCnpFXV4bW0mlo2FuiC2TNwnHtU7RNMmx630KW7eTW7uyY27KT5FIX7oAk8/4UpVw7fpHidN1q2s4LsoO4tF2OfdKpufQHihq7ypyzFCudLXIxYz8szrmNUGqbsWg7pATb9NPu8ZNky1tv3i0bGq+HbhkI+gkCIAACIAACDRDwlrsG+lbpEAEl20lIlE578dVJjcV4rPppEuIiabcQ5UhKw0SV9enTctt2olw6XA9RrhJJboskZwXZQWa6Vo4d06kjB9WpZ/lcYxcJcRZji2ix8fiGc20jmrkmXK4fh23F88amT8Y/FDVGdI3MjZ3DBiAAAiAAAiAAAiDgR8BLNG0PZSGfpqas5LSKPCsyFyTKXKMshxBlcxt2khyJe8kZLPxSwEL2C9r1qnDdUCTZS5DbIMeFUukx19gnnbpInF0kqVExrijEvtFhFx6caZW1jQPJr2ufTX8Qmny/m/veJCccCwRAAARAAARCEqhVTkN2VNNWsL5XkGhXebbqs0eU2dgPx+hvBonrvjaGH5/PUNHkUlGuEk3uBkmWxpcKsmVEr245LvyAbzHfuFCuWhY1dhLjKtHi0FJscY3YCpqzCAeQX9u+2f4dCt2e7XHz2wWA439w7AkCIAACIAACIJAhUMEUA5K0kkiH4wVpzxGNUVhLBDE3NMcIs/HYrsIrd0gr7xbR2JLz1YvR5MbnJMfnJRJkC/Gh89FLcuwWNY5Gz/9Xs6OLKFnvX5MYlxdDU+46k2BbXDdNibDLOSj7W2DXDoTU4e8pNgUBEAABEAABEOgoAbOVBpFfzzV/ORpzF5WvIMw7GMfkIMylstyAKBvHItEpjya7SXhh0LjBlOtOSLK1IPevHJcv32QnVA5iXYMYW0txk0Ls6Ji2nIv+/tjt79gpzz92dn3xbBy7gQAIgAAIgAAI9BQBFzmqNvAA0mnogPNYzF2K/dq8ofHYcopt2Xq+jpWWi5c2ylhtjpw5bboYtnnfAHOTe1WSBwbYwGe//l2jFfSKHHciahwqYlyceq4/fSGk2EbkjBFi49WV3tw2x9M9Csz7OXTC8GA3H6van6am9rYI/jfVFRwHBEAABEAABFpLwGEaaGvHQB0zyqFT78tl1PdYTvsZfNiYHm1i0qAsm+Ypm2XXV5QDRJN7VJK9BNn44VqXhlxQfCn4nOOCznWDHGtrZRd3XHs3FAlrppnSOdnlMhlCiF0ls3z7MPLr2ieXvyPG+8WlMWwLAiAAAiAAAiDQ1wTqlHYnSS09C8UG63oMq+0rCnPpMSxk2TUNWCu9gqfl/GQrLgVfBKT7BpDk6BuY3NVQxCTTb8fiXdo2jZXGs12z+vLEFEFWhcj4Yb9IUDWC7CvHrsW4dF0qFqLqKdWuUeO6xDiEFFcVYhfxtDknPn8RXfpQ1L7xuvfpWGP7hPkSobHu4kAgAAIgAAIg0GoC5nTetnY/hFzbillJXFP7lku7xm0rCHMVWW6rKJuj0PaiHGJesq8ku/It+s7BJMmlEeRul2O3qHF1MaaToMqYVs7ijlmLsdOXDtIzxyNSXCrEFp5lktFQEmw6js0fprDSawHHplPYBgRAAARAAARAAAS8CYST987ItL2oyYiMwkwbe8wrbkqWq0aUrcZvjCbrIRXOodbxdEi5brMkFwpynXKsE0l+kRuWcnKJHPtEja0jv5qHltW+JQW4ykRaPpxvCnWZUBZzLX86myQ1/76bRJra1/UujPS69dPnb5jP2HyOg31AAARAAARAAAS6l4Ct+FQbYXWp9pFp97Fl+2na3/R+Ya2tEpPWtumbgm2RSl02P9kcFS6+Ksr3tf+SQnveA0pyoZw7FkoTJNSuFaaB61Ksu0aOHeYb64WketRYtLvlqY3sxw/cwzatf5Lt3bOLjY6MVHtWYW8QAAEQAAEQAAEQAAEQAAEQKCAwMDjIZs6aw5YsX8EuuuwqtuiMpXxL45cDAaPJLinXOiE1RZI7IcnaCLIsyMaInEP6L50wfaQ0PevaSKyuwFcgObaK/GouSnm/r3/pM+yhe3+ImxcEQAAEQAAEQAAEQAAEQAAEOkLgkiufy17y8lcmx64uynbLQXWzJGulXY0gO0WPWyTH9inV4aLGdPX96z99jK1f+0RHbgIcFARAAARAAARAAARAAARAAAQEgeVnnc1+43deH1CSqakKomxZ4brJSLIp1ToTQe4XOQ4RNaZLBZFjPIxAAARAAARAAARAAARAAATaRECNJHPFtZgo7jo3Wb+9hkSXSXKhIJemVpdVR7ZdzsmnIJdufWVNPaWy+cah5PjpTRvYJ//ur9t0L6AvIAACIAACIAACIAACIAACIMB+6w/eyJ6zZFmGRK9KcumyTSVfDMhvyW0kgmw97ziEHNOpisW2ypxj17RqqyWYlBuqSKj/48ufxbxjPHxAAARAAARAAARAAARAAARaR4CiyL/0K7+ujRz7iHK6T4Pp1gUF1vXLYpWt41X8nk6SuSBbp1Z3nRwXzze2WWanTKg/9oF3sz27drTuZkCHQAAEQAAEQAAEQAAEQAAE+pvArDnz2Ovf8o4EgiqV1SSZmjUvu2W7DFRpdeuaJVk3H3ngM1//TiZJudCBHeWYB4m1Id7oPNUfOY6GFSqlWm3nPTf8MZZy6u/nDkYPAiAAAiAAAiAAAiAAAq0kQEtA3XjTRzJ9CyHJXI0Tq+ycJDsv/xR1XHuucpIsC7LPvGM1+iyO6irHXGbV+cvec4795diYhh336d1/9ketvBnQKRAAARAAARDDh4gLAAAgAElEQVQAARAAARAAARB4x/s/GkFQDNBVlF2Kd/kW7iqaR5y0p3FbZ0m2nY9sJcidWM6pxXJM+v0eCDKeOiAAAiAAAiAAAiAAAiAAAi0lcOP7P5omQnepJDe1/FNmLrIQZNfUap/IMY8S68RXU/maKdvZFeSqP3Is8tEhyC19EqBbIAACIAACIAACIAACIAACjASZB5AFi7ZJcsuWfxLdSeYgNyHInZBjUzEu25RqdTUpCDKeOiAAAiAAAiAAAiAAAiAAAm0lIAQ58eOaRLnSnGRXSa4x1TojyJDj6GrJyXQMRpVj2u69N/xxW+8F9AsEQAAEQAAEQAAEQAAEQKDPCbz9po/klnmqK5rcS5I8cNu/Z6tYJ9dRwHnHvpHjSFqzV3a+LX1adV2RY9EuBLnPnzgYPgiAAAiAAAiAAAiAAAi0mAAJMr1yRblEnwOnXNtKcl3LP4Uq2uUkyKHmHWvbsSjKZSvH2miwdPHapFXrosby9Q9BbvHTAF0DARAAARAAARAAARAAgT4nIAQ59WFlWabInjOUXCpcV6lu7SvJQYt2FS37pI0gtyB67Bs5riTHJSnVmSuHUqzf9id9fsth+CAAAiAAAiAAAiAAAiAAAm0l8Pb3/Y1ZgFN7TobRMUluyXxkfQTZttJ0QVVqUZTaN7XaV44rpVXbyLHUMQhyWx8F6BcIgAAIgAAIgAAIgAAIgAAXZBsBttmmZA1h2r1Yqk0RauU8NS3JuuPlIsgO0WOtkEq5yblUZo/lnGzTql3k2KUYV3LKFC4QZDx0QAAEQAAEQAAEQAAEQAAE2kogI8iRxUq+rEm3VrZRxbdojm/q10UyHF6SfVKtB9IFr7KnTE0ztxFkn7nHVtFjz3nHxjnEylUqb28jx0XbULOCxfve9oa23gvoFwiAAAiAAAiAAAiAAAiAQJ8TeNv7PswJZMSwZM6xTYVrP0l2FGSdqGvkNulL1aWfSgW5yeixpxxzSVX2LYse1yHH1AcIcp8/cTB8EAABEAABEAABEAABEGgxASHITUpysFRrC0muK4qcnYNc09xjm6rVdcw7rkuOqa83vR0R5BY/D9A1EAABEAABEAABEAABEOhrAje898OZItVNRZKDSbLFfOQ6osipIAeKHvukVrdOjtUItTR3WrwFQe7r5w0GDwIgAAIgAAIgAAIgAAKtJkCCrAZic/NwC+YlV023rkuSdfOIXSXZNBe5VJB1kd/CdOa4OJexMJdzanXUcGNp1RZyzEZH2U03vrHVNwQ6BwIgAAIgAAIgAAIgAAIg0L8EbnjPXyeFueRgbJskOS/SmvOlzhFW5iOXCXL0BUF+krJWkuPtIkGuKbWai61auTo3fzgLQVe1ujVyLPUdgty/DxuMHARAAARAAARAAARAAATaToALsngNDBSnW0cWKW0q/VvaXx6vLJ1lhbv0kWTHol0GQc5IcICCXU6CXHlZJw855pIt7WdbkEvdT3wJIK1ClY1KmyLHSh/e/443tf2eQP9AAARAAARAAARAAARAAAT6lMCfvftD2ehpQEkuTqHOw9bLdFhJDlawixjd9rVvy87IRxRiWafqhbnyqdVtkWNiBEHu0ycNhg0CIAACIAACIAACIAACXUCABJleWXkMF0kOKcnGVGuLNGnXucicjW75KFtB7kT02Da1unS7OPJrEzlWpZ7vWhC9hiB3wVMBXQQBEAABEAABEAABEACBPiUgBNkkyTlRdEi3tpXkJlKtQ0WRrSPIZYLsWpjLp2q1bfQ4s11NckwiffM73tyntxqGDQIgAAIgAAIgAAIgAAIg0HYCb333BzMR0rJIcihJtp2PnG5XU6q15VxkqwiydeVqKSQbVpD9U6ubkmO6gCDIbX8koH8gAAIgAAIgAAIgAAIg0L8ESJBV8W27JLumWquCGyKKnIsguwpyWDmmU0hFtbPToouix4XFu2qMHItbDILcvw8bjBwEQAAEQAAEQAAEQAAE2k5ACHKbJLnRVGvPKHJGkKvKcay32WulpHK1bkkn3oZF1erSbUazI9FFlkUn5S3L5hxnWhxl7OZ3IsW67Q8F9A8EQAAEQAAEQAAEQAAE+pXAW9/1QapClbzkaGuwwl3qEkwF85flc+Ba1TpXn6uGZZ8ybOQiXcEF2WNZJxs5LpXoBuSYjg9B7tdHDcYNAiAAAiAAAiAAAiAAAu0nwAWZXg1Kss/6yNE+/nORtfOIhUR7RJGTCHJwOY4sNrlyQhbmKkutVtesKooe+0aOxYAgyO1/KKCHIAACIAACIAACIAACINCvBBJBDiHJJZFh7qBFla81yzNFm6fm6lWwq8YocqEg17msUy2p1Z7zjl3SqsXNRf3/qz9/S7/eaxg3CIAACIAACIAACIAACIBAywn86V9+QFkDOe2wV7q15/JPRZWtXSXZNdXatWCXYMIFubPRY/uq1aGLcvnKMV1aEOSWPxHQPRAAARAAARAAARAAARDoYwIkyGq0tnK6dcOSXFrVuqYo8sC/fu2/1KzkXBVpTjbeShdZzgm2Y2GuEFWr5UHUlVYt2qX/fuAv/rSPbzcMHQRAAARAAARAAARAAARAoM0E3vIXf5VEkIuiqcEjyRVSrVOZL56P7BpFznxBYDsf2UqQA615XFdqtZccc+mX50jHkWzxTYD0pUC0aTbSDUFu8+MAfQMBEAABEAABEAABEACB/iZAgiwLokmS1crW0b4pw0wxrLJIcgVJtpmP7CrJZanWuvTvXAS5bO6xa/S4vDBXPrVaFlH5cvZKrZblV5Le5NcFS0kl0fCCLwWivlAE+a39fcdh9CAAAiAAAiAAAiAAAiAAAq0l8Ja/uJlXhy6sLB3Lb1kU2UaSM+0LGg6SrF8bmR85YdtkqrVZkNuaWt1QUa68nEdAIMitfRagYyAAAiAAAiAAAiAAAiDQ9wQiQY5EUyvJVZd/spyPbLP0k16Sm0m1zh1bTrF2iR7rCnvZL+sUpjCXV2q1KXJM15DmSwERORZ3GgS57585AAACIAACIAACIAACIAACrSWQCnKHJNkhisx7aFj6ySWKHI84c26S/Q1zkZMIsoscRw6p1PayLswVJrW6k3JMrD74l3/W2puhrGPXzZ3NnjdzBjt/6hS2eMJ4Nn1oiG++f3iYbT52nD1y8BD7wd597Padu1s9vusuHcued84QO3/pGLZ47gCbPmkwGseREbZ55yh7ZOMp9oPHh9ntD55s9TiGrpzCxpw/iQ0un8AG5g+xgcnROEYPj7DR7cNsZP0xduqRI2z43kOtHgc6BwIgAAIgAAIgAAIg0C4Cb/7z92eXeepEJNlBkl1TrV3nImckvESSiwXZpTAX/0QvF7xKLw5dYa5KVavLUqvL5h07RI6j4cginy/m1U2CPG1oiL128UL2qtPms5ljx1rduXtPnmS3bdvOPrH5GXZgeNhqn7o3mjZpgL32F8azV71gHJs5RXNVazqw99Aou+3OE+wT3zzODhzJFWyvu8va9kmCx/6PmWzoRdPZwNQxVn0YPXiKDd+xn5382l4uz3iBAAiAAAiAAAiAAAiAQBkBEuSMFEY/1VrZumw+cu2p1jlj5qPNILIp2MUF2SV6bEqtVlxZWTKqmdRquY9qUa7MnGKritWaStejjH3oXd0RQX7FafPZDcuWsBljo0ix62vfyWF204ZN7HPbtrvuGnT7V1w7jt3wqxPYDEsxVg++79Aou+kLx9jn7joRtF+ujQ29cBob9+o5bGCKnRir7Y8eOsVO3LqLDX/7gOuhsT0IgAAIgAAIgAAIgEAfEXjTOymCHA04G531lOS4MW1l6warWmdFWzmhLpJcEEXWC7JL9Ng6tZqrc26NZa2ca5ZV4kMfzep5lfWOMy1pxpu2nZV6MdxuEOT3nLWcvfr0BUEeA7dufZbduHZ9kLZcG3nPayayV//sONfdtNvf+t0T7MZPHQ3Slmsj4393Hht68XTX3bTbD//nfnb8H3cEaQuNgAAIgAAIgAAIgAAI9B4BEuRIjlVJjn4hRNN1+adQSz/plljKy7zoZ7iCXaYo8sCtX70jn3daULm6tdFjx9RqkxxHLh4t55T+O7qwukWQbzlnJXvJvDlB7/Sv79jFrn98TdA2TY3d8vuT2EuusEsLN7Ul3v/6fSfZ9X9/xHbzINtNeMNpbMw1U4K0JRo59aND7NiHtwVtE42BAAiAAAiAAAiAAAj0BgFVkLPyaV7+iW8fpyiraySbJDmXau0wF1mVZN3ayLVGkXOC3NCyTkWRY1lI1QixqTBXLrXaNO/YsNZxkRyTOH/oXTe09s4JGTlWB9lkJDlk5Dg3jgYjySEjx+o4EElu7W2IjoEACIAACIAACIBARwm86Z03JWsJZ4Q2+cEsyWVrJIdItS6KIuslOVwUOdO+kmqdjyDbRo+V1OpIJtNrICvAFeceK4W5TKnVrvOOi9Y6zsq6GFs0lrYKMs05vnnlmbXejG9ds672Ock05/jm35pY7zg+ebT2Ock053j86+bXOo7jH9+OOcm1EkbjIAACIAACIAACINB9BCJB5ioY/a9hPnKRNGolWZmPnCmGpYkWJw6a7JdaqU2qtXMUWR5wQqFAsEsFuZbocUU5js1bGz0OkFrtI8dtFWSqVn3XlZd6F+Syve2pcNe19z5YW3VrqlZ9181TvQtyWY/j0Ci79q0Ha6tuTdWqJ96yxLsgl+04qHDX0es3obq1LTBsBwIgAAIgAAIgAAJ9QCAV5HCS3M2p1mpF68IvBDIp1p7RYzWYrEaPqy7rFCK12jTv2FSUK7qHUtn/63e/rXW31VuWncFev3hRI/362OYt7AMbnqrlWG95+QT2+peMr6VttdGPff04+8CXjtVyrHGvnM3G/sqsWtpWGz355T3sxGfavXZ1IyBwEBAAARAAARAAARAAAU7gje94n1S9Wo7YRoDUqGzQol0WVa1DLPuUXztZOflKVevCZZ+kKHKaYt0F0eMgqdUOFau5EifbZyPhbRTkh597hfU6x1WfG7RO8sU/vK9qM9r9H/7badbrHFftAK2TfPEf1rNk0qR/Xma9znHVcdA6yUd+e0PVZrA/CIAACIAACIAACIBAjxAgQdaLcDpAF0kOlmrdwYJdNlFkoyDnKleXLOsUCWUm3pv5OVhhLovUau16xxWKcsljo7Y//J63t+rWuW7ubPbxc1c12qfXPbaa3b4zbNTyukvHso9fP6nZcdxyhN3+4Mmgxxy6cgob/+bTgrZpauz4B7ex4XsPmTbD+yAAAiAAAiAAAiAAAn1A4A03vlezlFN2PrIq0IVRXTF/OZ7PnNlvgIp9SdItbSPesKlq7VuwK3QUOaggN12Yy6ZqtS612mfesbpP2wS5zsrVRc+POipav+c3J7JX/1yYNY9tn3u3fucEu/HTYddGHv8789jQz4dZ89h2HMPf2s+O/xPWRrblhe1AAARAAARAAARAoJcJyIKsinD0czT6rGAWVLbWCLDVfOQ2FOxyTLOOBLmDc4/zshpfpqPZ2HWynSZ6bFW1WjNGea1jOqo4hppWnX1vlE9F/vB72xVB/uqlF7ILp4ZdZ9f0wPjJwUPspQ/+xLSZ0/tffecUduHSMU77VN34JxtPsZe+K2zkdeJNi9ngmc3MoxbjH1l3nB29YXNVHNgfBEAABEAABEAABECgBwi84e3v5QWstXOLK1S29k21toki54VdJ/FiTMWVsBUnTr8NiM9r2VzkxgS5KL1aK8gWyzoVRY9tU6vNcsy1mCNMxTmSY3q1TZCbnH8snhd1zEN++G+nsplTBht9JO09NMIu/sODQY/Z5Pxj0XHMQw56CtEYCIAACIAACIAACHQ1AS7I3Dh1klxWtCvaqaxoV5Ek266NHGbZp7oE+St3cOXLVZoWJph8+pbnFmfXPM7vP2o19zhY9FiOKidyLU84jgaREd3oN8rv5XugWI5Jzv/mvTe26obZ8Pxr2GDuq5J6uzgyOsqWfe9HQQ+y4f9OZ4PN+jEbGWFs2f/ZH3Qckz93JmODyqJqQY+gaWxklB1+xbq6j4L2QQAEQAAEQAAEQAAEuoDAn7z9PaS5npIs5ipn/5uZXpxEoeX863Q+sm5t5CpRZK7tuZTt8JI8cGsAQc5HhysIclH0uKbU6qykJ98G5IU649sQZAIEQS5+MkKQu+CvBroIAiAAAiAAAiAAAj1MICPI3C6LI8mZyG/yQ/l85Kqp1qGjyHmBVk6u5VxkO0F2rFxNXSmMDsf9tIke65Z1CplabSPHyVjEHOY46ty2CDJSrP2fbkix9meHPUEABEAABEAABEAABNpJgAQ58uJ8FDkrk3aVrbNFuaIxB0m1dlj2SV9l2y+KXDQPmQtylfTqqtFjVYIzi0QJMS+KHnulVqdHcCnKxUVZSsn+yPve0ao7AUW6/E8HinT5s8OeIAACIAACIAACIAAC7STwx297dzqPuDTVOlLdSJpj8c1EWzXzkR2qWvumWhct+1SWZp0V/1xtLqtiXWZB7vLocdGSTnk5jhSY/69I86b/KpFj8V7bBBnLPPk/mLDMkz877AkCIAACIAACIAACINBOAiTIsjBWmY+sjdz6rI1ctOxTi6LIOUHOLq7EbTFzxuUfWxs9lucLy7KrCHAkw2J49nJMe7RNkK+bO5t9/NxVjd6dr3tsNbt95+6gx7zu0rHs49dPCtqmqbHX3XKE3f7gSdNmTu8PXTmFjX/zaU77VN34+Ae3seF7wy5XVbVP2B8EQAAEQAAEQAAEQKAzBIQgu0qyaT5yWap10drI3RJFpv4PfPrf/jNjwGWCrLiyUvk6K5iRfGblWv1dUXp12dzjojWPM/1W1jw2L+lU0PeC6DG199Gb3tmZK73kqE3OQ65jiScxtIf/dhqbOaWZCtB7D42yi//wQC3nssmlnrDEUy2nEI2CAAiAAAiAAAiAQNcS+KMb3pVbqsl1PnI2zdkx1To27SRtO0nzzs8Z5r9pKopsKtZVKsgtjx6XrXlsn1qtm5NcnFot2m2jIL9l2Rns9YsXNXITf2zzFvaBDU/Vcqy3vHwCe/1LxtfSttrox75+nH3gS8dqOda4V85mY39lVi1tq42e/PIeduIzYaP5jXQcBwEBEAABEAABEAABEKiFAAly5J3Kkk3e85H9qlrnBFmSYZtln+qei5wr1iULckeix0XLOhE4ZU1j/mNZYS7L1Oqs99unVsvS3UZBnjY0xO668lI2Y+xQLTeZaHTfyWF27b0PsgPDw7UcZ9qkAXbXzVPZjJqjyPsOjbJr33qQHTiSz3QIMbCByYNs4i1L2MCUMSGaK2xj9NApdvT6TWz08Eitx0HjIAACIAACIAACIAAC3UNACLK7JMsR3mi8qaRqosh8g3g727WRi+YiF8mzEvXN9inbP3GGVLHO1h3LZqtmqnH7CLJu7nHks/lUZfkS0r4/mtXypG1D5Wqb6LFrajXfviStWh5LGwWZ+veK0+azm1eeWeud+9Y169jntm2v9RivuHYcu/m3JtZ6jLd+8ij73F0naj3G0AunsfGvm1/rMY5/fDsb/nY9aeK1dhyNgwAIgAAIgAAIgAAI1EZAFmRfSXatam1a9qmuuciywMtAs8XFpHdK0qwzc5Cz83hti3NVmHvc0eix+7xjgZRE+m/f/+e1XcxVG66zovWtW59lN65dX7WLVvu/5zUT2at/dpzVtq4b3frdE+zGTx113c1r+/G/O48NvXi6176mnYb/cz87/o87TJvhfRAAARAAARAAARAAgT4j8Id/9pdS5Ncu1VoW6eKln7ozipwLQstRbBECp2C4iCA3lV4dYt3jJBItwr10JksKc1Vd0ik/n5m1WpAJxy3nrGQvmTcn6GPg6zt2sesfXxO0TVNjt/z+JPaSK8aaNnN6/+v3nWTX//0Rp32qbjzhDaexMddMqdpMZv9TPzrEjn14W9A20RgIgAAIgAAIgAAIgEBvECBBzgqvnSTrorH5SLJ7wa465iJrl5+SZVeNFMuZ1QVRZL0gBy7OpRNMfrak9Gpj5WqLuceuhbls1jvW9Z1+d8vNf9H6OydkJLnJyLEKNmQkucnIsTqOkJFkRI5bf/uhgyAAAiAAAiAAAiDQUQLXv/UvcgW6ZGFOineVFu0SBb6ioejmImd+H2oucqWK1sr84kxbyinRRJErCnK19Go5idt17rHtsk756LFf1erI59PxdoMgU59pTvINy5Z4F+6iglw3bdhU+5xj09OD5iTf8KsTvAt3UUGum75wrPY5x6Zx0Jzkca+e4124iwpynbh1F+Ycm0DjfRAAARAAARAAARDocwJhBJnrbyzHxZKciLPkpmK+cfoeRZ3jNqQor/hlUUVrfZQ4PbkuUWSbNGujIMvBZF1xLvV3ZWsfu6RXCwE2rnuspFanIqtWpxYQ/apWqwXGukWQadRU3fq1ixeyV502n80ca5euTOsc37ZtO/vE5mdqq1bt+syi6tav/YXx7FUvGGe9TjKtc3zbnSfYJ755vLZq1a7joOrWY//HTDb0oulsYKpdhWta53j4jv3s5Nf2olq1K3BsDwIgAAIgAAIgAAJ9SIAEmeutssyT7ne69ZHVVOuyNGu5zcKK1oZ1kX2XfMpXqyYLt4wiF0WQbecfZ+W3WvSYi2x8odqmV7tWri6KHueqaVtUru5mQZafB9fNnc2eN3MGO3/qFLZ4wng2fShaEmr/8DDbfOw4e+TgIfaDvfvY7TvbvabudZeOZc87Z4idv3QMWzx3gE2fNBiN48gI27xzlD2y8RT7wePD7PYHT7b6cTh05RQ25vxJbHD5BDYwf4iRPPN74/AIG90+zEbWH2OnHjnChu891OpxoHMgAAIgAAIgAAIgAALtIuAryHqpdo8iW1e0bnjJJ9NyTzyC3ET1ap/oMRcFae3jXHGuDkWPqVO3/FU06R0vEAABEAABEAABEAABEAABEGgbgev/9M8pfMy71aYosiyoaeQ620/e56jjCVbdGMSbIdOsBz71b98qXM+pifTqjkaPPSLHkbEzCHLbngDoDwiAAAiAAAiAAAiAAAiAQEKAC7IkmU1IsjoXuXIU2UOQ0y8E3NOs+b5+glwtvTpIca4ORo8hyHjygAAIgAAIgAAIgAAIgAAItJlAJwQ5ldN0GnDri3Wpyz1lBNl6eSc3QS5Kr7aNHhNoU3p19H69hblE9JiO8jGkWLf5eYC+gQAIgAAIgAAIgAAIgEBfE3j9n/55WqqqwVTroihyppjWgKaiddFcZI8osn4tZzldW7k05GMUCXIt6dVimaS4P95LO3Uieqz0HYLc188bDB4EQAAEQAAEQAAEQAAEWk2ABJlHdEUvuZRq5vqq8tzEusg6QY7Cz1GfxX+lvmd+n1uvSV6jOdopasM9zTqbYi1ZcbEgu0WPqXOyCNeRXt109JjGBEFu9fMAnQMBEAABEAABEAABEACBviagE+QiyVTFueqyT8YosqUgJ4JfIvbySfYu1qWNILc0vbootVoW77oEWY1wy8tS/d0H3tXXNxwGDwIgAAIgAAIgAAIgAAIg0F4Cf/CWd5ZGYnUymUZu48jrgK4CtsOST4nhUixXiV63NM06jSBbRY+5lqYRYTk6rFwb+bWG48hzvF2o9Oq65FgWcHnuseg3BLm9DwP0DARAAARAAARAAARAAAT6nQAJMvdTElEBo01zkS2jyDZ9l891Xvzd0qwdBbm+9GqxFnPi6WLObzL3N1mTiY8/K+DVinPJxcJsxR6C3O+PHIwfBEAABEAABEAABEAABNpLQBZkLsqWkhw8ipwEo/MR5Ejgo47ZromsT6NOz0PVNOtaBdlYvVqOWicVqLn9ZiU4fi/5T+b9anIsy3ZevKO+yKnVccfY333w3e29G9AzEAABEAABEAABEAABEACBvibwB29+h77oVbdGkeuuZi248CrWBenVqjzWlV6dKmjsxg0Ici5SnItKS6Ie31p8HxLm0VH29x96T1/fcBg8CIAACIAACIAACIAACIBAewn8/ptujOYgy9WrRXctJbnJYl3UtaIosk30Wz4TZWnWmeWmpAg2359YlQlyJgKsrDGcl+e0S7o05VwUNmqA75RJr64gx2mTalSZxDbqX3qs4nRxXdXtzO8gyO19EqBnIAACIAACIAACIAACIAACTBbkyP3iFOdYBDO/K4nOmiRZXnFJXn84t6RUSap1UZq1S7/LBTnSb/HKCrS0Zx2CrJvPW5SmLLoSSpDTQHi5IFeNHlO/EUHGUwcEQAAEQAAEQAAEQAAEQKCtBEiQE8HskiiyVE7MKj1cFuhwgvzl2+WlieVs60y16m5Nr47SoiNcoaLHEOS2PgbQLxAAARAAARAAARAAARAAASKgCrIskzyWaplmzTcV0dd42Sc5Uiw1lUSp+R7q2sUWEeTssbJFvepKs5Yj4Pz4n5IEWV4KuY70ai6p4iCB06tto8eiD86Vq+O5x0K0P/6h9+LOAwEQAAEQAAEQAAEQAAEQAIFWEnjdm96eXXvYI4rcZEVr32rW6pxicTJ8q1kHFeQ2p1eHjB5TWxDkVj4H0CkQAAEQAAEQAAEQAAEQAAHGmE6Qo2hvhbnIcQRZbkfM7U0ENwnJ+kWRO51mbS3IWvlVLj3d3N6y+cehqle7Ro8zkew4qp2PbEeDS8Y0MhL9HOdrQ5Dx3AEBEAABEAABEAABEAABEGgrARJkLrJxevTA4GD0syzI0S+S3+uirq5R5KqFuuQ+59LApf5mxqLmSccnxbaadabQmEixbkt6tZDSRJ7F/OEAax+7FudSK1cngjzK2Mf/GinWbX0YoF8gAAIgAAIgAAIgAAIg0O8EXvfGt/PgbiLI8ZJPQixt5vTK84hN1axld7WV5Ex6NE8Bj85a0XJP0Xvl86fl8+6TZp1EkOsW5Myc5gbmH3sV50r6FWEtih5TEBmC3O+PHIwfBEAABEAABEAABEAABNpLQAiyLJxlUeRcUS052pxEnROD5WafJ+cAACAASURBVJHouop1qYIspL41guySXi2LZT3LO8WpzklEWVyUdmsfVy3OJSpiQ5Db+zBAz0AABEAABEAABEAABECg3wlwQY6NUo0il6VZyzIq/u2aZp0R2oFsandaEDtbpZrCx7kIctRQNIySudNqn+Vz75pmbRVBdhFkNVIs1pAqrV4dWTUfRxK1JRMNkF4dqjiXmvINQe73Rw7GDwIgAAIgAAIgAAIgAALtJSALcuTJccTXQjiNc5EDFOvKSHtGhIXXi2h1sSBnRTxJGs+cFC9Brju9WhbfRIRj++XH1skx3ykaW3busBopTjfMbGdY+zg3H1mXXq0s7RR1JurPJz78vvbeDegZCIAACIAACIAACIAACIBAXxN47RveFkVddesPOyz5pKZem+YiB69mra6nXPM8ZB5BLhNkl+ixKsJF0ePIM4XougtyKrfimi9Pr7YtzqXrL+2rKxgGQe7r5w0GDwIgAAIgAAIgAAIgAAKtJpAIMvVSkuRIms1py0VRZJMg88MlwV/6R2eXe4r6k0aXo3+rP0enkqPphCBn5Diyat6hTHp1ZNEW0eN4Q3m5JkP0WBzLdWknuT8Q5FY/D9A5EAABEAABEAABEAABEOhrAiTIiRyqUeTASz45F+vSRbUlszZVs9ZVslZFWD75ToL8/750uwicZiRV5De7RJBNwtnJ9Grb4lxlSzslYs1G2T98+Ka+vuEweBAAARAAARAAARAAARAAgfYS+L033JDOO+b2WH3JJ9tiXXWnWdssUVUuyDEQJbrMfysLcibXOkmBTv05+350SK1A87Tk/PshBNk2vdq6OFfB0k68AreSXi1HuCHI7X0YoGcgAAIgAAIgAAIgAAIg0O8EhCBz6VPmIhemWUcbpxWjc6nJcjXpaH5zfnkokb4dnQGR0pzbriSKXBRBTtvTr4csv28ryOo+pYLsEj3OyLJOkJW1j6Pt7eYfR/3QFefirSSibrP2sVdxrlyxsBH2D3/z/n6/5zB+EAABEAABEAABEAABEACBlhL4vT/5MzagWWLJd8knU7Eu2zTrZDsLQebymkygNs+bLhLknASXzUMuiyC7CLLX8k7K3ONId12Wdwqz9rFLca6of6MQ5JY+CNAtEAABEAABEAABEAABEAABxkiQeTRYKpIVolhX6DTrRIDldGfdmsglhcVkAZbnG8vXgfU8ZCHIdaRXc+EVJbKVCLJt9DhtI0p5jn4WQ9ULsim92jRXenRkJDpOss6Uuj4zBBkPHRAAARAAARAAARAAARAAgfYSkAU5Ecg6inU1nGadEd1oYPwk6Kpulwsy3yvZJBH/IkF2iR6rIhxyeSdTenWotY9ti3MJO0eKdXsfBugZCIAACIAACIAACIAACPQ7AS7IsUCqUWQ1zVoIpqn4lSnNOhVV3TzkSEipDZc0aznCbLM8lSrL5ZLcYUEOu7xTxbWPPYtzRcW7GPvHj2AOcr8/dDB+EAABEAABEAABEAABEGgrgd/9Y5qDHBfdiiOloYt1mdZENlazbuFyT0mRLjXF2iWC3OT841rTq+PK1XSRa9OrR+PUawhyW58D6BcIgAAIgAAIgAAIgAAIgABjLBFk7siDcTA5qjwdx3Kl30mVqwU9KXVZl76cmYtsSLOWC3jpqlm3aR6ytyAXCrRFBeta5h+PxBHlXLVrTaSZG7DYPjtPWl7KKZmCLJZ7kuZAI4KM5w4IgAAIgAAIgAAIgAAIgEBbCciCrCvWFTrNemBQnQtc33JPqZync5C59GuWpZLPj02hLo0gZ4Uycsl0LWRxANP6x5n9KhXoElHbfIEu0/xjXR8zc43jwajzj8uKcwkUEOS2PgrQLxAAARAAARAAARAAARAAARLkSBo906zVqtGKfJqrWevnIeuWnuL9lNPA444XrYdcR6GuTJGusgrWOjlWpdkknYlUJ9Hdqusf1zD/2CG9msYDQcZDBwRAAARAAARAAARAAARAoK0EMoJcIc06lxItRWp5wa00ZzuJ4GZTqiNCapp1pwt1qes2iz7yCHJr5h9z85aWVIpysTnQ7BJP4ZZ3cq1eTV2iff7poze39V5Av0AABEAABEAABEAABEAABPqcwO/80VvjitExCM2ayC5p1r7zkF0LdWVkugPrIXsJctPzj4UgFxbo8ph/rFuKisYlp1cnx42sPVl/GYLc508bDB8EQAAEQAAEQAAEQAAEWk5ACHIknGmatS5yG1W3zs4h5j8VpFkXLfdUNg/ZVKiLH84jzVruZ0aulTnJ4nSZ5iF3hSBno8dcW/n4uNDykG403HQZqfj3MYXsXOW0OJdoI5LfbJGvbCQ7rV4t9kEEueVPBHQPBDpAYPLMCezq15zNxk8ey44fPsnu/tQT7PDeYx3oif8h2zCGNvTBnyD2DElg7MQhdtVvrGLT5k1iwydOsQe/9CTbtfFAyEOgLRAAARDoWQI5Qa4hzbpoHrKavpyNIksVs9NJxvw8tFCQ21OgKxJWXXp1rMJJRemsIGdkWBJkOZVaKLZvejXtD0Hu2WcJBgYC3gR6QezaMIY29MH7IsCOQQlAkIPi7IrGxowbZKetmsWGxo3hXzRuX7uXjZzKF4vtisGgkyDQYQIkyFw6pTTlqtWsi9Ksi+ch6wt1cRXm/UrWnPIW5Eis89FuMXb1NOgrXafR84F/+eI3padOwZJISqs6CeVRWElI+T9LqldHb+ejtuL3xYLsNv8419eCfrqkV5O4/9NH/6rDl3y9h586bQZbdtY5bNEZy9nQ0Fh+sNWPPszWPPZwvQdG6zkC5/y3xWzpFQu0ZEZHRtnRAyfYs2v2svV3b2UnjgyDYAcJ9ILYtWEMbehD05eRPGZESlP6EOSmr8TOH0++Fw7sOMLu+dfV7ORR979t8rVDo3rkGxvZ5h/v7PwA0QMQaJDA7/zRn0Yx2SRNuoE064L1kIvmIRsFORZfUzXrojRrWYZl9PnCY7GoEyJVkAvnF0sthhDkMjlO5VlOpRYdUATZZf6xtPZxcgxTerVm/nGvCjJdKCvOvpAtW3E2Gz9hYu72hSA3+ESTDlUmyHKPTh4bZg9/ZT3buWF/ZzqKo7JeELs2jKENfWj6cpbHfOLoMJeCgzuONN2N1h0Pgty6U1J7h+oQZIpAP/yVdfzLZLxAoJ8IlAly5J1ksxERtVhXZp3hRFKVOcq5Ocvx+yXrITc9D9kkyAkHAcJHkJsu0FXX/OMq6dW9KsgUKb76+S9ms+bMT54dp04NszFjhvjPEOTOPFJlQd6/7TA7dvBE0pHJsyeyyTPHM1EQ4ej+4+zuW1cz+i9ezRPoBbFrwxja0Iemr55+HLMNYwiyDaXe2qYOQUZWRm9dIxiNPQEhyEICk2WMPatZFy331HPzkF0jyFpB1kVm6UyUpFibI8iiMJaIGIuLQSqopRToqjL/2LZ6tZgX3Ysp1kKQp0ydzrZu2cQ2rH2cTZ0+g11+zc9BkO2fRcG3lAVZlyI2fcFkdun/XMEmThvHpy08evtTbPPDO4L3Aw2aCfSC5LRhDG3og/lsh92iH8dsQxCCbEOpt7aBIPfW+cRoOksgEmSux95p1knisRQtDjUPeWBgMOpdgHnIun4K+roocmkl6zYKcmPzjz3Tqwl2LwoyXSiUWn382NFkfvjpi5awy58LQe7k480kyNS3FT+zkJ31Mwt5Nzfe9yx7/L82Z7o8Z+k0dunLV/CiJ/y7q5FRPl+Z5nc99eB2tnP9fjYST1fQjfWKX1/J5i6bnlRmnjJ3Ilv1gkVs8uwJ/KFG385T6toT395snAc9btIQW3716WzByplc6in6Tff8yaOn2K6N+9nau54prfw8Yeo4tvIFi9i8M2ewcROj7AZKSd21wbxviPNI/T/7hYuT41PfD+8+xlbfuYUd2nnUqoo1tXHmcxey01bNZOOnjE0Y7t96mK25awvbu+VQiK4WtlF1DIsvmsvO/8WlSfsjwyP8HOx5+iDb9MB2tveZQ8nqAkWdqNoHanfsBLqWFrBFF8xl1J64Fvc+fYit/f4Wtm/r4VKOg4MDbO7y6eyMS+ezqXMn8utpcCj6Y83vE35dDrPH7tjMtj62u95zQtWaX72KTZ07ybkC+pQ5E3mdgtlnTGXjJ41lQ+Oj+1y8ho+fYjvW7+NTMNSXuLflbSlLZfuTe9mmB3ZkMlbUfW2eTaL9sggeFWVacc1CtujCOfw80uv4oZNs3Y+2sW1P7GZXvspcxZrO5cLz57ClV8znUx3oPNJz7vDe4/yafPrhHaXPODqmaGPxxXMZMRXPS+o73dtP/mAr27FhX+G1TfvPXzmTrXjeQjaFno30bBsZZYd2H+PP5Wce2aXtg/x8pu3oOOe8aDF/RlIfxDNmzV3PsGfX7NEeP9QzulMc1evQ5mYzzikeYIy3u3Q6KqDbAMU2PUnAJMg0aOs0a5flnkLPQ7ZdCzkaED+X+kJc6Wm2FGS3CtZyJNm1QJc5elxUwbrm+cdiuaikQna6vFM63iiC/X//9gM9eSOpg4Igd/4023wIPfvnnsOWXXUa7+wT33mabbhnW6bjqtCoozq06yh74ItPssN79EsSiQ8vJNVrvreFnf3C5yQfHuW2qJ17P7Om8EP1aWfPYuf/whIuNkUvkq2139/K1t+zNfdBcP6KGezC/76scH/6IPv4HZvZ0z+ppxALycvlv7aCTZw+Ptd9+iBMcrv08gWlyzzNXjKNXfKyMxMRUBuidtbfs41zTiofBrwMQ4yhtHDc6Cjb89RB9tBX1hV+WRKiDzxz4uVnas8F4TJxnDxrArvsf67gIlT2amruohwptV0ijCSQ7qeF583OfBDQjWfLT3exn3x9Q+YttYiRuh/di+vvfZatvUt/Ldo8m0yCTEJ8+a+dxWacPiV/T42Ockkn8S9b5onauPRXVrBZi6cWnso9mw+yB7/8ZOE1OWnGeP4l4rT5kwrboL/9uzYcYA9/dT2jmg/yiyT/4peeyeadOb3wXBT1QRZkyv4ZP2Uco2ed7tmw5nvP8IKM6ivEM7qTHGsRZBYL8jIIcsA/IWiqywj8nz98S/xMkio0iznHmuht3fOQiwp1EdZgUeQkjzxt0y6CzHvBz7BUpKu5Ctaughz7qtf6xzbLO7mmV0OQu+zp0OXdNX0IlVOsjx04we65bXVOdEnKll6Wzi0nOaDIJUWaxEODosn33rZa+wFSfHg5dXKEHdx5hE0/bTI7uPMoO7rvOJs4YzyPvol26APeI9/clKNOkbpLfvnMTBSbt7H/OJcc3kZc1OHU8Aj78VfXZwqq0Afky19xFqMIMr2oL/u2RpFW6o8c7Xnwi0+yXZvCrpVKH4CvfOUqNnNh9EGejr9j3T4eNSXJOv2cWbyi+IQp47j86iSHuF/1qlVswrRoDCQg+549zIaPneIfzEU0meSOZOaZR8NGLUOMgfq96II5bMFZM6M/IoMDPJNAjVxSVsIDX3qSj1EViaocia+IKlLbxIuixfQFCd0PIgpJv3/0W/kpB4NjBtjlr1jJ5iyZlnSNoqwHdh5hJ6VK8DQ2OlePfespfp7rfMmyenT/CfajTz1eGr2lvlDUmL6sEvcesT6y73ju/qf7i5bKWfv9ZzJDoHvmrGsXMpJDetHzgK5ROZJOmSWrv/M0j4CqL9OzibYvFeQBxr8soi/OxHmk+3bn+n1cEkn86QsK+qxDY9BFoelc0nNlfnw90t/nI3uPM/qyTn2ubHtiD//iRv3iiV9Pr1yVyDG1QRHsA9uPsDFjBzPPF+onfQH3029sTNsZYOzcF53BlsTPWLkP9GyYRHUi4g9sdB4e+rd1mWWLZEGmfo+bNJbR51aRATHj9MnJl4L0JeU9tz3BDu44mjkdVZ/RneZ45nNPZzNOm8zHNDh2kM16zlQ2ZmiQfxGx75nDbORU9jlC2218YDvbbXjOCy4nj51i939uTZTdghcI9BGBVJD5X+xa06xd5iG3rVCX3B9OKk2xTuf28j9UqZUml1EbCnRl5hmLiC9T5iXHPeZLN4lxaJZ3Gh2JI8TiryUtqSzPm+b7R42pad+IIPfR06XDQy0r0iV/AKS0yB//+wbjBwZ5OJQGeMEvLWMzF03h1zilN6/7YXF0gvalD6k//uoGnoIpXpSieu6LFnNZoij03Z9+gguieKmRKoqkUBRGLjhG4nvxS5fzKBClGP/4a+v5h33+Uj5I0wfX+z+/Ntlf/YC7/cl97KEvPxl07UyK6Fz8y2fyD23EgD7kkgSKF/X/il8/i6fI0ksnyBTtW3zxPP7+zo37+ZcAydJcA4xHnykbgDiS/NOXHadO5D8Y+l6SIcZQdmy6ji58yTIuWSSndI5JSuRXiD7QdIIzn3c6/0NPX0rQFyL7n43SqSmqesnLlifCpFsmZuq8Seyq31jFRZBfz1/bwAWyky/5HrFZ2oaEhr4kIJGg11MP7WCP/+dTxjRimzFSmu2Sy+fzqRsk0XQf0j0t36/UTlVBnjpvIrvqVWfzLzToeqFUdpryIV70hQ5Fhml6h3j2PPilJ9mujemXX/L1RP2ja46eL+Ilf4FI5/r+z63Nfdkhj4PuR3r2yKsBEI+znr+QLbvyNEai9ejtm9i21el1PXPRVJ5ZQpkxNA7K4tl4/7OJQMvPR53kq1Ng6Pn18FfXJfe++nzTZQnJEVifZ3QbOIpzFmoOMrWnpp4f3qvPkrK5L7ANCHQjARtB5h+zdNWsB7Pzg9V1hsPMQ5alvfp6yEVLPSVjVE5iUZp1dUHucIEuEf1VC3TlCnapgqzOP3ZIrya2EOTueUyoHz7Kek4fiu777Bq+iSn9UG7HNiXSh1pZOit9EKJv1zf/eAfbvmav14djir5e+cqV/MMdRckoikxRG/klf/jSRYjHTx7Lrv7Ns7kY0QdMin7J6do0l+7il53J6EN9WaVt+iC4YOUstoXm6kmRR5LPa15zDps4fRzTRZepryQKFGGmD/T8fHz6icKUcZ/zcN7Pn8HnqtKrKEpO8nvedWfwPzTqNSEzog/ylIpO0SL5JUc264h4VB2DDbfTz5nN0+BpLLq03qp9oPNLYkhRNXrOr/nuFp6SLr8oInr1q8/m0V+TkFBGxD23ruZzqDv5oujtZS9fwUjeaXknir5TVLvoJT+fKJuBxDHoEm8DjH/Zsej8Ofx5oFsip6ogn3HpPHbezy/hQ6TIMUX41GeP/PzWnUvexwvm8Gff43c8xZ56MF+gUI60UxT9SSmSLt+XpZkbA4wtPG8O2/v0wfSLu/jkyDUgdm8+yP+GZDIn6Au+Xz6TnbYqipSrdSLkMRZFiGkKDX15Ri/6EoEyI0I+o9vAUYwnpCBf/LLlbM4Sqp9xgt3/+SexwkMnH3I4dkcIkCDTKxLBAGnWleYhi+NHKNKK2O0r1NU6Qa6lQJfN+seSIHPpTuYhy9H0NCINQe7Ife510F4WZBkIfbDacN82tvG+7bm01jJwFEUTxYGKIldCkOn+/Ol/bOTiI79MlWblOdK6ImKmEyufQ12EmvaX+xB83qhU7KWsbTkyqQry7DOmsct/9SxGUTGe6vlv67TDFtJQxNrEqvD9AGOwOTZ9SUJfZtCXHfIXTtFfw7Roji9Hq/WC6Ti/tpIX4KKXGnGjPtIXOiRHxHn3UwfZuh88w/ZuPex079jwqG0bZYz0xdO6H21l21bv5YXFQrxkgdUVRKoqyPKXJbqoKI1BFlhVkOlLBfoihKYnlKWly9ckRWcf+MLaBI98X9pE7nVc5S8Qi8Yhf3mmfhEpP98oO+buW5/IfTki15HI3VdSpNTnGd0WjnUIcoj7AG2AQDcTMAkyzWHh/ydVkQ42D7mLC3UFEWQ51pSf8yst05RIZ/w7XWoz30adD02XprlAly4FnP9OEuRMyjWPKid52tbp1dTcP9+CIl3d8sCguavLrzmNp8aaXvu2HU5SjNX5eWX7njx+is/Tk9OKTceyfb/0Q+gA4xVbqaozRWnpAcfnuH1lfeaDvqjWSym8fL5uXOWW7geKUtFYKa3XJMhFlWhNgnzZr56VFJ0xVh7VgKEI0QW/tJSPj+blUZSb+qK+5A+qPscpOify+CjSeM+/ruZRPvVVtlSPHEWnImr0QVr3onRSKhZEcx/bNgbRX0pjXnTebPaci7LVfpPrKZ7brn6QD8FRFpoyKZLvm9yXMgOUHkxzRudlCipR/2kePwkzpSzv22auxm17H9exnTqvXxyDrlFaM53msFMqsDoPXO4LZWdQhFWuKk/v0z70JYZ4VtQhyOJ+LfuypOzZIstzkVjSWOQvAdVrUn626MTTdN5kuaQo9k/+fYO24nlGgncc4c8Q8UWG/F5RH2wF2ecZ3QaOMueQEWTT+cP7INDrBH77eirSJVd01s9DJg5qmnX0sxR1FrB4RWl9pWh1HrKoLZOdcxw1VDgPOcm0Vo5hUcmatxs1rhwjW9U6HUqyOFQ2yu4zBzkzP1lKXaaDFQpyvIRMWwp0VZl/DEHu9cdJu8ZnE6Whp4EoEkP32BPfTovq2FQmFSOuS5Criqvpw6Hof9Xj2AhyWTp9mSCbKonrjl2XIPuOgfpI0TiqOkz/Nb3KBNm3D2WiIfenVJDjJX0oZX7ZVQuSwm/qeEiWack0eb6pacxNv0/zvmms9MWXrkonpV+T7FNVdFWUn3PhXL6ckChwV9b3OgW5bAmoMkGW7zdb7uo1aftssXk2lI2jzYLcBo4QZNsrGNuBgBuBKoLMPVOah2yzHnLdhboS4Y7TxbUiLAmyLOJ2law1VawLi3DF5yI3rzcy4qQgpG/0WBZrNcXapoK1rl+lBboqzj+GILvdnNi6GgErQWaMV1emyrxjJ4xJ5xKPjGaqxNKHZUrvo/l+4sMyRVcolZIqp9YlyHz+XVyp9tFvbdLOEyyj1KoIsmaOtei7bQTZ9oqoS5B188RtxqBWwaYKsyQc+545lBQ0pPm/iy+ZxzM2SiPInhyDRJCVE0B9pvmh81bM4JV05bWQi+a8257DprYjyaX+U7ElmnMpKnmL46uVlzOFpeLKzzvW72dHpCJGtNa4KJBVpyCXzaG2jSDbclavydPPjefMDw7wwnm8BkW2BENp070WQe4URwiyLXlsBwJuBIQgp6IYdh6ybaGuXJXowqh2fYW6ekKQU+kVF4JSqbqkgnWVAl0284+p/X++5YNuV2iXbo11kDt/4mwFWZeWRvIr5lrS3N17P7Oaz9WTXy5zkH3S9+hY8hxkisbx+bcOH0I7PQdZrhhc9mG+bA6y/AUGpb/SMk4jw+UQKMqqSyX3uSpDjEE+D/RFy32fW5Orsl02BzlEH0LMQS7lN8DY9PmT2bkvPoNXd6eXOm/Vh3/T+5Agr3jeQnbGJfP49AkqDEeF60RlePFc4YXOvreFrb97W+6erDoH2TT1QhSGIjZFX5yVzkGWCrbRVBGq4n9oZ7bwncqd7id5Koz8hQtlDND836R6vuVJCzkHuRMp1nLhu05y1H1J5zsv3PLUYTMQ6HkCv339m5V06LwgO89DtijUJeYxU6A3m46tK9TVTCXryoKcSaGWLp0mI8g2gmxVwbqG+cf0KQKC3PPPlNYM0FaQ5erBYj4eVfql+az0AUhX+ZQGKVd/riuCbFraxwS7DVWs5Q/zVAxpzZ1bct0uq2Ity4JuSRsTgxDvVx2DnI5aJDRU9fj8X1rKaN677sN+1T6EqGJtw5Iiyhe9dDmvxt2tH9LpvqECfPSlgvrllpC6wmwCpfKyKYKsm1evLqelLtEkV2Yu+uLMVMVafj7q6i+YzjV9kUCFvmi9YvrcsemBHezx/3rK6Qu8kFWsOyHIxKgNHHWCXMeKBKZrAu+DQC8RIEGO1j+ufx6yOi+ZS3LLBZnOtVbgdXOQdYKsTb9ubIkntWgXFd6i/9f8XpoHXVSgy2f+cVbYIci99PBo+1hsBJkKkV3yK2cm80JFlWQ5OsIrp34mu/wIfYCm+aSUYkqpgnUJspqaSx/KKYK6Y/0+6w+itEYypUPSy7QOsk+U2nQdyKmYFI17gNbe3RatvUsvm3WQ5fV7SVhouZlN92/3Wp7L1F/d+1XHIKe601JcdA7lTABac5auQ5IOElndh/2qfaBxnfnc09lZ1y60WgfZZz1pSrGmCss0R5dePqm3Pucn9D60LBEtO0bnQhVhUTiPCmTxwlKP704PH6/JTRHooXGDPAKtE2T5elAzVNT1qHXZJ3JWhW49apt1kNVU8e1r97FHvrkxXV/cAqp8X9KXVxvue5avCV9W3Exulr6IpOktlI1jsw6yuhZzp4t00VjawFEwldPW6Xch1/i2uBywCQj0FAFZkFMZtC/UxfcpmIecE2I1sqwVZN6imDrcqqWeMkthRYKsF035CqlTkLOR6TAVrDPVquOBJMcZGeG/idKpozf5nGWL5Z1EG70YQZ48ZRpbser85EYgLpMmT2Vz5i3gjPbv28P2700/RB0+dJCtX/MoO3UqzJIiPfVECjgYWZBJyEjO5BdFPibNHJ88ZOQPomp05ODOo3yJoVMnTrHZS6azOUum8Uq1u586wKvY0pxSSiel45DciLWMRbTJN8Wa+quruEvVdqkatFjvdeykITZl1kRG8yVXfzdb5Xnq3El8neOJ08bx4VOqM8kPvXhl7nFj+L9pDLTe5d4tBwOehWgZqSt/fSU/Fj/+iRG2bc0ezorOwennzOLp61R9mtKMdUWo1DaoHWJKX0ycPBLdR8Rg6pyJ7MkfbOXrpYZ8VR3D1HkT2VWvOpsLMD0L9z59iG1ft493cd7y6Twb4djBk+zI/uNs9uKp7Pihk2zrE3vYoV1H2I51+/m1W7UPdCw6/pWvXMWX9+HP75FRXt2cWJKki/m3RevakpiRINKL+kRLJInXxOnj+f0krie16F3I81GlLerfFa9cyabMnsDXcD68+xjnQC8SDLpfxk4ckzwX1HWG5bWB5Wt53OSx7PSzZ3EGe54+xCZNH8/XH6fr/dR5FgAAIABJREFU/Nm1e/kzgSK19NyQ15uW70l6j84D3aMnjpzk9wxVeN61cT+/Dmh/4k7ReapPMP+smbzfJKT03KHn0fgp49jC82bzNmgqAl17Rc+fs1+4mC29Yn4yVuJweO9xdnh3lG5Nsj517kS+7vj9n1+bW2tZvZ5EXw7tPpZcG6INurYf+MKT2aW0lKrodM0c2XucH099PvMvL7+SnWLSBkGmMXeco3RDyF9aiOckXYP0t4K+sJk8ewK/Jh/+yvoqtxH2BYGeJxAJclGacyqqpWnWkiDztqIGk3bVecidrmStKyYmTnRZmnWmqnZVQfZZ4kleWol/uMks/5QKctMFuoQgi+PqC4ZF/etFQZ45ay67+gU/z8aOjQTE9Nqzazu7+3v/yYaHT5o2xfsVCMiCbGqGPhiuuSs7n5Aq9Z77osX8Q4X6EimF9EHu/F9YknlbjhiFEGRqfPaSaeyi/76ssGqw6EDROsFUMOjily1nYycMaVHQB+jH79jMBbuOlyrp8jE4+zu3sNPPm80ool9UpZn6TtHwOcumaasOizaLUuKrjqvSGAqWRxJ9Eqnjk2eO50sHiZcqNpX6EDfK2/i1FYyEVveivqy/ZxufX6vOd5eX0irjSffH1sf2sJ9+Y6N1NLHq+bHdX64dYNqHpJbEUHzhRdvrpFBu5+iBE+zHX13Pzv35M/j1LF5qlknR84XYrfvBVn4c2qboWijrB7VB67qT3NI5K6wSPcDY8qtOZ2f9zOmZAmsql4M7j7B7bl3Nv1BQX9SPS152Jpt1xtTS+7JoaTERMadCaboPYHS8PZsPsge//GQuut0WQaZPvZ3mKM6LzeoL3Tr1wXS/4n0QCElACLJtmrX1esglgkz9p3bUechVCnWl/ZKiz5aVrHWFxGTG+SWrBli8DrJ/BNlFkBMRltYepg6GFGTbAl2+6x/zuPPoKPvkxz4U8vptRVsQ5FachlwnbASZvlXfu+UQW/v9LTySpr74UjAvXMwjbvRBjuSBoiMUoXzmkV2MUiXP/8Wlmd3qEGQ6QNEauvQeRZDow+szj+3m60rrXpTKTOs+U4VdkgR60T67NuznaZGHpSq8dZxR+uBGkRZxfBEtIhHbvmYvu+wVZ7G5S6cXCjLv00BUdXz51afz/8qRPmIwfGKEPfPYLi77dbwqjWGAsQUrZzGK8FD0kr54oT5T2jtFvXds2MevtTJBpjFV6kMMhb5sWH71Arbogrm8PfojRxJFke2ie4F2JSE577olbPyksck6v4KzuAZpSsKmB7azvc+0cy1kKl5FX7RQZJWi8vIHALomaY1dusfp/t7y6G6t4FMK84prFrJFF85J+Mn30oljw+yq31hVKsjEjSLAK5+/KLkeKJ2b5ulvvP9Zq2tB7Qe/p48M88JhTz2wnS9FRZJdtowS7VO0prPgQVFdmhpRuF59yX0p2ji44yh7+KvrtW3QvPv5K2fy4mji3lCftRRJV1+tEeS4Y53mKPgQz4Xnz2GLL86ut07v09+8AzuPsAe/mP/CoY5nJtoEgW4l8Fuvf1Oyvm/VechpZDi/zrAu3TqkIPOPTvG6zLGbSwKuWfM42iH6yCV2UP4tzmmpIGtTqKWrwVSgizbNpjUL6Y6WgpLf94kgZ45fYf4xX5ZKpFPzTsmCHqdeS78TQhz1P9qhVwW5W29+9Ls6AUrXpA/Zxw+eaGw+bPVet7MFEjUSXNv5i20cRdUx0LU0NHaQHaXpAA7VymUWVfvQRq5d16cBxiZOHceGT45kU4odBhLiWqA2Rk+NBqvo7tB9bAoCIAACXU1AFeRUGA3LPSWrLcXzleWIcWqWSoErNZWbx61LC3Vl0ppVoZX6kBFdik7L7+lEWBJkeV/bStZJBLmqIMtyHGtkLMXugpwtiJVKaSLZFQQ5U6DLc/4xBLmrnxXoPAiAAAiAAAiAAAiAAAj0PIFUkMPNQ5bn+PoV6mr/Uk9dIMhK9DlOT5IrWKtyX1igK44eJwKvEWSb+ccQ5J5/nmCAIAACIAACIAACIAACINDVBGRBbnIesnuhrnathdwaQVYLYkXR4khlk8hxXK00EVxRfTqt5hWlT6eWm2T38d+VpVfHFaxNgiza7sU5yF39BEDnQQAEQAAEQAAEQAAEQAAEEgIkyPQSSxjVNQ85ZCVruVAY73tcjMulUJdcaTsdf3Y+soCUn6MsFelyTrGuugayFL1NBbh8iadIcqPh8EWZlLnNoh0vQR61n39Mx4Eg4+kDAiAAAiAAAiAAAiAAAiDQVgI6QZaFWfw7mdM7MJgKtWYeclGhLl0hLFMl6/SYImlbH0X2FuRocNIXBIEFWSvPvNBV+rKdg+xToCsjviWCnC3kFcu2WjwsWe84Fm3H9Y9FhPpf/u6v23ovoF8gAAIgAAIgAAIgAAIgAAJ9TuB//8EboyWXtKKYL9RVtB6yqCCdCLXgWth29yz15B1BDiHIibx6LPEUqoK1W4EudT1m+edRBkHu8ycOhg8CIAACIAACIAACIAACLSagCnLRPORkJaR4/WLtesiDaXQ5ZKEu50rWahXryNr5WcjIbtHvpWWfcvvw9zQp1rIMi/NdSZBFUa0kJTsJAfPms2nSctp0cvTsNjVWsDbNPxb9pT5DkFv8NEDXQAAEQAAEQAAEQAAEQKDPCdgKcuKSHRDkVFLtC3UNDMZCHM9PriLIsiQnc7X/5YvfiEphaebzqoKckWcpxVr9PW+PzxGuf4knnbwnBbniAcgFukTfkkC2lGJtEmSZEQS5z584GD4IgAAIgAAIgAAIgAAItJiAEOSshMqRVllKo0gs/790oeFskSw5pTq2ajV9WxwrU8malkPORHnDLPUk5icnCyNLUWSfQl1JH4MKshIlthXkJitYy4KcSfvmFa6jK1ztj6imDUFu8RMAXQMBEAABEAABEAABEAABEEgI+ApyItQktnIVaY0gq0KsFWQSVxH1TfO5E69V06w7Vcm6FYKsplenctq5JZ7SiLSa7h39LN5HBBlPHxAAARAAARAAARAAARAAgbYSIEHOCitFh6PeinTi9P00giwLMv+3iCo3JMi646d9jvspVdmOBySNi/qczk2W95XnKYvzliti1pEIcg1LPOVSxNUU8LI1kI1LPGULdBFMCHJbHwXoFwiAAAiAAAiAAAiAAAiAQF6Qi1KdZXH2W+pJJ6EdX+pJKsilSwUPK8ieayC3ZoknokHFvpJ516Y1kCHIeMSAAAiAAAiAAAiAAAiAAAh0D4E6BFmIsG0l63SecLz0k5RiLYK8tpWs09RrSegLCnXJ/WsmgtzgGsihlniiCcY8RZqbcXRhpz8LAU6lmZcZS+YlK4I8yti//D3WQe6exwN6CgIgAAIgAAIgAAIgAAL9ReB///4bea6xvBZydqmn+tdC5nLKO1FcqKsOQY6Om18CyjrFWruMk3T9lKUvC9GMjTP6T2ygokiX7RrI6XHEweV5wJHYpm2n0ir3QVSsjvohRYlH4ihxgSC7FOiiJiDI/fWAwWhBAARAAARAAARAAARAoJsIyIIcuWK8zq8kq5EwS1Wlu2GppwprIZcJsmA0QHOQywS5mTWQRYpzGsmNLr5yQS5b4gmC3E23L/oKAiAAAiAAAiAAAiAAAiAQkkCnBDkRTSHehghyKu8k8dIcaP5GRCRTTVuuih1gLWRZmnm0vaogV10DuVNLPHGB9lwDGRHkkLcu2gIBEAABEAABEAABEAABEAhNILggk/A2VMnadqkn27WQVQmWWdcuyGp6tRBR/t9k8q9cIIsnQvM+ZlOsld+NxD+rUeV4dPISTHy+sfT7zPzjqCPpsaIfcmsgq33Jto8U69A3MNoDARAAARAAARAAARAAARAIR0AIMrWYzkPOL/WkS7EW+8gRXL6dgyAnxxVrKTushaw7fvK76B/pklXRBOcEXDKeeLvMfkmqecrZW5DVSHFGQCO7jSRXmX+cEV9l/m/6XrkgR/OKo0HwMltJ9Wn9PGQnQfZY4gkR5HA3LloCARAAARAAARAAARAAARAIT0AvyFjqSZ2HXCrIGQmOz1GuQFcsw3UJsiiWJUeVWyXI8cB7uUjXpMlT2NIV57DTFp7BJk2ezOcCjIycYocPHWQb1j7Gnn5qPTs1PBz+LkaLIAACIAACIAACIAACIAACQQhwQaaXUsk6uyZwvpJ1Zh6wNAfYFEHmh0oKfkntpmHoXEXtaJ90v2zRsOTguTnIuQiyaEjug/Q7Xd9kyHK/M3OQrQS5wTWQ1SWeuJubIshS/5LxyEs8RY1YLfEUfReQX+KJft+LgjxmaIidc8FlbOmZq5IJ8rq78+CBfeze79/BhRkvEAABEAABEAABEAABEACB9hHwFWQun6K6tUaQhWz6roWcympaPbuOpZ5810KuXZC7YYmnSISL10DWiXqvCfLg4CC78LLnssVLVyR398mTJ9jeXTvYsWNH2fQZs9i0GTMTcX72mc3s/h99h43Ey2e175GAHoEACIAACIAACIAACIBA/xJQBVkW0zRqa78WMt9/MK0ybSvIfD/rStbyslNpBDlpQ0SILZZ6alSQRXp1JJZicrB+DnKZIBdXsOYtZ+caK2sgd3KJJ4pi/7+//3DP3W1nLF/JLrjkKjY8PMweffg+tuWpden5ZYzNnjufXfHcF7Jx4yewE8ePsR/eeTs7sG9Pz3HAgEAABEAABEAABEAABECg2wn8r99/Q6GYFqc1xwWwpPWRI7eNRdpSkIWMpwWzeCNKCra0/nKmeFYkyaWVrC0EOZLqOIdbk/4tn9/KKdZtFOS8qMfyHqdXx8qdFvuqsMRTrwoyMZozbwE7euQIO3zogPaZcNnVL2ALFy/j793/w++wrVs2dfuzA/0HARAAARAAARAAARAAgZ4jUIsgS5WsdRHaXMErj7WQxTzk3hNksSyTUt06qUadiKvbEk9cdCXpzf1csMRTVUFOBTyaB92LEWSbp8LKcy9mq867GIJsAwvbgAAIgAAIgAAIgAAIgECHCMiCTF1Ql3rSz/s1RJAdl3rKRJB5inaa0h1hUZedEr8zRJDltpIiYGrbnhHkT37hP5KAsG2RrlwF68hS+RCTZZ5aJsjaNZg910DuZ0Fedd4lbOW5F0GQO/Sgw2FBAARAAARAAARAAARAwIaASZCFNGcrR6eCnLzvUMm6NILckCCn43IXZL5vHYLMXVldqzhdyFhZx9gtgqxbdioTUS6IIGsF2XMN5H4VZLrgaQ7ygoWL2ckTx9mPvvcttm/PLpv7E9uAAAiAAAiAAAiAAAiAAAg0SKBYkOtbC1kVZCGr6Rxm+wiyTtBl+RVLPYm2+XpR8SuNXLvNQTYKsq4QFomvKYIcUpDbuAZyvwoyVbK+5gXX8SJdJMY/uvN2RpWu8QIBEAABEAABEAABEAABEGgXgUSQufXJKdb1CbIssJnCVyVrIQuvLVzqSYpghxDkTBuKUEOQXSPIomB3H85Bpgv2osufx5eBoi8tHvvxfWz92sfa9RRAb0AABEAABEAABEAABEAABDgBCLI+xboZQRZLPcVzkDsWQU7mQWeXn+Ip2EqKN/85SQN3WwO5HyPIVLn6kit/hg0OjmG7d25n937/DkSP8fAFARAAARAAARAAARAAgZYS0AlyKodRcawoamtYC1kzB1m0Y7sWcpoGnY1klxXpSvpqG0GOduBnoyzFulFBTgp0Fc1BTpZMlucdl89BdkqxNgmydHwhyOkyzrzTHGg0p5n/q3At5n6qYj3vtEXs0iuvTdY/vvcH/8X27NrR0kcBugUCIAACIAACIAACIAACIECCzGUwWsg4twaxz1rIXDwlCW1EkKNBpGsxpznZybRjdR5y7YKcqW6tm4OsVrBukSCPjoxE0ssjxtGNkkSUExEWEWQIsvooWXTGcnbRZc9lY4aG2Injx9h9P/w2jyDjBQIgAAIgAAIgAAIgAAIg0F4CdQgyd9XBwUi8BxIt5dIszzkW76fbJWFgabmpWN/FW0mRrXxbIQRZ7ZN85jLFxcqqWOsqRmuLdAUS5DRTWxZVSWzViG4su0J606Wm0pTpEIKsroFMx+v1CDIJ8bkXXs6WLF/FL+Ljx4+x+3/4HbZ757PtfQqgZyAAAiAAAiAAAiAAAiAAApyAKsiJrMZp1T4R5DoEOepXGuHOLjslibWUCh4bulMEuecEOU3fVlOypZ81Kdaugpx+KcC1O063Tqpz8Ug0bfOpj/9Nz9568xYsZBdceg2bPGUqHyNFjB+853vs6JFDPTtmDAwEQAAEQAAEQAAEQAAEeonAa173J3GUN0qx1glyKo1y1DZdCzmJrMopzh4RZH4cKdVbrljdWkHOpFHHV0YugiwJKNfHdAIv36PqHOSyCLIsyOryU/l+xH3jKdSxQJekWKftKXOOk/nI/SHIEydNYRdeejWjOcd00Z4aHmZrn/gpW7f6p2wkTlXvpYcGxgICIAACIAACIAACIAACvUqgXJANSz3x9OlUmnMpznFKtTwHOSvgqpB3UJCFgcvFu6Q1k8X5T1LERYp1nYIsV5CWxTo6pjrvN1btpMJ0lGJtK8iZNZo1gpxKfzw3mRezTvbKFuWSBVla4qlXI8grz72YrTrv4uQZQWnVu7ZvZadOndI+Nyg6/+TqR9jhQwd69bmCcYEACIAACIAACIAACIBAVxLICDKXxGprIYsZx6JQV1EhrMx8XnluckGxMOGvhesgx32P/iNLe1SJW/w++oeminXdgixUUhbddO6vkF1ulryP6hJLOkHOpjWHF2R1iaeoDxBk9U5XBdn0JDh58gS7+85vsb17dpo2xfsgAAIgAAIgAAIgAAIgAAINEggtyBlBzYhvVkx9BTny2GjZKbXgV5Ii7ijIiVur4hwygtwPgly0xFOs7j07BxmC3OATC4cCARAAARAAARAAARAAgRoJFAlyVkSL10IeGEirVecEFYKcrI8kVkrip9J2DrIpxbrpCLJYAzkag/sST5Ra/KlPfKTGyxlNgwAIgAAIgAAIgAAIgAAIgIA/gde89o/TJZkc1kJOV1uS5iFLqcx1pVhnxT2bKt0zEeRMgawo/JoR6zTNWUrNjrbIzgUumIOsKyKmm4OsplgLQU5rjOnmQpf0AYLsf6diTxAAARAAARAAARAAARAAgdoJ+ApyJKpKJWsHQU5FV5nzbJiDnN1Pil7zNyJc+XnQ2d+rc5CTXduSYt0pQZYj2+oc6ORnXsBLFna1WBgEufa7FgcAARAAARAAARAAARAAARCohUDdgiyElrtrgYBStDkt5hUtN5WdXywixbHoJu30oSCrFawJibzMUyLXI9IyTcqyS5kIsmYNZGowFeJUhhFBruUeRKMgAAIgAAIgAAIgAAIgAAItIRBUkLkES1WkJSGWl3pSi2vlBJmaGZTTp/WCLAp1yeswR12Q9uXyHYt1utAz/0WmUFiJwMunynuZJ5ciXWURZB9BVlOqTYJMc4W5eJesgRyJeXGKdRqNlpaaQop1S257dAMEQAAEQAAEQAAEQAAEQEBHQCfIQh7TatGyTMrVo5UUa0mQ+T8H0wivSZCTYwq5hSCnYinPQe5WQeb9Hh1FkS48h0AABEAABEAABEAABEAABFpLgASZQqw8ihvP/4UgK8W/pLPX4ghyOheYR3elFOu6I8jZatpxenYyUTkSfQhya58B6BgIgAAIgAAIgAAIgAAIgEBMwFaQhTRn1x9uKoIchaaTVOm0hHYk9mkONR9Vn6ZYy8WyePlq/krkVFpeKnSKNQQZzxMQAAEQAAEQAAEQAAEQAIFeINBWQRaFutJ5whDkqHCWMu+XSzCXYTdBzq/FHM8pTo5hPwcZgtwLjwKMAQRAAARAAARAAARAAARAoFZBpshukr4ds5YLd2mqWovoLwRZFMlK3bc2QdatgSyiz7xOV1LpOppHHE0nTvaS1l6O95IkO6rzhRRrPGpAAARAAARAAARAAARAAATaT8BHkGlUUWpzmmItfieqWKc/y0s4ZZd60lazThczzqZP93uKdXYesTLf2CKCnAptJLeZNY/j61TME9atgZwKMwS5/bc1eggCIAACIAACIAACIAACIOBDoA5B5nLMhTaNIEe/0wtyKtxxobB448z84hJBluVcHDsr6BGZNDqdL8JVtk6zzLVjRbp8BJkv06SsgZz7mWTZVpBH4+WfCiPIhjRvVLH2uUexDwiAAAiAAAiAAAiAAAiAQEMEcoKskdNspDeVy7RoVrqcUxoA9hPkRGS5W0sFuCDIctTYLoIMQW7oLsJhQAAEQAAEQAAEQAAEQAAEeoIABDk6jV0bQU6mAmuKdEGQe+IexSBAAARAAARAAARAAARAAAQaItBNgsxFNo4sC63NRLej4HZvLvNUlGIdSpAzc5J52nWyTpRUhAsp1g3dlzgMCIAACIAACIAACIAACIBABwg0IciR2MYzgDVVrJP3xXtRpa9cijUEOVnLWJ7rK66a/PxfXQTZtAZyVKUagtyBexGHBAEQAAEQAAEQAAEQAAEQ6DCBxgU5tlxtBWsIcrSocWZZJQImL7WkrIMsR5Cz8huvY6wU6fIVZC7bYrknFOnq8G2Lw4MACIBATGCAsYlTx7HhkyPs5NFhYAEBEAABEAABEKhIIIQg87WOk6rVUYfkKtaREyc1pJO1kcXvk/c1gpxuI4qDRW0lR5HXUu73FOsQgjw6EqdRRwsY81cSUc4JshrJLolix+1+6hMfqXjJYncQ6A4CYycOsat+YxWbNm8SGz5xij34pSfZro0HGuu8fHzdQR/5xka2+cc7G+sPDmQmcM5/W8yWXrGAb7jxvmfZ4/+1uXSnwTED7KKXLmcLVs7k222451m2+rtPmw+ELUAABEAABEAABAoJcEEmgR2MK1EXpDfr5v6mnioJMm9Mmgcs2oUgp+dAnu/LBTQpsNX5CLJJkEXEOhoDBBnPFhAoIgBBxrXhSsBVkGcunMIuf8VKNnbCGH6ow3uOsbs//QQ7fvik66GxPQiAAAiAAAiAQEygiiBzF6aorRxBhiBHEVcuvqlNZtcaFpef2E6I5oiyfJO2UJZOTGPNlo/LA8D5dZBNKdZVBbkwit0HEeSJEyezpSvOZgsWLmaTp0xlg4PRh9bjx4+xPTu3s9WPPsQO7N+Lh08DBGTRcDnczg372X2fXeOyS+G2nRbkoXFj2FnXLmSTZoxP+jhlzkQ2edYE/nM3R5AXXzSXnf+LS/k4Duw4wu7519U9kV7sKsh0bq9+9dlswrRxnMW+rYfZvbet5hkL/fKaPHMCu/o1Z7Pxk8d2JFOjXzhjnCAAAiDQTwTKBDkSYG7AJdWjWy7IPDoep2cnizSLFO00XbuxZZ4SaY4MOhJpCHJX33NjhobYORdcxpaeuYoNDESpGLrXyMgp9sRPH2Tr1jza1ePths5DkPVnSebSK4K85+mDXApHTsVzQrrhAi3oo6sgUzPzz5rJVj5/ITt57BR77FtP8S8M+uklC/KJo8P8y5KDfcagn843xgoCIAACTRCAIAt5FuFwSZqTHPL0TCTFxT75hf/gn8Yywqv8jAiyLP/R3OZem4M8ODjIzr3oCrZsxTnJVXJqeJjt27ubHT50gE2YMJHNnruAkUTT6/ixo+yHd97ODiKSXOvzbdEFc9iCs6J5meI1OGaQzVg4mY2dMMRODY8wEquRk9F1KV77th1m6364NUjfOh1B1g2iFwU5ZNQ/yImv0IiPIFc4XE/sKgsypZbf/akn2OG9x3pibBgECIAACIBAZwhAkIsFmc5IWhAsOj+1CXI0pRcp1p25DaoddWhoLLvoiuexGTPnsCd++gDbumVT5ouTiZMms6uufTGbNj0Stvt/+B2+DV7NEpCFtYkP0hDk+s6vnGINQa6Pcze0DEHuhrOEPoIACIBAdxHoB0Hmc6SlwmHRxGlFeCP7zUhwvYKcrs/EU6wLBVmqJE0d0hfH4u9k5z5jDnKjdyIv0z4wwEbiudbqwVeddwlbee5FEORGz0r2YD6CPGfpNHbpy1cwms/L77KRUXbiyDBPY33qwe1s5/r9bCSuHaAOTRXkh768jo2fMpatfP4i/l+6XigldNeG/WztXc+UR70GGJu3bAZb8bzT2ZS5E3l/6Flw7MAJtuXR3Wz93VvZqRPZaLgOtW8EWRZSandkeIT3naLwmx7YzvY+cyipet/EKZ67bDo/L2PGDjKTIMsCRdtufXw3O/vnFrNxk4bYoV1H2QNffJLP4b3oJcv4f08eG2ZP/mAr23j/s9oxUXs0t3vO0uls7MQxyXncs/kgW3Pn0+zQ7pLo5QBjC1bOYmf9zEI2ZfYEPv+H5gs/u2Yve/yOzfz8llWxVq9HlbVN5evor1x0PS27cgGbftpkNjQ+ur7pvFL0deN929kzj+wqvLZp/1nPmcrO/tnnsGnzJ7HBocHkenzqoZ1s04PPGq/HCVPHsSWXzWPzV8zk9wP1Qf5Gmrjs33qYPfClJ9nw8eI51eOoWvyrV7Gpcyfx4mQ+EWTKODnvxUs4l7V3bWEb7n22icsYxwABEAABEGgpgZ4S5PjvvlhQKvlbqwqyRoZ1c5AhyJplnkxVrMuKdNF7n/6Hj7b0Vqi3Wxdd/lx2xrKV7OiRw+xHd36THTrY3HI/9Y6se1r3EWRVDNXRCsGi6sEmQSahXnI5pdvn56mTDDzyzU1s62O7c+2QfFzwi0vZ6efOyqW0iI3p+Pd/fi2vYlz28hXksjnddF/veeoge+gr6/iXB028ZFF0EWQ6X8RTLly2Z8tBNmbMIBdF8aJx3HPbE+zgjqOZ4TznwrnsnBctTr4wUcdK55FE9+mfaJbPGmBczJdeMV97HulLBpo7u/jiebxZneyGEGSaYnDxS5ezOcumFV5PdPwD24/wpcmO7DueGebg4ABb9cLFXG7VFCur63GAsbOuXcSWX7mAn4uyl838cp/7Wj4mifo1rzmHTZweFTo7dvAErwSCPO5qAAAgAElEQVSujruJ6xrHAAEQAAEQaAeB3/y9P4rWKNYs80Q97KoiXbzD0hJTIlLcCUFWi3GJ8jHqEk/U516PIPMxj0YR7n4U5DOWr2QXXHIVv5meeOQh9uQTP23H3d9nvfD5ID17yTS29LL5CSmqAK1GuyiaTEWiVDmUj3fq5Ag7uPMIj3Lt2nSA7d60n42dNJYtOm82mzg9qjJ94shJdt9n17L9zx7OnJmzX5hKFd1Dxw+d5PIyNGEMm7FgciIZJFj3fmZ1aeTOV5DlOd0U9Zw8ewIbPymK+okXRdMp2kdRyLpfsihue2IPe+j/s3ce8FGU6R//pTeSkIQ0CJBAIKFIbyKIImClKKIieGI5z7+nd55dEe4s2BD1ivUU9UDBAirFQhOUDkonCQkJBJJASO+d/+d5l9m8u5nZmc1uQsrz/guwO/OW37wz7nee9k2K5pCyBZms/acP5gjr6CXXRoOyeqt9Rp1ZJzHrFB2AoTfXexMIC2dWqUgOFhjhJyzS1MgCvefLZOSfLraYU5f+IRh4Qw9hNabrWJZfidNkpa09j8j4IPh38kVJbrkZ1NUAmWpq9xwdafGSRc5MrmdBJiAdMq2nSOylNNq3yp6T10Hf56YXi6zu8jUlC3f8+K4gUFaAkvYjgaZ/qI85KyZps2t5UoPs4uG9OmLwjbHmNZBXRnlRlbDm09+V5uHrLjwk9n173OZ2ku+z8sIqbP/fUQG5RhsDslGl+DhWgBVgBdqPAgogm9yQTfWMxf9auBu3kizWdNmcAMiiGxV3a4vP9ZJ0NTUg11tqlc3acl2s2yMge3p5IyyiC3rFX4KAjsGoqqrE4X27cOqE9g/59vPYuTgrbQwga82U3GMHXN8DQVEdBOyQi7R1ci95POqHIGDPF8cEKCuNgGXY9F4I7RkoPkrfly0syUrzD/PBqNv7CPgiIKMsxacP55hdf+nH/fBbegs3VwK9Q2vTBHRptcYCslZ/tH6CPnpxQHCz77vjIGBt6iYDsh4UWmQ5LqsRAEWWdkULAkTrz2j+MiC7urmIesMEyXS9Tx3IwdENJ80vIwgW+0zohu5DTVbVrMQL0H6B9+Tzqe+zx/Lx+7fH68HTBYgZbgmeeutSNLYnsRfNr+/E7gJuaT8lbDyF9P3Z9a7kLkC3QWHoc1VX0f2xLaeRtves+Xt6mXPp7HjxUod0OPlbNhI2pJtdsWkfD7kxVljYaT8eXX9SHCM32i/0woUaWf9/W5ms645taz/J91ljS37JLtZHN6SL+5AbK8AKsAKsQPtVoDUCMl2tesu2VdwwA/KFOOWLGINcbyVXrOPtx4Lcu+9AEWus1ECmzXrieCKOHNiLmmrjVo2W8EjSc+eU5yi7uVqDoa21NDZmsDH6OBOQaXxyyR05M05kxVZzBbXWIWV7JpI2n24wdYrlHH5rbwEVZInbsTTBHHPZY1Qk+ow3wYoWMMkWOT1rqrMBmebVuW8IBk7uAYJAss4eWJPamMtj1zmkGY1JmpHr+rFfMzTP10ripGgh70EtffzDfDFqVjwo3lULwuglBtUkJouutSWTXiCQGy8do+W+bb1fnA3IdH1G3h4vYofpGZ2yNVNTN7Iwk6dCQWaJha6d+1241q4u4iUDlVSyttbGXRGF2NGdTQB8vBC7v0yyiOUecVscKIac2uGfTjQAaLs2AiC8GOglE10jclHXi1m2t38+nhVgBVgBVqD9KaAFyAqEtkQX6xYDyNYlnmhiFjG4pg/ErtJysTbXQNbKYq2RpKslW5DbMyB3i+mNwSPGNHiSUA3k9LRkHNm/BzU11a3iScOAbPsyycmB1KDJ2sWa4jnpRYJ18/LzwKV39BFWWOsXBsNm9AYBMNW43fNFkikZllWzmIcVYFsf2xSALMOfXjzwxdj4zgBksjAOuD5GvJklGE/WAPL+V3dH96HhwiK656tjyD1pyjUgJxWzFVcrW1edDcgUd037jLwOxD5bkqAbs25r/2i9DJGfGwTRNA6NpzR5D1Kit9RdWcg8nCs8LLixAqwAK8AKsAItQYH2BMgCrMkH20TYF/6Qyjypfa5RC9mFXKwZkOvLUpneA5jcvNszICs3NdVH9vbxQ0SXboiN6w8q9UTt3JlM7N62sVVAslq8o9ZDS64fTFY9yvIrJ0LSOq+6shaJm05Z/IBuqgdjYyzI5IpKbqPk/ipn+6U9Tpl1aa0UU6oHyOTOSoCck9YwOZvWvGSLn83EQS6AsMrFBGpaN9XgxDrG1pbu5ApO8dJdB4UKC6k5q7eiw4UMxG0VkBVLPl33g+TGflDdjZ1cmPtfHS3cl+XrLSd7s2Vlt8ddWu2a2oLqkO4BGD6jN9w8XXX3idZeUF7Y0PdaLwr0yi5RHD55TPgEmJJiKY00Iw8K8oLIOJwrYrm5sQKsACvACrACF0MBBuRmAOT6tCP1FuZ6y7ICmRp1kFu4BdnSks2ArHYTe3h4YuTYiQgJDRcvD/bt/pVjkS/C085eQCZ32KE39UJwN3/d2ToCyFplauxxVVcmqBeD2RgLMlmIKc6Z/tRrbRWQbWXxVtPEFiDbgtimBGTZsqu3T7Sus+werfWCRQ+QqW+K4afkc2RZpxdM1o3i2an0FcXjMyjr3XX8PSvACrACrICzFbAHkGnshrG/Jmus+B9z1mgpk7SSHVscc6FdSAhW35+pX3NiLI1EYabjTX00JgZZnKdhQTZ9p2JZdoYFmQG5/cQga92gncIiMeryiXBzc0fGqTTs3f6zs+9l7k9HAbsA2QUYMi0WkX2CRa+UhZpcYykDtZLRl8CWLIaevh4OWZDl+FZK4LVzaaKoMSxbkI1eXD3wsReQydo4cmY8grp0EFMgWCEILsgoUd7xCU+BbkPCRFbitgrIciy4kWthC5ApZvrwTydVu2lKQKZrSInGPLzdRKI4ZZ8ZWY9yjDMsyPJ45JkQ0s1fxLETwCv1wZVj1LJo2zNfPpYVYAVYAVaAFWiMAgzI9S+vWxQgK7HJSvCyZWyznLFauewXJ4s1W5CN3XZBwaG49IqrQdbkvJyz2LFlXatwsza2utZxlD2ATNZSitek+GCKo6TySZR4SW72xCDbcrGmsjmUNZje+lknNaKMwATpVAooYWO6+N5Wq6utQzmVuJHfykkn2AvIstWRXhDs/iKpQcbh9hCDLCenogzUCZtOaWpMctNzsaKk2vwyJSIuCIOnxYqXHufSCkXpJLVr1FwxyLQfKaM6XVN7mrx/GhuDbGs8ct2nGO7YyyKFG791LLc9c+VjWQFWgBVgBViBxirQFgGZtLC0aJvKVCmfm/5ilf26pVmQGZAbu6Vb5nldo2MxeMRYAUGZp9Kwhy3IzX6h7AFkGQy1LH4W2aezy0RG3+ry+rhJeTwtQCY3bsosTPHeamWaug0OQ/9ruot9Q/GZBOrW9ZbtEVIGHFvJppQ+5dhZrYzDUZd0wiXXx4jSQW3Vgiy/MKFrSXWX9V5WyNdF9hKg2r6UqbysoNLi0jVHFmulVBUN3KDUlIGN5Iws1nrDkFWZssPT/UXNnlh5vb75e1aAFWAFWAFWwIgCDMjNaEG2ro1MF0gri3VLBuT6dVhbsttnDLK7uwfc3N1RWVGues+FR0Zh8MjL4eVliuE8sn83UpIOG7k/+RgnKmAPIMsJjUTW4WVJ9TVrAZEJmOJyyb2Yysw0JgaZ+hg8tac5xpkyVBMAk9VMaXLdWfos/3QJDq5NRUluRaOUUZJI0ck0512f2wZuOXsz1VcWJZwk63RghB+G3BQryheRxa+tAjIF4Mgu9/SSgl4YUL1jLWu9fIFIG3oR0rGzKVnfyd+zcXTdSXP9YOq/Oeogd+kfIupWU9wvPcfPJNoX50t7ljwraN8bqYOsV5dbbRMHRflj6PRY4b1BoQ1a2d8bdQNonCTXQT72y2mk7jrjzO65L1aAFWAFWIFWpkBjAZmWaYobbnkxyGJuFjHR2hZkZR2mc5o4BrltA7Kc0VoUYRaNQF+s+0J26yUf/KuV3SL60w0OCRPu07TpiosKUFSYL07y8PRCcEgovLx9zJ3Q99t+/kETpvVH4yMaq4A9gCzXtKX9W3yuXGTXra2qRUh0IDpFBwi3ZyrjQ+6zFJt7NrkAhVmlAhLJLVsej44lSzRZDQmoKeN0UFQHc4Ki8sJK7PkyWcSGWjdhRb66u/lY4b5bVCXmRMmMCHb8QrxRV31eALZcUse6L/8wH4y6vY8AWmpkDaU5U0ZugnHfIC+RGCnzSK74Xj6exs0/VYKzKQXiu7CegcLKV1FcjbLCShFLSrVzMxPyUJJThuyUwgY1cht77Rw5zxllnmh8siKPuj0e3lL2ZYoVp9q7pB810pAg8tAPaSLJlNzk6yjvKdobkfFB8O/ki5yThQjvFSROs07mRcAYP74rPLzcLPqlrOJKAjXadyU59S/qaL8d+yVDXGdqZJ0dMq0nqM6x0mgPleZXojTXdJ6yn+gZTm7YpfmWL2PIBbrfxG7m/UgZ1sm7gdbtH+pj/lzthQ/1T2EDlJyL5kR7WInpp7nR+XIcMq2FrO2OeE3o7R2aN9Wo9gk0ZdW2mTFerzP+nhVgBVgBVqBNKKAKyOI/klaJsyxckuvdkxmQrbaBWh3kBjWQ6RxzfWT1LNatz4LcfgG5c1Q0hl82XveBUJifK1yrS0salvrRPZkPcFgBewCZBrMGAXkCdJ+f2JstYOSSa6Mt5qa4hBrJQk395J0qwf7vjtuESYpDpnE8vE1gq9YIIrb/76jt2rYuQN8J3RE9LKw+q6JVZxRfm7ozy/SpzvEEV0fWp8MvyAsUS600WzHXDl9IOztwFiDTsGQ5HTq9FwLCfW3OQtUdXUdLelGReTRXZHemZg3I8jqMSqDm2UAgSnuJrMnmzJoqHWrW3nYB+ozvhpgR4ZrnE6jv+fJYw70olSTTWwPt59+/TUHuiaZ9XjIg610J/p4VYAVYgfanAAOykhG71ViQTe6XlsmxxCfSZyYLrtl6a3F8PcjWQ/qF/qQaxgLQheH3wvGmf4hT1F2s2y8gBwaFIKZnPELCIoS1mBJxKa2ysgL5OdlIT0vGmcx0Sbv297C52Cu2F5BpvmTl7XtVNwFEBBYEhOTeTPCScSgH5Jp5yXUxFktTAJksxcMIpiJ8hdVYgRHqg6y8lBH7xJ6zKDxTakgagmOKCaYxCdRoPsqzgCyYZL3d991xYc2z1ShWmOCfAIesoTQvpa4zWfSOb89C9nGTlVg0FyAiLhi9x3YR5XnIwkhWPxoneWsmslMLhEbtAZBJDq3a2PQdvRiga0EuurRHGjQVLekcimcmqCaXdQJwNw/XJgNkZU5kee45KrJB9mhlL1BSugOrU4Urvto6yHugz5Vd6++NC54NJ38/hxO/nWmQzI36IFdziqkP7dFRZNOWSzzJ45IHQ/r+c81W4kl2sT66IR3p+7IN3ZN8ECvACrACrEDbVMCZgCx+SpFJWfyvlATrQgknvTJPyvni3AsWbHOf5v4u/GQzW7RNvxHlElOmn3Ry2ak25WJtAJDr6qHW2qJt8W8z/DIgt83bm1fV1ArQD34C78riqvp40qYetAX2Txq4e7jazKDdAqfd4qZELz3cPV2b1KW4xS2aJ8QKsAKsACvACrQwBVosIF8IhWJAVmJ5FZg971xAtnD/ZgtyC7s9eTqsACvACrACrAArwAqwAqwAK9CcCjQnIJssuxeSelmVWVIswCLxl2ItdpVLMSl/N6lTf3w7siCbrL+Si3R9KLOli7WOBdnsIk1AfGG3yYm05PjneouzAubsYt2cNyiPxQqwAqwAK8AKsAKsACvACrACzaeAUwBZAKsEqlLNYZPLdb27s3WmaBmMFfC1B5CFM7XU/wW2bpsu1gzIzXdj8EisACvACrACrAArwAqwAqwAK9D+FGBAbmFJuiySYtF+lFysWyogm7y/bSTpqqt3C2+LZZ7a32ODV8wKsAKsACvACrACrAArwAq0TQXMgCxifl3N7s3WZZ5MlloFJq3KPLVQC7JikTZZsE3XT7FOmz+Q3bVNJ5iOs/pTvvrCYv3xV2vPW9Q1vnCEo2We2hIgK67a5xmQ2+bTg1fFCrACrAArwAqwAqwAK8AKtDEFrAHZDJFWdZAZkOsvfIsGZFMssWmyWmWenB2DrGVBZkBuY08LXg4rwAqwAqwAK8AKsAKsACvQxhVoyYBsacVWT9JlKwbZbAlu+xZknRrEVnWQnQPI8pgXcNycabu+DrP4hi3IbfwxwstjBVgBVoAVYAVYAVaAFWAF2oYCeoBshkwLF2vx6YXkWCYdmiJJl5abd/2c5HmYfahN82lQh/nCPM1ZvMxVmevdqU0dX1iP5Z/y1W6BFmQG5LZxO/IqWAFWgBVgBVgBVoAVYAVYAVbgYirAgNwmknQ1LSALV2mzdVgp88QW5It54/LYrAArwAqwAqwAK8AKsAKsACvgfAWcBcgiEdYFq3KDUkuNLPPEFmS63oayWNsGZDmZGP3dXhdrBmTn33jcIyvACrACrAArwAqwAqwAK8AKtDwFWgogkzJKPeP6TNP1n5mUk7JRK2mpbdRBVvps9VmsLTNj18Ow4GeNEkvmBFkyEF+IRW4sIF8wIl8AbLYgt7zbmWfECrACrAArwAqwAqwAK8AKsAKOKOAoIJsg1PT/HLEgy4B8AYWJh83QrAfI9TBsPtKE1KbaVK27zJMWICvAqlaD2B5AtgBmAur6NNgChhULsiOArIzBdZAduV35XFaAFWAFWAFWgBVgBVgBVoAVaEoFCJDNcOrqavq7IFPrWsByHeQLR5kTWukDsnkMM1Fbw6/lv+U5KDWJxaQuALn8mUXNYqt6xwzIWhZkJaZYynBN5uh6IDZtO0cB2VR2qt6tmwG5KW9n7psVYAVYAVaAFWAFWAFWgBVgBRxRQAZkk6XVZAl2CJBN/CxZlOszQptzRytjmV2lGZAtQNLaiqvAqqW1WLn0DWOQ1SzIFpZoBmRH7hs+lxVgBVgBVoAVYAVYAVaAFWAF2qACFxuQBUtLpZXMf5cgnS3Icn3hC+7PpmRbDMht8J7kJbECrAArwAqwAoiNjYWvry9OnjyJwsJCVoQVYAVYAVagmRRgQG4FZZ6cFYPMFuRmuqt4GFaAFWAF2pECHTt2QHR0OE6cOIuCgpJ2tHLnLtXHxweTJ0/GhAkT0LFjR7i5uaG6uhpLly7FmjVrnDsY98YKsAKsACugqQADMgOyZdknc1Iu057hGGR+erACrAAr0D4UiI6OwEsv3Y3w8CBUV9fgv//9HitW/Gpz8aNG9cFjj92CoKAOKC+vwgcfrMWqVdvbh2BOXOXAgQNx//33IywszKJXBmQnisxdsQKsACtgUAEGZAZkBmSDNwsfxgqwAqxAW1agMYD89NMzMWHCELMsv/+ejMcf/6Aty+T0tY0aNQr33XcfAgMDRd+1tbVIT0/HgQMHcOTIERw/fpxdrJ2uOnfICrACrIC2AgzIDMgMyE38hHB398Cl4yYhuFM4ystK8euGNSgvL23iUZ3Xvad/J0SMmoaguNHw9A+Bq7un6UdcVTnKc9KR/dv3yDm4Eefras2Ddp/0J0SMnKY5CeXcrB0rkZ+4zeJcOsk7KBJ973oDHn4dDS+k7GwaEpY8iZryYtVzYqc/g5C+Y83fFaTsRdLy+UoxcYtzwgZfg5gb/mp4bOVAeQ7uPv7oc8er8A2PMdxPdWkBjn78CCryswyfo3VgYzQ0XdcKJH/1AgpTf3dYRyPXsrayFKVZKcjasQIFx/c2uB6yjo3VpzHX88yub3Fy3fsOX4fW1EFjAPnee6/DLbeMg5ubqQzGhg2/4+WXl7WmZV/UuRIUP/vss+jRo4eYR15eHj766CPs3Lnzos6LB2cFWAFWoD0rwIDMgMyA7IQngAzBVZUV2Lb5RxQV5ImeWysgu7i6oeuVf0D4iGlmKNaSqvTMcSR/vQCVF8BOD5CVfs6fr0Ph8d9x/JtXUVNRH7vYGLizBcgeHYLQ986F8A7uYl5CVWE2jnzyKKqKchosqzFARZ20dUC2V0cjgCzvhYJju5Cy8hXU1VSZrwkDshMeUAa7aAwgU/zxQw9Nw+DBsUhOzsCbb67AmTOmZx83fQVmz56NqVOnwtXVFcXFxXjvvfcYjvVl4yNYAVaAFWhSBRiQGZAZkJ1wi/n4+mHsVTeA/iwpKsSvm9aCQLnVArKLC7pPvA/hI6bAxcVkGSILcUVeJipyT8PVwxN+EbFw9zW5BNJ3J354G9m//yD+LQNyaVayBYQSePtG9BTWaKWd278OqWveMlsPZUAmcC45nYjztdU2r1RlwRmc3rxEWLatW2CPIeg1Y56Yd2HKXgT2HCoOOf7dIuQe/rnB8QHRAxExYmqDzzt0iYNHh2CxXppTTXmRxTHyHGSwq6uuRPGpI6A/bbWailKc2vgRyFLqaCPre9er7oG7t59FV54BneAX2Ut8Vp6bgYqcdIvv62qqkbltuYB9R3Wk821dSzcvX/iG9wBpJfbR+Tpk/LoMGVuWmod2NiCrrVlN67ykHcg5sN7Ry9Cqzm8MILeqBbawyVK88fz58xEZGSn+O7xx40a8++67LWyWPB1WgBVgBdqfAgzIDMgMyE647zuFRWLU5RPh5uaOMxnp2L1to1nX1mhBDhtyLaKv/TMIZglaCpJ2InXtv1BTJpUacXFBp0vGC5DO2LoMZ3Z/ZwZcGZDT1vwT2ft+tFTZxQWdR9+CqCvuEGNQvwlLnkZZtgnKZKjSc502cvmU+dSUFSFt7b/E2sgaSgB0fNUbRroQx8TPehGBPYbquiHTsc4AO8MTs+NA2TpurxtxY3TUu5Z0/bvRy5jhN4iXMdbX2xk6OrJmO6Rt9YcyIDfvJRw/fjzuvfdeeHl5oaioCG+++SYOHjzYvJPg0VgBVoAVYAUaKMCAzIDMgOyEB0OP3v1wyeCRoqekI/uReLg+frO1ATJZhckd2adTV7Ge7N/W4sSP7zaIE1Zkc3HzaGDd1QVkQLhtx896Cf7d+gkIT139ltlipwdV9lwyN08fxM9+GWT9JVfwxM/moveMZ+HfrX8DGNPrtz0DcmN1NHItyardb84ieAaGCeu5HIfdFgB5+vSx+OMfr4OHhzt27Dgqsj1fdlk/eHq6Iy3tDF577QtcccVATJ06Gj4+XigsLMU332zFkiUbVLfk0KG9MXv2BMTGdoaPjydcXFxQXl4p+vr8801iDK0WEREs5jJsWG/4+XmLw4qLy7Bx4z788MNuvPDCXTazWL/wwhyMHt1PtXujma/pZCphdNNNYzBp0lB07hwCb+8LuQ1q65CbW4Sff94v1k/rUmuk04wZl+O660YiOLiD6I+SW+XllWDTpn02z1X6o3VMmzYaPXqYdFTmoHxfUVGFY8dO429/axqrLmWtnjhxohiOwPi5557TewTx96wAK8AKsALNoAADMgMyA7ITbrSBw0Yjume80JKsx2RFVlprA+SQ/lei59RHhWWX3KnJsltV3DBO15ZsRgCZztc6zghUGb1slCSrz+xX4O4bYLYYd7l8FqLGzTZkCZbHac+A3FgdjVxLr44R6DvndeF2X5GXgaOfPo7qknwhfVsD5IyMHAQF+cPX18u8tRIT0xEZGYLAwHp3+JycQjz77Mcirldu9913vQBLgm21RpC6cuVWUW7JuvXq1QXz5s1Gly6dGnxHzy4C6549Ozc5IHfrFoZnnrldAD7BvVbLysrDW2+twN69xywOIcifN28W4uK6ap5/4sQZvPLK8gb6UUcUN006DBjQA66u2uPTsU2ZlXvBggWIj48Xa1u7di0WL15s9LHGx7ECrAArwAo0oQIMyAzIDMgO3mDuHh4YNXYSQkLDUV1Vie1bfkJBXj1QtjZAjr72AYQPmyxUsdcFV5GyJQFyxMgb0W3ivcL9W4k5VmKS3Ty9cXrLUmT88pmhXdCeAbmxOuoBsuxibdpz3yB9/Yfm69HWALm2tk5YR1NTszBr1lXCiqv2mZo1dtq0y0CA7OXlIfSprKxGZmausJx27tzJDN1koX7nnVX4/vtdZh3Jwrpo0Z9wySWmrOp0DlmcExJOISDAB4MH90JdXZ34jgBSyxpM1udBg2Klfl0RFRUqLLBGLMjU94IFdyM+3uShQq2srBKZmaZnprwO+jfN8bHH3kdBgSmJH63juef+gEsv7Sv+TWCfn1+C7OwChIYGipcPCvTSi4enn16MoiLLqgEPPzwdN9ww0gzXpH9+fjFycixzCtALi6NHT+Kllz439Hyw5yBax2uvvYbo6GhwrWN7lONjWQFWgBVoegUYkBmQGZAdvM9sJeiirlsVILu4IP52irMdIlyqtZJY6UlmBJDJNTtu5vMIjBnUYCw9qNIb3/y9iwvibnseHWOHCYskWSbJQilnYy5OP4yEpc/oJgGjPtstIDugo60kXXKyN3Kzzz30s4gRb8os1o196WN4z6kcKLtYE8jNnbtYAPL77z+M2NguAu6sP7OGzYAAPwG4PXqYEjqRZfONN+ozRpPL8dy5t2PUqD4C/AjsHn74XQHC1MaNG4jHHpshIJo+W7VqB/7zn+/MsyWrLIEnzYeaEdil4+yNW/7zn6cKV3IqC0VjfPfddnzwwffmeRI43nffdeIYaj/+uBf//ve35u/JpfqBB6YIIKd1rF27W6xDWeeDD07FlCmXCpBWWwPp+NZb/4fu3cNF/7t2JeKFF5ZqunI7ct1tndu1a1fMnTsXoaGhqKiowDvvvINt27Y11XDcLyvACrACrIAdCjAgMyAzINtxw6gdGhwShkuvuFqAsHWCrtYGyLK1Tq8eri3ZdAHZxUVkie424V7hyl1VdA5HP30ClAWamj1ZrCk5WNGJA6rTkWNbrUFYqYtsnSDM1roaC8h6WaybM2NyYxJWOaKjXskuemFRkLwbWbu+BZXesm7OtiDbymLtzCzi8jpkQD57Nh/PPLMY5AKsAFtGe5UAACAASURBVLLaZ9ZwRzHKBLgEwvLx8jjkQv3ii3ehU6dAEcf8j3/8DwcPpopDCEzJNZsawfmjj77fwLIqz7MpAFmGU4L8TZv2a1pnZ84cD3IzX7/+N4st8fTTMzFhwhDxmbV1mT4jMCYA7tu3uzhm+/YjmDfvE3Mf9gK9g/950DxdBuSysjK8/vrrOHBA/TnWVHPgflkBVoAVYAXUFWBAZkBmQHbw6dAtpjcGjzD98LRO0EWftSYLclMAsmqZp/Ae8PAPFlmLyXJo7VarB1XyJVPNkn3hADme2tqVWmTqvu5BceSJ7/9jLlFlazs0FpD1tlhzWjUbA8iO6Gj0WppKZyXgxE/voezMcbNkzgZkW9fCOkGY3nUz+r0zAJlcm2+99QphHd6w4Xe8/PIy1eHJfZmsyFVVNXj33dVYtWq7OE75nP6+du0uvPHG1w3OJ7fn55+fg5CQgCaxIA8Z0gvz598Bf38flJSUCzgmC649TXmpYGsd//d/k0Gak1YnT54VlnTFzZoA+u23HwK9TKBGrtsbNpgSlNFLi+ZqDMjNpTSPwwqwAqyA/QowIDMgMyDbf99YnKEk6KIP92zbhMzTJyy+b++AbEte4VZ7eAvS1rxl4VZrFKqob1uA3HPKI+g0cKJqMi456VTu0V+RsuIl3Z3QXgHZER313OUpO3Zw/GWIGj9HJOmqrSxDysqXUZCyV1wPBuRfhQ6PPHIzrr9+pHhef/HFZvz3v9+r7lfFUmxtAVbAkuJtP/nkJ5Ht2ro1xrpqzzlTpowGwStl79aygtu6CaOiOuGVV/6IyMhgEbe9bNkmfPzxTw1O0XohoRx4882X4+67rzHHciufU8ZsSqK2e3cSVqz41Rz3rPtgaMQBDMiNEI1PYQVYAVagmRRgQGZAZkB24GbTS9AlfuC7e+DScZMQ3Ckc5WWl+HXDGpSXWyaNcWAKzj1VjkG2Kr1kz0Cyi7XWeWQxPLXpY2TtXGmun6wcqwdVRuYig5WaizOVmeoQ1QduXr4NMidr9d9YQG4qy6QRHayPsdeC7KiORq8lvbCIm/mCgOTynFMiXpzc350NyM1prVe0d4YF2VZ5JbV9oAXItlyn7YFdZUx7ztEDV739bHQsI+Nce+1wkBs3ZQ9Xy2RNOpF1+803VzQJKFPs8fz589G5c2dO0qV34fl7VoAVYAWaWQEGZAZkBmQHbjpvH1+Mvep6+Pr5o6amGtlZp1FTU2PRI7n0dQrvDC8vb/MxhQX5OJ50GLW1lsc6MBWnnapYC6nDnAPrcXzVG3b3bSsGOXL0zeg6/i7hXp1/bBeSv17QIEGWUaiyNTGqr0wJugiA9dr52mokr3gF+Ukmd1QG5HoFHNXRnmupxIXL14MB2dKCrLeXle9bIiBfc81wPPTQNFFvWE5MZnRNzrIgy+OFhwfhuutGiMzclABNLr9Fx1GJKYoZV5KAGZ2rkeNeffVVxMbGiuzhK1euxLJl6m7zRvriY1gBVoAVYAWcpwADMgMyA7ID95OcoMuebvJyzmLHlnUCmFtaCx0wATGTH1ZNnmV0rrYA2dO/E/rc8TK8Q6JAlt3j3y5EXqJl9lZ7oEprTkqtY6NzNmJZbI8WZEd1tOdaqu0bBmQTIN9119XC4knZn6l80SefrENd3XnN7U2u2JSMSymPtHDhfaAYYGpUJ/ntt+szWCudNGcMMpWoojlQPLQ9zdEYZL2xKDb5zjsnYcSIOJHwq7i4HM8/v0RkDXd2e/zxxzFq1CjR7c6dO7Fw4UJnD8H9sQKsACvACjRCAQZkBmQG5EbcOMopcoIue7ppyYDs1TECfe98DZ4BoWJJ+Uk7kLLyFYsYYb216mWxlq3IRScPIunzeZoxyGVn05Cw5EnUlBfrDWv+nkpI9Zn9Evy79UdNWRESlj4F6se6eQd3Qd87F4qyTyWZSUhY8jTqqso1x2lvgOwMHY0CMrm8x8+ia9ZPJG5LXf2W8GBgQDYB8siR8XjmmdvRoYOPqH+8ePGP+PrrXwzfE0oMM51gXQJK6aQ5slgrpapozMTEU6K8lQLxRhbjaBZrI2P06xeN5567E0FB2vWgjfSjd8z06dNx6623ChDPzMzE888/j3Pnzumdxt+zAqwAK8AKNLECDMgMyAzITXyTtaoY5AtadBk3G13GzjRnmS45lYATP7yNsuyGkElg4x3SxQJA9QBZtiJTLHLqqkXIOfSz+UoYhSqtS2cBvhlJSFz6NGpVwFcGwNqKUiQumycyKWu19gbIztDRyLWkUl9RV/wBkZdOF54L8rVgQDYBMkEUweUll8SIf5eWVghA/uyzTYbcf2X3ZnK//vTT9SLJldKaqw4yJce67bYrxHrIyn348AmRUTs9vWGJL7X7cNKkYfjLX6aJcld6dZAba6W+555rMWPG5fDwcEdZWSUWLPgMO3dqPxca+5+Qvn37gqzIAQGUNbwaS5cuxZo1axrbHZ/HCrACrAAr4CQFGJAZkBmQnXQzaXXTGgGZoDf2pqcQFHepeVlk1aspLURZdirqqqsEyPiEdhOW5vJz6RZWXj1Apk5lKzJBacJnc83WW3vqICsTpBrKpzcvESCslHCiOGc912nZhTh9w4fI2rHC6YCsVwdZGbCp6vDKC7InSZczdNS7lhQj7hfZyyJWXI5N10sSpnaxrHWU12yrDrLclzNrUzsjSRfNjco3PfHErQgM9DNPlTIvnzmTL6zK1Oi7gABfLF/+s0WmaqpB/PLLdyM+vps4jrJAJydniP8LCPDB4MG9RGmnmppaUFyuWjKvqVNHgwBVbuTyHRUVCh8fT9EnZYEmqFTa/v0pFhm3O3bsIEpOkTu30gh08/NLkJNTJD6ipFmhoR1FbO6rr36B3347Zj6WwPof/7gDl17aV5RxIsimcymmOTQ0EEFB/uakW4cOpYl6z3L8MK3t1Vf/iE6dAlBRUY1z5wrMrupeXh5i7bQW6puaVs1oZ/1nY968eRg0aNCFsVLx4osvorCw0Fndcz+sACvACrACjVCAAZkBmQG5ETeOPae0RkAWP1LdPdF1/ByEDb1e/N1Ws7a+GgFkayvyyZ/ew9m9JuuJPWWelHnJrthqyZ605h/YYwh6zZgHN09vUVooafn8Blm1lXMba0E2ul+aI9u1PYDsDB3tvZZ0HY999QIq87OEbDIgN1ZHec1G+9B7sWK0HzrOWYBMfQ0b1hsPPzxdlDqy1dTijCm+9u9//4PquQSa27YdQUREEGJju6gC8v3334AZM8bZs3Rs334E8+Z9YnEOQfK8ebMxYEAP1QzSysEVFVX497+/xY8/7mlw/oIFdyEurqsZZK0nRTWNX3lluXgBIDdKxEWAHhbWUXcdublFwrrdFNZjZfChQ4fiwQcfFFZkugZ79+4VschNkRRMd8F8ACvACrACrIBQgAGZAZkBuYkfBq0VkBVZCGTDh08W1mTPgE6gurXUyDWayvCUZB5D9u8/oChtvzmO2AggUx+yK7cMuPZCFfWlnO/i5i7iisk9uKowG0c+eRRVRTmaV5nij5Xjq0vyRXmhijzLH9XKye0JkGVdHNHRyLWkvVRVdE7sozN7VlvEgTMgm1ys5UbuxWTNveqqwejcOURkhVZaVVWNsCb//PN+/POfKxucS67Uf/zjdQK0/fy8xffkrr158wG8994aPPvsLGGpVrMgOwuQlUmNHt0P06ZdBgJ3iq1Wyi0RKBIcFxSU4oMP1uCXXw6pakBu0NddNxLBwR2EyzZBZV5eCTZt2oclSzaArOvWjaD6scdmiJcEXl6eFoBOSc8qK6uENXr37kQsX77Zrvjoxv6n5J577sHVV19tdjvPyMjAF198ge3bbWfVb+x4fB4rwAqwAqyAbQUYkBmQGZD5KcEKsAKsACsgFKBawwSWZ8/msyLNpADB/f33349x48YJSFZaZWUlKioqsHz5cqxbt66ZZsPDsAKsACvACjAgMyAzIPNzgBVgBVgBVoAVuMgKjB8/HjNnzkRwcL37PCfvusgXhYdnBViBdqkAAzIDMgNyu7z1edGsACvACrACLU0BsiAPHz4cFJscFRUlEpWtXr1a1EnmxgqwAqwAK9A8CjAgMyAzIDfPvcajsAKsACvACrACrAArwAqwAqxAC1eAAZkBmQG5hd+kPD1WgBVgBVgBVoAVYAVYAVaAFWgeBRiQGZAZkJvnXuNRWAFWgBVgBVgBVoAVYAVYAVaghSvAgMyAzIDcwm9Snh4rwAqwAqwAK8AKsAKsACvACjSPAgzIDMgMyM1zr/EorAArwAqwAqwAK8AKsAKsACvQwhVgQGZAZkBu4TcpT48VYAVYAVaAFWAFWAFWgBVgBZpHAQZkBmQG5Oa513gUVoAVYAVYAVaAFWAFWAFWgBVo4QowIDMgMyC38JuUp8cKsAKsACvACrACrAArwAqwAs2jAAMyAzIDcvPcazwKK8AKsAKsACvACrACrAArwAq0cAUYkBmQGZBb+E3K02MFWAFWgBVgBVgBVoAVYAVYgeZRgAGZAZkBuXnuNR6FFWAFWAFWgBVgBVgBVoAVYAVauAIMyAzIDMgt/Cbl6bECrAArwAqwAqwAK8AKsAKsQPMowIDMgMyA3Dz3Go/CCrACrEC7UCA2Nha+vr44efIkCgsL29yaAwMD0b17d5SVlSElJaXNrY8XxAqwAqxAe1eAAZkBmQG5vT8FeP2sACvACjiggI+PDyZPnowJEyagY8eOcHNzQ3V1NZYuXYo1a9Y40HPLPPWGG27A7Nmz4eHhgdraWpw9exbr16/H2rVrxb+5sQKsACvACrRuBRiQGZAZkFv3PcyzZwVYAVbgoikwcOBA3H///QgLC7OYQ3sBZGXR58+fx6lTp/Duu+/i2LFjF+168MCsACvACrACjivAgMyAzIDs+H3EPbACrAAr0O4UGDVqFO677z6QyzE1sp6mp6fjwIEDOHLkCI4fP95mXazj4uIwYMAA9O/fH126dIGrq6vQIDs7GwsXLkRqamq72w+8YFaAFWAF2ooCDMgMyAzITribO0dFY/hl43V7qq6uwo7NPyE/75zusXwAK9DaFYi8dDq6TbhXLOPMrm9xct37NpfU5fJZiBo32+bxngGd0G/OIngGmiyW58/X4cT3/0H27z9o9t190p8QMXKa5ve1VeUoz0lH1o6VyE/chvN1tt1kfTp1ReToGQiMGQyPDkFwcXUzAWJlKUqzUpC1YwUKju+lyZnHjJ/1IgJ7DEVtVQWSv3oBham/N5iPd1Ak+t71Bjz8OqLsbBoSljyJmvJi1Xl3iOqD+JkvwM3bzzS2jX7pe7lvtQ5Jx+qSfBSk7EHGls9QVZxj81oRFD/77LPo0aOHOC4vLw8fffQRdu7cqbtt/QP9MPHGKzBgRF8EdeoIDw93cU5VZRXOZJzD5jXbsPPn32z2Q27ck266AmOuHomAjh2EWzcBelFBCfb+sh/ff7URleWVtvdbdCRm3D0Z3WKj4O3jJY6tKK/E6bRM/PDVRiTsT9ZdCx0wadIkzJo1Cx06dBDHJycnY8GCBSguVr92hjq1cZD1tSzPOYWjnz6OmjLLeG9536et+Sey9/3YoFdXTx9EDJ+MsCHXwjMgVOxl2gtVheeQe3gzsnZ8jZqKEovz9PaS1tT19qi9usjrozmnr/8QZ3Z9ozlX63vK6P0WNvgaxNzwV9Gv9XPMiMa21mV0DvZqw8ezAqyAYwowIDMgMyA7dg+JsxmQnSAid9HmFJAhriQjCYlLnwbBqFpzcfNAn9kvwb9bf5yvrUbyileQn7S9waFBcaPRa/pToOOVlnv0V6SseElTPz1AVk6kH9mFx3/H8W9ebQAFdAzBRMx1DyGk/zi4uJgshmpNrR9nA7L88kGZw+ktS5Hxy2eqc7IHagiI0tb+G3lHf9FcI8XgTp06VVhOCQTfe+89Q3A8fvIYXDvjKvj5+2rrV3ceB/YcxUcLP1ON6SXA/r+5d6F7bBRcXFxU+8k4kYWPFn2OM6ezVb+/8oYxmDLranh5e6p+X11VjQ3f/YLVn68zdF9SDPbtt98OT09P1NTU4Msvv8SKFSsMnWvvQdbXkl7opK1+C+cObrDoSg/efMOi0fvWf8CrY7jmFKqKziF5xcsoOZ1gPsaevSR33JSATOOUZCYhYcnTqJOeMbYA1CicMiDbu0P5eFag9SvAgMyAzIDshPtYBuSy0hLkZGep/3Cuq0Ny4iGUlhQ5YVTughVo2Qq4+/ijzx2vwjc8BjVlRUhY+pSwjKo17+Au6HvnQmGRrcjLEBYxsmhaN+VHf3VpASoLzqBDl3hUFWbjyCePoqpI3eopg0JpVrLFcWQx843oCU//EPNQ5/avQ+qatywswK7unoi96SkExV1qPq6upgpkvaPx3bx84RfZS/xJrbayzGQpTtsv/u1UQHZxQdxtz6Nj7DCU52YA5+tAVm1bLyFkGCAALjmdKF5EKM3dNxAdusSZreHVZYVI+vxZYRG3bhRvPH/+fERGRor/fmzcuFHE3uq1q6aMFVDq4Wl6uXG+7jxKikuRn1MAd3d3hEaGmL+rranF2i824MevNzXo9r6n/oCBI/oKOKbxiwtLkHeuAB1DAhHY0R8uriZoJgvwOy9+3ACy+w+Lxx8eugUdAkzW95rqGmRnmvaOPAeyQH/27krs/dV0DfXaI488gssuu0wcRhm8//73vzeJFVkNUPMStiKZXhJJXgu2ANnTvxP63PEyvEOiTNfifB3Ks0+Ke4qA2Se0u3kvECQnLZuPsuwT4ljycOh61T1wv+C9oOhC3h10D1CjfVmRk24hWV1NNTK3Ldd8Bujpa/299YsvuueSls9HcfoR86EMyPaqysezAqwAKcCAzIDMgOyEZ4EMyImH9yHpyD4n9MpdsAKtX4GeUx5Bp4ETdV2hQ/pfiZ5THxU/yrUswjJwF6cfRu6RX9D9mvuBulpNizMpqGdJg4sLOo++BVFX3CHGJ1dVskSVZdfDfLeJ9yJi5I3CckwWu7N71+DUz59aWKvo3M6X3YKIEdOQuvpN5B+rdzd2JiDLLxNyDqxHTUWpcCG39RLCiLXMKygSvWfMEy80qJHbetrafzXYhOPHj8e9994LLy8vFBUV4c0338TBgwd1N2ufQb0w+883C5A9m3EO3/7vBxzcc9R8Xkh4MO59bJawDFM7nnACi56xBO8hlw0QfZBLNLlUb1u/B199uMoMwbfcOwVjrxllyqRdVY2vPlqFret2W8ztob/fgz6DeovPcs/mYfEby5B2zARzXXt0wX1PzAbNhVpa0km8Mfd9Q9mphwwZgocffhh+fn4oLy/HO++8g+3bG3pB6Aqlc4AaIKvtWVv7Xv6uqjgXyV8vsLAS+0XGovct84XbNTW1l0bW07RlaXV0zWrnq3mGWO9ZBuSmUJ77ZAXavgIMyAzIDMhOuM8ZkJ0gYgvrQi7lsmfPHlGyhqCAkvOQG2VdXR3y8/Oxbt06fPPNNzZ/QEdFReG2224TSX2oPixZvijLL2W9pdIwmzdvbrB6yg782GOPiePT0tJE4qOrr74aVFInNzcX77//vsgcfMsttyAgIED8IP/ll19EHKhaqRnq7+abb0ZMTAy8vb3FHOgcSqpE86c1NkUzAr40bvS1DyB82GSbIC27bFOcb86hjegz+xW4+wbYjHHWBWRyn3b3RPwscvHuJ+aQuvotEHxS8w2LEdY2srISHKdvXGyKdZSsdbJ25P4tW2fpO2cCsqIpgT3Ns7aiVLidw9VNMx7bCCDTPEP6XY6eUx8TLuylZ44j4X9PithquVHW6okTJ4qPCIyfe+45w1snpnc3DBjZT1iG1WKEyQV72h3Xwt3DXViF33lxMTLTz5r7n/PwbRgxbrD4d8bJM3hr3gcoLa6fH4HxIwv+hJi47qb57T6K917+1Hx+bN8Y3PfkHcJ6TFZqcqFe943l/Tdm0gjMuGeKsGaXl5Zj8ZvLceS3RN010tivvPKKiMum58PKlSuxbNky3fPsPUC+luROTPvVzcsP1i72WvuevDTIW4NetNB+Tl21CDmHfm4wjeD4y9Bz2uNw9fAS3hzk1UHeHVrtYgIyeY94+AejuijHwpuEAdne3cXHswKsACnAgMyAzIDshGcBA7ITRGxhXciAvH//fpGAJzY2tsEsCUa3bNmCt99+W3UFY8aMwd13323O9Gt9EJ1PiY3++c9/WoCtDMgExOSCqmQLFnCQkSE+Cw+vjx/UslrdcccduP7660XdVrVGsE6gvmTJEqdfBSOu026ePoif/bJw8bVlBVXibpUY5aK0febzbCW1MgLItHCt4+TkYUUnDyLp83kg92p7mjMBWbHKK1pRIi8lcVlByl7hZmoN70YB2chxlIAqPj5eLJ/2zeLFi+2RwuaxZGW+9/HZ8PH1bgDIBKBPvf4QukSbXLs3rd6KFR83rLN8zc1X4vrbJsHNzVW4Tv/rH/8VfVHTA3A6xs/fT0B2ZNdwAbo/rfjZcCzyX//6V1x++eViLHrpRMDs7GZ9jYrTDyF8+JQGMbha+zmw51DhKUDga+u+ke9LAunj3y1C7uGGIK2s72ICMsXehw6aBI8OwRbx2AzIzt593B8r0D4UYEBmQGZAdsK93qvPAPQdMEz0lJxwEGcy0+Hr52/uuagwH8WF+fVaO2FM7qJpFZABmQCVLLnUzpw5I/6MiIgQ1lxqWmBKlqQnn3wSnTp1EscRDJ89exaVlZUW59Pn33//PT755BPzomRAph/phw4dEiBNVuCQkBDxw936Mzp51apV+PTTeovZtddeiz/84Q/C6k2tqqpKrIHGlNdQUVGBjz/+GBs2WCb6cVhlKV5WK0kPufQqlmCtOFqyaMbNfB6BMYMsYo4VCCArauKyeRZuosrcHQJkFxfE304ZqIfouonb0spZgExWbLL+WcQcV1eYY5K14rGNgC/NX+84gtTXXnsN0dHRwguCPCvWrGkIqY3dNxQffPcjtwsXamsLcpfukXjg2Tki8zVlvP7ig++wY9PeBkPJfZSVlOPDhUuReNAUS02W4StvMMUJq7lwK509MPcuUD/U9u88jA9eNfbyaObMmbjppptE8rKUlBRx/zu7WV+j05v/Jyy95OKfsuJl5CfvEkNq7Xs5wRt5SRxf9YbmFBXPDjqAvDbSN3yoeezFBGQKBaB7NLjPGBH3TzHT9CKNAdnZu4/7YwXahwIMyAzIDMhOuNfj+g1GfH+T259WKy0pxoG923DubKYTRuQumloBGZBpLPqxu2jRIlHnlBrB7+OPPy7cnKmtX79eZPKVG8UjkgWZ3Jkp0++HH36IrVu3ikPIGvzMM8+YrdLnzp0TpWHI7ZqaDMgE4BTn+dtvv+Gpp57C8OHDBZRbf0bnyYDs7+8v3F+7d+8u7nNyh6U5KmsgwCeL17Bhw8Qck5KSMG/ePEPxlvboL/8gpx/Y9ENbblRiJvq6B0V8b+bWL3Dq5/oXBcpxsiVatpLKWa3V+qbzjQCyDOCytYzct0WisbBo4cqsBeF6ejgLkAkCes2YBzdPbwu3cmvrunUGcD3wVeYf1GskYqc/LayLai8runbtirlz5yI0NBT0UoXibLdt26a3fMPfy9bfkymn8erj/zafK1uXy8sqBPgeO5SKG26fhN79e+Bk8il899lP6BQWbAZpcuNe+vYK/LbtgOjn/qfvFOWlqCnu1+R2ffX0K+Hm7iZKTFFctAzSBNf/+vt/Da1Bfm5QaASFSTi7WV/LxM/noue0J8TLIxl4tfa9/LmtzOc0bxl684/twrEv/qG5nIsKyGv+KdzAae/WVVeaEwIyIDt793F/rED7UIABmQGZAdkJ97oRQKZhqiorsGvrBuTlqJceccJUuAsnKSD/0NWyEMuxmASvL71UX2qIAIIy/Xbu3Fkz0y/FJP/tb38TMcTW1jgZkMvKyvD666+LOGQFkNU+swZkyqj7wAMPiJhjawBXZCLQpz7JKk0JlxYuXIijR+sTJzlDTjl2WM0FOHb6MwjpO9ZmLV85llkGYbkusmw5kuetC8guLogYMVXUbCYrHGXtPfrpEyKjr/wDmzJnH/34EVTkq2ept6WVAsgE35RBuqa8YSZ7glL/rv1sur4q7t7WpbBkjdWSaxkBZMrkTVZ633BTbWO1lxUyIMt70Bn7RI4fphc6W9ftwrL36uvaqrlfDxs7CBNvHCeScinnbPl+Ox549m4Eh3YUGaq/XfKDcMe2BmQq47Tlhx14cN7dCO9iSkZVkFuId1/6FMMvH4QJU02u0qdSM/Hyo/80tET5uUEvop5//nlkZdm/X2wNpnYtyXJKL5mqi3PNe1dr31Npp6DeI8UQWvWRlfHl+64w9TckfvZsiwXkvMRt5qz5yt5lQDa0bfkgVoAVsFKAAZkBmQHZCY8FAuS4fgOReeqEKONUVJAndCWrXGBQCAYPH4OAjqasqHk5Z7FjyzrU1NSXWHHCFLgLJytg5IfunXfeiSlTpph+aFpZi2TA1bK0yUl9qA/ZCu0MQKbYY6pVS/uQEnhRnLNaI0v20KFDBaSTm/ePP/7oVDXl7NPWLsBywiBb5Z3MEG1txZVcuLUSCemWeQrvIRL8iAzV5+tEAq709SZXUmcDslFh1WJD5ZhQax1ljdXO1S/zFCBK9FCyMmr0kiBh6TOoyD1tMeWmBOQrrhuNG++8TiTHotJNH73+OY4dPm4eXw2Qp8y6xmwRpgPJKrzqsx8NA3LC/mPmmGc6X7FMU5ZrRwFZ66WU0T2gdZwa9FGSrr53vgYP/xCxd2kPawGy8rLGCCDLHgstHZCz9/2IrlfOQecxt4rya5RUzN3LF33vekOUprK+L4y8NCKNuA6yozuWz2cFWp8CDMgMyAzIzXDfenn74LIrr4V/QEdUV1dhx+afkJ93rhlG5iEaq4ARV0lbgHzNNddgzpw5IjGWLcusYhGmecpJfZwByIqFm17WfPfdd5pJuCiJGCXxaoqYUkV/tn6c+AAAIABJREFUc7mn2mqLkkzyD3Ct8k4yRKvBn9m9WCORkFo5GLV9QXCce3gL0ta8ZU7C1ZIAWY7VVrPEKxqruYKrlQbSujdqygrENSo6YXJLlltTAbJcXoni43/9cSe+/HCVxditzYJ84sQJPPHEE04PWdACu5jr/wIKV6ASaPRyo9tVd4vyX9YgbA8gyyEMrQGQlYzzVI+c9nB5dhoDcmP/I8jnsQLtWAEGZAZkBuRmegD0HzQCPeP6i9H27tiMjPTUZhqZh2mMAo4Csny+LUtSUwKy3LcRDZoSkOUf2md2fYuT694XUzK7DJ+v0yxRJEN0dUmeiI2VG1mH/Dr3Fu7RakmHjAAyuT6f2vQxsnautMgALccgU0mdpC+eUwVHPX2dEYMsx2qX52agIsdUu1dpXh0jzDWMreOxjQJy+bl0JH42F1XFOapLkkMHnLVfIqLCcM+jt4vs1NROJJ/Cuws+RnGhZXkpGZBLikpF4qy0pHRMuukK9B3cG6mJJ/H9VxsREtrRbEG2TuYlxyDv3rIPn7y1XIw7ddY1cHF1wabVvyJhfzJumnO92YJsK5mXtUhGnht6e0Xvey1AVuLHaS9TJvPg+DGqgCzfD1px+8ocZOtpawBkOZdAXsJWnNr0CfrOeZ0tyHqbir9nBVgBCwUYkBmQGZCb6aHQpVsPDLv0CjFa4uF9SDqyr5lG5mEao4CRH7qtxYJsdP3OAh618eRYYXPyp+oKc4ZoW+WdFLdJI+tQc9O2FYMcOfpmdB1/l3CvpiREyV8vsKhhTD+4+8ym+siml1t6QKE1R4cB2cUFvaY/I7L0GmmKFVGpx2zLndTTv5Oo8+wdEmUzDlwZ99VXXxXJ5ZxR65fqIs/5220IjQgR3VNirg9f/wy5Z/MaLFPOYm2dfEs+WC2ZF0EvNaPJt9SSeRnRXfHGoGOt8xIYOd/IMVrX0tXTR1zHDp3jQHHolKxKzYIsly3Ty2JNcfnkoUFNfrGlNs+LnaSLXKyphQ6YgJjJD6O2okTUCY+54a8MyEY2Fh/DCrACZgUYkBmQGZAdfCDExPZBx+BOqKurRUrSYZQWN0y+Q0PIibwO7duF1GNHHByZT29KBRwF5JYQgyyXnElOTsYXX3whoEarkSv2yZMnUVhY6HxppVhhtfq91kCnTECOuzUyKbVSUrYAWYZDAorj3y4EJfuRmwzoJZlJSFjyNMiabE9zFJDlFwxGxrWOx9aLt5RfFOjVeqbs7aNGjRLToNJjlNitMY1qEl9/20RR81jsvZTT+GjR56pwTP3LdZBt1SeWM2ETaP/7+Y9EPWRqch1k6xrJyhrkOsg0r/XfbsG3//vB0BL//ve/g5LvUXN2jWhlArauZcTIG9Ft4r2oyM0QnhahAyeI0+RkXLI3h639LL8covADgk0Caq3WUgBZKYXmHdIFZ3d9i5BLxjsEyHIWfuuXBLoJAHV2jd59aWjT8UGsACvgdAUYkBmQGZAdvK2GjLwcXaNjRS/7dm9FetqxBj26ubtj5JiJCA2PFEmAdv66AdlZlslvHJwGn+5kBRwF5JaQxXrIkCGgUlN+fn6i/vHnn3+O1atXO1kp492ZY4UvuFNXlxai1/SnQD/EtcrNyHG3WhBNM7BVKkrvR6weHPp36yfqDFNcI92/Z3evwsn1H1i4Yuup4Cggy1Bjy+qnrJXcbNNWv4VzB011rfV+iBt5UaCscfr06bj11lsFsGZmZopMzRRGYLSRS/PMP90Ish6TW3NtbR32/rIPy//7HcgybKvNefg2jBhnKqlHQP2f5xejtLjeFVvOhE3HUBKufz/3kblLKul035N3oEOAX4MM18pBYyaNEJZmShZWIcpEfY3ftx3UXZ4cn91UCe/0rqU5Bte7g7CgEixSkwFZftmi9VKIzpFDG2rKCsWLobLsNE0dWgog0wSVeOyaihK4unmoZoaXcxtoerBYeW5YZ/3We7bobRq9+1LvfP6eFWAFmkYBBmQGZAZkB+8tguPBI8aKTMFlpcXYtXWjyGKtNPq8d99BiOs3SBxDFuatP3+PivIyB0fm05tSAUcBmeb20EMPYdy4cYbqIFMpGAINpUaxM5J0ESxQHeQ+ffoIqagsDwHyihUrnJ44yMi1kEsREeTVVJQKF1A1q6/Snwy+tmq2yiBtXb9X70esDIcElqmrFiHn0M/1S6IfyTc9heC+prI/BMn5idtw8qcPVGN13b07wN2vo0UGaEcBWQbf498tQu5haX6S+DJIy0nPjPwQl18UlJxOQMJnc1Ut5X379hU1wNXKk9naB14+Xpg+53qMvGKIgE9qBXlF+G7JD9i1+XcjWwhDLhuA2X++Gd4+XmIPb1u/B199uMq8n2+5dwrGXjNKwLt1iSdlgIf+fg8oSzU1sjAvfmMZ0o6Z4rnlZGH0bzUI15oovTi45ZZb4O7urllWzdAidQ6yeS01XPGtwU4BSBqKMpYf+/J5lGalmEem+6nXzXNB9cep5R39BckrX7H5UqglAbL8UktZVIMEf5JXCx1DIRYp37xqsec7XTIe0dc9JOqOqyW/03u26F1vI/elXh/8PSvACjhfAQZkBmQGZAfvKy8vb4wadzU6Bpli6OjHc1FBPgoL8kCW4+CQMPj4+l347jyO7N+N4+xe7aDqTX+6MwCZagwTSISFhYkJ0w/6s2fPorKyEhEREfDx8TF//u233woLr9KcAcjUF5VvevDBBwXMKI3qOpPFj6zK1Oi7Dh06gOZA8NxUTS5FREmmcL4OPp26QrO8k/QD1hZE03xlV2xra5CRH7F6cEiWuPhZC+AX0dMsD93rVYXnUH7uJAisXT084RMaDbJMFR7/XSRKwvnz4nhHAFnWTauUlTIp2Too62rkh7juiwJpY8ybNw+DBg0Sn6SmpuLFF1/Udc2XY4OVrnLO5KFEsgBb770zp7Pxv399af6YwPePT8zGJcP7iBdP5AJNJaHyzhUgoKM/gkIChVWaWkpCGv45778NXgYNGtUftz9wEzr4m57LBNLkbk2W7NDIEAHf1CorqvD14tXYtn637i1B1uOnn34a4eHhpnrMW7firbfe0j2vMQfoXUv5JYnSvzUgU7w5xdZ7BpjqP9NeLs8+KWp/e3UMh09od5H0jhoBdNKy+SjLPmFzui0JkK1zB9DE1TLgB8dfhp7THhcWZmq1lWUozUoWf5IGXkERIj8BNbWXBLZKyGmJdWb3d+ZEf3rl19T6oGt0evMS1GqEecj/7WhKT4bG7F0+hxVoLQowIDMgMyA74W6lGscjRo+Hn389hFh3Sz9AkhMOieRctuJAnTAd7sIJCjgDkGkaFKt53333ITDQ5Opo3QiaKY6TahTT35XmLECm/qgvKvmkgLqWPE0VMymPp5ZRWqu8kxbsac3fbGW1yohtBJCt4fDkT+/h7N41FkORZTj6+r8guM9l5h/NWnOxrlPsCCDLlndbbuZiLhovFfSgSlmH/KJADSiU4+QXLwSEe/fuFbHI8h621kYNkPVu1VOpmXj5Ucv63f6Bfvi/uXehe2yUgGS1lpl+Fp/+8wucSs1Q/f7KG8Zgyqyr4eVtqvts3Qiaf16zDd/873u9KYp7+y9/+Yu4z2g+eXl5eP3115GUZJltXbcjgwfoXUslBpdePinNGpDpc9pXvaY/bYZkVR1slPyyPr4lATLNTYnHVgBXdT+7uKDrFXeC9r3yQkBNh+KTh3Ds6wUgV3O955neZZSvhdHs8nKftu5LOk4uMVhSUoJFixbh4EH9EAG9efP3rEB7UoABmQGZAdlJdzxZi7t0jQEl7aJ6x/RvapWVFcg5m4mkowdQXJjvpNG4m6ZWwFmATPOMiorCbbfdJpL3+Pr6ih/R9Gb/1KlTIpHP5s2bGyzHmYBMnZO1mn44jR07VlivvbxMFhNqNBeyam/btg0ffPBBk0prbd2yjpWVB9dyF9aaoHy8XCfYCCBTn13GzUaXsTMF/Nr6EUrgETHqJgRED4Snfwhc3U2QVVdTBbJeU/3gs7+tRWnmMWFZpuYIIMtJgmy5mSu6qCUV0oMq5VyyHva541VhRaS5q70oUI695557cPXVVwt3ZoLkjIwMkQhu+/btqpfIWYBMnZO79oQpYzF64ggEdOwg5kBwXlRQgr2/7BflnvTimXvEd8eU269Gt9gos9WYYo5Pp2Xih682inJPem306NEiHrtLly7ivm6OWH8j19I687saINPaKPN1xPDJIoafrMkEiYpnRF7iVmRu+6oBFGpp0tIAmcqe9b3zNfMLAFv3tF+XOERdPhv+XfvAzcvkWUD3c0VeJs7s+gY5Bzea72V5/UZKyFnr1dSALP+3i0J2KHSHQni4sQKsgHEFGJAZkBmQjd8vfCQrwAqwAqzABQUISskzgeLs6e9Ko5ctFRUVWL58OdatW9fm9Jo0aZJ44UUvuzw8TLHU1AjQf/zxRyxevLjNrZkX1HoUkMsPpqSk4Mknn2w9k+eZsgItRAEGZAZkBuQWcjPyNFgBVoAVaI0KjB8/HlRSLDg42Dz9pqypfbE1ki10NBeynpNbNb0Q2LRp08WeHo/fzhVwVhm2di4jL7+dK8CAzIDMgNzOHwK8fFaAFWAFHFWALMjDhw8XSeEopIDyLFDGdIqvb2uN8gpMnjwZrq6uSE9PF6EJHOPZ1q5y612PUoub7sGVK1di2bJlrXcxPHNW4CIpwIDMgMyAfJFuPh6WFWAFWAFWgBVgBVgBZypACeJiYmJEXokPP/yQvRqcKS731W4UYEBmQGZAbje3Oy+UFWAFWAFWgBVgBdqqAlRubO7cuQgNDUVRUZHILH/06NG2ulxeFyvQZAowIDMgMyA32e3FHbMCrAArwAqwAqwAK9A8CvTt2xcUg0y17TMzM0UGa6p5z40VYAXsU4ABmQGZAdm+e4aPZgVYAVaAFWAFWAFWoMUpQLXuqfQalfGjEk+rVq1qcXPkCbECrUEBBmQGZAbk1nCn8hxZAVaAFWAFWAFWgBVgBVgBVqDJFWBAZkBmQG7y24wHYAVYAVaAFWAFWAFWgBVgBViB1qAAAzIDMgNya7hTeY6sACvACrACrAArwAqwAqwAK9DkCjAgMyAzIDf5bcYDsAKsACvACrACrAArwAqwAqxAa1CAAZkBmQG5NdypPEdWgBVgBVgBVoAVYAVYAVaAFWhyBRiQGZAZkJv8NuMBWAFWgBVgBVgBVoAVYAVYAVagNSjAgMyAzIDcGu5UniMrwAqwAqwAK8AKsAKsACvACjS5AgzIDMgMyE1+m/EArAArwAqwAqwAK8AKsAKsACvQGhRgQGZAZkBuDXcqz5EVYAVYgWZQIDAwEN27d0dZWRlSUlKaYUT7hnBzc0Pv3r1Bfx4/fhzl5eX2dcBHswKsACvACrACOgowIDMgMyDzY4IVYAVYgXasQFxcHG6//Xb07NkTPj4+Qom0tDQ89thjLU6Vrl27Yu7cuQgNDRX/7SopKcGePXvw1VdfITs7u8XNlyfECrACrAAr0PoUYEBmQGZAbn33Lc+4nStAEHPzzTdjzJgxCAoKEtY0arW1tTh9+jQWLlyIrKysdq4SL19PAdo3999/P8aNG2feQ8o5rQGQ5fURKBMkr1mzRm/Z/D0rwAqwAqwAK2BTAQZkBmQGZH5IsAKtSIGBAwcKqAkLC1Od9YkTJ/DEE08IWObGCmgpQHD86KOPYvjw4XB1dRWHEWQePHhQ/B8Bckt2sb7kkkvQr18/4W7t6ekp5l9VVYXPP/8cq1ev5gvPCrACrAArwAo0WgEGZAZkBuRG3z62T3Rzc0doRGd0jopGUEgofHz8cO5sJnZv21iveRONzd22TQUIiufNm4fOnTuLBdbV1aGgoAB5eXni3wQKubm5ePHFFx0WwKNDEPreuRDewV1QXZKPo58+joq8DM1+PQM6od+cRfAMDLN5fIeoPoif+QLcvP1EX7VVFUj+6gUUpv6u2rd3UCT63vUGPPw6qn5//nydGK8gZQ8ytnyGquIcm2t3cXVDx9jhiBg5Db4RPeHm5QsXF1co/dA8Mn9dhor8egt8YI8h6DVjHtw8vVGY+hsSP3tWdYzuk/4k+qWWtuafyN73o+ZcYqc/g5C+Y83fF6TsRdLy+cD586rnyHNQO+B8XS2qis4h9/AWZO34GjUVJTZ1mDJlinCr9vDwEC9Tdu/ejbfffttQTC/B9bCxA3HZpBGIju0Kdw93MdbB3Ufx3sufGtp7EVFhGHfdpRg4sj8Cg/zh4uKC8rIKfLhwKRL2Jxvqgw6Kjo7GQw89JP6kVlRUhP/85z/47bffDPdhz4HW+7E855S4N2rKCi26MbIXaC92GnAVIkbeCO/gznB19xT7sKa0EPnJu1T3s7uPP/rc8Sp8w2PsmbahPWlPh9b7sTBtP5KWzcf52mqLbuJnvYjAHkNV73Nb3ymdyHqXnU1DwpInUVNeLL4OG3wNYm74q/j7mV3f4uS69+1ZAmQtq0sLcPTjRyzue7s644NZAVagTSnAgMyAzIDs5Fvax7cD+g4Yis5do+HqanJ9VVpezlns2LIONTWWPyKcPAXuro0qMHv2bEydOlVY/Mha9uWXX+Kbb75pstUqEEfwdfy7Rcg9/LPmWEFxo9Fr+lNwcfNAcfphJCx9psGPZTo58tLp6DbhXot+Tm9ZioxfPlPtWw+Q5ZMICtPW/ht5R39R7YugIvbGp+AT2s2mZnU1VWI+mdu/EsDqbECWXz4oE6kqzMaRTx5FVZE64OsBsrwgAuXkFS+j5HSC6jrpRcv8+fMRGRkpnv979+4Vbvl6Xgd+/n6Y/efpiBsQC28frwZ9GwHkS8cPw7UzrkJIWBBcXF0s+mgMIFMHPXr0wOOPP272qjhw4AAWLFigu57G3DjW+5HujbTVb+HcwQ0W3ekBsrtvIOJmPocOneM0p6G2n1sqINdWlokXPMXpRyzWw4DcmF3G57ACrMDFVoABmQGZAdmJdyFB8aDhY+DhYXL5U1plZQVKigqRn5uNpKMHUFNd5cRRuav2ogD96I+PjxfL3bZtG954440mXXrYkGsRfd2DwsKac2A9jq/SHk8GgvQNHyJrx4qGc3NxQdxtz6Nj7DCU52YA5+vg06krSjKSkLj0adRWNcxILAMJAUPJ6UQL8CbQ6NAlDmSNo1ZdVoikz59FaZZlBmbfsGjEzXwengGh5nmRJarsbCrox71Xx3D4hHY391OalYzEz+YKa5WzAVnpz9XDE4UpexHYc6iYk62XEPIcqkvyhGZy8+oYAZ+w7uJaUavIPY2EJU+rWtTlFy3kffD6668jKcmyP7WN1blbOB549m4Eh9Zb82tr6+DmZhrTCCDfNOd6TJh6ubl78oKgRi99GgvIdP7EiRNx9913Cy8Kymz9zjvvYPv27U6/P9Re2OQlbEXyipcsrP+2AJksxXG3v4CA7gPE/MhqXJl/BuXnTsLdNwB+kb2ENZka7c2UlS+DPAyouXn6IOqKO0DXW27uPgHoEBUv9q/a/qBjz+z+DkUnDjhFE7UXNplbv8Cpnz+x6J8B2SlycyesACvQzAowIDMgMyA76abr0q0Hhowca7Yal5eVIunofmSmp6GagdhJKrffbuTsvRUVFQIACJKbspHFtc/sV8SPdmv3Rnlc+tEeP/tlAaq1FaVIXDZP1XpJ7trktk0WVALumopS4ZJcU1aEhKVPiTGsmy0XS+VYr6BI9J4xz+x2mv37D0hb+y9zV2R1i5+1QIAHtZqyAqT98C7yEn61gBqC7dgbnxDu3OQuWlWcK453NiAr8ETrpnlGX/tnsyZaLyGMzIHc13vdPBee/iECutLXf4gzuxp6GDT2RYsCyP6Bfjh5/DS2rduNqJjOuGqKyVXcKCBfNXksCvKKcHDPEXHOrAduFtDtCCCT2/crr7wirMlkFV+/fj3ef98+l1sj95IaIJN7Nb2MKMuu37+2ADl82A3ofvX9AmYJgNO+/4+FdwZdP3qZ4xveQ0yp6ORBJH0+D+TZoNWM7A8j6zN6jBogq7mbMyAbVZSPYwVYgZakAAMyAzIDshPuyICOwRh9xTXw8vIWep44nogjB/agtqbGCb1zFxdbAYpvvOWWW4T1tkOHDiLjL11nAlVKZvT111+D3DqtG1nmYmJiRE1Z+ntISAhuvPFGhIeHiz6qq6tx8uRJcT6VqrHVKDkXld3x9fUVcZbkEnv06NEmlcYw+IZEod+c10GAaQukQ/pfiZ5TH6WnLlJXvyVgmtyy4eqGE9//BwS2jQFkOiek3+XoOfUx4eJdeuY4Ev73JGorS0V3FOPZbeK9wrpK0Hvsi+dAFmLV5uJiikmuq09yZhQ+9NxqaTxZU5onWal7z3gW/t3629TO6Bw6X3Yruo6fI5aWf2wXjn3xD4tlxsbG4sknn0RwcLDYv/a8aCEX664xkUhLPoXK8krRr2wRNgLIXaIjhbX4VKopnl22SjsCyNTXnDlzcMMNN4h45sTERFEOytlNBuS6qnLxIsLNyw/WYQJae4H2Z5/ZL4nrTedm/LoMGVuWNpimX2Qs4m5/ER6+gbpx+nSy0f3hLD3k8cizw8XVHa7uHg28IBiQnaU498MKsALNqQADMgMyA7IT7rhBwy9D9x6mWLL0tGQc2LtNJFDi1voVIDCmuF9vb2/NxVDs5pYtW/Dee+9ZxD3KgLxu3Tpcd9115oy7cmcEymvXrsWSJUs0x5AB+dy5cyLG8tSpU00usBHXaQV8ySJmyxW755RH0GngRLPFmNyXlcReWkmqjFiQSQSt42QgJSA5teljZG3/2i7djMKHEUCWrfKKVl0un4WocbNtgpDROegdN378eNx7773w8vJCTk4OXnrpJfGSprHNXkC2HseZgCyvranuEet9Vpx+COHDp6AkM0lYkQmaqWntBW/pZZJe8js5kZutOP2LDciU2I4s4cF9xsDa3ZwBubF3Fp/HCrACF1MBBmQGZAZkB+/ADv4BGH3FtfDx9UNpSRG2b/4RZaW2M8g6OCSf3kwKTJ48WWT6VcrIEAhTlmiy4AYEBAiLsFKDuKamRiTNWrGiPvZWAWQCYLIik/WZLM6pqanCgte3b19hEaaml333YgGyDFxaEKuAr61kXmRdJvdqi5jj6gpzTLJWkipHAdkeINHaVnrQqZxnBJAVazYl/1JijuX+tUDI6Bz0jiMLK8UgU/ZqZ9Q6bkmATPcTJeuie5NKVi1atEiUrHJms96Ppzf/Dz2nPS7cpVNWvCyyT9sCZKPJ7KgPcsUm93tqat4A8rr0rrszNVAD8txDmxEz+WHUVpRYuJszIDtbee6PFWAFmkMBBmQGZAZkB+80Ssw17NIrhVsfuVYf3r8bMbF9EBvXH17ePqL3urpanM3KwKHfd6K8jOHZQcmb5XQ55pcGJGstuaMeO3bMPD7VYH3ggQdAx2ZmZuLDDz+0cLVWAJlOUKvRap19V068dccdd6B///7msdzd3REVFQX6k1xjaTxrLwVKuLR48WKQ9cxZTc64TGWeqKQNWb6UJmfVpezJRz99ApUFZxoML/+Al0uyKFmtqTxM8opXkJ9kmVjJKCAH9RqJ2OlPw9XDyyLpFyXAovhk68/t0ccofOgCspSkTLYeyhprZQA3OgfZnTz36K9IoeRRUrvzzjtBJZ6oETw+99xz9kjR4NiWBMjyPauENaiFPjiyYOv9mPj5XPSc9gQCYwZZeE9o7QW5NJHa9dGCXuuwAes1GN0fjqxda25U+izlm4XmF2Bykj4GZGcpzv2wAqxAcyrAgMyAzIDs4B0X338I4voNEr0c2Ltd1DzuFmNKBmTdqiorsGvrBuTlZDs4Kp/e1ApMnz4dt956q7AQFxYWiozRhw8fbjAsQe7ll18uyi3RcXKTAZmyBFMNY+tSOnJGYYLe559/XgDuU089heHDh9u1zKZyK1VcPdVqFst1jW3V8lXciK1BWD7fOrkWLd4IIFsnNZKz6cpAYquGsS2h9TJIK+d6d+oGn5Au4p9qdZDlWtHWIKxorJbwifozAkAUt9r7lvkiU7dW+SEZkCnunRJbOdJaKiCT18Ynn3yCH3/UrkXdmHWr7UdyLaZs79XFueYXRFqATCXO6KUQNb3avfK9YSu23+j+aMx6tc5R24/KmmV3cwZkZ6rOfbECrEBzKcCAzIDMgOzg3TZs9JXo0jVG9HLqRIr4e0F+DkqKi8Rn5IJN0KyUXzl3Ngu7tq7nBF4O6t7Up5Or5qhRo8QwjQUJGZBXrVqFTz/9tMG0BwwYgEcffVS4X8tuoS0JkOVyT9YuwHJdY63yTnIcsLUrtWyBVoMA/TJPlmVxyIpNNZipzBE1ZwOy0X2nBshyrLa1jorG1L9awjI9SLdVpkqec3sC5KVLl2LNmjVGL5mh49QAmZJ09b3zNXj4h5gzh2sBsvy5HiAbeTmkTNrICxRDCzR4kNp4/t36iZAJ2d2cAdmgoHwYK8AKtCgFGJAZkBmQHbwlZUAuLy/F3m0/Iy/X0kIcEhqOEZddBU8vb1Hyacfmn5Cf5zw3WAeXwKerKPDqq6+CMv5S04JbPeHkGGStH+tG3UIvVgwyrVFOLGVh+ZRchm2Vd5LPV7MyKzHMan2oldXR0p3KN5GbtlzrtSUBsnmdVRVI/uoFUHIjpckaqbneqpXV0dKBXOGTlv/D/JKgPQIy1UJ+88038dtvv+ndpnZ9rwWtMdf/BfSSQ7k/ul11tyhhRk1+WWIPIBsts0ZjtARApgzdVJ5KdjdnQLZre/HBrAAr0EIUYEBmQGZAduBmdPfwwKixk0AATO3I/t1ISWrohkvf9R80Aj3jTDGle3dsRkZ6qgMj86lNrYAR66/eHOwFZHIL1QLpiwnIcmkaOXZWdhm25QIqW6DLczNQkZNuIZ1XxwhzDWNrK7RRQC4/ly5KJlUV51j0Lccg68Vxal1Po/BhKwZZtpTXVVei+NQR0J9Kc3X3BLnUunn5Qi3W2yggE3Qf++pqZNMNAAAgAElEQVRFczZl6zXNnDkTN910kyi11NaSdHXv3h3PPPMMOnXqZC6t1tQxyAlLngRlY1di4Mm1PWn5fATHj1EFZPmFja2M79bQ2xpcrGnOSgy84m4ec/2DCOwxVDVDuy14VvatLSu6rKWeNV7t3pbvyerSAhz9+BFU5GfpPdb5e1aAFWgHCjAgMyAzIDtwo1NiLrIMR3TppmsZ7hbTG4NHjBGjJR7eh6Qj+xwYmU9tagWojBLVPaZGJZgo+ZW9zV5AtmX1upiATOs2xxDX1dZnX5YSYGn+2HdxQa/pz4gSMEaadWyurR/Inv6d0OeOl0GZqtXio2k82QpXU1aEhKVPiXrD9jRnALLifkoArNfUEpbZmoNcM7eqKAeJnz2D8hz1EmDXXHONqBdMWazlmHe9OWl935JikIcOHYq//e1v8PHxcUoJK7U1a+1HV08fsRc7dI4T9bzp5YeaBVl2s9dKyKaMSyXRekx+WITn6MXPG92jjb3O1udpjUcvu2R3846xQxmQnSU698MKsALNpgADMgMyA7KDt5viYl1TUy1cp63dq5Xu4/oNRnz/weKfh/btQuqxIw6OzKc3pQJyDLJWgi298Y1YoeXSNLYy715sQJZ/EFvX79XKQE36yFZmPb3oe+vasHpxmJGjb0bX8XcJiCg6eRBJn89DXU2VeSgZXOhDOYGXkfnQMUbhw5YFWXnBYHRMa4uYzTm4uKDHDQ8jdNAk0f25/euQuuYtUCkp66YV8250XtbHtSRAlhPrnThxAk888USDpHiNXadynq39qFhPK3IzRCb10IETxGmyi7X8wsZW1nc6T3HJp79n7VgB8q7Qakb3qKPrV863NZ7ibl6Ytl8cTi7Xai+wjFiQbbmZswXZWVeT+2EFWAFrBRiQGZAZkB18Lsiu01ou1m7u7hg5ZiJCwyNx/nwddv66AdlZpiRC3FqmAtOmTQO5o1JZJbUSTUZmbSSLtfyjPjs7W2Sxzspq6OZ3sQFZLkVEFlgqb0OWYf9u/aFVw5g0kuu+2nIpVeDSOvuyHiDLVmSy2h3/diHyErdZXJ6uV85B5zG3is9qK8uQsvJlUCy00WYUPrQAWXZRt2XF9g7uIkrlkNZyJmABGT2GoNeMeXDz9Fa1JspW5OqyQiR9/ixKs1IaLNHf3x8vvPCCKE1GZcJWrlyJZcuWGZWiwXEtCZDlxHY7d+7EwoULG70urRNt7UffsBhhRXbz7iDqAVPtb2oyIMsJ6+i/Bac2fYys7V83GI7qhcfPekm8YKJ9LddYVpub3v5wthC2xlPczWnMutpquJMeKnH38gsArQR/oQMmiPrKlPjL2orOgOzsq8r9sQKsgKIAAzIDMgOyg8+DsMgojBo7QViwqIzT7m0bkXvurLlXcsPu3XeQKAVFfy8tLsLWn79HRXmZgyPz6U2pQFhYmCjL1LlzZzEMWXdXrFiB1atXG7ZK2VsHef/+/QJe1NrFBmSaU30poiKkrf0Xoq/9s4A5W+WdZPA9/t0i5B7+WXV9MkjLSar0AJk6k63IJacTkPDZXIsYXMrw3OeOV0F/ih/tVeU4/ctnOLtntYW1WZkYjVlTWQYquUTNKHxoAbIF+GYkIXHp06itKm+ggwzS1gnLdOdgZUXOO/oLkle+ompF/utf/ypKk1FLSUnBiy++iOLi4kbdTi0FkOPi4vDYY48hODgYtmL5G7VI6SSb+1EjnMA6o7lcq5pe2NBLnfxjO82jUNmy/2fvPOCjqtL+/0vvhXSSEEIIJBRBkI6IoqIoimsFRddVd9fX3b+6urbFsuJiQ3d1i7q71gUFC9jAikjvvSYhCRACgfTey//znHCHO5NpyUySCfzO591XmLn3nHO/95zhfu9zSv/rH0dwQuuaFebatOl12Gwfjl64yfnWyjMdtSGnmhNk/doEEk3P+GSu0Usdn169kTLzWcjLAkltVn4fcSX6TX9Afcc5yE6+wcyOBM5xAhRkCjIF2cEfAU9PL4yddDkiomJUTi0tLaiqLEdpcSHc3N0RFh4FP/8Aw3e7t63H0ewMB0vl6V1B4JprrsGtt94Kb29vQ3EyT1j2G5aosiSZ7ygP5SK3IsT6pJ+DXFhYCJFuWRgpOztbnSPDq/39W+ek1tbW4s0338S6devMXporCLJ+K6KyzG2QBbAksmMp+mO0CE5lCQ588IhagMpc0g/F1i9SZY8g66PIEoHO/upVFO41FvHQ5FFIvv4JtQiWlmQotszVlQi4JE//YPhHJUIe8PVbLdkrH5YEWS8Cth7k9UOx9VztqYM+itxYW4mMxc+g4tiBNrgnTJiA++67T7VdkcmPPvpIrdRuK40Yfx6mXHMhPDw9DIcGBgUgIiZM/b2spBwlhWf2Ai8rLsen73yF4oJSw/F33H8zYuKjDH9393BHdGwkfHy90dTYhJO5+WhoaDR8v/nn7Vj97UZbVVPDqceMGaNeQsrcannRJCMynJ1stUf9ix6tbFNBln6Rets8BPQecPrfhWbUlZxETcFR1Qblc1m0TZK9Ix7saR/OZGGrPP32b+o6zESQ9f1WjpG+KwzqSk+p6HtgXIr6fZEkn8mCaPJfLekjyOYW/zN3vcXpGyEjWVR/9wtSL85kGLe5hfPMnd9YW4VjP70DWdSLiQRI4OwlQEGmIFOQndC/AwKDlCQHBYdazE2G06Xv34WMA7vPMHdC2cyicwlMmzYNM2fOVPsUW0tpaWmYM2eO0SF6Qf75559V1M7X17dNNk1NTfjuu++sLgTmCoKsj4RqF2FteydZlTl11nPw8A0wbH8j85XNJv2WUbqHaVtCouWljyJbWvE3MHYg+l/3iFrUy1bSR7FtyYCWlyVB1iLv1uZqa3noy9JH5u2qg0kUuSRjMw59Ng/mmOuFUqLHb731FmRYsrUkcnzd7dPg6eVpC5/6XsT4jb+8ixM5Z6TmiVcfQJ+k1lEZ9qQVX67B0veXWz1UpkJce+216kVWY2MjPvnkEzXaozOSrfYoYifD5LWop9TB3J7YEh0dcOMcBMT0t1hNkcqj37+p5pTbSna1D1uZtON7W+Vpw821YeaWFtELThyOATc8Dk9/y/92mtu+TaqqF2R7q65/QaUXZHvP52rX9pLicSTQswlQkCnIFGQn9WGZZ9ynb38kDRwCEWZ37c13bQ3yT+biUNo+VJSVOKk0ZtOVBEJCQiBzkkePHq22kJEVgLUkcitR5X379rWZ82i6irWIyI033ojo6Gh4eHio6N2xY8fUKtmrVq2yekmuIMj6IcBaZU3nyuovQh9FMh0eae5i9cdrD7K2hETLRz+MWiJRR79/C6e2LWtTjESkQpNHI3rUdPjH9FcRO5keIamprgr1FcVqGLhEoOtKT6rPbcmAVog5QdbP3bY2V1vLQ3+8fsEye+sQ1GcwBs581uK8T62cpKQkyEJ0MqpBkoyIWL16tZqPXFZ2JgqsB+hqghwfH4/Zs2dj5MiRqj/J6J1t27apfij9sjOSPe1RP+dd6mBOkOVzaYsRwy5VWyP5hsWqqLG8SG2sKkNp1jacWLvI7m2H7G0fzmJiszyT4eaWBFnqIxIdd+FMhA2epKZsSH8UDtL+iw+sxfF1iw3THfT1pyA7624yHxIgAVMCFGQKMgWZvwsk0EkE7NnmqZOKZrYkYJOAvHSRodby0kdLIpYiyzIVQObgu1rq3bu3QexlNIYMqZYkcizzqV944QWLgu9q18L6kAAJkAAJuCYBCjIFmYLsmn2TtToLCFCQz4KbeJZfgkSQ77rrLkMUVrtcEWRZ9MrVkqy+LVMZIiMjDVWTERwyd/+DDz5QozmYSIAESIAESMARAhRkCjIF2ZEexHNJwAoBCjKbR08hIMJ5ySWXIDU1FQEBAcjNzcU//vEPl6u+1FOEXha5KykpwZYtW7Bx40aKscvdKVaIBEiABHouAQoyBZmC3HP7L2vu4gQoyC5+g1g9EiABEiABEiABEjAhQEGmIFOQ+bNAAp1EgILcSWCZLQmQAAmQAAmQAAl0EgEKMgWZgtxJnYvZkgAFmW2ABEiABEiABEiABHoWAQoyBZmC3LP6LGtLAiRAAiRAAiRAAiRAAiTQSQQoyBRkCnIndS5mSwIkQAIkQAIkQAIkQAIk0LMIUJApyBTkntVnWVsSIAESIAESIAESIAESIIFOIkBBpiBTkDupczFbEiABEiABEiABEiABEiCBnkWAgkxBpiD3rD7L2pIACZAACZAACZAACZAACXQSAQoyBZmC3Emdi9mSAAmQAAmQAAmQAAmQAAn0LAIUZAoyBbln9VnWlgRIgARIgARIgARIgARIoJMIUJApyBTkTupczJYESIAESIAESIAESIAESKBnEaAgU5ApyD2rz7K2JEACJEACJEACJEACJEACnUSAgkxBpiB3UufqydmGhISgb9++qK6uRmZmZk++FNadBEiABEiABEiABEiABOwmQEGmIFOQ7e4u586B06dPx+zZs+Hl5YWmpiacOnUKP/74I5YvX67+zkQCJEACJEACJEACJEACZyMBCjIFmYJ8NvZsB69JL8haVi0tLTh27BjefPNNZGRkOFgCTycBEiABEiABEiABEiAB1yNAQaYgU5Bdr192e41kiHVKSgqGDRuGoUOHIi4uDu7u7qpe+fn5mD9/PrKzs7u9nqwACZAACZAACZAACZAACTiTAAWZgkxBdqBH+fkFYNJl0+HnH9CuXOrrarF+1XcoLy1u13nddfDUqVNx2223ITAwUFXh0KFDmDdvHioqKrqrSiyXBEiABEiABEiABEiABJxOgIJMQaYgO9CtOirI+SePY8u6n9DU1OhA6V176jXXXINbb70V3t7eaGxsxCeffIIlS5Z0bSVYGgmQAAmQAAmQAAmQAAl0IgEKMgWZguxAB9MLcmNjA/LzcpU8miYPDw9ERMfCx8dXfbVzyzrkHO5583gfeughTJw4UV3D0aNH8cwzzzCK7ED74akkQAIkQAIkQAIkQAKuRYCCTEGmIDvQJ/WCXFNdhbUrlqGmpqpNjsGhYZh48ZXw9vGFHLdh1beorCh3oOTuOXXkyJF48MEHERAQgJqaGrzxxhvYsGFD91SGpZIACZAACZAACZAACZCAkwlQkCnIFGQHOpW9gpw0cAjOGzFWlZSXewRbN/x8hrsD5Xf1qRIJf/HFF5GUlITm5mYsXboUixYtslkNWfRLos+DBw9WEecPPvgAq1evtnkeDyABEiABEiABEiABEiCBriRAQaYgU5Ad6HH2CLKHpyfGXng5IqN7K9Y7t6zFsSOZDpTavac+8MADuOiii1Qltm7dqoTZVpo1axauv/56w0rYmZmZeOyxx2ydxu9JgARIgARIgARIgARIoEsJUJApyBRkB7qcl7cPUoecD08vbzQ21CNt/y401NcZ5RgSGoYJhuHVlVizYjlqzQzDdqAaXXqqXnbtFV0KcpfeIhZGAiRAAiRAAiRAAiTQQQIUZAoyBbmDncfe01KGjEDq0BHq8KPZ6di1db29p7rkcdOnT8fs2bPh5eWFw4cP449//KPNeuqHWJeXl+O///0vNm3aZPM8HkACJEACJEACJEACJEACXUmAgkxBpiB3Yo/z9PTC+MlTERYRjZaWZmxZvxInj+d0Yomdn7VekPPz8zF37lzk5eV1fsEsgQRIgARIgARIgARIgAQ6mQAFmYJMQe7EThYeGYNxF10OEeWqinKs+/kb1NZUd2KJnZ+1XpALCgowb948HDt2rPMLZgkkQAIkQAIkQAIkQAIk0MkEKMgUZApyJ3aywcNGYcCgYaqEI1lp2L2t52+JpBfkI0eO4NFHH0VTU1MnUmTWJEACJEACJEACJEACJNA1BCjIFGQKcif1NW9vH7U4V0ivcDQ1NWLTmh9RmN/zhyJ3ZA5yJyFmtiRAAiRAAiRAAiRAAiTgVAIUZAoyBdmpXepMZhFRvdXwag8PT5SVFGHDqu9Qb7LCdScV3anZ3nXXXbj66qtVGdu3b8fzzz/fqeUxcxIgARIgARIgARIgARLoKgIUZAoyBbmTetvwUROQ2D9V5X7o4B4c2LOtk0rq2myfeeYZDBvWOmx8+fLlePfdd7u2AiyNBEiABEiABEiABEiABDqJAAWZgkxB7oTO5evnjwsvuQoBQcFobGxQw6uLCk52Qkldm2WfPn0wZ84cREZGoqGhAe+//z6+++67rq0ESyMBEiABEiABEiABEiCBTiJAQaYgU5A7oXPFxCVgzMQpcHNzR3HhKWxc/YMS5Z6ebrjhBtx8883w9PQEV7Du6XeT9ScBEiABEiABEiABEjAlQEGmIFOQO+F34fzRE9E3KUXlnLZvJ9L37+yEUro2S4keP/HEE4iOlj2dW7Bu3Tq89tprdlVCH3mWc7/88kssWLDArnN5EAmQAAmQAAmQAAmQAAl0FQEKMgWZguzk3ubrF4CLLrsafv6BqK+rVYtzlZUWO7mUrs0uJCQE999/P4YPHw43NzcUFxfjlVdeQXp6ul0VkTnLDz/8MAIDAzk02y5iPIgESIAESIAESIAESKA7CFCQKcgUZCf3vD6JyRgxZpISyYJTedi87kc0NTY6uZSuy27ChAm45ZZbEBcXp66pvr4eH330Eb7++mu7K3HBBRfgD3/4A/z8/FBZWYlXX30Ve/bssft8HkgCJEACJEACJEACJEACXUGAgkxBpiB3RU/rYWVMnToVM2fOhL+/P7y8vAy1b2pqUotytXflav3eyfn5+Zg7dy7y8nr+ntA97LayuiRAAiRAAiRAAiRAAjYIUJApyBRk/ky0IaAXWvlS5g3LsOrFixdj5cqV7SZ2++23Y8aMGSoCnZmZiccee6zdefAEEiABEiABEiABEiABEuhsAhRkCjIFubN7WQ/Mf9y4cbjmmmvg7u6OnJwcrF+/3qEh0ffeey8uv/xyRWLNmjV4/fXXeyAVVpkESIAESIAESIAESOBsJ0BBpiBTkM/2Xu4C1/f4449j9OjRaG5uxtKlS7Fo0SIXqBWrQAIkQAIkQAIkQAIkQALGBCjIFGQKMn8VOp2ArHjdr18/1NXV4e233+7QMO1OryQLIAESIAESIAESIAESOOcJUJApyBTkc/5noHMBREZG4umnn0ZsbCzKy8sxf/58HDhwoHMLZe4kQAIkQAIkQAIkQAIk0AECFGQKMgW5Ax2Hp9hPICgoCNOmTUNwcLAS5G+//RYVFRX2Z8AjSYAESIAESIAESIAESKCLCFCQKcgU5C7qbCyGBEiABEiABEiABEiABEjAtQlQkCnIFGTX7qOsHQmQAAmQAAmQAAmQAAmQQBcRoCBTkCnIXdTZWAwJkAAJkAAJkAAJkAAJkIBrE6AgU5ApyK7dR1k7EiABEiABEiABEiABEiCBLiJAQaYgU5C7qLOxGBIgARIgARIgARIgARIgAdcmQEGmIFOQXbuPsnYkQAIkQAIkQAIkQAIkQAJdRICCTEGmIHdRZ2MxJEACJEACJEACJEACJEACrk2AgkxBpiC7dh9l7UiABEiABEiABEiABEiABLqIAAWZgkxB7qLOxmJIgARIgARIgARIgARIgARcmwAFmYJMQXbtPsrakQAJkAAJkAAJkAAJkAAJdBEBCjIFmYLcRZ2NxZAACZAACZAACZAACZAACbg2AQoyBZmC7Np9lLUjARIgARIgARIgARIgARLoIgIUZAoyBdlJnc3T0wuJ/VOQkDQQAYFBcHf3UGxra6pRmH8Ch9L2oaKsxEmlMRsSIAESIAESIAESIAESIAFnE6AgU5ApyE7oVaFhERhz4aXw8wuwmFtLSzPS9u5ExsHdTiiRWZAACZAACZAACZAACZAACTibAAWZgkxBdrBXSeR4/OSpCIuIVjmJCJeXlqCstBhe3j4Ij4iCt4+v+q65uQlb1v2EU3m5DpbK00mABEiABEiABEiABEiABJxNgIJMQaYgO9irIqJ6Y9xFl8PDwxP1dbXYsv4nFBWcMuTq4emJ4RdMQJ/EZPXZsSOZ2LF5jYOl8nQSIAESIAESIAESIAESIAFnE6AgU5ApyA72qtj4RIyeOEXlciQrDbu3bWiTY1h4FMZffAUk2lxceAobV/+AxsYGB0vm6SRAAiRAAiRAAiRAAiRAAs4kQEGmIFOQHexRMXEJGDPxUri5uSFt306k79/ZJsdeYZFKkL28vHHi2GFs3fCzg6XydBIgARIgARIgARIgARIgAWcToCBTkCnIDvYqXz9/XHjJVQgICkZxUT42rf4BDQ31RrmmDDkfKUNGqM92blmrhlkzkQAJkAAJkAAJkAAJkAAJuBYBCjIFmYLshD7ZO64vRoydpCLENdVVyD50QG3vJFs9xfdNQkRUDAA3Jca7t61Hc3OzE0plFiRAAiRAAiRAAiRAAiRAAs4kQEGmIFOQndSjZIunAYOHISFxAGRhLn2SyHLa3h0oOHXCSaUxGxIgARIgARIgARIgARIgAWcToCBTkCnITuhVIsT9kgchOWUofHz92uQoWz8V5p/E3h2bUFFe6oQSmQUJkAAJkAAJkAAJkAAJkICzCVCQKcgUZAd7lQyrllWsI6NjFUvZ4ikrYx/Kiovg7eOjtndK7J+qosqyDdTmdStQXJjvYKk8nQRIgARIgARIgARIgARIwNkEKMgUZAqyg71KosZDzh+jcrG0inVYRBTGXngZvH18UVpciA2rvmuzkJeD1eDpJEACJEACJEACJEACJEACDhKgIFOQKcgOdCJPLy+MmzQV4ZHRalGu9T9/i8qKMrM5jhp/MeISktDU1IhNa35EYX6eAyXzVBIgARIgARIgARIgARIgAWcToCBTkCnIDvQqT08vjJ88FWER0Wr16rUrlqGmpspsjrLNU+rQ1q2etq5fiRO5RxwomaeSAAmQAAmQAAmQAAmQAAk4mwAFmYJMQXagV+kFWeYXy9DpstLiNjm6ublhzMRLEROXAFmwa9PaFcjPy3WgZJ5KAiRAAiRAAiRAAiRAAiTgbAIUZAoyBdnBXjV81AS1CJekooKT2LJ+pVqMS0six/L90BFj1L7IEmnesEqGYpc7WDJPJwESIAESIAESIAESIAEScCYBCjIFmYLsYI/qFRaJcRddrhbgktTc3ISSogJUVVaolavDwqPg5x9gKCUzbS/2797qYKk8nQRIgARIgARIgARIgARIwNkEKMgUZAqyE3qVDJ0eMWYSvL19LOYmW0DlHs3E7u0b0dTY6IRSmQUJkAAJkAAJkAAJkAAJkIAzCVCQKcgUZCf1KE8vbyQlD0J8Yn8EBAap4dSS6upqUVxwCpnp+1BceMpJpTEbEiABEiABEiABEiABEiABZxOgIFOQKcjO7lXMjwRIgARIgARIgARIgARIoEcSoCBTkCnIPbLrstIkQAIkQAIkQAIkQAIkQALOJkBBpiBTkJ3dq5gfCZAACZAACZAACZAACZBAjyRAQaYgU5B7ZNdlpUmABEiABEiABEiABEiABJxNgIJMQaYgO7tXMT8SIAESIAESIAESIAESIIEeSYCCTEGmIPfIrstKkwAJkAAJkAAJkAAJkAAJOJsABZmCTEF2dq9ifiRAAiRAAiRAAiRAAiRAAj2SAAWZgkxB7pFdl5UmARIgARIgARIgARIgARJwNgEKMgWZguzsXsX8SIAESIAESIAESIAESIAEeiQBCjIFmYLcI7suK00CJEACJEACJEACJEACJOBsAhRkCjIF2dm9ivmRAAmQAAmQAAmQAAmQAAn0SAIUZAoyBblHdl1WmgRIgARIgARIgARIgARIwNkEKMgUZAqys3sV8yMBEiABEiABEiABEiABEuiRBCjIFGQKco/suqw0CZAACZAACZAACZAACZCAswlQkCnIFGRn9yrmRwIkQAIkQAIkQAIkQAIk0CMJUJApyBTkHtl1WWkSIAESIAESIAESIAESIAFnE6AgU5ApyM7uVcyPBEiABEiABEiABEiABEigRxKgIFOQKcg9suuy0q5OwMvPE+NuS0VwlD8a65uwfckhFB4u77Jq68s3V+jebw4jZ1dBl9WHBbk+ge5us65PiDUkARIgARI4FwhQkCnIFORzoafzGrucQHfLBgW5y295jy+wu9tsTwMYEOaLyKQQVe2yvCqUHK/saZfA+pIACZAACZghQEGmIFOQnfTT4OHpibg+/dAveRCCgkMhf5dUV1eL4oJTyDiwC6UlRU4qjdlYIzD4sgT0GxPTbkgF2WXYsji93eeZO6G7ZcPT2wMDL4qDf6iPoXqBEX6Qh3pJPTmCnHB+JM67qp+6jvL8amz6MA0NNY1OuW/ncibd3WZ7Gnt9Ozy85SQOrMjpaZdgqG9AL1+Mv2MQfAK8umXES48Fx4qTAAmclQQoyBRkCrITuraffwDGXngZQnqFW8ytpaUFmWl7kbZvB5qbm51QKrOwRICCbJ6MnsvZIsjFxyqw+aM0NDe1sEM4SICC3D6AZ6sg19c0qpdOFfnV7QPCo0mABEjgLCFAQaYgU5Ad7MxeXt4YO+lyhEdGq5xaWppRUlSAyopyeHn7IDwiCt4+rVE7keTd29bjaHaGg6XydGsE4odFIGZgL6ND3D3cERoXAC9fTzQ1NkPEqrnB+EVFaV4VMtefcApcV5SNs1GQnRn1d8qN78GZuGKbdWWcZ6sg11U1YOP/DqKqpNaV8bNuJEACJNBpBCjIFGQKsoPdq09iMkaMmQQ3NzclxZvX/ojKijJDrjLUevgFEyDHSSouPIWNq39AY2ODgyXz9PYQ0D/8d8UDoCvKBgW5PS3m3DvWFdusK98FCrIr3x3WjQRIgAQ6ToCCTEGmIHe8/ygpHjPxUsTEJajI8Zb1K3HyeNt5aBJBnnjxlQgODUN9XS3Wr/oO5aXFDpTMU9tLoCOCHNEvGBfcMAAyn1dSS3ML6qsb1bzXo9tPoSCrDM3N5of2msrGjqWZ8An0QsrkePVfaTsylLEwuwwZa45bj9a4AaAyvIgAACAASURBVFFJoRhwYSwCI/1UfWQ0Qm15PXL3FSFr4wk01dsett9RQdaLgHBobmxWdZco/JFtp1oXJ+rCEc6yMJLcFw8vd9gbQXbkXmptzdvfE4MuTUBUcii8/TzVPaguqUP66lycSi/BqFsGIrJfCKy9gHF3d0PceRHoNyYaMu/T3dNdtauqkjrF8tjOfLNtSt+epP3JsPLeg8KRPKH3mfZU3YhjuwpwaMNxi+3Bw9sdAybEIX54BOR6JNVVNiBzQx7yDhZh7K3WV153hKPW/mRV973fHFF1iOgbrK4/a/NJZG04gaFXJiJuSDjgBhQfq8SeZdmoLq1r0927g6N+nq69vz9WX8a5AWF9gjDokj4IjvZvbQun+/XRHQU4sv2kzX7tG+SNxFFRiB7QS7UDTx8P9duiJWFddqIK25YcQmNdk8VqS3seNzsVQZH+VtuvteuWkTtDpyaqe5exJhfZm0/ai4nHkQAJkIBLEaAgU5ApyA50SU9PL4yfPBVhEdGoqa7C2p+Wqf+aS6MmXKIW8WpqasSmNT+iMD/PgZJ5ansJdESQTcXQtMzKwhps++wQqorbDkU0FWQR6sTRMfDwdG9TdSUM3x7Bif1tF3GTh+ZhV/VD7JAwowdffSZS/tZPMszWQ39cRwXZ2pxueaAvPlqBHV9kqpcHXZH0kmavIDtyL+WaRBxG3zwAfiFnFj3TrlUET15y9B4cprb1siRFIqQXXD8AYQlBFjEV51Rg+9JDbVjq21NFQTVO7C/GgIviIKJommQ7sW1LMtrIlZQ/+uaBCI0NbHOO3Mcj2/IR3jfI6tZkjnDU2pG8VCo6Wo6IxGBDm5ZpD8f3FiJ+eKTRNeXszFd9Q5+6i6MzBVnuW+qlCUpu9UJrd792AwZeFI/+Y2OUWFtL9szT78jvo75MEfUJdwyGX4i3+ri2oh4bFxw0+3KjK34jWAYJkAAJOEKAgkxBpiA70IPaCPKKZaipsS7IUtzW9StxItf4oc+BavBUOwh05AEwPDEY/Ua1zi2XJCtAm0ZptGieqRzqy2tqaIZIjUhW4ZFyFB0pg5e/F+KHhhuEq766AVsWZ6DspHH7kYilRBvlIVokRqJ95aeq4enrgdCYAMPDsURxNy9Ksxpx6qgg6+d0u7m7ISDcFz7+rdEqLUk0XaJUEl3u7KQX5LyDxdjxeabNIh25lxJ1HTsrFb3iWsVS7md+ZqmKoMvK4LGDw9BQ2wQJ3IlAmxNkdw83jPxFMqJPz43Xos/ykkXOCYr0g7CVpK7pi0yjqLy+PUlbk/Yi7bH0RJX6s9TDv5ePoZ0c/OkYZGVlQ3IDRl6XjN6DwtRHIvXSFguySuET6I24oeFqoTPtGizt3e0IR337k9EPIr6h8YHoP763kmJzn5muUt6dHGWF59QpfeB1ut2LFIb0DlA85SWV3EvT1FDXhLSVx1Sb0CdZZV/y0l5wiFBKv5Y89W1Bto/avDi9zSrt0QNCMeIXyYYXbnI/a8rrVR3kz1ry8vdUXHd+kWW1j+jbV01ZPTb874CSXHsTBdleUjyOBEigJxCgIFOQKcgO9FS9IMvQ6Q2rvkOZmaHTspDXhIuvRGhYhCqNguwA9A6e2hFBtlRUYLgvhl2dhF7xgar/SPTQdHEv032I5eF168cZSpS1JJGfUTcMQGT/1r1UTaNlQVF+GHfrIDUUVoRl//dHkbuv0CBO8lAqEUEZnilRub3LDyN3b6FFQh0VZEsZyvUPn56kRE0eynd+maXkrrOTXpAd3V7HnnuplxG5DyLk8kJAS3IfxswcqF6ASDInyPo8RDyElUSLtRQSE4ALbhwAv2Bvda+lrYiAG0RHhsDe1jr8WZK0p+2fHTrzQsUNGHxZX0NE0jRqqG9Lcq/2/5ijpgloSV4CSHRb29fXkiA70if07U/K3vf9UTXMXNteyNxnpoLc3Rz119/ROcjyQmT87FT1YkR+P45uz8fBFTmGofXyeyAvU2QqhfTrAz8eVcfok/Q7eXElSUZRyKgDe6ZZWLp/pkP4O7J1mn6ItWx5Jb9nTCRAAiTQEwlQkCnIFGQHe+7wUROQ2D9V5XLsSCZ2b9+ApsYzQ03d3d2ROnQkklPPMwyl6wmCbDrX0Bom/TBXUzG0dl5XLJZlTjCcUa5EjsbOSlGrYpsbwmjKIXPDCaSvym2DQ+Ygjr5loHoYlgjSxoUHDXMFk8b1xqApfdQ5lkRQLwy2oqnOFmSpV+zgcAy/JgkS2cvdU4jdy7Id7FG2TxdmUqYwE6nKWHvc9klWjrB1L4de0Rd9L2gdSWBuyK98njAiCkOv7Kv6uLn2pQmNJeGRPCSqOOjSPioPuaZDuuvStyeRqjYRYhkGHuWvJFrmk8qLmE0L09RccUl9L4jC0CsS1Z8lcrz14/Q2W2Pp+3x7BVnytcVR3/609qwXZHOfmQpyd3PUN6OOCnLskNN9xt1NRZ5FRk2jtSkXxyN5QqwqTl7GbPkk3WhEwZiZKYaXGfu+P9JGoNvbIWQ0iLyskzYk2zvZmrPc3vx5PAmQAAn0JAIUZAoyBdnBHhvdOx5jLrwU7u6tw03ramtQWHBSSbKsYB0RGaM+a2hoUFtByerVG1d9j+Ii1367TkG23jD0i9qYPsTLmaZDrLcvOaQiPaZJhm2Ov32QisKaitWomwZCBFiG74rQqMWwTJJRPUwE2/TYzhBkqbfMPZQot73zgR3sck4/3eq9dAOUjPQLUUK584tMnEwvaVMHvZya3keRj/GzB6lIv7Xhq3qWpw6VYtunZ7aDM2pP9c3Y+mmGmserT3rZNK2DXvIPrjyG7E1t10DQt8WOCLKtPuGoILsCR2cIsp6DpZdK+t9fkWiZz6sfpq3PQ16CZG/Ow4l9RWpkARMJkAAJkIBjBCjIFGQKsmN9SEV7hpw/BkkDBptdbEVEec+OjeibNFAt5tVTVrGWoZz9J/Q2u6iUKTL9/sES1Rt4URz8Q9suZmR6nqX5eQ7eErOnd2SItcwPlOGO/UbHqOiYNudWIniyIqxcq8wbtSXI1mTDUr0kIisrCku01OqCNzqBM1cPPYyOCrIMBZf50n3Oj1RzXQ2remscTq+c68qC3NF7aTT3t6ZRRfskwmaarMmpXjxNRwno89ELpilLe9qvtTpoEUdrkm/PNk8d5SjX6agguwJHZwiy9uJL8jIdKaDlb+1eyjFq0bhbBqoh+fokvzXSxmQ0yfF9RWio7ZqF8zrjN5t5kgAJkEB3EaAgU5ApyE7ofSLJ8X37I2XICAQEtq5QK9s+lRQXYvfW9WhubsbES6bB188fZSVFaq5yfX3brUucUBVmYYGAPYJhJCt2rDisHe+IIFvaXqU9Q9Wt1cNRQZaopsxzlv/aSq4qyPasemyJob3txprQdGT1484SZHtf1pg7zhGOzhBkV+DoDEHWD4/e+81h5OwqaNcLF+1gmT8vi/jJvHFtgTd9RjLXXEY7yGJoFGVbv178ngRIgATOEKAgU5ApyF3wi5CcMlRFmSUdyUrD7m0buqBUFqEnYK/oqHNMVvyVVYtlnrHM3dRWaRaxlXmd3v5eDkWQLc0b1UeQ7b2Tzo4gm67eLA/ZIm6lxyvRcnqhXBkpkDAySo00cElBdvBemq4eLav7mtvWy94Isr33srMEWdqypeH+ViPIDnJ0hiDrI8jdxdEZguyMCLK+HjLCIzwhSK0HIEOztX3WtWOKciqwZXF6l6wwb+994XEkQAIk4MoEKMgUZApyJ/fQwKAQQ/RY5h/LHshFBbrtVzq5fGbfSqA9gizRUpkXLA/kIkOyfZLMHdUnW/Mt7RmuKvnpF2YyXYxHVrKVbXlkWOzBn3KMVk42d1+bm5pRI1uznNnlxeiw9g6x1s+DlBcEWz5Ob7NSrqvPQXb0XupfVFiTS6tzkL091HD50NgANTR/19fZqCxouyWQ/mZJBFc/59Se9mtN0vWrHlta1MnaHGRHOTpDkGVof3dzdIYgO2MOsrXfdeEki8olT+ytpkPI6tbm5qzz3wYSIAESIAHzBCjIFGQKcif+OoT2CsfoiVPgH9A67Drn8CHs2rruDPNOLJtZGxOwRzC0M/RiqG09Y8rTaPXp/Go1N7Xh9IrBpkJuaVirDFmVB36Z721umyb9ysgyr1BE3XS/5fbcZ/2DuaW5j5YEwJJUxZ8XgfOu7qf2c3XFCLIz7qVeLi2tRm5rFWs9+1MZJdjxRVa7Inr2tF9rgqxfET0v7fTe0SYvUqytYu0Mjo7OQTaV7O7gaKl/mFtp2lLfdMYq1rb6vUSVZZV9+Z2SZGkot618+D0JkAAJnIsEKMgUZApyJ/T8oOBQDBg0DPF9k+Dm5q5KKCo4hc1rf0RDA1cZ7QTkNrO0RzC0TML7BmP0TQMhQ4zVFk6LjIcnavsPy/BiWbirI3OQJY8RM/ojLKH1AVZWqBYB1u9lqt8vVR2TW4k9y7NRWVRr83rNHaDf6kfqvPkj68It+5oOu7qfWnxO9ldWWzjppEr27h15fbJawVoiVa4oyM64l3qhkQXTtsn+w3lVBsT27IPcKz4Io28eoLYFk0XeTmWUYu+3h+1+4WFP+7UmyL3iAjH6FtmWzEPts7zrq2yIYGrJ1j7IzuDoDEHubo76fqVnYo6ppU4q7UVGqMjvhz37INva39xcOcLpghuS1SgYayMfOvRDYuEk/T7IGWtykb2ZI6WcyZd5kQAJdB0BCjIFmYLshP4WGhah9jkOCQ2Dn1+A2t5Jn06eOIadW9aqFayZuoeAPYKh1UyET7blkRWb5QG2oqBGrQrbVN+E8MQQRCQGq2HPss1OTEovtQCObMsj0iSSKMOy9eXJsRKJri6tU0ItWwb1ig80LKxTU1aHrZ8cUnvXmiYVmbyir+FYqU9teb2qkyzCI4vzBIT7ormhRQm2fliuaV5BUX4Yd+sgJbSS5KFe6izDfkXG/Xv5qAV9TuwvUt/rj5dyS45V4lRmqfouqn/I6RW2G1BdVqfmQNZVNuDEwWJUFlYjP7Oszd6u3XHnnXUvx85MUSuZS5KXGHnpxYqdtJHYwWHq2mU+upRnaZ9tWVCp35how2r3cv+qSupQVdQ63FqifkGRfqgsrMHWTzKM9im2p/1aE2QZKi5D9qMH9lJlyVx6aavShn0CvRE3NFyJVHNji7rvpqMenMHRGYIsde9Ojvo2bDpHX/qItAMZ7SH3Vvq6DE2XbbW0PqWdL0Ogh1yeYOjX8uJFzhN5ljagLbpl7sWZ5CH3UhbnkvskvwXa2ghaG9LPQ5b2JPurOzL6xFbflXrLdm9+Ia2raltded9WZvyeBEiABLqZAAWZgkxBdkInjI1PVEOpTVNVZQXS9+9E7tEsDqt2AmdHsrBHMPT5mz7A6r+TB+Ej2/KVyJw3LdGoWtpQRntWoZZ8io9VYteXWVZlUuYhSzkSfbSU5OHX0gJShnPcZKudvkgcFWV2SzI5zmiPXBvHiwTs/zEHAb181FxqLXVkD11H7q2tcx29l5K/pW115DvhkLkxDwnnR6qInSVBlsXf+o+LxcBJsUqGLSV5UbJpYRpkf1st2dN+bW0NpIb0z0pV+zGbJmmLh7ecUnKmiZcs5lV4+Mxey45ydJYgdzdHPbvwxGCMvK51FIWldHjLSRxYkWP8tRswaIrxC5M2/34U16oXJW0WhdNt7War7cvvwo4vMlF0xHjPbFvntfd7CnJ7ifF4EiABVyZAQaYgU5Cd0EN7hUVi/OSpajunmuoqnDyRgxPHjqCivDXaxtT9BOwRDNNaSpR38KUJSihEaESEZHizPPAe31sIGVJ43lX9jE7TBFmiR6NuGIDgGH8VSZJhyppMiUDJithHtp5C2ckzQ3WtURI5FgGTMmVopiZY2p7MErna+WWWikJZSzJXWERHIpm+wd6qXloeEonK2pCH/Cxdu3UDYlLCMHBSHGRbGYlsSbRKyjm07gTys0sVI1cWZOHhyL3UeIoESfQyKjkUskibcKsuqUP66lzFQ1vYzdZq4iITwktGH8g+tlq0UPKTeeySpwzjduYiXdo1SNRzwIQ4xA+PMEidSFTWxjwc3XYKgy9PUO3D0ksORzg6TZBPX0x3ctT3MWkX/cfHWryfsh9xG0GWDNygRmEMuqTPmd+Y0yNEju4owJHtJ9ssiienyXSGoVf2RWRSqBoyr9/iSevLsqigRK1lC6mu2uJJP8RarjdnZ373//CzBiRAAiTQAQIUZAoyBbkDHYenkID2oCriXVdRrxbZOleTMPD0cre6grarsxHpcORe6hexKj1RpeZ3i2T2tCQMWppaOlx3Rzn2NF6sLwmQAAmQwNlHgIJMQaYgn339mldEAiTQlQTcgGFX9UOf4ZGqVLNDaruyPiyLBEiABEiABEigwwQoyBRkCnKHuw9PJAESONcJyJDllMnxSLwgWg11lajx1o8z1OrnTCRAAiRAAiRAAj2PAAWZgkxB7nn9ljUmARLoQgIybHjgRXFq7rckL39PBIb5tf5ZNwdUW7ztwIqjRtthdWFVWRQJkAAJkAAJkICDBCjIFGQKsoOdiKeTAAmc3QREkMfemorQ2NZtnswlWbjs8NZTyFide07PRz+7WwKvjgRIgARI4FwgQEGmIFOQz4WezmskARJwiMCYmSlq+yNJsm+07G0tqbK4BvkZpV26WrBDF8KTSYAESIAESIAErBKgIFOQKcj8kSABEiABEiABEiABEiABEiABABRkCjIFmT8FJEACJEACJEACJEACJEACJEBBVm3Azc2t9b+tfzH+7PTf9Y1Fjnd779PlLbIgi2nSPjN819IC7Sij40+fq32r/irHmnwuJxvn2ZqbfHameP1ncoL8n8lnp8/RztVObi32dA1Pl6/ONXwkf1OVMJTXerxpPXR1l+9P10Edq7uuBf/5OzseCZAACZAACZAACZAACZAACbgkAUaQKcgUZJfsmqwUCZAACZAACZAACZAACZBAVxOgIFOQKchd3etYHgmQAAmQAAmQAAmQAAmQgEsSoCBTkCnILtk1WSkSIAESIAESIAESIAESIIGuJkBBpiBTkLu617E8EiABEiABEiABEiABEiABlyRAQaYgU5BdsmuyUiRAAiRAAiRAAiRAAiRAAl1NgIJMQaYgd3WvY3kkQAIkQAIkQAIkQAIkQAIuSYCCTEGmILtk12SlSIAESIAESIAEHCWQnJwMf39/HD16FGVlZY5mx/NJgATOAQIUZAoyBfkc6Oi8RBIgARIgARI4Fwj4+fnhmmuuwWWXXYbQ0FB4eHigoaEBCxcuxLJly84FBLxGEiABBwlQkCnIFGQHOxFPJwESIAEScA6BxMQYPP/8XYiO7oWGhkb897/fYMmStc7JnLmc9QSGDx+Oe++9F1FRUUbXSkE+6289L5AEnEqAgkxBpiA7tUsxMxIgARIggY4SoCC3j9zYsakYMyZVnXTo0HF8993W9mVwFh09btw4/OY3v0FISIi6qqamJuTk5GD37t3Yv38/srKyOMT6LLrfvBQS6EwCFGQKMgVZ18M8Pb0QE5eA/ilDERIaBjc3N9RUV2HtimWoqamyqy8Gh/TC0BFjERYeBQ9PT7S0NKOyohzZGftx7GgWmhob7crHVQ7yDopAzLjr0CtlAryDwuHu6d368FFfg5rCHORv/waFe35CS3OTocp9p/4WMWOvs3gJ2rl5G5eiJG290blykm+v3hj8q7/CKyDUbgzVpw7j4ILH0FhTYfac5Bv+hPDBkwzflWZuQ/rip4GWljbHR424Ev2mP2B32dqB+jp4+gVh0O0vwT+6n935NFSV4sB7D6G2JM/ucywd2BGGrfe1Foc+fQ5l2Tsc5mjPvWyqq0JVXibyNi5Bada2NvdDz7GjfDpyP09u/gJHf/i3w/eBGbSPAAW5fbzuvXc6brppsjppw4b9eOqp99uXwVlytEjxk08+iaSkJHVFxcXFeOedd7Bp06az5Ap5GSRAAl1JgIJMQaYgAwgODcOwkeMQFhEFNzd3oz7YHkEeOGg4Us8b0SYPLcPionxsXb8StTXVXdnPO1SWm7sH+lxyB6LHXGeQYksZVZ3MwqHP5qHutNjZEmQtH3l5UJa1A1mfv4TG2kpD9h2RO2uC7BXYC4N/OR++YXGGMurL8rH//YdRX15IQdYRsCbI7eVojyDr20JpxmZkLn0RzY31hhpRkDvUfXvsSRTk9t06CnIrr9mzZ2PGjBlwd3dHRUUF3nrrLcpx+5oSjyYBEtARoCBTkCnIAGLjEzF64hRD1xBxkySybK8gx/ZJxAXjJsPd3UOdW1VZgZKifPj5B6BXeKTh85PHc7B1w0o0N7eW4ZLJzQ19L/8Nosdca5B9iRDXFp9AbVEu3L28ERCTDE//1qFs8t2Rb/+F/B3fqr/rBbkq75CRhIp4+8f0V9FoLRXs+gHZy14zRA/1giziXJmbhpamBquo6kpPInfVAhXZNk0hSSMx4KanVL3LMrchpP8F6pCsL19F0b6f2xwfnDgcMWNmtPk8MC4FXoFh6nqlTo015UbH6OugF7vmhjpUHNsP+a+11FhbhWM/vQOJlDqaJPre59K74ekbYJSVd3AEAnoPUJ/VFB1HbWGO0ffNjQ04sX4x5IWDoxzlfGv30sPHH/7RSRBWqh21NOP42kU4vnqhoWhnC7K5azbHujh9Iwp3/+jobeD57SRAQW4fMAoy1Hzjp59+Gr1791bPMz/99BPefPPN9oHk0SRAAiSgI0BBpiBTkE8L8qgJF6O0uAjZhw6gMD8PoydcgrCIaLsE2cvLGxMuvhKhYRGKZ/r+Xcg4sMvAViLTYy+8DN4+vkoCtqxfCRFlV01RI6chcdrvIDIr9S1N34Ts5X9HY7Vuiww3N0ScN0WJ9PF1i3Byy5cGwdUL8uFlryN/53fGl+rmhtgJNyP+4ttVGZLvwQVPoDq/Vcr0UmVr6LQ9DLX6NFaX4/Dyv6trk2ioCFDWV3+1Jwt1TOptf0FI0gU2hyHLsc4QO7sr1o4D9cON2zuMuCMcbd1Luf8J8jJm9HT1Msb0fjuDoyPX3A60PNQJBCjI7YNIQQamTJmCe+65Bz4+PigvL8ff/vY37Nmzp30geTQJkAAJUJDFig0UZJqpJPX/tT+b/FffaOR4t/c+Xd4iImSatM8M37W0QDvK6PjT52rfqr/KsSafy8nGebbmJp+dKV7/mZwg/2fy2elztHO1k1uLPV3D0+Wrcw0fyd9UJQzltR5vWg9d3eX703VQx+qua8F//u6SHdDTy1s1gIaG1qGdMhd5/OSpdgtyVO94jJt0mXrALy0uxIZV3xny0i44OWUohpw/Rv31eE42tm1c5Zos/EPUcGS/iD6qfvnbl+PId2+2mSesVd7Nw6tNdNemIANq2Hbqbc8jKGGIkvDsr18zROxsSVV7wHl4+yF19guQ6K8MBU/7cA4G3vQkghKGtpExW/mey4LcUY723EuJag+581V4h0Sp6Ll+HvbZJMh6mZG21tTUjKqqGuTkFOC777bghx92qIWFrKX+/XvjvvtmICUlHn5+PmhubkFpaSW+/nojPv10DV5//XeQY6qqavHsswuwfXtGm+zk+zvvvAJDh/ZDYKAf3N3dUF/fiNzcAixduhbffmt+oacbbpiEX//6Knh5ear5rrLC9P33/wKDB/eFj4+XqktRURmWLduMRYt+tngtMTFhKp9RowYiIMBX1a+ioho//bQT3367Bc899yurq1g7wvHf/34Qyclxis8HH/yA66+fhKioULVi9uefr8OqVbvxyCO3oF+/GPW7dOBADv7618+Qk5PvEhwvuGAgnnnmdgM3W79Z8r21tiBt6KabLsJVV41FWFig2hJJ2mBxcSVWrtyJBQtWoKbG+siXCROG4LrrJiApKRZ+ft7w9W1dp0JLtbX1yMjIxR/+0DlRXVm1+vLLL1fFiRg/++yz9mDhMSRAAiRgkQAjyIwgU5DNdI/2CnLq0JFIGXK+yilt306k79/ZJtfAoBBMvGQafP38UVlehrUrl6O+rtblfp7Ch16C/jMeVpFdGU4tkd36irbzdK1V3B5BlvMtHWePVNkLThbJGjT7RXj6BxsixnEX3Yb4ybPtigTryzmXBbmjHO25lz6hMRh85ytq2H1t8XEc+OARNFSWKPRnkyA/99ydEJkwl+Rl4uHDJ/Hyyx+r1YjNpUmTzsODD16P0NDANl+L1KxYsRPnn99fyaUlKZoxYwLuvnuaRcGSfNau3Yfnn1/URnD1grxtWwaCgvyQktL6Ik2fJA+R/Vde+aTNdwMGxOGpp2YjLi6izXfCYOPGA+jfP9aqIDvCURNkkbb8/FIkJJzZDqi6ug6ZmccxbFjrQk+SpE4i/K+9tsSovt3F0ZmCLC8qnnrqNnUPtUiB6U05cuQkXnxxsdk2Ke1Q7qXwkpcs1tKOHYfwyCP/sfdnu13HzZs3D6mprSt5L1++HO+++267zufBJEACJGBKgIJMQaYgm/ldaK8gy3Ds2D79VMRh09oVyM/LbZOrRKknTL5CzUduqK/DhtXfq2izq6XEafchetQ1qlrtHYKrXYsrCXLM2F8g4fJ71EgGbc6xNifZw9sXuasX4viaD+26DeeyIHeUoy1B1g+xbm1znyPnx7cN9+NsEmSJmp5/frK6NhGKyMjQNhE3kePHH39bRYX1SWTmxRfvQZ8+kepjiXimpR1DVtYJ9O4djmHD+qGurnWevoiLOUEeN24QHn30FoSEtM5Llwj28eOFEFmMiemFoCB/JUoiuIsXr8K77xpPjdALckFBKQIC/NSoK8lDkkivRCQliWy+8sqnWL16t+EyJDr56qu/xXnnta7sLuXIS4GDB48hONgPI0YMMKzNINdgaR9kRzhqgizie+pUKRYtWomLLx6OESOS1b+Fpp9JPUWaf/vb1wzX0Z0cRWbl+jXOISH+6v5LKioqR0GBbhrM6RpLBFii/enpx4zuxbPP3oHx4werz+TaS0oqxFnW8wAAIABJREFU1UuDyMgQ9OoVZJDetLQcPPHEuygvN97J4cEHb8D06WMNci3tqaSkAoWFxmszSHs7cOAonn/+I7t+Z9tzkLSpl19+GYmJieBex+0hx2NJgASsEaAgU5ApyGZ6SHsEWX+sDNHeuOp7lBQXKBFO6DcAFWWlOHo4Q23vpIl0U1MjNq35Uc11dqnk5obUW2We7Ug1pNrSIla26myPIMvQ7JRZcxHS7/w2ZdmSKlvlG753c0PKzLkITR6lIpISmZQIpX415oqcfTi48E82FwGTPM9ZQXaAo7VFuvSLvcnLpaK9P6s54p25inVHX/rY3eY6cOC0aaNx113TEBYWpKRx4cKf8L//GS8QNnPmJfjVr66Ap6eHEmGR188+W2MobdCgBDz99O1quLAkc4L80ku/VsOaJWVl5eGllxap/0oS0fj972fg6qvHqD+L9D766H9x8mSxoQy9IMuHIlxz5y40HCPR4WeeuQO9e4epc5Yv36yGJ2tp8uTh+OMfb4K/v4+6zq++2oh//vNLw/fyEkCkTYZAS7IkyJYQ28NRE2TJY+nSdfjXv76E/rrMfWYqyN3NUX/9HZ2DLEOq77vvWvWCRu7F8uVb1L3QhvhLW7j22vGqLZi7D8HBAXjttf9D377RqjqbN6fhuecW2hyO3YHuYfWUPn36YM6cOYiMjERtbS3eeOMNrF+/3tnFMD8SIIFzjAAFmYJMQTbT6TsqyNqK114+PmrRLh+f1vl1hw7uwYE92zBqwiWI69MaPZHtnk7kHnGpnxx9tM7WfrjWKm5TkN3c1CrRCZfdo4Zy15cX4MAHj0JWgZbUnlWsZXGw8iNnolT6eunntpqKsLYvsukCYdauq6OCbGsV665cMbkjC1Y5wtHWll3ywqL00Bbkbf4CsvWWaXJ2BNnaKtbOXEW8vR37l7+cittuuxQeHu4wNxx13ry7IJFLSTK8+bHH/tumiP/7v2uU7EkU2FSQU1P7YO7cOxEeHozy8mrMn/+JmkesTyI9EuFNSuqtosr/+McX+O67M/OR9SJpLkIseT300I24+uqxKttNmw5izpwzw11/97sZuP76C9V32dl5ePjhf7eJSurLaK8gS762OOoF+dNPV+Ott5YZCbK5z/SC7Aoc9feso4L8xBOzcNllI1VWEsX/4x//bTRqQcRYBFjml0sy3WPZVRZT0wtydXU1XnnlFezebf7fg/b2SR5PAiRw7hKgIFOQKchm+r+jgizRY/22UcePHca2DT+fk4Jsdpun6CR4BYWpRc0kcmg6rNaWVOlvmdlVsk8foJ9PbTqUWq3UfdXv1ZFHvvmnYYuqzhBkW//EdGVUsyOC7AhHe+9l69ZZB3Hk+7dQfTLLgMzZgmztXpguEGbrvjnze5HfOXNuU9FV04ilyMqbbz6gFt+SYazvv/89PvpoZZviZaiwRGhl+K2pIF977QSIQHt7e2LfviN44IF/ma2+JrEy5Pbjj1epobla0strXl4xHn/8v8jNNZ4mohc20+vQS75pdFkrQy+gHRFkaxylDEcF2RU4OkOQ9Rws3Qv9C5ejR0/hwQffNLzQkDb5r3/9P8ioAUkyJUDmwMsiazJvuasSBbmrSLMcEji3CFCQKcgU5E4QZEaQf4uYsdfZ/DVVw2r3rcbhZa8ZDau1V6qkAGuC3P/ahxAx/HKzi3HpF50qOrAWmUuet1nfjkaQbWXs6oLsCEdbw+Vldeyw1ImIn3KnWqSrqa4amUtfQGnmNoXtbBJkmVc7c+bFaqEumX8ssipJVn+uq6uHj4+3mvdpKpb6aJ3MJ5W5vbLasmnSL+BkKsi33jpFrVwtEeq1a/fiz3/+n9lmqZdgLZpqTpBN66gdY02QNSmzJvn2RCY7ytEZguwKHB0V5Pj4CLz44q/VUHi5FzIP+733vm/THvRt4dSpEvzpT+8aye+NN16Eu+6SkVJeRudKG5Uh+lu2pGPJkrVt5tPb+j1sz/cU5PbQ4rEkQAL2EqAgU5ApyE4UZFmVev2q71BeWozgkF7oN2AQSooKIBFkmYOsDbG2tpiXvZ23U47Tz0E22XqpPeXph1hbOk8ihsdWvoe8TUsN+ydrx9qSKnvqohcrc0OcZZupwPhB8PDxb7NysqX8OyrI3RmZNL2W9kaQHeVo772UFxYps55TklxTeEzNF5fh784W5K58GaFnL5FNGX4sQ5xtJWuCbG3LHmuCbLo1kq06yPedJcjWIsO2BNkRjs4QZFfg6Kgg22Js7oWIOUGW42Te96xZU9RCYeZWspZ7LfOT//a3JZ0iyjL3+Omnn0ZsbCwX6bKnU/MYEiABuwhQkCnIFGQHBVlOt2fxLUuLednVU7vwIC1aKEUW7v4RWV/9td2lW5uD3HvCjegz5VdqeHVJxmYc+mxemwWy7JUqaxWT/ZVlgS4RYFuppakBh5a8iJL0DVYPPRcF2VGO7bmX2rxw/f04GwTZdAVqibDJ4lgy91NbFEkiymPHpqpFuKwJssz9nTfvQzW/1zTZG0G21R+0711NkB3l6AxB1keQu4ujo4LsrAiyvh6ytdhVV41Rq7TLHHaZKqBPMm9eItC29vm2l6n+uJdeegnJyclqBfSlS5di0aJFHcmG55AACZCAgQAFmYJMQXaCIOv3Qd67czOyM4wXv5Ei9PsgV1dVYO1Py1FbU+1yP0eRwy5Dv2seNLt4lr2VtSbI3kERGHT7C/ANj4dEdrO+mI/iNONVR9sjVZbqpO11bG+d7YksnouC7CjH9txLc+3mbBBk/VBVmcspoqBfHVraqLW5s/oVg61FX63NQb7yytH4f//vOvj6eiMvrwhvvvk1amtbt4WylHJzCyCRQy3pr6MjQ6znz/8NRo4coLLTVos2LdvaHGRHOTpDkF2Bo6OCbMqhI3OQbf2uytxkWTBtzJgUtRJ2RUUN5s5doBagc3Z65JFHMG7cOJXtpk2bMH/+fGcXwfxIgATOMQIUZAoyBdkJghzVOx7jJl2moqLFhaewcfUPaGw0fvhMThmKIeePUaXl5R7B1g0/n2HvQj88PqExGPzLl+Ed3Lrfakn6RmQufdFojrCt6tpaxVofRS4/ugfpHz1lcQ5y9anDOLjgMTTWVNgq1vC9bCE1aPbzCEoYisbqchxc+DgkH9PkGxaHwb+cr7Z9qjyRjoMLnkBzfY3Fcs41QXYGR3sFWYa8p94m92yIWrgt++vX1AiGs0GQ9cNyLYnhPfdchZtvnqzmCJuTT71cyvxj2VLHNFlbxVo/rNbcFkv2dC5HBVm/wrXsiyuLPplGFK2tYu0Mjo4u0uUKHC0Jsuyh/bvf/cOuKK2jq1jb016GDEnEs8/+Er16Wd7T2p58bB1zww034JZbblEifuLECcydOxcFBQW2TuP3JEACJGCRAAWZgkxBdoIge3l5q22dQsMiFM/0/buQcWCXgW1YRBTGXngZvH181cP/9k1rcDwn22V/muImz0bcpFmGVaYrjx3EkW//her8tpIpYuMbHmckoLYEWR9FlrnI2V+9isK9Pxt42CtVlgAaie/xdKQtfAJNZsRXL4BNtVVIW/SUWknZUjrXBNkZHO25l7LVV/zFd6D3+BvUyAX9vTgbBPnXv74Kt9xysdp+adeuLLW/sF4Mp0w5H/fdNwOBgb7w8vI0K8iyB7LM9RSBlmjcP/7xOX76aaehqdqzD/Kf/nQrpCyph0Siv/9+m9rmSIZ825McFWR99FXK/+CDH9UCUVqytQ+yMzg6KshS1+7mqL9X+lW1zTG1dF+nTh2F+++/Tq14bmsfZNl3W/aLlkhze9Ldd0/DTTddpNq0takB7cnT3LGDBw+GRJGDg4M5D9lRmDyfBEhAEaAgU5ApyAD6JQ9ScqsleRMdER2r9jGWSHB+Xi4aGxsN3x/OPIjSYuPtTeISkjBy7CS4u3uo46oqK1BSlK+kOCIqxvB5/snj2LL+J7Vol6smkd7k6x9Hr5TxhiqK2DdWlaE6PxvNDfVKZPwiE1SkuaYgxyjKa0uQJVN9FFmk9OCHcwzR2/bsg6xVUPZQzl21QImwtoWTRPRtDZ3WDyHOWfE28jYucbog29oHWSuwK/bhbc8iXc7gaOteyhzxgN4DjOaK6+em21okzNzNMuWov2Zr+yDr83Lm3tSTJ7duvyTzMmXF6pycU9i//6gqTvaZTUiIRGVlLYqLK9CvXwwqK2uwZ082TpwoxqpVu3DwYA4kcvmXv9ypFkOSJNIin8uWOvLZsGH91HkBAX6qHHOLeZnmIfnU1zeq4d4iMJLk3MjIECXfsrCSPjkqyDJU/IUX7kJqaoLKVlZQlqin/C842A8jRgxQ4t7Y2ASZ02o6nNwZHJ0hyN3NUX9PTOdlywvaiopqnDxZotqarDAdERGCL79cb7RStfwb9+c/347x4werFyZyXklJJfLzS9X979UryLDo1t69h9We1fqXOnJ/Xnrp14iICFZD9QsKSlV5kqRM+d7Pz1vlLcnSvtfO+jfwqaeewvnnn3+6rGz85S9/QVlZmbOyZz4kQALnGAEKMgWZggwY7U9sz2/A1vUrcSL3SJtDBw4ajtTzRqjIq7lUVlKEzetWoKa6yp5iuvUYkeQ+U+5E1AVXQ/5sLZlGX+0RZNMo8tHv38KpbctUMe3Z5kmrl34otrnFnizVPyRpJAbc9BQ8vH3V1kLpi59us6q2dm5HI8j23siuWO26PYLsDI7tvZdyHzM+fQ51JXkKm16QO8pRf8325mHrxYq9+chxpjJieq425FmkQraA0pKpIE6adB4eeugGiGiay2PNmr0YMyYVAQG+ZgVZzklIiFIR0OTkWIO8mLsWWQRszpx3jb5yVJAlM5mb+swzd6gthkyTSNr69fsRE9MLyclxbQTZGRydIciuwFHPbsaMCZBordx3S2nDhv146qn3jb6W7bLmzfsVUlL6WGwL8gLmxRcXq5cY+iQLccm+1lFRoTa7QlFROf7618/MLixn82Q7D7jgggvw+9//XkWRpR1t27ZNzUXujEXB7KwSDyMBEujBBCjIFGQKshMFWX4LQnuFY/Dw0QgLj4KHp6caUl1ZUa4W7jp2NMulI8fmfstEZKNHX6Oiyd7BEZB9ayXJ0GjZhqfyRAbyd3yL8sO7DPOI7RFkyUM/lFsvuO2VKslLO9/Nw1PNK5bhwfVl+dj//sOoLzeO9uuvU+Yfa8c3VJao7YVqi40fBrXjzyVB1nNxhKM991LaUn15gWpHJ7d+bTQP/GwQZGk/InezZl2C6dPHISwsUP1dIqh5ecVYtmyTWrRKInrWBFny6d+/txqOnZISr4bHStSutLQSX3+9EenpxzBnzm1KlCxty6PVZerUkaouCQnRRpE+qVNtbb2KYD/55HtOF2TJUKKeMlx61KiBBqmTiLfMrZYh308+eZtatMzcgmSOcnSWILsCR/3NkXZxxx1TMXRoIoKC/FT7kqTtsb1jRyaeftpYkOV7aUMyDPqqq8bq2mUTiosrsXLlTixYsMLsEHyRahkVIS86tP27tfpoZUo0esuWNCxevKpTtngy/ffq7rvvxhVXyF7fHuq55vjx4/j444+xYYP13Ql68DM8q04CJNBJBCjIFGQKcid1LmZLAiRAAu0hIEN3RW4OHMjpUORLH+GVFahlrrN+Fer21KU7jxUOMi+6o3V3lGN3XjvL7jgBEeN7770XkyfLYnetLwgk1dXVoba2FosXL8YPP/zQ8QJ4JgmQwDlDgIJMQaYgnzPdnRdKAiRwthIQIXj++btUVFaSuSG1Z+u187pIQE9gypQpmDVrFsLCzgzjb2howMKFC7FsWes0HiYSIAESsEaAgkxBpiDzN4IESIAEejABGbL8+9/PMOw529FVh3swAladBIwIyAuj0aNHQ+Ymx8fHo7m5GV9//bXaJ5mJBEiABGwRoCBTkCnItnoJvycBEiCBbiYgC3j97nczEB4erGoiq03Ln2WVYB8fT8OQUpl7uXHjAfz5zws6NEy7my+TxZMACZAACZBAtxOgIFOQKcjd3g1ZARIgARKwTkAE+eWXf434+EiLB8oCW+vW7cX8+Z/avbcxuZMACZAACZAACRgToCBTkCnI/FUgARIggR5AQL8Cs6w0LUIsSbbR2bfvMD79dA1ycvJ7wJWwiiRAAiRAAiTgugQoyBRkCrLr9k/WjARIgARIgARIgARIgARIoAsJUJApyBTkLuxwLIoESIAESIAESIAESIAESMB1CVCQKcgUZNftn6wZCZAACZAACZAACZAACZBAFxKgIFOQKchd2OFYFAmQAAmQAAmQAAmQAAmQgOsSoCBTkCnIrts/WTMSIAESIAESIAESIAESIIEuJEBBpiBTkLuww7EoEiABEiABEiABEiABEiAB1yVAQaYgU5Bdt3+yZiRAAiRAAiRAAiRAAiRAAl1IgIJMQaYgd2GHY1EkQAIkQAIkQAIkQAIkQAKuS4CCTEGmILtu/2TNSIAESIAESIAESIAESIAEupAABZmCTEHuwg7HokiABEiABEiABOwj4OHhgYEDB0L+m5WVhZqaGvtO7EFHRUZGIjY2FsXFxTh27FgPqjmrSgJnLwEKMgWZgnz29m9eGQmQQCcS0B7eKysr+WDbiZyZ9blFICQkBDNnzsTYsWMRFBQEd3d3VFdX45VXXsHu3bvPOhi//OUvce2116rrampqwtGjR7F8+XKsWrXqrLtWXhAJ9BQCFGQKMgW5p/RW1pMESMBlCMiD+xNPPKGiWy0tLdi8ebN6gGciARLoOIEpU6bg9ttvR3BwsFEm54ogaxfd3NyMgwcP4p///Cfy8/M7DpRnkgAJdIgABZmCTEHuUNfhSSRAAucyAXmQv+eee+Dj46MwyPDIl156CZmZmS6PZeTIkZD/ScrOzsbKlStdvs6s4NlPYPr06Zg1axZ8fX3VxTY0NKj+tGfPHhw4cOCsHmI9ePBgDB06VP1Phly7ubkpBnL9zz//PMrKys7+BsArJAEXIkBBpiBTkHUd0tPTCzFxCeifMhQhoWHqH6ma6iqsXbEMNTVVdnXdoOBQJA0cjPi+/SH5SUrbtxPp+3fadT4PIgEScH0Cw4YNwx/+8AdDpOvEiROYO3cuCgoKXL7y+iGdW7duxYsvvujydfYK7IXBv5wP37A4NFSW4MAHj6C2+LjFensHR2DIna/COyTK6vGB8YOQOus5ePgGqLya6mtx6NPnUJa9w2zevr16Y/Cv/gqvgFCz37e0NKvySjO34vjqD1FfUWiVrZu7B0KTRyNm7HXwj+kPDx9/uLm5Q8tH6nFi7SLUluQZ8tHXofrUYRxc8BgaayralBM14kr0m/6A+vzk5i9w9Id/W6xL8g1/QvjgSYbvSzO3IX3x00BLi9lzQpJGYsBNT8HDu1VmTVNLcxPqywtQtG818jZ+hsbaSqsckpKS8NhjjyEiIkIdJ3Nx33jjDWRkZNhsm8PGDMbFV01An6Q4+Af4wc3dTQ1Vrq6swd5tB/HtpytRdKrYaj7h0WG4bvaVGDxiIHz9fdW//Q0Njcg7dgqrlq3Hpp+3Wz1fpltMvf5iXHjFWASHBqo501KH8tJKbFuzC998+hPqaupsXoucJ8PL5WWBt7e3ej7bsmULXn75ZZvndvSAvlN/q9qfJGl3OT++jZObPzfKzt42J8fFX3w7pH14+AWpttzcWI/q/MPI27gUJWnrIW1Dn/TttD3XYK3ttycf7djU2/6CkKQL1F+bG+qQueQFlBzabJSVvt2XZW9H2odPGr7Xczy87HXk7/yuTTU8/YIw6PaX4B/dDw1VpTjw3kOGvm3tO3uvpz193t48z9XjKMgUZAoygODQMAwbOQ5hEVHqB12f7BFk+cd0wKDhSBowCD6+fm1+TyjI5+pPLK/7bCZw/fXX44orrkBdXR0++ugjbNq0qUdcbk8UZAGrSZw8YGd9+SqK9v1skXevlAkYcMPjcPPwQkXOPhxc+Ce0NDW0Ob73+BuQcNk9Rp/nrl6I42s+NJu3LUHWnyRSeHj5P1B8YI3ZvOQhOfkXj8MvMsFquxHBkPqc2PCpElZ7ZcXeh2X9ywetIvVl+dj//sOoLzcv+LYEWX9BIsqHlryAytyDFq/zoYcewsSJE9X3MqR4/vz5anSDtSRSe8fvb0Ly4H5Kii2lirJKLHrrc+zatM/sIeePG4pZ9/4CQSGBZr8X0d2yeic+emOpkl7TFBQSgP+b8yv0TY43RH5Njzl+JA/vvPoRTubaN1z67rvvVr8tIsy1tbV48803sW7duk75fdGLnRRQeSIdBxc8geb6Mwui2dPmokdNR8Llv4a7p7fZeop8l2XtQNbnLxm9MHFFQZYLKD64DoeWPG/0koiC3ClN0CUzpSBTkCnIAGLjEzF64hRDJ5Ufckkiy/YIskSKx0+eirCIaEMeTU2N8PDwVH+nILvk7x8rRQLnJIGeKshRI6ch8arfq9/lwt0/Iuurv1q8f/qH/pwVbyNv45K2x7q5IWXmXIQmj0JN0XGgpRl+EX1QeTwdaQufQJNOELST9aIgAlyZm2Yk3p7+IQiMS4FEhiU1VJch/aMnUZVnPPTePyoRKbPmwjs40lAviQJXn8pGU101fEKj4RfZ15BPVd4hpH04R0WK7ZEVydReQdYe+t29vFGWuQ0h/VujaNZeQuhFoaGyWDHTJ5/QGPhF9TW8cK4tylXSZS6irh+N0djYiE8++QRLlpi5X7oCNClNHNDH8KlEfIvzS1BTXYvQ8BCEhAYZxPnE0ZN4/Zn/oKLMeCRYbEI07n3iTkTEhKl8RIALTxajvq4Bkb3D4evXOoWiqbEJyz9ege8+azsd4TeP34HhYwYrOZaIrwh5cUFpmzoc3HUIb/zlPbOSbdo4RYyfe+45pKSkqK927dql/t4ZyVSQpf3J6IGKnP2G4my1ubDUieh/3SNw92rlJRHYyuNp6r/+0UnwCpIRea3Bh5L0jchc+qKKLEsKThyOmDEz2lya9COvwDAVcZZ+1lhTbnRMXelJ5K5aYLafdoSTPoIs58uLnQMfPAopR0sU5I6Q7ZnnUJApyBTk04I8asLFKC0uQvahAyjMz8PoCZco4W2PIAcGheBE7hFkZxxAUEgoRk9olW4Kcs/8gWStSeBsJNBTBVkiroNmvwhP/2BYG17p4e2H1NkvKFFtqq1C2qKnzEYvZbi2DNuWCKoId2NtlRpq2lhdjoMLH1dlmCZboiDH+/TqjYE3PaWGUUrK3/EtDi//uyErGUqZets8BPQeoD5rrC7F4W/fRPHBtUbRKpHt5F88qoZzpy96GvUVRep4e+ogx9kryJogyXVLPROn/c7AxNJLCGuioF2oDF8fcOMceAeFWxy6K8fKvGMZjSGrVefl5ampCrYWphKBvPW+6zFm8gg0NzVj86odWPL+cqNhzDLk+epbLoOXtxfq6+rx8X++xMaV24xuqUSOL5w6VsltZUUVPvnvV9i2dpc6xlTC8/MK8Y9n3zEarj1y4jDM/t2NSqRFrtf/uBWfvv2VQYJvvudaTLpynIoEN9Q34NN3vsK6H7bY9bMiw6xnz54NLy8vFBUVqakQtqLqdmVscpCpIJtrs9banH5osJwr0wJkeLJhWL2bmxJgGakhL45EmrO+mI/itPVWq6sJq61pDx25ZnPnmAqyueHmFGRn0Xb9fCjIFGQKMgBPL2/IAK2GhtY3mvqIsD2CLP+4ytDqutoaA099VJqC7Po/hqY11D+cyDzNhQsXqkWZ5I2+zA2TVUZLSkrwww8/4PPPP7caFYiPj1fzyiRS4u8vcwxlfluDmmdnaTuP4cOH449//KM6/vDhw2p7Exly5+fnpx6W/v3vfyMqKgo333yzmgcr+4OuWbMG77zzjtm6SH433ngj+vXrpxbBUfPra2qQk5Oj6i/X2BmpT58+mDNnjlp4RubnykPeqFGjMHXqVPTq1Us9FEs9ZI/T9957D0eOHDFbDVkhWuquJRnWLNsryRzFr7/+GunpxhEsS9eSmJiomKWmpiIwsHWuoER9ZBijcP7ss8/MbiWjbw/m8rZ3Lq/cP7kPF154obp+ba5iaWmpWglbhmqb2+vVHMdLL70UkyZNUteh3c8dO3aotqoXDH1bsvceW1s1WOp89dVXq3soc0blAV76Q0VFBfbt29emfHvLtHWc3eIbHo8hd74CEUxrIh0+9BL0n/GwPAUg++vXlEzLsGy4e+DIN/9UYmua7JXT8CEXof+MP6oh3lUns3Dwf4+hqa41ehkz9hdIuPweFVET6c34+FlIhNhscnNrnZOsm7dpbx3sEWQ9U6mnRKkH3vQkghKGWmVnjyDL9cROvAV9ptypLq0kYzMyPv5zm8t85pln1G+jpB9//BFvvfWWraagvpd2eNl1FyH/RCF2btzb5hz5/pGXf4eEpDj13Yov12Dp+8sNx4VFhuL+P/8aUbER6jdg3Q+b1VBsfUodloy7Hr4VgcEBaGxoxBcLvsXKr88Mdb7zwZlK0iUdP3oSrz31H1RVnIlSSx0emvdb9Evpq47Zs+UA3nrhA7uuT9/n5ffu7bff7pQF9fSCLEPqJdrbUF5oNMTeWpvTT2eoKz2l5sTLf42SmxuSpj+IyPOnqo9tzXGXY7pLkKWvycsieXFmOpqEgmxX0z0rDqIgU5ApyGa6cnsF2dyvAQW5Z/9G6oVIhreJhCQnJ7e5KIkarF69Gv/617/MXrCI0F133QXZ29NckvNl7urrr79uJLZ6qREh9vT0NMrj+PHj6rPo6DPD+kWsZGGbDRs2GBUl26aI0IjImEsi6yLqCxYscPpNMxU7Ef1LLrlEPdyaJpEyEcRvvzUWE30e7WFoeqyI8YwZMwyr5FrKS+6nPKTr5xs6Q5BlIaL7778fcj2Wkrw0+fvf/94mUqRnUFhYiL1792Ly5MnqBYNpkpcMsqK2JsnOFGRpx/LiZtCgQRbnW8qK3sJv+3brCxt1pLHZM3RaE1+JVlkbit0bbo3vAAAgAElEQVT/2ocQMfxyQ8RYhi9rC3tZeoC3V04tHacXUolQHVv5HvI2fNYuFPbWwR5B1kflNVZxF92G+MmzrS5YZq8g2zpOXpw9/fTTiI2NVS8N5eXOsmXL2sXD2sH3PvFLyCJekkwFeeioVNz10K0q+ltTVYN3/7YY+7entcnu/md/DRFlSTIX+f3XFqs/y2/Y46/8P8Ql9lbPUSLOS95rW/crb7wEV8+cCg8PdyXzf//zf9UQbHvSvHnz1Ms8SV999RU++MA+ubYnb+0YfZ+Sue4isTK0+fDXr6Fgzwp1mLU2lzjtPkSPukYdZ20xOP2CeLbmuEte3SXIErE+sX4xYifcrK5JP9ycgtyeltWzj6UgU5ApyGb6MAW5Z/+wOaP2psPbJJKrHgBOts5HiomJUdFcSZbE1HRlVhGuU6dOqUWd9OfL59988w3ef/99Q9X1UiPROREiEWmJPoaHh6uIneln5h6ipk2bhjvuuENFvSXV19era5Ay9XWQCKpEcFesaH0gclbSi52ULdcuWyNJ5FdkUL6XvYS1+gmfF154QX2nJXmIlpcMYWGt8wTlWPmz8NdEW3hI9Ok///mP2apfc801uPXWWw3lyPXLi4fy8nIVgRemWl7m5kGOGzcOkoe8lNCSnCNRYEm2Isiyb7JE0gcMaB1WK/WVqLHIpGn5sv+pRNX0gq7nKO1NXiaEhoaq9iR/lkiuyKs2D1JYyCgDSfJiR4Zqau1V6qK9WJFREMLBNEkZIium21Y9+uijGDNmjKEcieKLiMuoBGlPGkNZ1VvmTNoaKtvedqZ/QLUksZr4WlvMS6LLMrzaaM5xQ61hTrKlB3h75dTScb666LY9q3Gb42NvHewRZC2aLYt/aXOO9YwtLVhmS3y1ets6rm/fvvjTn/6k2m9n7HV835xfQURYkqkgT7nmQlx3+zR4enlaFdeb7r4Wl0xvXUDsaGYuXnrkH+rPcX17474n70SviFCLQ7jlOL2Iy8rab89fiLQ99m0H98ADD+Ciiy5S5cnvvyxe5uxktPry8r+rFajDBl2IssO71NB+WdzOUpuTERKDZj+vRhzIcYeWvIiSdOMXtFp9ZWqEWsE5KlEtAJb+8bMoP7Lb4uV0pyDLEPDYC29GYGyK0RQJCrKzW5/r5kdBpiBTkM30Twqy6/5odVXNTCOGIgqvvvqq4YFf5PeRRx5Rw5wlmRsa+OCDD6qhtCItMvxUhshpK5GKzMiDoRaVluHHEi3QxFAvyCIrf/vb31RE7vHHH8fo0aOVlJt+JvXQRxlEhJ599lnIQ6hEOGQ/UYnsadIiwiQPYDLkWeoow5SfeuopuxaRsfc+mEZ/hYPUQb/is8jnvffeC6mviOOXX36p5MxWkvqL/EtEWqLjsleoRE5Nh1ub1sHcFjIi6ffdd58SdpE7uVcS7baWtHshx9gS5Ouuu07NtRTBFqn88MMP1fB8LUk7kSH8wkBeJLz77ruqTWnJHEd9e1LDSR95xHAv5RrlXgpv09TROcgTJkxQjIS71FEifYsXLza0F2EoW19Jn2jPfbR1n/Xf61dclm2eZLsnEU3DQ7huGxVzi+xox+kfdPVRL21Va0sP+/bKaa8BY5F8wxNq0SL9ME1ZAEvmJ5t+3h4G9tbBpiDrFinTy7qesaUVwG2Jr3Y9+uHkRQfWIlNWBdYl/e+cs/cSDwgKUMObe/eJVls2SXR3zbcbDaVff+fVuGxGq3weyz6BFx5+HTHxUZg+83KEhAVj40/bsOGnrdCLtGz79Nc5/1bDqAedPwD3PDIbfv6+amEwEd+MvdmYfutUDByahKOHjuHLD79HRFSYQaRlq6eF/1qC7eut/7ZolexoX21PezLdnkjagrRdmSv8/9k7D/goqrWNv+khIRASSiC00JsISJGiKAqKAhasiArqtV17V+y9i1e/a7kqoDSlqBQLClJtoCIiCRBAek1CSAJJSML3e87smT07OzM7m90NG/KeW0J2z5w555mS+c/bZCy+1Tmnxh/bxfvL+UjohfcEwhrgtWDVjicgo9QbkuQhFKIkb7d+n2FA9ufMqt59GZAZkBmQTa5hBuTqfWMLxuxVQLayEAPqBg8eLHYHeH3+effDn+o6CDhduHChKNWhNjV7q9G9UH1wVC0rEsrMPsPYKiCjbAqABtY9I4DLeQD0MSasobCmwkKxbt26YEgoxjCC3YoVK+j1172zD6tlXrKysoS11UkDGMJFs0uXLgLUPv30U68MuCNHjqTLL79cWDcB0dg/YmWNDVrAWoOYbPTz1fwBZBlnCXCECzkA2NhuuukmcT7hZQXiyeF2L5uqI84n1UIs+6jHG27YOB+3bt3qtZ/KPnSr57vVCwH1RYA/x9GX1ur3styTWfIe1Y3TLs5RuhEbQVjd3phcC3NwAqdISoUM1cjei7Zr+ae0/QfNO0SFVmMdVaca+MqkLcdBLWiZCMzM9VWtFW0EYalx2eF8kX0adWzV5gSQExu3oXaXPS4ydcOar7rsyrHU+5zVPcqpLsZ+A4b0Jlh/kaTrYE4+vfP8JNq+2V07WwVkxAb/7+XJdOcz/6I2HbVcB8UCZmdSckod3dIM1+j/PvsR7dq21wOQ5ec9T+tGgy8aqOc2QFzzkq9+pFsfvY4Q82wWx2y3PvVaxUta1IoOdjMCMpJnyVq98ty1Ou+RrbzTmFdFIjZjXV+zear1tq1qBcvtjjcgI44aXiawfMtzlwE52Gdf+I7HgMyAzIBscn0yIIfvTauqZqYCMiyuyKyKDKtqUx9ekOAJsZlmD35wX0ZsMOBQbQA2JK0CmKGpVuhgADJijxFzawZc6jxgyT7llFNEDCDcvL/55pugyayCnV2M4bnnnktjxowRlmArva0mBfdrxFijmcXpwbIKKzWaL0uvPwt3CsiNGzcWEA/Lqt1LCBwDWGBhoTU+DBt1NDtOVueMcU2VBWRY5+HxYJcwSHWZ9fc4OtVeLfdkdAFW6xpblXdS44CNrtSqRcwswZcvOMXDNKBU1oKFFRs1mFHmCC3YgOxUMzNAVmO1jTpKjTG+WcIy32WerMtUqXMOFSDDevzvx8YSykDhhdKqZX/ShDemechlBOQ5U77RQRYdJczi39IV2xcgj7jqXD3mGdsBvNVxAwFk498Yp8feVz8jIO/74xtqduYYajLgcjpyYLuwnkbHJVCnsa+LjOrqdaFeD04A2WxfVvM73oCcv+UPajvyEQ938zotTqK2lz5GUbHxZHzB5WRt6v3FqJfdd76Oofzep9eI04G4HzEgMyAzIJvcCBiQ+e6oArLVg4kdIKvAZwdFVpAVDECWFj88IMJt2SoJlwTMUCTJUcHOLsbQ14MysocD9tXs0zhLYTVGzDDimq0AWYKd1feVPdudAjKgEpYfxE3bQaMKl8ZzzomOoQRkuH4jphjzgIs4wg3gsm9seOnz8ssvE7KFB9siKPelJpbysHwqLsN27p7q9mZWZhnDbDaGCgS+zhuUb0JMphpnGU6ArK+ztJjgUoryPGYam7lGq4DsSwe4wq+f/qT+kqAqAFktr5SzN5fef3myh/UYc6huFmSjl5Iv3Z1+bwZ2CQ0zqOPVL1BUXII4h4/s2xIUQJbnHOYW7hZkXA8yVEK6m8ck1mNAdnpiVfN+DMgMyAzIDMjV/DYWmukHCsjq9nagEEpAVsd2olK4ALIRpH1l4VbXZmZBVktEBTMTrFNArkwW6XADZF+ZxM3Or1ABspoYSI2dVV2G7co7qRboIzk7qfjANo/pw21U1jA2WqGdAvKR/dtEyaTSggMeY6sxyMbyT06uUfRx4uaNfnbWJNVahYf/gu1/i5hT2WABh7s5AMks1tspIAMyNsx4ViRlMmudOnUSsfNIVBesJF3DRw0RscVwrUbt4TlTvqWFc5Z57V4F5E2Z/9Brj7xDqY1SaPiVg6learKomfzzD795xCCrWajVGOTCQ0X0/kuf0Jb12wj1lzt1b0ebs7bSVzMWUmqDZN0ybVWP2erYq94xwfR+UfdnBsi4xhAmUDejG+VmLqftiyYKV2qjBVk9j+zqh8v9qbWGqwMgq8n84G5+aOsaBmSnN6pq3o8BmQGZAZkBuZrfxkIz/UABOZwsyE4VChdAVuNnzz77bBo7dqyIo4YlHLHBGzduJPTRH7o6dNBrJJsBsFoqBeWszOJ/nWqk9nMKyKoF2el+wg2QVQuy0zWECpCxfz2GuKLcnX1ZSYBlWd4pIkJ3m3SyDmNsrh2cxibVF1Y3ZKo2i4/G/lTrtROgMJtjMAA5qXlnkbEbAOyrmSUss4vFROxx+1HPUkxCXUJd3awpjwhXXbOmhh8EWusX3guXXD+MBgw5VZRUAhzP//R7WjB7sem+rZJvGTubJfMS56CSxdou+ZZZMq/M1RZ1rw07l+Ev+DiY9y5fgIzvG3Q9mzKG30XlxYUioVbGsDu9ANmjbJmPLNZRcYnU8ZqXKDGttW0JMSNMW11Lvs5bf7+3culW3c13Lp0qdGAXa3/VrX79GZAZkBmQGZCr352rCmYcKCCrVsPjFYOMrMkXX3yxqJULqEQCKySJsmoAUCR1cpKgyukhcBqDPGjQIJHFGa7SKlhJCMXcfvjhB6/6xJiHPzHIwczU7RSQ1YRtgICZM2fSpk2bbCUsKiryKLF0vF2sMVn5ogFu7cjADYuWXUOma5TzUstVOT1vfPVTAc1Yv9eu3IxqZfa1D3xvLMXkC04b97uEmg0aSxERkcLatH7qY1RRVqrvKjK2loBolI9BUxN4OZkP+viagxzHzoIsXzA43acxhtk2SVdEBLUadpeop4u2f/UC2jxvPKGUlFmTIRC+QkHs5grL77V3XEatO7YUORdKikvp688W0oLPzeEYY6nll6QFOHudZzIy9FPrIK/+ea2wFKOpdZBxX/121g80d6o7M72cr1oHGe7ebz39oSgr5aupL6VC8fJS7t8qdlZaT+NT02nvL19Q6kmDvAAZY6hu03bns/pyqLQgh9ZNvI9KDmplE83acY9BdoUcSHfzyJh42vPrl9So14hKA7KaIZ5jkH1dAcf3ewZkBmQGZJNrkGOQj++NKRz2Higgh0MW6x49ehBKTSUmJoqyPFOnTqW5c+dWqbxOs1irGZLVBFXSPVota6UuAA+piI1FjDKamQVZzawcTB2cAjLmpfbF+pBh2p8XEaEC5M2bN4u5OYFYJFHDdQEAQSw1Mp5j++PR1AdNuFNnTR0nLMOox2pVwxjzrNe+H7Ud+RDBhdTSykxEEhqM2Zd9walqRYbLMuqpIiuw2qRFCp+Vlxym7NkvEGKhnTZfc5DjWAGy6qJuZ8WOT0kXWXyhdeGu9SKbtXSV9pXFWrUiHz2cT+unPkpFu81r/6rXvr+Zz3H9A0DPOL8/JSZp1nBA6IwP59KalfbZ+JFV+o4n/0UNm9QXLw6XfPUTzfhwjsdh6NC1DV137yiqXSeRysvKBQCr0D3mriuo98DuYhvUSH776Y9ECSjZMD+Umspo30J8lLl6A7311IeODrV6/7aL+3c0mE0nu+RSGeffQQhJKCsupMioGFGezBi+oCZ7QzI6nCfG0ALsXt2PWmPZamrhAsiquzmyukfF16aIyCivJF1qgkCre4vquWHUkZN0BXomB3d7BmQGZAZkk2uKATm4N5rqOFqggIw133777TRw4EBHdZCRIRuZsmWN4mAk6cLDGeogd+zYURwCxPgBkGfNmuUIiIJx3Pytg2wsYSStSwA4zBtWcPXh8/rrr6czzjhD1BfGes0AGdmjURO4SZMmug4YC1o4AUMrHfwBZKOrOCz67733Hv3zzz+OZA4mIKvu/7BMffbZZzR79myf80ApLZTjQg1vNNSL/vjjj31akn0OXMkO7lJEh2jL/P9Qy6H/FjBnV95JBd9NX75GOWt/MN27CtJqkioncKpakQt3ZFLmlHEeMbhxyY1EGR38RAN07lg6hfaunOthbZYTwz7LSg4THs7RnMwB/awA2QN8d66nrMkPU7lJjLAK0saEZb4AmQxW5Nx1S2nj7BdNrciq9whA8O2333Z0TnXt1YkuvGYoNUpvIO6x5eUVtHZVJk19ZxYV5Lsh1e70uvLmi2jAkD5i+8KCIvrsf3No1bLVYpOkuol0yzgtEzaamsFajtmjf1ca/e9LKL5WnLiXrPhuJc34YI5+X1GThfmbwfqWW26hs846S8zNnxdZ/l5OdoBs5orvBXYJdcWLlFr1NZ3yNvxC2Z+/5D7nIyLEudh88I3C8oqXTpvnvEYH/jK/9uT8wwWQMR/pbg4wls2YxVq9JvDiCy/H8jb8rPePjq9NbS99lOq0PFl8Zkx+x4Ds75kb2v4MyAzIDMhElNGmIyWn1NevNjxo12/UhOLi4qms7Cjt271DZMqVbUt2Jh3MdbtIJdauQ207nEQRkZF6n4TEJKrfME38nn8wl/LzcvTvigoLaNP6tVRe7h4ztJc6j+6vAsEAZJRvQgIaABoaHqD27t0ryuSkpaWJcj7y8y+++EJYeGULBiBjLJQOuu2220QSHNlgjYUbM6ypaPiudu3ahDkAHIPZVLDDfuE6jP3B9Xb79u0iK3K7du0oNjZW7DY3N5dgNYYrNJpaG1i67GI7jNG5c2cBa/g9OTlZfAZow9jQGfWGCwoKxDjDhw+nUaNG6fvBZ0YdcDyQaXr16tViDrIhhnj06NH68ZKfo3Z0vXr1xK95eXmUk+O+xrEOxDpDZ9keeOAB6t27t3jglcf94MGDYls03HfgeYBxUDdZzh3fBROQjS8M8FICYIKXM/g3jgV0QLmvadM8S+PAinzeeeeJuaLB8oZ5IiYc22Jt9evXF+cWNIS1PFRNLUWUn72KkAALD7BW5Z08HkAL80T5GiSgMmuqK7aapMoJnKpWZCsYSG7Tk9pc/LBHDDBcsRGrCws4GkpGJTRsSXDLVkstOZkDtrcCZDVJmVn5J1UP1RVb1dUnIBORakWGBXLD9CeoYLu3VReuxHiRhyzuaHDdh3eCr5dXNz98rUdJJbhV7921nyrKzcNIYAFeNHc5/fHTX/oSm7VKpxsfGC2Sc8lr8sCeXCopLqHUhim6VRpz+e7zJSLhl9pwHfzrgdF0Uq+O4tzHNVCQXyhguk5yEtVLrUsRkdr1np25hd587H8+14W+6n0b+zb+fQjmNWUHyOpLErlPswR44pwa+m9x/Yn7wtESKtyZJX6iHnhMUooIO0DLW/8TZc9+0fRlkLqucAJk1WNFztEIyEhs137UM1SnRVfR5dixCirJ201I2IdY/9rpHYQFHs3sevCVOM/smJcVF9H2hR+KGtTGa94sAaHZGLnrfxLeNFbN6P0UilrcwTyfgzUWAzIDMgMyEfXsdyalN8twfF2tXLGIdu1wW37qpTSgvmecQzEx2kO+r5Z7YC/9tGSBgG9u4alAMAAZK0P93RtvvFG3uhlXi4efn3/+md58802PB6dgATL2h7HgxihB3UrxUCSBMYLd8uXLCRYjWHyNDbHaALJ58+bpXxlfMhi3AZxNmTKFRo4cKeBSNrMEUUOHDqUrrrhCvAywa0Y3z8pkoTbbPx6mcRzgVSAB02weapIy+X0wARljQgu8MEhIsE7SZJU197LLLhMlt5A4zapZucQH82pXLaFyXLvyTsjK3OHKZygqPpGMybe85qWWjFLKIDmFU9WKbJVRu3aTdtT6wvtFUi9fzV8rNsazAmRpebeL1ZbzUUFYtcw7AWSjFRmWxY0znyPs19hwPl5zzTXi5Qzuid9++y19+KG9K7IRkH1paGXB7XZqF4IlOamu+X0B81n989808Y3ppnArLc0t2jTVX34Z57Jr216a9OanXqWmzObctGlTUQ8dpdLQtm3bRk8++aRfIRm+tFC/91W/N63PRdR88A064JqezxER1KTfpSJ5nqwBbjaHgq1/0YaZz+neEHbzDCdAxjylu7mcsxGQ8Tmu5fZXPEm4N1k1JB3b+u07IjZfbSogOz1+xjhm9Zp3Ooavl2RqmUQ8q+DlVU1oDMgMyAzIDMg14V7n9xqDBcjYMR54AGZdu3YVQAJLA1xbYfkElC5e7J1IJpiAjDnAOgrX2tNOO01Yr2XdYHyHucCqvWLFCnr//ff91spuAzOwa926tZgLrK9IIAaYQtZmJK/6888/vYYD2MOC261bN10/dRtYa8eNG+cTkDEwLM6ISe7Vq5ewdMbExOj7w4Mwxl27dq3HQ0CwAFnuyKqmM6yxsLzCojx+/PiQJemS88ADOGDXWFtazgN1jvFwZPUQD6t89+7dhfVeAj8saHjRAXf+SZMmiXMqVM3MumWMlVX3rcYI7lgymXYunWI7NbW/fIh0CsiqGzWsyFu/fZf2rnK/+JE7hsUtuU0vatRzGCWktRZWY2lpKy8potKCXOEGDndUmdDI6RzMAFm1hNnFasv5eSQVUqzujgAZbsrNOlG7K54iuJfaZSPG+QNvm549e4r7I85BhCHgHJLeJMaDFSxAxrhpTRvSsCuHUMeT21B8QrzrHl1Gu7fvpcXzVohyT3YtrlYcnT3iNOo3uDfVSa4trgfcTw4dLKRVS1eLck/IdG3XsA1cqi+99FLhwYGGF4DvvvuueIkaquYLkFH2rNO1L1NsHe0FpF0JNZybTc+4mnB+RNVKEucyPCMO79tC+377ig6sWShcrJ20cANko7u5GSBjXfD4SOs1XMRuQzNc47Amlx8pELXGdyz+hIrzdntJEI6ArNa1DySJnpPjHW59GJAZkBmQw+2q5PmwAmGiwLXXXksjRozwezZqHLATy6ffOzBsgD/icNOGmzBeOnBjBViB6qcAXl7dcccdwuNFhiHIFy4IzXjrrbfEy6sTraHaAMIW8NJS9Swx86g50dbO6wlvBYxVKCZOnChCb2pCY0BmQGZArglXOq+RFaiEAtUFkCuxNN6EFWAFwlABACLCJc4//3yPUAh4JCCm3czDJAyX4deUjPdZWM937NghclL4KqXm1464MyvgpwLwerv33nvFtRjKTOp+TqtKujMgMyAzIFfJpcY7YQWqnwKIC0SGaH8bXMaRIAutKizI/s6P+7MCrEB4K4CQkL59+4qwikaNGonQh8mTJ4c06dvxUkTeZ5EIFAkGly1bdtzKpx0vDXi/4alA//796dZbbxX5JpAAE5U21MST4Tnr4MyKAZkBmQE5ONcSj8IKsAImCjAg82nBCrACrAArwApUPwXUXCz+1iivfqv1nDEDMgMyA3J1v4p5/qxAGCvAgBzGB4enxgqwAqwAK8AKWCiguv8vXbpUVNuoKY0BmQGZAbmmXO28TlbgOCjAgHwcROddsgKsACvACrACASpw55130umnny6yys+ePVuUYawpjQGZAZkBuaZc7bxOVoAVYAVYAVaAFWAFWAFWwIECgwYNolatWomSZSjZhxj5mtIYkBmQGZBrytXO62QFWAFWgBVgBVgBVoAVYAVYAVsFGJAZkBmQ+SbBCrACrAArwAqwAqwAK8AKsAKsABExIDMgMyDzrYAVYAVYAVaAFWAFWAFWgBVgBVgBBmRxDkRERGg/tV88P3P9rp4s6B8xYcb8Y8eOHfM6ieRn+nfHjpHs5dHfta38VvyKvobPsbHnmNpo+My9e/UzbID/Gj5zbSO3lRtru3XN0LV/sa3+EX4Tk9D3p/U3zkOZO753zUH0Vdb1yfv/4QuPFWAFWAFWgBVgBVgBVoAVYAVYgbBUgC3IDMgMyGF5afKkWAFWgBVgBVgBVoAVYAVYAVagqhVgQGZAZkCu6quO98cKsAKsACvACrACrAArwAqwAmGpAAMyAzIDclhemjwpVoAVYAVYAVaAFWAFWAFWgBWoagUYkBmQGZCr+qrj/bECrAArwAqwAqwAK8AKsAKsQFgqwIDMgMyAHJaXJk+KFWAFWAFWgBU4fgpERUVRu3btCD83bdpER44cOX6TCdGe69atSy1atKDDhw9TdnZ2iPbCw7ICrEB1U4ABmQGZAbm6XbU8X1aAFQgLBSRAFBYW0vbt28NiTjwJViAQBQCMV1xxBfXp04eSkpIoMjJSwOOrr75Kf/75ZyBDh+W2w4YNo9GjR1NMTAyVl5fT3r176bvvvqP58+eL37mxAqxAzVSAAZkBmQG5Zl77vGpWgBVQFLj22mtpxIgR4pMtW7bQfffdZ6sP4OHhhx8WFjaUs/vll18ERHBjBaqrAoMGDaKrr76a6tSp47GEmgLIctG4nvHC65133qENGzZU18PJ82YFWIEAFGBAZkBmQA7gAuJNWQFW4MRQwF9ABkzccMMNFBcXJwTIzc2ll156id00T4zTocatApbUK6+8kuLj48Xajx49Ks7lNWvW0Lp1605oF+v27dtT165dqUuXLpSeni6s5mj79u2jV155hTZv3lzjzgdeMCtQ0xVgQGZAZkBW7gLR0TGUlt6cWrfvQnWTUygiIoKOHC6iZd/PoyNHinzeLxISa1NG207UOL0FJSQmUkREJFVUlFNRYQFt3vA3bd+6icrLynyOwx1YAVagahXwF5DxQH333Xfr1rZdu3bR008/Tfv376/aiVfB3iKiYqjj6OcpqXkXKi8tpo0znqH8zb9b7jkqthZ1GP0C1U5vb9s/tk596jzmNYqt21CMdexYBf3z1du07/evLcfucNWzVLfVKZbfl5cUUdHubNqxdAoVbFuLQW0VqlW/GTXudynVzehOMbXrUURklOgvx9n90yw6uGmVPk58vcbUaezrFJOYTIf3bqHMTx6ksiMFXvto2P1cyhh2p/h8zy9f0NYF71nOI/30q6jpwNH693bjopM6B7NBoePRwjw6mL2Sdi6ZQqUFB2w1aNWqFT344INUv3590Q/W0//+97+OrKdpTRvSWSNOo8492lNSchJFRUWKZ4qS4lLasWUXfT1jIWWu3mi7f4QqDLn4DBpwTh+qk1xbxDzDvfnQwUJatXQ1fTVjIZUcKbEdox+zfCwAACAASURBVN9ZvcQYqY1StDlUHKPCgiL6a1UmfT1jEeXszXV0pQwZMoSuuuoqql27tui/ceNGeu6556igwPsYOxrQR6e6rXpQ20sfo6hY7cVE/pbVtH7a43Ss/KjHlvK8t7v+ImNrUVqv4dSwx1CKrdNAnMs4F0rz91PO2sW0+6eZVFZc6DGuep76sx5f56g/Y6FviyE3UVqfC/X7wLbvPqA9v3zuMYzdtafqmL/5N8qa8qjpFNT9bJn3Ju374xu9n913TtbjzzXvZDzuc3wVYEBmQGZAJqI6ySnUtceplFK/oYBatTkB5KjoaOrUtSdltOngtb06VsGhg/TLsu8EMHNjBViB8FHAX0DGzC+++GI655xzqKSkhKZOnUo///xz+CwoyDNRIW7Hksm0c+kUyz0kNMqgjqNfpOiEOlScu5PWTbpfAJux1Wvfj9qOfIgA4LLlrFtG2bOetxzbFyDLDQEG+3//mrYueJ8qykq9xgNMZJx3O6V2GWh7z8Y4+Zt+p02fvyTgItiArL58kJMsLy6irGmPUeGOTFMdfAGyuhHmvGX+W5S7bqmlpvfccw/1799ffO/UagqIvWD0uTTwvL4UE+s+fsadlJdX0NKvf6IZH84x3X9S3US6ZdxYatGmqXghbdZ2/rObPnxtKu3Zsc/ra8zj+vuvopN7daKISPPt8w4cpMn/N9MnqMvBhw8fTqNGjaLY2FgqKyujzz77jGbNmhXkK0obzgjI5SWHaf30x6lg298e+/MFyAkNW1K7y5+kuORGlvMsPbSfNs56weO8CkdAxgIKd62nzE8epopSd2I4BuSQnII8qIUCDMgMyAzIRNSkaUvq1X+QfpngoQgNsOwLkOGOdXLP/tQ8o62+/dGjpZR3YB8VFx8Rlug6yfX0h7A9O7fRyh8XUUWFtg9urAArcPwVqAwgH/9ZV90M1Ad5WGYzJz/iZeWSs4EFq+V5t4l73oE/v6NNc143nai02BwtOkglB/dQ7fQOVJq/j/6eeC+VHjK3ekpQOFZRToU7sqjsyCF97MiYWEps0p6i4zXrH+7j2xdNoN0/zvTYf2R0LLW5+CGq176v/jkg+siB7WL/UXEJlNi4rfiJBmgRVvMtq4MOyPEp6dTp2leE9frQP3/q+7V7CaGCAgAYOqgWx+iEusJ6L63hRw/n0/qpjwrLurGpnhD+wOBlN4yg0849VVh7hUbl5VRwsJAO5h6iWgnxVD8tVVhy0WD9nfLObFq1bLXX/m986Bo6uXcnAcewPBfkF1Lu/oOUnFqX6iYn6dALK/R/n53glThr5NhhdMb5/fR5FBUcppx9uZRYO4GS69fVP9+1dQ+9+cT7VJDv2xMMk1RfGmzdupWeeOKJkFiRjYCMfe9a/ilt/2Gih1Z2gBybVJ86Xv0Cxac21c/7I/u2imsKwFyrQQv9XAAkw0J9eN8/om+dlidTWu8LvI4Lzp+Y2ilkdp2JY3pwD+1Y/AmVKwAbyN1Itd7Ka874ooABORCFeVt/FWBArkGArD0wHNOA2OV2Bucz8bv2pfY94Xv5kfwd37k/kx208cTG+jja+OITfV9yH5+8/x9/z9Eq6Q9A7tnvDDqYm0ObN66jA/t2U69+Z1JK/UY+ARkTbNG6vbBA4wFj7R+/0o6t2W5diSi1QSPq3f8sio2Lp9KSYlqx+Bs6dNCZy1eVCMA7YQVquAIMyPYnAAAOIAeggzUYVmFYh81am5GPUGqn08TD9aYvX6OctT94dYuulUQdr36JYG0GcOf8vZRanHszUUU5bZz1IuWt/9F0bF+WNMBvi3Nupgbdz9FecB7YLuZadjhfH6/54Bsorc9F4nvMce+qebT9h0ke1irAZZP+l1Fa7wtp89w3KG+D5h0QbAuyfJmAdW+e/xY17nORronVSwgnc4ir15jaXfqYGAsNbutb5nv//UXcMTwh8KJ39+7dIkwAVmRfre+gngQ4BQxv2bCNpr33OcHSK1tGu+Z03T1XCpdntF+X/EETx0/3GLZH/640+t+XUHytOAG+K75bSTM+mKNDsArhR0uPCiv08gW/6mM0a5VOtzxyrYBpPGPAnXrCG9N1d2y4fo+46hxh4cYL6e+/WEpffGLtvq9OrkePHnTXXXdRYmKiKG8Fl/MffzQ/J31pZfe9GSCbnbN2570Kl6UFObRx5nMeVuLExm2o3WWPC7drtP2rF9DmeeNtww98XWeBrNlsWyMgm52zDMjBVp3Hs1PgeAOy6lGDf8vfIyiCxH+Vz8QHwqjnhlp8pm8jvtBWK7YXfUVnsY36uf6B7CO2cQ2ufmbi8SPmNGHG/GM6WCoKy888oNP1vUd/HVA16hS/SnjVcFPbSrCs7CM6ufq7gdXzMzecauO6wdXrdwHDFoCs7FsD5soBshimokJfQ7gCcnRMrDgBYPlFQyxy34FDHAMytqnfMI2OHD5MRYVui4Z68fXsewalN28lPlq5YhHt2qG9weUWngqo5T9WrlxJkydPFkmZkNAFrnd44MrLy6MFCxbQ559/blsSpGnTpqJ0Cqw1CQkJ4saEJDiI9UM5kcWLF3uJcPLJJ4tMyuiPrMoosQJ33lq1alFOTg6999571LBhQ7rssstEHCwe4pYuXUoffvih6Vww3iWXXEIZGRkiEY+Irz9yhLZt2ybmjzWGoiGzM/aJTLiffvopnX/++SLWES+TvvrqK1qxYgX9+9//pubNm4v7BLLGvvvuu7Rjxw6v6bRs2VLo2LFjR6ELHuqhI+J/582bR4sWLbJdAhJrAQagm4xzhLZwj+7WrZttFmv1fDDbCfR78cUXHUmIY3HhhRcSYj/lOnA+QaPMzEyaPn06/fOP9f0B5yBcQFu3bi3OBzQcS6xl5syZISvH4wh8E+po4NuwpS1I127akTpc+QxFxScS4nwP/LVQd8u2i9l18uCO2GbMIT6liYDe9Z8+JayzaAkNM4S1DVZWwPG2hR9psY4WscpwgVats07gFPtxGo8oNQXYrJt4HzU9fRTVP3mwrXZO55Da+XRqfcF9woW9aM8myvz4QRFbrTZYRnFfQkN5I1x7Tlv3vidRwyb1BXialUQCQA8aPkDca7Zv3kUv3Pumx9Bj7rqCeg/sLj7buXUPjX/sfSoqcM8P1+g9z91EGe1biD5rfl1H774wSR9j+KghdM7IM8V94GBOPr3z/CTavtnzpc31911Fp/TX1rdt80565YH/c1S+CfvG9YxrFNfm7Nmzadq0aU6lcdxPBWR4A0RERlNkdIzXiyWr8159cYXzefOc1+jAX94vpFI69KfWF95PkTFxPl9wYfJOrjPHi3TQ0QPyDx2gmKQUOnrogIc3CQOyAyG5S9AUUAE5wpW4T4VT7EgDUA0y3UCrgqkGluI/BkiVgCrHMUIoA7IOvP4DMkSV1lvt39Ji6wZsJ4Ast/WwIIsPXWMGAZDlPsIVkI1XVGUA2ddV2b5zd+rQRXsYYED2pdbx/14FotWrV4ukLW3atPGaGB4MlyxZQv/3f/9nOukBAwbQddddR6gvatawPWJX33zzTY8HNxWQAcTR0dEeY+zcuVN81qiRO+bMytKB0i0AU9T6NGuATID6J598EnThJSAjTvfAgQMiS6xsEuo6deqkf4Z7Fh7U8QJAbUOHDhVQCKD0R0fZF8fg3HPP1V0u1THy8/MJx3jgwIHiY7MyT8EAZDx033zzzWI/0jXVbC3FxcX05ZdfithHYwNYX3rppXq2YeP3oTyWTlynVfC1c8Vu3HckNT/7BgGfsBgf2vKHntjLLgGQ0wd3q35qLPWhrWto/dTHTGOUrS4Ep3DqBJBVuJFapXQcQK0vuFc8VFklLHM6B1/9GjRoQI8//jg1adJEvGjCS0C8aApWAxxfePVQio6J9gJknP8PvXo7pbdsLJ5dFs1dTrMmeO/73EvOpPOvGCLctfftOkD/efJ/wgUb7dZxY6lLzw7i30Z4lms4pf/JNPrfIymuVhwVHiqi91/6hLLXbXG0xDvvvJNOP/100defF2COBnd18kwu9btw58c5kJu5nDYiFt/14sbqfK7b+hThKQDwtbtu1MR5dp4dcu5OrzN/1mrXVwVk5Ddo0G2IcPHeMnc87V/zvdiUATlYavM4ThQAIOsW2BACstsy7Gml9ReQdUuwbtmtARZkHEg36KrWZGtAFtu4XJxVy7UHMLssyHJ8X4Cs9ZMWZ6Ml29zFWmzjirXFvmsyIHfo0oPad+6m/bFlC7KT+9Nx7aMCEQBVgtmePXvEvNLS0jysd2YueMbssIDhvXv3iqRO6vb4HNbUiRPdcWcqIMOC8ddffwmQhhU4NTVVWDWMn2Fec+bMoUmT3FYWgOU111wjrN5opaWlhDVgn+ocAGUTJkyg77/XHkaC1SQg4/pHhmdYq/v160cnnXSSuK8ZP8N+jYB6yimn0G233aZnjMbcsQbMGdZgvLzAHxN8/sUXXwiLsNrOPvtsGjt2rA6VhYWFonwNfrZt21ZYr2GxbtFCs1SZAfKpp55KSN6DlxKy4TjUq1dPu6YdWJCvv/564QWgxm1iHXhRkJKSQsnJyXqJGawNdViXL1+u7w9zuOWWW/QMu4AauMXK81E9xh9//DF9/bUzd1Knx1qNl7V6GJfgizGt4mhh0Wx/5dNUN6ObR8yxfEi2S1Ll9MHdtF9EBHUYhSzYPRxlzDbTxRd0ym2cAHK9tn2ozciHBdxIrVSNrRKWOZ2Dr3443x955BHh0RGKWsd2gJzeojHd+ugYqlc/mUpLSunT97+knxat8pIcAHzdPaOEG/bhwiP0wSuTKWtNtriGJGDjXvjtrB9o7tQFXtur+zl6tExAOJKGOWmq+zlKXiHTd7CbMftyzl+LKWP4XVReXCiSVB3ep8G81XmvXm928f4Yo+XQW6lRz+FiPHhtbPv+A8vlOL3OgqWHRwbp+f8R1yheFKhZvRmQg6U2j+NEgUAB2c2p9hZkfwBZukebuVhbAbIO2ieiizUOZCCALLf3HMdlsXadJTIuWY9BFp09Lcja9gzITi4sYx+coIhBRgmpo6Ul9OOSb+lgrn3pjcrsh7cJngJGiyEekF577TU9Pg/we//99wtAQzNzT0QMGyzIOP4oE/LBBx/owAOLMh5OpVUaoIhyInC7RlMBGQD1xhtv0G+//UYPPfQQ9erVS0CV8TNspwJyUlISPfXUUwL8cG0DCuFCKWMM4Z4LK0nPnj3FHNevX0+PPfaYIxdEp0pLQEZ/WKk/+ugjUrU1+8wIqJgTXKDR4Hr81ltv6S7IIovt9dcTIBj/NoujVLc3y9ILt2u4qksLuxkgm61XHgt85wuQccwA+YB5HAu4UmMdarwnABhrAXTD1RwvXaSrOdaGYwn3cjRsh+OPfmjG8xHn67PPPhvUxEJqxuWyw4coc/JDwmqlt4gIan/F05TcpqewhJll40VfFQIPZq8S/fDHRc1qjYd3PMQbm5MHd7hPI14aJZxU2EZWben+7StTtNX57Qs65XZOAFl/IaCUzlI1tsoA7nQOKoAX7lxPWZMf9kiqpN5jQlHHe9QtF9OAIX2EJKt/Xiust7J17NaWbrh/tIhhPnK4WIDvhr8207BRQ6hdl1a0deN2+nLKt1S/YYoO0kj2Nfn/ZtFvK/6kJs0b0a2PXkcpDZKp7GiZiC2GFfrMYQOoR7+TRKKuudO+o4MH8nWQRkbt+dMX0DczvV2QzY63ep9yek9wel+U/YyAnP35K/q5q14DVue9Cpa+ssur52Tehl9ow6dPWk7XyXXm71rt+htLLCHPAV4eVRwt0e8zDMjBVJzH8qVAuACyGkfMgGyIQcZBPJ6ArO1fy7jMgOzrkjL/Hpms+51xrkjSBTD+cfE3erxz5UbkrUKtgPpwZOW6DHfZwYMHi6kAXp9/3l2eRnVfxPW7cOFCYRFUm5pB1ujiqD68qtYdCWVmn2FsFZBRuuXWW28VllMjgMt5AKwwJqyhhw4doldeeYXWrVsXNHlVQJZzU7U1+0x9GMULBFhuYGGFxfftt9/2ipdWXwTAOo8XETIeWbWSIe4ZcYSwMqtNjTfE504fhv0BZPVcQcz0M888Y5oMCdZyxBgjXluN64QbOl7IIN7cKtswzkW4ksOSXFRUROPHj6fff7euV1yZgyxdlM1qFqt1je3cPVO7nCnciJEIS4UAdfvK1oPFmM0H30iNeg0TSbjUcjHqAzYyZ6+bcA8V57kTSznRw1cGaTkG1oJM2GhmMdWqy6sRhKXGgIPsWS9Q3sZfPKbmBJBjk1KFlT6hkZb3wiwzsnqPsbo/ONHErA+Sc93+xPXUsHF9Ki8rF9bdBZ+7cy2ogAyX6f8++xH1PK0bDb5ICz/APXP5gl9oyVc/moKwCsgSsFMa1KNLrhtOcfGat0zm6g301lMf0sOv3UnNWjURn33/5VKaPXG+o2Wp9ym8kEICM+mx4WgAB53M6vdKWFTPXStgRWmneu20lxDGur7G3avXnV2tYGx3vAE5N2uFnsRPnrsMyA5OKO4SNAWCBciydKxVDLIvCzIDsk2SLhxtBuSgnfOOBgpmDDJO7m69BogyUDiOf6/+lTZt8Kxx6GhS3KlKFXDycGSX+Vh9+IS7LKyBSEilNiOYqVboYAAyYo8vuOACYR1GAi/EOZs1WLIBZoB0uHl/8803QdM6UEBG3PCYMWOEdTcrK4vGjRtnOjeAIeKscY0hflfGU2Ndd999t3CHt7OSqQAbCkB+6aWXhLcA5oc4T9Wd3onY6vlotY5mzZoJffByBnANyA52/Vb1gd7oAqxagO3cPWViKi8rrmKBtsqU7bPMU1obkYBL/N2sKKd/vv4/kcEZLdiA7OS4oY8ZIKux2kYdVY3NtvUF6bCUA86R0RsNpX2QEbs4xzPxXSgBWS2/tHfnfnr7mY8oZ6+7coMZII+46lzq2tudjwBxxXOmfOMYkDt2a0dnX6DFDKPJxGDBAORgv0CQczQD5KTmnYUnBl72yBckVsCq1gX3Bchm+7I6h483IO/74xtqduYYajLgcj0TfXRcAnUa+zrFJCZ7xVs7XZvRUo39yGb3nZNr3YnXiJNxuE94KMCAXA3KPIk/9Ho2arMYZNHDI0mX6xNDBmxDVmuHMcja/o0WZHWf2r895ukq86Q9pMhta2YMMjJX9+hzGkVGRlHO/r30y7Lv2HocHvc/21k4ca+zA2QV7Owss1ZWyGAAsoQ+IzQaFy7hMhSJegIF5JEjR9Lll18urEqIwYaF26yZWaXRT/0c7utwt4a7u7FVpsyTUwty48aNRTIkuONXVmP1ZQcs0LBm4aHd2Mz0DublpiaWMlo+5QOmXRIgdXszK7OevMuiRJQKBHbrwhxQ/3j74kl6oqNwAmR9nccqvJJxqRqZuUar6/B1bMsOH9SSoLmyeKv9QwXI3U7tQqNuvZhqJyUSyjPNmfItLZyzzGOq1c2CjNCOBx54IKjhJxDEDOzUGH35oikYgKy+wAp3CzLAVWacRz1ynMNH9m1hQPZ1wfP3QVPAFyB7Zq12Z7TGBLQSTNpUQm9Bdpd4kvt27dmzFFTNjEF2w6oGpC5YNdYmNpZ9YkC2vJCCZUFu2LgpndLndL3+8S/Lv6fcA75rTAbtCueBKq1AoICsbm9nfQglIKtjOxGisvBmN3aggKyCq5M1oI/qZu7kOGKbUAKyatmtrMZO5xdqQIZWrUfcI0oRlSuxs6rLsF2dZBUIjhbmEgBQbbAOJTZpJ6xnZlZoJ4AM1+RNX7xCcNNUmxqDbCz/5PTccuLejLFsrUmKpRwgX7gji8qOKOUBIyIoqWkHik5IJrNYb6eAfGT/NsqaMo5KC8zzXahu+8FK0gXwRW1jJN8StYlXZtL/Xp7sBZYqIMvs0lvWb6MhF59Bnbq3o81ZW+mrGQsptUGybkFWk3mpLtbq5/3O6kV9z+pJu7fvpW9nLxZWa2lBtkvmZXb8nd47nJ47Zv2sLJ+o04163UdR/mvSA5Rx/m1Ut9UpHtccxlOtnlZx+3K/6jlZHQBZfVGArN7bF02kTmNeZQtyICccb+tYgXAG5IhIpZaxUgOZAVmpXewu3ahkkQ4TQHZhe421IDdt0Zq69exPUdHRVFpSTL+uWCgsyNyqhwJOHo6qiwXZqeKVhbdQArJqQXa6DitAtrMCOQVQdQ5OLcjBKKcTLhZkrF+NZdSzL6c2pc5jXhXuzXblnaTbpJNjaZakytL1MyKCWg27S5SHQTNzTVYTYKGPL6Awm2MwADkuOY06XfsyxdZp4EQGr3nazSE2CTWgX6D41KZeMGXcmerZYIzddzQxQyfEEF96/XBKqqslovtrVSZNeGM6IbmWsanZpdXkW8Z+Zsm8Mldv9MhibZd8yyqZl5P1Sc8a9DXmmHCyvZM+VoAsz5GYpFTa9t0HlNzmFFNAVsuW+cpijbJq8Fywuj7U+YaDizXm06Dr2XpW781zx1PGsDsZkJ2cWNwnYAWMgOwrQZasiYwdh9qCXCMBGcIaM0nrnwkatnexFn2rGJDl/DzmqU1TLzUlS0jVhDJPAOLOJ/eilq07iIukpKRYlHXK2a+VB+JWPRQIFJDDIQZZLVOyceNGEZMKK4pVw71n69athLrAwWqBWpAHDRpEN9xwA8XFxYkSWYjdxcO8XYMLsnQ/VhOVoQ4zEqlhjcZWVTHI2C9i0V9//XW/JA6XGGRMWs1Cbazfa0y8pS5StTI7WbxqoZb97R7cExu3ofajnqWYhLp09HA+rZ/6KBXtzvbYlQroahIkJ/MRa6/X2NLNUx3DzoKsvmBwsl8107eTOTTudwk1GzRWuPb5qvWsxsarsftO5iX7IPzhwmuG0sChfUXNYzyDCDgebw7H2M5pmSa1DjKswW89/aGoh4ym1kH+dckfNHH8dK9pq3WQ1TJRTtb3xBNPEBIposls+06286ePXexsxvl3EGqPI2EdGsqiGa8J1W3a7nxWXw4hZA6wCaC2auECyDIjfXxqOu395QtKPWlQQIAsvV+wbmPMNscg+3Pmnvh9dUAW7tJaqSbRIiQAq1bcqnWxDhSQ3aWfFFdwfX2udbpA37VkLFBbvuGneiYInSbMmH9MrS8sO8jP9O+MbszujuJfqFUsfrqSdGn/FhWMtZ7yh8MYZLEJA3LAV25lXawbpqVT11P6UWLtJDEHWIx/+3kJHTlcGPCceICqVSBQQA6HLNY9evQglJpKTEwU9Y9RH3ju3LlVKmSggGxMPPXtt9/Shx9+6HgNahZsaIAyU0iGpraqyGJ90003iYznsuQXym0hptppC5cs1uIPZFQMdRz9PCU170LSnTp9wOWa23VxEWVNe4wKd2R6LS2hUQZ1HP0iwdXZzsoMKGh53m0C8IzZl20f3A1W5P2rF9DmeeP1GGRMSCZAQlwjQGHvr3No63fve/SxOybBAGT5kH6s/KiIrcxb/6PXLqNrJelZfJFkC262JQe1l6y+5qBaka3czeUO1RdDdknwrDTp2quTgONG6Q20F8LFpfTDvOU0f/r3PuN1x9x1BfUe2F0MvTV7B7399EdUVFCk7wrX5T3P3UQZ7bX65DIrtewwfNQQOmfkmaJ2uMyEvWubp5fW9fddRaf01yB359Y9NP6x9z32YbUuY1hEsJMXyv3aAbIs04W+FeVHKTq+thcgq5nf7Y61up+yw/keNZbNNAgXQMbc5IuCsuJCioyKEXXDjfkL1HuLVXm0yNhawruidpP2pt4VDMhO/xrVjH4MyGGWpAunnRUga9+5E15pv8sT1bmLtdyHsOq6NlfrIIvvRRFkWfNY/o59uD+TicH08dQY5xpmQa6VUJtOPqUvIeYYDwnlZWW0IXMNZWetsbXY1YzbTPVcZaCAjFXffvvtNHDgQEd1kI31e4ORpMtYOxdxhgBkZDZWSwiF8ggFCsiYm1pPGm7gP/zwA3388ceiFrSThvrSHTp0EF2Rofrll1/2KLFUFXWQu3TpQvfccw+h/jUaMlFjDcuWeSYvslsPSkMBlNF81UEORU1rdW56uafyo7R5/lvUuM9FhIdUu/JOKvja1WxVH3aNSap8PbirVmQ8UG+Y/gQVbFfKlkVEUNuLH6KUTlq2Y/xNzctaQVu/fd80VhdQEp2YrGeA9gWnUiMrC7IH+Obvo78n3kulh8xjhHWQNiQsczIH1YqMlxWZU8YR4q6NTfXQsCqjZnZOoozTpdcNp86ndKCoqEjx3IJs1TM+nENwgXbSevTvKuKV42vFifvRiu9W0owP5uj3pstuGEGnnXuqsDartY7l2M1apdMtj1xLyal1TV26zxpxGo246hyKiY0Rf4eXfPWTmJ+ThtAO1EaPjo62LJHnZBxffewAWQU6OY6ZV4UESPTBy5QNnz3t4TmB66ntJeOE54e496xbShtnv2j7UsjXdeZrXf5+bwen6kstOa7xPqNeV+LF18p5tO2790Ume9EiIih9wBWE+xa8XEpNrj0GZH+P2ondPyiArFieZZknaYnWftes0+IUdZ2nRgutWZknJxZkj+Rg+g6wH/c+tf27LpHqbEGWf8y1n4rlWfsz7/7MhwVZ316OIcfTrdQ1D5Az2nSk5JT6+tWOP8j1GzWhuLh4Kis7Svt27xC1R2Xbkp0p6hnL1r5zd+rQRXsTjga36gN7d1lCCDJ7b8z6i4oKlcQsJ/a9ptqtLhiAjBrDqF2L7MVoeAiEmzBchNPS0kTpIfk5avPCwitbMAAZY6HM0W233Sbq58oGsIQLMiyqaPiudu3aoj5wsMsCBQOQYc15+OGHqVGjRvoaAMqARAnJ0BK1kpcvX06wzqpt6NChdM0114j6wGhwIV+7dq2oFdy2bVtq3rw5bd68mXC8cO0byzzBCj169Gj9eMmxUTu6Xr164te8vDzKycnRdwsAhrVazTR9/fXX0znnnCP2gYb7OF5aYB3yhQWOBf6HUluyVJUc9NRTTyVY/FD3GQ0ayLqsOJ/k+lBWbMKECfT999+HD1a1WAAAIABJREFU7LpTH+yRIRllhWCVtYyDVBJTmT3kqxNVXbGNSap8PrgbrMhmMAC3zQ5XPUeJaa313eKhujR/Px3Zv1U8VEfGxFKtBi0JGaXzN/1O66c/LoDCCZxiUCtAVnUzuk4bD5bqiq3q6mQOqhUZ69k85zU68NcPXueDWkMcX65cuVJkivf1Am3Q8AF04dVDhUs1GgB0/+4cQk1iq7Zh7Sb64mOt5BYaroN/PTCaTurVUTwk4nooyC8U1uA6yUlUL7UuyQfB7Mwt9OZj//OalwrRGLOo4DDl7MuluPg4qp+Wol9rZqWmrOap3m9EPebly0VN8VA0X+WJZLZzuW+zawfx5vDokDHtOJeP7NsqPA7ikhtRrQYtBBSiAaDXT3ucDu/7x3Y5Pq+zIIthB6fG3AHYtWkGfCW0AH1gKS/ak03HysspIa01oTY4GvTZuWwa7Vwy2WMV6hyKdm+0fHGlbrTn1y/1DPHqNX8kZycVH9jmU6Xc9T/ZurqruTFCVYvb5yRraIeqBGTdqVkFZhOXZh2uHSTpYkA2syALM68S/+sB1EoMMwOyftn37HcmpTfLcHwbQEzxrh3uPzBGQPY10NGjpfTT4m8pL9e7TIuvbfn7qlEgGICMmQJqbrzxRt1yaJw9HkThaosaxepDabAAGfvDWAArCepWCoYizi4YgIz5Nm3alO68807KyMjQ37iarcMqmY4RTtVtUYYLdaIBr6i3bARk9Vg4PfusMpcj2dZ5552nw6zVeFZ1q3FeIrY8Pj7edFNAM46jEa6dzttpP9ViI7exK++kuoJauUCq+9ZLRhnKIDl5cFetyFYwDstwy/PvoJSO/fUyHFZrV61NTuAU41gBsppUyVeSMDXWWwUCp3NQrch2ln31BRLuQU7CGIyA7OS8QV3jd1+Y5NE1qW4i3TJuLLVoo3lfmTW4TU9681Pavnmn19eA7Ovvv4pO7tVJh2ljp4O5h2jqO7No7aosn9OEh8cdd9wh7pmYD1504R4Gj4xQNF+ALEsdydreVucz6mq3HfmwbeI3u5JfxrU5uc6CqYcv663M6i0f+s3OZ9T9zhh2F6V2gddWpOn0AMc5a5fQlnnjqaJMe0EsmzoHp2tT45jVa97p9mbJBNVt8YIdzxBo2dnZ9OCDDzodmvsFqEDYArIrBhrL80wMpi3YbXHWrgF3vLHr+xPXgqwl6rK1ICuADDncNZRVy7PwlRZqaeHPrn/LmsUuF2t9e83f+oR1sWZADvBOcgJuHixAhjSAuyuuuEIkfElISBA3LIAM6vICZhYvXuylYDABGYPDworazKeddpqwXiPplWyYC6zaSB71/vvvB/VoBguQMSk8DMNlfciQIUJTQKK8+ePBHmv4+++/6cUXXzRdA9xJ4U6NFwUYC9vs2LGDpk2bJixgd999t9AplIAsz4fhw4dT9+7dKTk5Wbdy4TscC1iAlyxZIqzAZq19+/Y0atQoat26tW7VhiUd8545cyb9+eefQT2GVoOpCW/Qxxgrq26nJhPKWbeMsmc9bztHtb9qaXX04G5wo87b8AttnPkcIebX2GrVb0Zpp15MdVqeLCxMeMhGw8MzrNewju/9bT4V7dogLMtO4dQMkFVLmF2stpyjR3+lpJbTOcB62PHql4QVEXPf+u27tHfVPC8NcC3gQbxnz57iesK1gKR+kyZNsgTDYAEyJhNXK47OHnEa9Rvcm+ok19avzUMHC2nV0tWi3JNZJmy5EMy/39k96awRpxNcv4XLd8UxKiwoEsnCvp6xSJR78tX69esnaq6np6cLHaoib4MvQIb/Y9uRj1BKxwFi+nbeF3DJTus1XCT2gjUZVmPpGZGbtZx2rZghrKpOmqPrzMlADvv4AmRj5nfLFz4REZTcuielnz5KWM7hjaLpdkR4h+xcOpUOblpl6l4ejoD8yCOPCC8wNLxIh3cHt6pRIJiArEKq2wrsBlhfFmS3Gzbo2Jgoy6wOsuK67fahFsKdwC7WDMhVc2nwXlgBVqAyNYihmlpmqbqoCDDGgzEg05d7aXVZE8+TFXCqgNFyiu3w4hwvaxCK8NZbb4mwhBOt4WUbXl7ixSW8R2TDPQBhDgiT4MYKHC8F5AtmXIuVzTJ/vOZe3ffLgFztknSFKyCLP6ce1moPN29XfHN1KfNU3S9snj8rEAwFahIgB0MvHoMVqM4KwBKL5FTnn3++yEkgG+Lk8aBeVZ4JVamh6ikkXwrArXr69Om0aNGiqpwK74sV8FBArVMOz6JQZVJn2c0VMAVkmdBKjxVWklwJS627FJL2q1Yeii3IJrG+aqZoefMVh0J3b3Ze5sm9/fF1sbaeBwMy32hYgRNJAcQmnnHGGX4vCS7jX3/tTsbj9wC8ASvAChw3BeBN0bdvX+rWrZtIjAf3/cmTJ4sYyBOtIb4T4Q4oFbVt2zYRZrJmzZoTbZm8nmqogFqiEHky4F69bp2Skb8arqk6TbmygOyOAa7egKzmhJAZtnH8QlIHmQH5GLEFuTrdHniurAArwAqwAqwAK8AKsAJVrYCah2TXrl309NNPe1RFqOr51LT9MSC7kyaGFSALmDYkynIDNluQa9qFyutlBVgBVoAVYAVYAVaAFagZCqju/1lZWTRu3LiasfAwWeWJCMgeNZg1c7BlHeSwtSAzIIfJFcLTYAVYAVaAFWAFWAFWgBVgBapQAZTzQ9UFuP9blf2rwunUuF0xIFeBBVmDXa3Jckq+YpCrCyDLNWkh1RyDXOPuILxgVoAVYAVYAVaAFWAFWIGgKtCjRw/C/9B+//138T9uVaeAP4Dstraq5ZXCLwa5MhZktQQV1A9qDDIDsqyhzDHIVXdp855YAVaAFWAFWAFWgBVgBVgBVsBfBRiQXRm5pXCuesqOAFmArysbtdxe/u7xOUocuToYLcgaPMPyqmS2VjNcuzb0HDd8YpClBmxB9vfS4/6sACvACrACrAArwAqwAqwAKxBuCtQkQJaWZXEMjCCsfKb9013KSj1m+ucTZszXnIoZkF21j12oL+EeP8V/XTDPdZDD7drn+bACrAArwAqwAqwAK8AKsAKsgEEBK0D2BEQtyVV1d7E+oQBZwrmbz1WrshtO3f1kvWXlp26pdoP+sYoKcYoYM2hrv7ss3fqLAfdYqgVZf3HAgMw3HFaAFWAFWAFWgBVgBVgBVoAVqEYKVEdANgd1VxQxQJ4M1l9XFusqBWQP63IIXKyrEyCLuVZUCEsz10GuRncHniorwAqwAqwAK8AKsAKsACtQwxSQgBwRGSlWLiBSsRZrMBpeFuRQA7JH6SeXq7U8LRy7WDMgG6zYLsv0x++9WcMuMV4uK8AKsAKsACvACrACrAArwApUFwWuuelODYwZkL3ikoUuIQNkjaCF+LZJurQOeqyzFvNsdG12jWIS/ytB3Zg8TPxeRS7WYg4MyNXlnsDzZAVYAVaAFWAFWAFWgBVgBWqsAicUIOte1j5crBXo1S3CGg1rLwtMvpcnSPAsyAZA1iDSECcsc18zINfYC5QXzgqwAqwAK8AKsAKsACvACrACVadATQDkiEhZykkStF712J2tOliArHGvJ+iK5FauY2os/yT6S4swA3LVnfm8J1aAFWAFWAFWgBVgBVgBVoAVYAUMCjAgK3WQHdZAFixtVeaJAVnNkq3Cv5Ydm2OQ+R7ECrACrAArwAqwAqwAK8AKsALhqgADchUDsgrQagyy9rn2f7oFuhq6WMv1aTHODMjheuHzvIKjwLXXXksjRowQg23ZsoXuu+++4AzMo9RIBR566CHq1auXWPvKlSvpxRdfrJE68KJZAVaAFWAFWIHjqYAdIHtmiw6fOsiWWazNYpBdJZ6gsV7mySzWWHTwjEE2JujSurj6VNaCXN0BWYK8ebIwNXkYA/LxvLB531WjQFUBclJSEg0dOpTq1KlDJSUl9O2339K+ffuqZpG8lypTgAHZudQNGzakc845h+Li4ujQoUP09ddfU0FBgfMBuCcrwAqwAqwAK2ChQCCArOeyAoSKUlAmtYhldmzRx9UEtHrDqDthlnmpKcmwDMghzGItLdh61LQrQZj4XY+tdsdZCxuxIeYav0sLsgBq2efYsbB3sY6OjqG09ObUun0XqpucIk7UI4eLaNn38+jIkSKfN5JatRIpo21HMUZi7SSKjIwS25SUFFPu/r2UtfZ3OpSf53Mc7lA9FKgqQG7WrBmNGzeOGjRoQIcPH6ZXX32V/vzzz+ohEs/SsQIMyI6lopNPPll4bCQkJND+/fvpueeeo+3btzsf4Dj2bDHkJkrrc6HXDI5VlNPRwjzK3/IH7f5xBh054Gw9sXXqU+cxr1Fs3YZizGPHKuifr96mfb9/bbpKq/37kiR/82+UNeVR0S2+XmPqNPZ1iklM9rWZ/v3hvVso85MHqexIcF5kqOvAmrd99wHt+eVzj/mo87TbP/o1PeNqqtuqB0XVSqKIiEiqKCulw/u20O6fZlNe1grC8VFbMHR0LJ5Nxw5XPUt1W50ielQcLaHsWS9Q3sZfPLbAutpe+hhFxcaTehzRSV3Hlnlv0r4/vvHaW3StJOp49UuU0CiDjhYdpHUT7qHivN2in913TtfXsPu5lDFMK6uz55cvaOuC95xuyv1YgZAoIADZBaxuC6tmKTWDWFEk2WVJNQVkxYortldAmAHZdQj1RF1KmSftj1pgLtbaGG441ZN/qW7bHqWgZJkpBXhdfY2ALP/oynm6k42dGIBcJzmFuvY4lVLqNxR/GNXmBJCjoqOpU9eelNGmg9f26lgVFeWUueY3yl6/NiQXNA9atQowIFet3if63hiQnR/hExGQ1dUD+HIzV9A/8/9DZcWFtsLUa9+P2o58iCKiYvR+OeuWUfas5023CwbYhRsgY6GFu9ZT5icPU0XpEX3dTgC5Uc9h1HzwvygyOtZULxyL/E2/06bPX/I4FsHQ0fkZb91TBWT0ys1cThtx7F3Pe/iMATkYSvMYNUmBYACy5AkNiDX1dItygICsWos1MLdy9fbct9ZXA3S3Ydszi7VHOSc5uOpGbaiBrI8ZSJIuDTBdOa2PAyDL/atz0LjcPScB2abxz1qiLa2Esp6X+4SwIDdp2pJ69R+kX/v4g6gd8EifFuTIyEjq3K03tWrbSd++vKyMDublUFHhIYqPr0WpDdIIEI1WUnyEViz+hgrYklzt77UMyNX+EIbVAhiQnR+OEwWQi3ZvpNJDB8TCYQGuVb+ZB6gV7dlEWVPGUdnhfEtxJKjBsldycA/VTu9Apfn76O+J9+pjqxvXP3kwpbTv6zEe4Lp20w4UHV9bWCELtv8tfqoNc925bJr4SAVPAHzhjiw6Vn7U9gBibjsWf0LlCsA6P+LePY2AWl5ymNZPf5wKtv2td/YFyCkd+lPrC++nyJg4sQ3WXLgzS/xMaNSKYpLgSaa9NM9b/xNlz35RWJbRgqFjIOuX2xoBufTQflo36QFxLsjGgBwMpXmMmqRAlQOyCsyGesNmLtYMyDgbHdZBFl19WJA9+mi/eJagqqEWZAByz35n0MHcHNq8cR0d2LebevU7k1LqN/IJyJARrtndeg+g5Hr1KXPNKtq14x/lJQJRrYREOvX0IVSnbj1xf1m5YpHow616K8CAXL2PX7jNngHZ+RE5UQDZ6NIKK2bjviOpyYArdFDev3oBbZ433sMiKJVS3VsLtq2lnL+XUotzbyaqKKeNs16kvPU/OhLVXzdZX+DpaKcBdjKz4MKtfMv8/zgCZHXN2CB/8+/CPVm32EdEUFrvC6j52TdQRGSUgOZNX7xCuVkrLGfur44BSiA2NwKymbs5A3IwlOYxapICVQHIbvD1TITlYcFVXbphhnZZihmQfQCyi3E1imZArvS1Gx0TK7wfjh7V3gwDePsOHOIYkLGNjEuoqNCsz8bWoUsPat+5m/iYAbnSh6rKNxw0aBBdfPHFhKRAUVFRVF5eLjJWT506lbp16+YzizXihTMyMvR5I8lWYWEhbdiwgebOnUvr1683XZMKS04XbZb5WI1flveI4uJikdBozZo1Yg47duxwuotK9QvGHKD/6NGjheaIO0VDPPaPP/5IkyZNorvvvptOOeUUOnr0KE2ePJnmzZvnNVccv/PPP5+GDBlC9evXp5iYGML1Ci3Wrl0rtjNLfqbOH/GuyC591lln0WmnnUa1a9fWchUcOUK///675RiYDPZ/0UUXif0nJyeL30tLS8U58MEHH4j12WWxDkRHeT5Bny+++ELsB+Oh/fzzz0LD22+/nTp16iTWg3Ni4sSJprHuldUR+5LXg4ylb926NZ177rlUr149gjcO9MC1MWHCBPrnH8+XiMZrycnJOGfOHLE2s9a+fXsaNWoUYQ61atUSXXAccX3PnDkzZHH+TmI+G/UcTi3OuUmAGWJ2s6Y9RkU7ve8VtZt2pA5XPkNR8Ym0+6dZdOCvhdRx9IsUnVDHr1hOf8Eu3AAZVnhYe48eOuBhObebp+qaXnJwr4iPxk+PFhFBrYbdRQ26DREfH8xeJazUqvuy2t9fHZ2cw776SEBGjHTZ4UMUU7seFe5cT1mTH9at9QzIvlTk71kBTwWqEyDrrtLu4GfPOOmamMVae+AV/y+OLFuQg3OJVwaQfe25W6/+1KJVe2GR/nHx11RYcMjXJvz9cVbguuuuEw/vAAJjy8/Pp9WrV9PAgQPFV2ZlnoxAYxwDsA04efPNNwV4qy1YgKxa2szkBJB89dVX9Mknn4RM7UDn0KpVK7rnnnuocePGXnPEPW/VqlUigVnLli0tAblu3boiqVPHjh3dGSUNo+Xm5tK7775Lv/32m8c36nE8cOAA/fXXX+K4A+iMDVD30ksveYE2zqF7771XgKnZdrt27RLb4AUAmtnLjkB0lOcTXghs27aNWrRooetQVlYmXhB07drVY244v5955hmPJQaiIwaSkAsQXbhwochEjRcVxpaTk0OvvfaaxwukYALyhRdeSJdeeinFx8ebnvd4kTB//vyQXBdOABkuz20vGUf12vUR89uxZDLtXDrFa66wNsPCCfdmWIwPbfmDOox+gWqntyd/kmL5C3bhBsjQBhAbUzuFtswdT/vXfC+0sptny6G3El5EoNklhlJfQti5rmMcf3UMxk1XAnJ5aTHtWjGdmvS7TAyrupszIAdDaR6jJinAgKwdbcHW1bHME+ZtBcjiO1cGaXfMsALRro31aGItuFiDbLMYZFcma+sYZNcelaRgshayltU6/LNYy4s/2IDconV7kQQMlpnMv36njZlratJ9plqu9eyzz6axY8fqD9Cw+sLiip9t27al5s2bCysbQAPNDJABbYDslJQU0Sc2Nlb8G9YqCd0Alu+++47ef/99D52uvvpq6tKli/gMQNWkSRMxF8AM9oufxgbIMYJumzZthGVSWsjwE3PAXOQcAAOwiMPaFooWyBwwx6eeekqALRpeJADwNm7cKKy3EuoAXKmpqZaA/MADD1Dv3r3FNYj7EY4jgBSapqWl6VoAVAGFqiVZBWTsB9ZPWID37t0r/g1rNMBRjo3j+d57nllYYakElGE92H9eXp44n6A9jjPmDvjGcUYzA+RAdFRfuKAs0ueff04Yr2/fvuL8MvvMLDt0IDpiXRJysW6st1GjRgQYxgsnaAgd5AsEI6DDwt20aVOhT3R0tPg3fsIjAsfNzHtn8eLFogSU2k499VS65ZZbxPmDhrns3q1l5MW5gGsDDS+PPv74Y6/tA71GnAAy9pHa5UxqfcG9wooM99+sqY96WC4B0e2vfJrqZnTziDmW45cXFwnLc+GOTJ9T9hfswg2Q4VYNCEzpOIDyt6ym9dMeFy8NrOYJ7TqOfp6SmnfRXy5YuaPDGi8yODdsKRKArf/0KTr0j3kVAX919HlgHHRQARku4E0GXEa1m7QXWcyluzkDsgMhuQsroCjgBch6HiuZxVpJciUA0pDF2lXiCUNaJenyx8XaKpO2SPulzE1bgiHT9olsQcZydeuwYi3WPhf/LySxLLGkJOJyj2Mdg6yN6KplrCYTE/BrlaTLtRUDsjgWsXHx1DAtndp2OImQJbu0tITW/vELbf8nm29C1UCBxx57TLfmAZZeeeUV2rx5sz5zuF1fdtlluvXLDJCtlglIveaaa+jMM88U2wMOYHW0crcORZknuCwD3nv06CGgbefOnQIMAUVV1ZzMoV+/fnTrrbcKwAccowb0hx9+qE8RYwDapBu7mYu1OgagB+7X06dP16327dq1Ey7aGAuQ9eWXXwpXadmMngBwyYZL9PLly0UX6Hf//fdTz549xR9ClBvC+SPr8qKONSBfvkzJzs6m559/Xhx3uf2//vUv4bYt4dAMkK2OixMdVUCGhRz7Vy3SZp8ZATlQHTF/1QqMY/HZZ58JWJft+uuvF1ZlaAqLPq4L6GVslY1BNr5wwbX9xhtvCLduNHgr4FhCUzTs+9lnnw1qjWWngByf2pQ6j3mVohPqmlqD41PSqdO1rwiXWtX1V3Ud3vb9B8L12lfzF+zCDpDnvSlKZLUZ+bCIFc6c/JDQzGqe6nqdvEjQ3ZiPVdDmuePpwJ/fmUrqr46+jouT71VA3jjjGarVoAU1H3wDleTtpnWT7he6MCA7UZL7sAJuBUIByBJy3VmkXVCN3Zok6VLLSVUGkNX6y2IXCsSfMFmssbBQAbIYWwK0WhLKBcj6vhULsvzMsw6yNpIngFevOsjy0gjEgtyu08ki1ljWQMaY/2zKor//XEVlrhhnvgmFtwIAmUceeURYBmGpnTZtmojbVBsetBGLigdqNH8AGf2x/eOPPy6shwC/Tz/9lGbNMn+QDQUgYw6w2AGK09PThRXuv//9L61YYZ2AJhRHzdccAPGIG0bbunUrPfHEE16wMmzYMGElx8sGM0C++eabafDgwWIMK/CEdffKK68UFsmsrCxRd1o2VX/c38wsxP379xcgD4s0LKMAUMwXDbHRAHBAPizQ0Bmx02ozQrg/gOzkWJolAFMhU+7PDjwD1RHzVAHZzIUbVu0HH3xQeDlAK8Cr0eUd41QWkBFjDQCuU6eOuLYB6MbrDucKzjtYkouKimj8+PEivjxYzSkgA3wBwABhY+1ZzEW1MKsgrNZFVq2pdvP3F+z8yWK959cvLS2ugWhq1BHJs2St3l3LP6XtP0y0BOS45DTqNOZVik1KNdXWOK82Ix+h1E6nafd6i1rB+M5fHQNZv9zWCMiIo8Z5A8u3dDdnQA6G0jxGTVKgMoDsBloNePWSThBO5NdyW5ndNZZdqjIgV67ME+QLJiDL8WSiCbXU0zFXkilpQdb3zYDs6N7QPKMdde89wKsvaiBv27KR/l69ksrK7MthONoRdwqZAirQ2FmxVGDwF5AxeRX+7JIJhQqQMQe8CPCV3CpkQrsGtpuD/A5dAaaIEfZ6eFWgygyQYYUEeCFBGiy/ixYt8hpDfSkCq+LTTz+tu92q+mN8JK/65ptvPMZQgU0moPrzT80NUwV4o3VZHQTwD5dxNH8B2dexDAYgB6oj5igBGX/PYKk3hgQYtbZKuFZZQFaPhdW1rc7B18urylwbTgHZF2xJaPOygEZEUPsrnqbkNj2F9RBWxOLcnbZT9bUv48b+1EG2A8rK6Ce3MdOx2ZljqMmAy+nIge1i3dFxCdRp7OsUk5jsYYVX52/28sE4r2Ads0DWa7WtEZDzt/xBbUc+4uFuXqfFSdT20scoKjae8jf/RllTHtWHc7I2u/PD33PHbB0Nu59LGcPuFF/ZxYOHQj8ekxUwUyCkgOzKXyKS+8qdq9mqTWJ+2YJstOBCOL1EsWadVd2pxdcGF2vxWYXL5dpl0dX6ud2w9d9192nlewbkSmWxNl5gcJWMr5VIaenNqU37LqLUE9r+Pbvo1xULGZLD+J7sFGiclHlCptwLLriAOnToIGIeZdwvHrxhwYqL0+pvhhKQkRjqvPPOE9ZuZICWbryAPTQry2swD1Fl5yCByg5U7KAK7s2wkqMP4o6R+Amxv8aG4/Lyyy+LRF9G12InLyjsAFk9T7BvuFubNSdlniqrY6CAHAwdsWY1BtkMfkMNyIjtx/WIBxPELeNFiFlYgWrptrs2K3ONOAESjGsHHqp12SwZl568q6KcNn35GuWs/cF2qv5CTrgCckLDDOp49QsUFZcgkpYd2bclKIDcesQ9ou4xWrhbkBGvXq9tHw9385jEegzIlblYeZsaq0C4AnJEpGKFFkfHOgaZXaxlli0VhqsQkCVsS1Cv6S7WZneTmJhY6nPaYEpt0Ei8qPjj12UcixzGt10VkO0sw74AGQ/jcA82y9JrXH4oABnQd+eddxKSEpll4lbnYFceKZBDFegcfAEV5mYHVb4yiZutLZSAbGcZtgPkQHUMFJCDoWM4ALKva1aeD+EAyCqEwgIs40kxR9Vl9mhhrijrozZYTBObtBMJvhAvu2nO6yEDZH+yZQdyLzFua/aiQU1clpu5nLYvmihcqY0WZPWFAEojyZhlq/mptYarAyAjbh1u1rXqNyO4mx/auoYBOZgnH491wivgFJDVesSOXawDsCB7ArKEZe1wGOfCgFwNAFlAdEUFffzem9XiogokBtlqgfUbNqZTTx9MUVHRtHP7Flr1o/0b/Woh1Ak6SRWQUbYHSaCMZZiwdLuHbTULNl6KICETMi8jPlU2WJVlcqlQALKaORnJp5AtGMmIkLEYDdAFyycyCYcKkAOdQ6CArFo+nZ6uoQRkmQzLbC52gByojoECcjB0DAdArk4W5LqtT6F2lz5GkTFxXnVtpSuxk3PaCNdm2wRiQQ4nQMbaGnQ9mzKG30XlxYUioRZcd42AHBVbSy+HJUtkWWWxjopLpI7XvESJaa0JpZSQCAtW2mDo6OT4+erj5WLtmpvqbr5z6VShA7tY+1KTv2cFNAUAyBESZLUAYh1CNfDULLcMyJ5wHjFhxnzNsdnloqyeUEZXZlE6Sem+zJpdAAAgAElEQVSgb6Nmh5au0pV2sRazcbtRKxZkOU+nLtYepZ5U926LGGT3+IY5iHTXrmzYDMhUL6UB9T0DNT9jKffAXvppyQJ2sw7TO7FdwiV1ynYxyBJIcN398MMPInbWCNmhjEFWk4jBlRuJiJCQyNhCGYMcjDmocbmoS/vRRx95rUFN7GQG+s8995xwcYf+CxYsEPG9dg3ZlfEiQR6vQF2sR44cSZdffrl4IWH3wsUqBjkYOgYKyNArUB3DAZCrTQxyRAS1GnaXqO2LppbsUeHOyS3UF9RhjBMJkKX1ND41nfb+8gWlnjTIC5CxZtVtWib1MtMzoVEGdRz9okh6VVqQQ+sm3kclB/eYSu+vjk6On68+VoAs3c0jY+IJidIa9RpRaUC2SxgXjDVzDLKvo8zfV7UCZoCsZpWuLCDLDNZYj5MYZHcpKJe12MPFmi3I4rxwA26F4Xd52iiAbIRTFbwNscgS4FVwN6uFrCXt0so8ueejlpdiQLa7gJu1bEPde5+mxb5t30Ir2YJc1fc7x/tTgQuwBChDgii1+cpiLS2fVpl4sT1iYxGjjObUguzU0qtCnTGrslwHStkgk3bjxo1DYkEOxhzUlxAog4XyScYXDb6yWI8ZM0YkysK1Z1ayy9eJESggqy9cYL1HZmZjHLRdFutg6BgMQA5Ux1ABsj+ZpqtLFmsk2Gpz8cMilhZli7JnvUB5G38Rp6oKbAXb1lLm5EdELV9ja9hjKLU87zaKiIgUbrbI6mzV/IWccCzztO8Pd+K8jPPvIKy/rLiQIqNihBXeaOlWs4AX5+ygzE8eptICt4eP1Ep15faVFdxfHX3de5x8bwXIqrt52eF8ioqv7aqp7ZmkS8arY19W7vhJzTuLxG84H406BmPNDMhOjjT3qUoFggrISh1iU0A2ScqlA7T8zmXFNkK61k9Txv1dpMfvuvX7RC7zpIFpaABZh14XTOt2b1fdYwbkIuuHi+gYioqOppLiI6Z9GjVuSt37nE5xcfHi+79X/0rZ69dW5bXO+/JTAWktw2aIQ0YCJ8CVbL7qIMuMv4A5WG9Rxkk2wDHqvZ5xxhmirBB+95UISI5nNR/j8gC9gF9AMCD9vffeo2XLlundUHII8clwscYcME+rjMF+Sqd3D8YcBg0aRDfccINIZoaXA7CCz549W9+HkzrIKKV1zz33iLJWaEjO9PHHH/u0JMudBArIDRo0EMeiSZMmYkiUDHr99dfFcUHD8bergxwMHYMByIHqiLX6cpl3mqRL1cRMU7tzFi+mAMpovuogW72Uqew1ge3sknQhZrhR7wuo2cDRFBlbS+wmb8MvtHHmczoEq+C7Y8lk2rl0iul0VJBGjHLW5IepvNT8b5S/kBPugKwCnRTHC+yUOF2pc/bnL1GF1CgiggBuzQffKCyvxyrKafOc1+jAX9bhUf7qGMh5JLe1AmR8L93NcV7JZsxircazl5ccpk1fvEJ5G37W+0fH16a2lz5KdVqeLD7LWbeMsmc97/6+VpJeXstJRnCzNTMgB+NM4DGCqUCoAdltGfasgYw1eNQ/ZkB2ZaNWrLsqoEIwTxdp1VosTwlnFmQ5lofF2DWE+MwHIGvby/mcGBbkjDYdKTmlvn5t4YG1fqMmAmhRkmnf7h0i47BsW7Iz6WCu+01zSmpD4T6NNOwFhw7Sofw80TUmNo5SUhtQXLz2oIOG71f88LUlTAfzAuexKq/A0KFD6ZprrhG1UNEQQ7x27VpRF7Vt27bUvHlz2rx5s8gMjfPFmMzrpptuErV3caOTLrso8YP6q507dxawht+Tk5PFZ4A2uPXu3buXvv76a69av2oMKuYDoN2zZ48OWfXq1RNZml955RW9PBGsrd26dRPzR+mhdevWiYy9ADaZVRsAgMzNSCSG+WAOmAuAPRgt0Dkg9hU1iaG5XDe0hvbICo6ySIivRoOOVhZ2WD+RyVsmK8M2BQUFIiYc9z0cJ9S9xrECxGVnZ+vLDxSQMZC6f+wPxwHHA/MFeGLfqJsM7wU0YzKvQHUMBiAb14Hf/dER/YMFyBjrrrvuogEDBugPEzh2uCbwUx7PnTt3Cq8DtSFpHTwTcG6h4Rjs3r1b/DstLU2/5lEbfMKECfT9998H41LQx1ABuWj3Rio9pP0tia3bUCRViozW7jloqGm74dMn6fC+f7QPlBJOvlynVVdsX4mo/AU7f+ogu9eyh3Ys/sQS0v0V2fZFQ1QMdRz9PCU176IPaxYrLV42DP23sKyK8/loCRXuzBI/Exq1opikFGGBR8tb/xNlz36RKspKLafqr47+rtmsvx0gq67RclsjION8az/qGarTQisxByNMSd5uOrJ/m7AY107vICzwaLDIb5j+BBVsX6dPRV0zdCvY/rfQz66VFRfR9oUfihrUaCogH8nZScUHtvmUJnf9T8LizY0VCIUClQVkac31qINsYkG2AmR3TLPLBdtvQEZstCHTtXH/rr8luuXZHWDt+jOjF5/SvrGwcKu66/sMZQyydoMCHktfZm0KxxuQ5Y1T+6nGX2tgrmax1uerL0Hr8/G740NxHgc8Zs9+Z1J6swzH46xcsYh27XA9sBBRk6YtqVf/QT63z8/LEa7VRYVakiRu4a0ArLznnHOOaQZouMouXbpUfA+4NAIywPn+++8XFlyzBjibMmUKIT4VwCqbMUGU/BxAfd9991HHjh2VpBCeIxvr7xpBwDgPWM9gkUUsNMo/yVaZms5WRzIYc7DTEvcV1BtOT08XOtq5oF922WWixE98vObJYdbMXOKDAcgAc5wPPXv2ND1+eDGCdQwZosWcGgE5UB2DBciYW2V1xLbBBGScF3fccYfIYm7VrK4nuNxfeeWVlucCziPEvBvrNAfjjqWCndV4gJTC7Zm0ac5rAlZki61TnzqPeU3AtJPkW3JfGO+fr94WscxmzV+w86fMk9xfsJN5+SqXldbnImo++AYdcE33HxFBTfpdSumnX+XxYsKoUcHWv2jDzOcIrsp2zV8dg3E+2QEyxpfu5nJfRkDG5/GpTan9FU9SfEq65ZTwQmbrt+/Q/tULPPqoa3a6HqOlWQVkp2NwvWSnSnG/yihwzc13uWKEdbo0gKeapMsNpG53Z8XNmQFZOwSBJumSY1Q3QDauXbNGuzRxJRA7UQG5br1UymjdgVIbpglrMRJxyVZSUkx5B/bRti0bac+ubaaJ3Spz8fI2VaMAXHzhTg3QBeTAcrtjxw6aNm2asJ7dfffdBHdlM6jENqNHjxZWXAAo3rABwNB35syZlJubK6yjTgAZq8X+UTYKrtmwdMkayvgOD/SA9v/9738ersOwDo8dO5Zat24t5onrUlqTp0+fLizZAO9QATLmFow5GLXEuFjHjz/+KBJvIdM4dDS+JDCeJU2bNqXhw4dT9+7dhfVeWpShCyyG2H7SpEm0YsUKfdNgALI8fhdddJGAYLlvHDdYqz/44ANhScb5ghcuZuWgAtExmICMtVRGR2wXTEDGeDinL7nkEurTp4+wwqsl1UpKSoSHANzZkRzN2BD/D88MeW3ge/X6xAuLUDQrQIYL79HCPGGd2/vrl1SwM9PlWuaeRb32/ajtyIcI8aVGV1ezuar9D2avovXTH/caE9v5C3bVAZDjktOo07UvU2wd7QWkHaBjPU3PuFqUz4qqlSSgGpbiw/u20L7fvqIDaxYKF2tfzV8dfY3n5HtfgGx0NzcDZOwHLv1pvYaL2G1oBqs6XqyUHykQWbth/S9WXtbIuTEgOzlK3Ke6KWAFyEbrrMxojfWJpFt6PDADstcxNwNkdJKZrH1lsRZ9HViQ9X5mZZ5sknS5t9OzbXnOzZhJW7EWu+OfvS3IclyP8asJIFe3C5fnGx4K4OEclksAr1kZKF+zBJy1a9dOuEbDvfl4NKwBgAALJqxtalPLWPkzN1/x1Max7ObgZL89evQQ7raJiYniJQHczOG+XN0aXlakpqYK9/HKtEB1rMw+eRtWgBVgBVgBVuBEUyDYgIwQTAnRwv1ad532dGGurIu1ebkpt/Vb7FuUptIJ3g3zFi7WuqN1KF2sKwPI2jaKFdYj+7Qx9te9B83d2VBiSYFeM0CWW6sxyGb7VxN1uUtcGWKfJeDr6a61dYSzi/WJdmHzeliBYChQVYAc6FxvueUWOuuss8SNH3AJa2llXlgEOg/enhVgBVgBVoAVYAWqvwIegOxVA9kzkZYskqxbkAHAHjCqwakRkM0A1AkgqzCsjWlVj1lxD1f379rIVwxyQIAsYVM9FbwsyFonvy3IwQZkda4ec9TrMSvu4a6kN0ZAt8pk7R7PNWsVyF21kBmQq/8Ng1dQsxRAojK4c/vbFi9eLBKNhbrBYopEameeeaZwrYXL+5dffimycXNjBVgBVoAVYAVYAVagMgrYA7LqSg2MVBNjacRqCciRbtdrFUDNXbcVEFfKPFUpIOtZx4wvBdyqekC9TNIV7oAsIdsI7cEGZKmDmqjL7UrusoQT0aR33qjMecrbsAKsQA1W4Pbbbxcxr2jIKp6SkkKRkZEiBlvGEOM7xPI+//zzIuM4N1aAFWAFWAFWgBVgBSqjwLW33C02E5ZfLwuymqDL1Ut3Qw4+IEvrs5iK4p7ttlyH0IJcnQFZg1MNhd2g6p0gS4X5qgBkfX8uCzJ+Z0CuzGXK27ACNVsBtSa1mRKwHGdmZtLbb7/tUau6ZqvGq2cFWAFWgBVgBViByihgBGRPC2/4ALI7pFjao83LPHm4eAumV6zgdjHIoQBkFUhD6WIdCkD2qIWs5/JylZ7SSzr5XwuZAbkylylvwwrUbAXUDMzI+oz/oSG52aZNm2ju3LmEes7cWAFWgBVgBVgBVoAVCFSBUACygGwl4ZVTF2s7C3JVAbIxNlrV128Xa6eALPqJJFa6KdhdKkqphWysg6yOH2wLsgcgaxN0Z9bWk4X5XwuZATnQS5a3ZwVYAVaAFWAFWAFWgBVgBViBUCkAQDaCKfYlyzq5E2N510D2iEE2qYEsx6kSQFb2756/24Ksr1H7UshplWFbaq0CsceY2NZJDLJPQNY6iP0dV0B2zcOjDJUryZZai9kN6BXanJXyT2IFHlm2XUBtqIXMgByqS5nHZQVYAVaAFWAFWAFWgBVgBViBQBUwA+RQ10D2gFMPS7OSjdoQg+zTguwUkM1cqU2g2QjEDMhBqoXMgBzoJcvbswKsACvACrACrAArwAqwAqxAqBRgQHalADNYlQMCZM266k6YJQ6eWZkn1+fiR5BdrMWYFap12jAfr1rFhjJUwbQgawsUa2RADtWlzOOyAqwAK8AKsAKsACvACrACrECgCuiA7G8NZOGi7C7lpOe/kqWgFAuwGFq1FFskxNITbEV6ukBr5aW0laqlnzws3UG2IBvdq43AbOtiXVlA9oBaxfVaA2xNAIC3Bt+ewGuMQTYCsue2xrFMAN4OkLWAZOkdrs/HSS1kBuRAL1nenhVgBVgBVoAVYAVYAVaAFWAFQqWANSA7q4Gsg6NJDLJVjK8xEZa7nwuM/QBkfSwLQI6QYxkyWKvAawR4IwxL7T3mPXHmV8e8rMTKUbKzIKsArcYghyMga2yulIwSlnBzQHZDuGsrHebZghyqC5jHZQVYAVaAFWAFWAFWgBVgBViB4CngC5DNLbY+aiC7sliHMyB7wK5GxEJUY/y1qrT6XUTIANmVyVoHbCWLtRtArSzIbjDVIVypQey2PmvL8vhdt1i73MMVuA0EkI3zYAty8C5eHokVYAVYAVaAFWAFWAFWgBVgBYKrgArIQauBrACymsFaAqitBVlUiFJhVf5bW7cR2G0tyA5qIIsxazIguwFWxisr8dMVrmzVAViQGZCDe8HyaKwAK8AKsAKsACvACrACrAArEDoFQgLIke7YZLsST0ZgFjHIJzIgC1h0HUtpIfZysXZgQdah06O0kjxJDOWWDBZk97aGRGJGC7JI8mUPyNpY/tVCnvjO66E7m3lkVoAVYAVYAVaAFWAFWAFWgBVgBQJQYMwt92hbm4Cp4xrIcntXnG+EQ0D2KiflGJARH21I5GUWg+zAgmxm4ZbgbpQ1YBdrfwBZgqxah9gbbt2Julx8q0UMqxm0ZXIvizrF+pgmgKwl4nLFHLsmr/+u78MbkI3zFPNxzYMBOYCrtQo3rVu3LrVo0YIOHz5M2dnZVbhn3hUrwAqwAqwAK8AKsAKsACtw/BQwArLTGsiI2RX/ERQtGVv+7oZXOwuyB3C6B7F0sbbMYO0CdO2HG57FHA3g7BVrLKUPeQyyRo2OLcgekGlwcXZ/Zw7IOlwrYKqVkTJmvvZRiiqYpZ4YkI/fVV6JPQ8bNoxGjx5N/9/e2QfdlxT1/eyyi/KOCG5kgwqmxBCylCgJQiQaw6YUKCuaUlGsMsQYkhje5SVUSRVVEBJAwRhIhBAQw1KWYBA3oCgJKMQKZV4oQ0QIb6tuWMkKC4YA+5K6M2dmunt6ZnrmnHNfnvt9/tj9PffM9PR859xzn8/tnp7LL798uuWWW6ZPfOIT09vf/vbp2muvdb/jBwpAASgABaAAFIACUAAKXEQFRgF59IgnB7EKjIYjnkIkm8Kw71M54mkG5HhMVDoTygbIhWOn5HoXI8gUZkMntcL1hoA88zc7/olGbg8OyM7BaUIE+TQeIxSQ6T193XXXTa94xSum3//93z+NicBLKAAFoAAUgAJQAApAASjQoYAD5D2egTwCyM0zkPcAyFlhMVrFugbI7JoGyDPZhtiyP+JYRHpJJWsO3n1nIWvQLitZsz3SG5yFDEDueHcesOkuxfr+97//dNVVV00PfOADpyuvvHK6dN47ccMNN0wvetGLpg9/+MMH9BBDQwEoAAWgABSAAlAACkCB9RXQAXl/ZyAHYI7R344zkCNsF85AzlKstUixN+KElRBM1d4ckB0nuzToOiAH4Paw2wfIvK+fngWQg2+R0zvPQo5fEpxABPmyyy6f/syVXzV97f0fON3t7vdwN8Xn/u+fTr/5678yfe5zfzr8DtzZ/ea/evV0j3tesYq9YUcGO1599dXTD/7gD053vvOdnYUPfvCD0/Of//zpM5/5zKBFdIMCUAAKQAEoAAWgABSAAsenQADkLY54ctApALR6xNOufQcgV494msf1W6RjiDwuQOmM5tCA+qnBMzsHOQIgWd9YpXqG0JlG4x5k1icWyJqB99ZyBJn2u+22uco0KZjlXahXstZ88+nY2x/1dKwR5Lve/R7TVQ9+6HSPe37FFPYPhOW0AjKF4C98/v9N7/6Pb5tu+tSNzsypA/JuDo95zGOmH/iBH5huf/vbTzfffPP0C7/wC9Mb3/jG43uqwSMoAAWgABSAAlAACkABKDCowOqAbKxgHaAzgar9iCe2/zlSeALhaDPAtgBkBukC4FcDZA6yoZR0KtJVBeQTOuopVM+WEW3/eg7qxwrI9/6zXzM95OF/Lb6NwpcPu5vNCsh3uOOdpm/59kdPu/9/9qZPT7/5jmunHShfFEDezeOpT33q9PCHP9zN6WMf+9j03Oc+F1HkwYcvukEBKAAFoAAUgAJQAAocnwKHAuRjOOIpsnVHBesI9rs9yCoEkzXO9vySPcgWQA5t1jjqKe1xrlSybh31FDl/PvqpctRTAOQ4h7mi9jED8jc97FunT934f6YPf/D90ydvuH56yMO+rSsl+p5f8ZXTQx/xyOl2t7ts+t9/+PHpP7/7N2Ll8IsQQd6t5YMf/ODpyU9+8nSnO91p+tznPje9/OUvn97znvcc35MNHkEBKAAFoAAUgAJQAApAgQEFKCDzY5TCnlxyZFM4s4ke8TRTZjryqf+IJ2+iHkHe4oinEUCOYD8KyA4Y54WKqc4yxVrsQx4BZAmmftzGUU8tQJ6dT+AfUryNZyFP0/Sal//kwG26fZfLLr+9SzT44he/4AYbAdr7fd1fmP7iN/xl1/8D/+O/Tb/3u/8lOj5ib/tZ949wu9vdbnrhC1843e9+95tuvfXW6U1vetN0zTXXNA3tin7tos8PeMADXMT5ta997fTOd76z2Q8NoAAUgAJQAApAASgABaDAPhX44X/wVDfcDvysZyC3jniK9sJEirbnccUZyCNHPHnY3c8ZyG6sIUD21NoNyAFuaZEsb6pdqOvYjno6VkCWb7oRoH3QNz1s+pqv/Xq3Lrvo8S6KHH5G7O3zQdAz1pOe9KTpEY94hOvy3ve+1wFz6+exj33s9N3f/d2xEvaHPvSh6ZnPfGarG65DASgABaAAFIACUAAKQIG9KrAFINcKYPWegXwMRzwF4Gf/Pwgge1KOabsWQHZdQtEvUvVaFuqi0eyRo56SPRqlntF+Pi5q99tFBeTLLr98eui3XD19+b2umL74hc9P73nnr06fuvGTFxKQKexaQReAvNfnOgaDAlAACkABKAAFoAAUGFQgB+T8iKcAhg5W5/TqCIvkiCUHvzRa7Bs5z2iEWv6+lyOehC/uV/KaBsFU0gzsDwnIDjsjdO7/qKeYYu1pPRS/ziLaWqGuiwrItQJdu/W6SBHkRz/60dPjHve46fLLL58+8pGPTE9/+tObjx+aYn3TTTdNr3zlK6ff/u3fbvZDAygABaAAFIACUAAKQAEosE8FdoA8csQTBeQIuHsEZOsRTx6E+TFPWoT7sIDsidete89ZyAGUebXocPuMH/WkRZCDb0vPQr6ogHyPL/+K6Zu/9W84EJYFui4yIN9www3T8573vOn666/f53MLY0EBKAAFoAAUgAJQAApAgU0UGAVkCqgtQJbR1wCj/Uc85fuk0/blFKl2QrlItv0M5AFAfusufCrSnfka7ecsZL8PORXOsgFygmuRsr3BWchhrJ2PFxWQv+q+Xzd9w1/6K058WaDrIgPyH//xH0/Pf/7zp+uuu26TBxSMQgEoAAWgABSAAlAACkCBfSoQAFmvYO2wkUSYU4q1CsjGM5A3P+Jp5+aKZyDn8HzJrkgXB2QKnBFRwyHBsaAWL9LF+hQqWbN0ZtfBW+dHSKU06zRkPYK8JiB7W3nRMO2op4sKyKFA106L9777HdMf/cFH2fv4oqZYf/SjH52e8YxnTLfccss+n1sYCwpAASgABaAAFIACUAAKbKKAFZBDsaywB3mfgGw94imC7Bw9nvHe6ybOOvbXCq/HyYau4XyrdPTV3gA5gOzRHPXUcRayhPCLGkFuFeja6XBRAdm6B3mTpxeMQgEoAAWgABSAAlAACkCBlRWQgCz3IwfobAFyKNAV2wc/j/SIp70AsgREpwlJYabX6R7k2Cy0pdHlRgQ5DUGjyi4b3A9fSAtPRb+Uo6jmgmAU0u1nIc+jznP4N//iJSvfwtuY6wHaL73DHadv+fZHTXe8012mm2/+4nTD9X8w3Xzzzcyx3fnB97zi3tOXfMmXxjaf/tSfTP/rA7873XILb7vNjNaz+vjHP3561KMe5Qz+zu/8zvSCF7xgPeOwBAWgABSAAlAACkABKAAFDqjA3/6HT3OjezBuVLB27S5N7RdUsA5jpgJastK19MX1yM5q3oWB2R5obzgEjOsFuua2af5BB74gKYLdGUF2aCgg11PqgrOQPW/OZkIa9X4qWauA3FnJ+iICMi3Q1fNevvGTn5j+0zt/zQHzKf0897nPna666irn8rXXXju9+tWvPiX34SsUgAJQAApAASgABaAAFCgqoAGyntJ8PEc8HaqCNfsiwbIHeR+AnMbIzx9m469wFrJncxKNdqBvO+op+HIRAZkW6Op51pwiIN/nPveZnvOc50z3ute9pi9+8YvTa17zmultb3tbz7TRFgpAASgABaAAFIACUAAKHK0CO0BepUDX5kc89VewdkC74hFPJwbIM87SCLavu+1uRhnZZr8PVLL2NpNdrcL3boyLCMiWd3dPyrbF3qHafM/3fM/0vd/7vdNll102oYL1oVYB40IBKAAFoAAUgAJQAApspQAF5NH9xw4cj6iCtTnFmhTj0o6iCppvmmJNYdWnXgeAJfuVRYXrQ1Sydr4R/3zgOPh66wzdJUBOsH6sgHzfP/fnp7vf457xfabtGab7ij/yof85ferGT5rflxcBkHfR42c/+9nTFVdc4db+t37rt6aXvvSlJg1o5HnX981vfvP0ute9ztQXjaAAFIACUAAKQAEoAAWgwL4USIC8fP+xA+Xd/t9Eltme4d4jnrorWHsn+B7kRgXr4Df9P9W/CsgUcOm5x8HAorOQ3RHHJHU6VdqagZRGg/WjnoJ/zo9Koa5sr7TcJ10DZGOa9TFHkL/pYd82XXmf+5rfd9pRTrXOpw7Id7vb3aYnPvGJ04Me9CD3pr7xxhunF7/4xdMHPvABk2a7PctPe9rTpjvf+c5IzTYphkZQAApAASgABaAAFIACh1BAAvIW+481APUgHat8ebBOpbKdFD5rO+C2McXaUKDL2Q4DxAJlXn0Kw4nzvQ/Ml7AHeR+AHCF3Q0BmIO1/CaP5SLEEdeW4p3AGs4dtCez+91f/zIsPcZ83xwQglyV62MMeNn3f933fdOWVV7o3wRe+8IXp9a9//fSWt7ylqWto8I3f+I3TU57ylOkOd7jD9NnPfnZ6yUteMr3vfe8z90dDKAAFoAAUgAJQAApAASiwDwUe/2NPn4fxUdcWIKvnH3fuPw6wuSYgJ7/aFazd+N6JDIr3BsiOQWfpY5RZpFJ7zhR7hgkk86jvxpWsd67cOqdSFwp1zVwdU6+1fcjHCsj7eLOd0hhXX3319P3f//3THe94x+nyyy+Prt9yyy2uKFdv5epHP/rR0+Me9zhn64Ybbpie97znTddff/0pSQJfoQAUgAJQAApAASgABc5AgQDIa+0/1uBTpijHseYI8iWXKhHaEFwuRZDJEVMBuGfaHT7iidkha5/vT75kusRHkD3mqkc5SfglhbEWn4VM6DrfB0z2MGsFudYq1DX7EMcvpFkn/3wHAPJpPFUo0PovPm5zadVveIR+lrQAACAASURBVMMbpne84x3dk/ihH/qh6bu+67vcN3Af+tCHpmc+85ndNtABCkABKAAFoAAUgAJQAApsrYAH5Hz/cYLC+vFODipXLdDlETtwcfKDnL8cKXzdM5BtgDzDvBWQA1zQ/3uuXu8s5GRbHvWkAPwCQK4W6jLuQwYgb/2WXsf+Qx/60Okxj3nMdOmll04f//jHp3e/+92LUqKf8IQnTI985COdc+9617uml73sZes4CitQAApAASgABaAAFIACUGBFBSggt9KrI0CS6K3rQ1KV1yzQlYDVuP/Yd7BFkI0VrCk0e30qgJxB8LxQaoT5gIA8Y3P9qCcN4g37kOduxTRrAPKK794TMvWsZz1reshDHjLdeuut05ve9KbpmmuuOSHv4SoUgAJQAApAASgABaDAuSiwA+RF6dWN/cc5YIZK17xAF4XhmXPdEgQozdKcl6ZYGwFZq2Dt/NIiyMcAyMGHUDCLF8uqV7JOfWMFLnOhLt+3fdzTq3/mRefy3sI8iQK7itf3ve99p89//vPTq171qqE0bQgKBaAAFIACUAAKQAEoAAW2VuDxP/bjIp057QdOac55enMosBUiyGlfMS9+lQOmDsirVLCeyTr6Hatk8z3OtECXBvBU870AMgNrWajr1nKRLtpPrxztWrj5uDOMxVFPGRDTdv6i70v2T7NCXfPF1j5kCu0A5K3f0sdn/173utf0Ez/xE9O9733v6aabbppe9KIXTe9///uPz1F4BAWgABSAAlAACkABKHD2CgRAHkmvdnBZ2H8cwLNVoGvHsKsd8eT8mWG4AMfOrxmkw+LnRbjSbbEqIEsQDlWsq4B8gErW0R8FkJfuQwYgn98z5y53ucv0Hd/xHdNd73pXB8hvfetbp8985jPnJwRmDAWgABSAAlAACkABKHD0CiwB5J79xxKYYwR6zxWsJSBrEW66aJsCsgPRebTRo54CzMoIsn89jcD2QQ8U6qLQzCPGfgIuQj0X6gpjxzmRSt//+p8jxfronwpwEApAASgABaAAFIACUAAKnKkCf+cf/bibOStARQpduaJXrqo02TMcClVp+4+9MbGvOZ2vzI54Iucu8wi2XwwZ1aY+eNAVx0NZC3TNPvIx6HjpZjgZQPZQGvYA06OePCQPAfJMugziK4W6uA8emmd8jv8GIJ/pkwbThgJQAApAASgABaAAFIACJ6BAC5AvuWR8/zEFUJnG7OA2A+QAvByQNR9OH5A1+Jxfm5HWqeAYM6Q6i/3JIfzMq2TbjnoKY2gVtuN+5YKPS/YhA5BP4KkAF6EAFIACUAAKQAEoAAWgwJkqsAPkNfYfe2AdK9CVQFoD5P0c8URhnt4Kpgiy50heTEveT/s86in4Y6lkndqmHdESkD1Mk4jwHEWOJznHotcpzTqMLVO/Achn+qTBtKEAFIACUAAKQAEoAAWgwAkoYAFkLbW5tv84wOa+C3RtfwZy/BqAH/NEAVn+O9wDhwBk70vAWwLxoTI2qXCtQb6vep0qWcc2C9KsAcgn8FSAi1AACkABKAAFoAAUgAJQ4EwVSIC8wvFOnoxt+49pxel4JvGur18IPaqd9kF7VB3cgzx8BrIKyB5A035buvc23VXqdQ0+E9X6olcdadabFOqaHajuQ54Z3HLc06t++p+d6VsN04YCUAAKQAEoAAWgABSAAlDg2BX4kSc+Y3aRgu0MuqwY1wyutQJdM3hm+43l6+r+4xl5C4B8TAW6nKev+cW3klOajgOQPcvaC3XNaK+mh2+VZg1APvZHAvyDAlAACkABKAAFoAAUgALnq0ALkNdKr3ZQOVfEdmqfcIGu9QDZE+1qRz15c263MIHecHOnPdI+ddq/nqLUOuTLNGt6HNXIcU8A5PN92GDmUAAKQAEoAAWgABSAAlDg2BXwgJynV1uOd0rQO89SSa+ObUIUeR4rADJNpfZtva1w7JSMRqfu66VXp/H4apUKdA0BcoJXkYK9ESCH8bRCXe7a2vuQPW0nMJ/PRJbFugDIx/5IgH9QAApAASgABaAAFIACUOB8FQiAnEB0ML16pltTenVh/3EA5GPYfyyhmZ4TrQJyEYDJvbVGoS42TgoDu1FSWjSvqK0W6pqjyDSCrM2BRYznucgock81awDy+T5sMHMoAAWgABSAAlAACkABKHDsCtQA2ZJe7WAxkC0prlUE5S32H0c492qH4l0hHB19IX5SAKaRYrpeWfQ6hK93Y7z2jW+7LRXeyo94okW5gtFSoS6ymTkV+xJnHlvPQy4X6nL4y/cbkzRry3nI3kJ+3NNsOaVtu6g4qYBNIsuv+ul/euzvCfgHBaAAFIACUAAKQAEoAAWgwJkq8CNPfKaHSpcePYsw7xWmgMwqRpOiW6ELhdE8NXls/7FDXZK2vSS9ugTyFJQ1OObXSSo6B2QOn+63lNsc7RYrXW+UZp2gNyK6+0eMNA/uQ47zk8c9zQSdxg0Fw/z4u9cByGf6pMG0oQAUgAJQAApAASgABaDACSiwA2SWXu1g+dIIzSqU0r3GYY7ntP94N9dTAOQEwzkgu2s9+5C9MbWgmANuLd1b2YcMQD6BpwJchAJQAApAASgABaAAFIACZ6pABshK9HgnzS6C7EA6O7IpVdY6xf3Hbm7kXOTE+zE2HguG0WtDgByAlf7fGR2MILuuBEx5mvTyfcgJsEOoeba5IM0agHymTxpMGwpAASgABaAAFIACUAAKnIACAZC3Tq8OkJ0f7zRfKZx/HAE2XKf7gFPJ61T9Ooa8eZVruk+aQnFr/3Fqy4FZBeQiAJMbobUPmRbACt1SIS0P02ycFQp1BdAu7UOO48V90d6zcAQUO+7JGyN7nXma9Stf9sITeFvARSgABaAAFIACUAAKQAEoAAXOUYG/+6RnuWkn1lw3vToAZiqclSK2vFq1V19WsNYKhbF2ZO90HINMSCvQpe2RlmtfLdAVUqwpqIYKVcV9xvMILUBmNgcLdXkbAUwDUIcplgt1hbE1H3urWfMzkndj+vEByOf4mMGcoQAUgAJQAApAASgABaDAaSjAAHlOr44ASqK2venVEYwL5x8nyA2RXg7IbB+0azxfJ2c2z0TdjB7H7iI9nIE2WS4doEVEercHmQOy+40V5zr2Ql3O44F9yH6mY9WsAcin8WCAl1AACkABKAAFoAAUgAJQ4BwV2AHyWunVFDiz/cgBbC/loBnIN0Wwd9fn/c40orwAkEvp1XZAlvuR52OeRgCZ9mEAvXQfctwmTFOw079TUW25N3mXD532Mvcc9xTn0lHNGoB8jo8ZzBkKQAEoAAWgABSAAlAACpyGAhSQR6tXB9AsHe/krlfOP/b98/RqBrC760ey/9j5NRpBllDdSl127ed9xhFyK/uQRwt1hXGG9iH7Sfnjo7SiYaSaNQD5NB4M8BIKQAEoAAWgABSAAlAACpyjAhGQR9KrZ7LN9+vyfcaj+48jIFeixwGuI4STF5buP06AvlEEmcFyJYKcQfKiQl2zNWpDOQ+Z+pZBMynWxQCf7pkmEW0HzfO1n30pinSd44MGc4YCUAAKQAEoAAWgABSAAqegwI8+2Rfp2oVw41FOnjZjxFbuP464KI98Kv2eNhCTM5d9KjUD3JTr7dodukDXECAz6KX7dMndsL9CXW6nMKkoHZzYIM3a7WeeC4NVosgA5FN4LMBHKAAFoAAUgAJQAApAAShwngo4QK5Ejx0kXkoqW6d6WexM5KXp1RRGs4j0gv3HM+tn5zen8fi61wp00T4xxVoCsaVQF+2zz33Iflz3XzdrFhlWoshrVLMO44QoMgD5PB80mDUUgAJQAApAASgABaAAFDgFBSggaxHb7apXe3TlxbnCa6KQ15HtP3Zehj3ISwGZ9TcU6oqQu0KadYTXna0FadZxDrJYV1Y47NYJgHwKjwX4CAWgABSAAlAACkABKAAFzlOBHSBrRyqFfcMBkNl+XkeI4tgjY3o1PeeYmFl0/vGM1X4BpR/Ka/6ltK+YrnweQc73HzcBWUKz+bgnDZAjEYtiXQZATn6sl2ZNYdj9e1ZP7kUuFev62Z/6J+f5TsOsoQAUgAJQAApAASgABaAAFDh6BX70Kc8We41nzgxHLWnAOUNnqzhXBFdSoboOyOsc70QBmB7xpKdPpyWypldngMyBmKcvS1imd0St+BXrR4tfhTTpTkCm9tZMsw6QbC3WBUA++mcCHIQCUAAKQAEoAAWgABSAAmerQABkml4to8cBOFvFuWK7ANXF4lwzOoe9xaI4FwXcZEKmXZP07NhIRLXDqhai23LRa4AsI86X/Nyb3ia2D4dYqkdGtRCXGLFVrItC52zVWVjnuKeAtn4vshurkWYdIDv3y08sAn+lWNe/+qkXnO2bDROHAlAACkABKAAFoAAUgAJQ4LgV+HtP+cfOQZ9K7X2NgLxGcS5vkFelblSvLvqTNizPPnN/95ZevZvPIQA5g+TOKHKKWIebsl6sq3km8kzrljTrANAA5ON+IMA7KAAFoAAUgAJQAApAAShwzgrsAHnN4lwBbltnH/t2M+C6fyxMryYGtzz/OAzTBOQAhBFFY9iX325amjWLRYd+B0yzpnMxpYXLYl2e7F2EGYB8zo8bzB0KQAEoAAWgABSAAlAAChy3AhGQtaOUyFnErfRquR+5BcjW6tUOSGPEORJ1gutCerXvVy4mJlela/9xiCB7cEymeDGuvjTroeOeiAMRXB2Jep84zMpocUT3vK0zoUSX5y41qK8V69p1/5c/+fzjfkfAOygABaAAFIACUAAKQAEoAAXOVoEnPPU5fu4EkEePdvI8Ou8DdnnV5Heyz5hwa1a9mtrwJvK9x6x/bf8xqVStFRSji26uXh102qVYrwnIFGh31K2lLSekDfCaCJ0BsjMmIflWAcJ1QPYmEiS3zkQmQ877mUnlbALtAOSzfdZg4lAACkABKAAFoAAUgAJQ4OgVoIA8erRTgFoGxzN052AagHfm8lhA61LP6TG0PF+3RI8JMe8jvdoNZwFkBr0koivvClNEltB4AtceQN7BbjuK3FOsK84vpn8LKFeKdQGQj/6ZAAehABSAAlAACkABKAAFoMDZKuAAuaM4l/loJwLI1rOPhwFZixRr0Gw++3h2fr4reHR5Bvd9ATKD7Mo+5NCOnj9M+3oIbwNygt4ZdklFbmsUuXbk024PsnYu9Nm+AzFxKAAFoAAUgAJQAApAASgABY5CgR34uSrWMpWZHIvU2ntMoXZnr7X3mHBrM73aY2oq3uVEc/uiZ0g90P5j50YAZA+UaT33uQ85jt1ZzTrCdPS7Xs06B+0ZnkkxriCCTA2/TUSRr3n1K6ZP/8mNR/EGgBNQAApAASgABaAAFIACUAAKQIGgwN2+7B7TYx//9z13hlTmlY92ogAdQtXuRKmFZx9Tn2vHO0mA11a/d/9xFyBTuJT/Ds70nofs7MRo8Ppp1tHPFYt1BZ/f9fZ/P73/ff8V70IoAAWgABSAAlAACkABKAAFoMBRKfCAq75hesQjv5MXwiLRYw+h9UrQavXqFYpzMWgn5x9n0WPNP+U1DuppGXqrV4ee5giyBZBpG5aeTG4X+vo+AZmPpVfmzn3zjvv9zLxY1yf+6A+nX7rmNUf1RoAzUAAKQAEoAAWgABSAAlAACkCBv/nYH56uuPeVGSCzQlcGQF5SnGvx+ccC6C1QT1d+FUD2MJjMrpJmXSh8lVKZ04B+e7FIk45lrAmsxkJh7b3IQ8W6ZiG0Cty0yjaiyHj4QAEoAAWgABSAAlAACkABKHBMCmwWPZ4J1e1HHjzayZvIj3eiNbbSXmfezrJnug7I0QLx3219Zj+X/Nwv/eouNBpfrAGy50baltD0bOGY06yd/wPFuuK8RRR59/q1v3jNdN3HPnxM7wn4AgWgABSAAlAACkABKAAFoMAZKnCfr77f9Ki/9Vg386VHOzkbGxXnCra9o0pxrvl12k5LCWd2yHqPRo+dL2sDMoVoLc2aRaUr1azb5yHn1az92B6DMz/CecraNQH3Vb8lJN82Te/6dexHPsPnD6YMBaAAFIACUAAKQAEoAAWORgEXOf7r31mtXO3BeWDv8dxRO/uYRX8XFuiS0eMWIFMQpguxGSBTyPQD6nt35V2hnYecsJVEoQUgR8BdOc06zoNAcuYjiY737EWeZZk+cf0fTr/3u/99+qPrPjbd9Ok/wRFQR/OogCNQAApAASgABaAAFIACUODiKbCDwLve7cume9/nq6evf+CDpiu+8sr83GNfVjqmFFvSlCkEb3G0E4VeGj32DB7OedpPejX5rsDfIDGCHMl0xuDKPmQJzdpZwBp8uiJX830pAXRGb8+aG+xD1gCZzqN1LnJrL3KAZBb1jpAfNI1W5nmGKLefveqPFvXOvjyIokYbpTOk+dqxzHoC9HkKPU271/eOsxsmPn1kAn52r4i5hI5Z4j5zID3cavde6xHYOsO6dX1e1dYw7HphGl02rI1t/hut7dNxo0toBgWgABSAAlBgWAG54XDYED3OZoERY9d+t8XGSmWcUvQtNG1dr7Ur9hUTkV7GfrJdrR+5xiKHArZ2/qaiyXRksSc2ttNejwf1uumzs3xDUalZGDoXrdiV90eOQdKNs32+oW0cQKRR+9dlajUbh4iQj537s09AjmNpPtLFU3VLN/iS6LEbxqVY7372uA/ZDxfobx6eHvdE/BlJtU5TsaVatwDZuTNrztKvHfRHip1lJPM5AUimS5900PeZ7xuUqe7xlu+AZXafGT58WlDZus6HyPfnG1woNjlWRu3TZIkC6AsFoAAUgAJQwK6AFezsFtdp2Q+5rXHbEBwstDRpXaeeWNJamecNKPbswyOHJb/ZjAfAmI3lBhGRyhRi9Ve1MSIjk2JVh4bjNJUE7dqxTn5SbG5yjvusXE3cKUaP49S0qtbKm2rPgOyQo1moi4JJNV3ZN4zvn32diTzPwo3bm2otAZnaiqxMU8crkJzG9lZ03dLjJenjj51i7UMz8rqE99J8/Zp6Axx4+BhiuUKH9CXB7IO2zzzNMM0nHy+vYh6nxbsRUXQQXRJdpkNZAdDajq5maUr7fP1YwXufGmAsKAAFoAAUgAJSgfVBdlRjOwDvRrBCrrUd9VrrY40SBzuj0WI3N+5M/E364KKQWfQ5dZbVl6luvlte6ZiNsRSOyRDt6HEB3knhrPTFgp9jKXrcm1pNbXlJ80i3124ed629x8RoAvV5/SpgX7pXvQ1+53GAJj2DfS2CvGu2VjVrCUtZJJYM1gPIvhsFOAmYYbK2KDK1F/5tgXueVu3H3DrVOo6xESRzLQzR5HkNUxK9BG1xQ5GIfFwlSWqF9Gs3FH0H0H93RpflmpfMytf7YVjRwzpYd7t1I9fdw6MDFIACUAAKQIGzVKAPZEclWgtsW+PXxlkKxbuxh6LFviNzPUunNoGxM+Ts5KC0DRz7EUVq9pqp1fOUmqnVRMPd3LVI6+rR4yR39Xgna3Euum6tL21qX4Yot1OKrEdAniEnAUu6/9pRxfyPci1tme5DZnByYlHk6Lty7FNvFJnqUKzA7Rr59cggtAeSqR2WUp/2R+tfjPD15WtLnlM0cj6/XNp3HO8z5Qlt3atcs+HFskeXqRsjALxm/61sKVKv9BKgfCUhYQYKQAEoAAVWUWA/sLrE1RHQLY231Far/xpAvPPdCsWurZxsC4z9ALEXbZ77P77f2PvWl1Yd+jjnRLSVApwWiaW6pQCt88Cbi5381Nc61kn6fMjocZRtT+nVbrx+QN5142nW7hUFRrL05QhQfhFlhHa2PF/L023bxafWjyJHPyu+N/dJ7+h2g/3ImW/CR5qGTcFaQjxfP74lXftyJDx9FoGyH5Q9/iRm1eC6BLFVVKvkE1ug2NKm9OElX1/TlnVM2u7Q44/4jD5QAApAASgABfatQAset/ZnzfEttqptKnnnpa8keGpyOfobIYgK2tpbWinA5exl/bXocBhQg2Ye8fU+ng4cUw1oenUOu+sX5mL6k5R0/nrH2ce+o1sszf+4iuoXKX3p1W6MEiBLflkSRV6aZk0BrlgUy8HPhoBMBCkV7HJNHAz7ZWIAeQSQHP3z/4g/2RcZ3vtmmn0w0APKUpdZKPb5okGuCnRqFJx/VI0CszY3blmMcySbeQG+tVXCNSgABaAAFIAC2yhggc9tRuZWrX6Y2q0MxA48NOiVwlSixc7GCmDsffHWwo8KXhW4o71pdDxL+yYNtUjsSOSYabnbH0wjyhIk0wTdv/YByNXINvEnBcBjaD1fj7RYRf/lGvJ7LV9jYdJ3pxkIDJB3Fxl0pDt2CSB7s5Ea2R7Sk4oiE30cjtM5yfRiAckenNvR2QSrbjC3AHkk3q9Lb7p1sNUTTc63BlPk1Pcni9sozVvsHm5Bb1Ig3YfsXuIvi3u3kF4t+2i/N2B3FEJH+1lcRhsoAAWgABSAAlDgYitgglpFgmY/Q0WykQhxcGUEij2viMhfA4zzPjoYJRYaiBqnzhGtt4BjOpeR1OrQn0aOuc3yFwNLj3Vi67AweuxsUc1ZGn1+V7IvJ0jRMO1eZLeXvNfGAHnGM5kia0mznukpi8ISqqoV65pH9vOUEHpMUWTNP0MU2ctAQXolSKb60uOpFD+pDwnS0xM3Bz0jKCtrHKzW0qmJi9ljvwqdhghzzTYbrDNCvBUMb2VX+TzFS1AACkABKAAFoMBKCjQhdXCcbrsLYNhzCoGSWoS5cK1nb7EbT4Fi7wcXjOtgSakdgGMKZ/Pw68KxnzHVeQkcJ2v19GQZUV4KyKXoMbt/XIEwL+IWxbnSWJZ7QSn+9rpf+jWHS/Eng156KY8e8vTaPGqnpu/yEYtnIjt48aFa50S0VTh7OLU5klRr55DXj/lu3I8c579WJDkZLGrJfGX3Ao9+03bkDiG3kdhfnG8w9roMRJWJrPzpWNgLr93bFtCspmcHo53gLB22+JFNcsMXjs2fDacK01AACkABKAAFogLdoLmxdov9WQjCYXqrA/HOcGNvsWuyMRh7N3JIToWmxbWN4Jj6cRHgmM3HED3W1pqnqMvia8qazTfrcPRY3JNun3kGyASixD8NZ+SWAZkBVangFRlwb1FkQlvsnGG5h1hAOq3IbUm1pvOvp1tzuE+SLIskM6gUkdXaecls3dwNuDIoK2seHsqtqDL9bCrBrDXCnM9T/+QzQbPWdSFI934OA3R7FUN7KAAFoAAUgAL9CiwG2d4hDeCrmSylSNO22VzWiBDzAZhrlhTq0GGtiPHOng5SpMI0LcTlOzg3qIZrRI65Lx2RY+JMc++x3I+spCjHLwoMx1AROYiOqXDZ6tFjqv++0qsDIHvs0aPI9O96LbVWvqb9Yb4kihzHv0BR5Kj3ypFkuo5Ocwn1tDZXCZK9EfdTzw7oA2Vpz/8uHuFyH/d8uQh7BeisQWwTHCvbBCyfYcMA3TK+Z8BuuYPrUAAKQAEoAAWgwIACg4DbGskCwAk2ldYNv2pfBBTHLqVZG/YWUxAr+21Jn621iSHOKC+rUk3hjCyABscx4k3hNYtQp7Ribzr41oZj1l6LzEoQTqK5f+2jMFfTR6pnIb16jehx8sNyf4gIdUhx30WQHazsIc2aQVIjzZr6VE2z9g3dDwfxepp11j7YKKUzq8Wy5jHmm9ASSdZSrb0vfA6yQFdqU48kc90akEwGLqWvszVTU5i3A+XsvuxIoaYfJC1obUIzXSC51nSgjn+3fOowtawpwHuZfugNBaAAFIACF1OBjUC2V6we8NVs90SFQ/9WVLwXiHd2i9Fif5G5Xo8Wuw6iffo99TWAMTGVnytMbJLR9gbHsy7W846pxtHzweixmnoe90Z7MSjcZ+2J9Jqu2d5jcg+UALkY9Z/XZs30aufOMkB25NCINFYikQSSGaSISCIFZM8qAUwj1Tp58ojn4fcizwr55avsR/b+z81S2FyZVzKUReZpEgAFfaVYFQO0zmiy1JpOrpVxIB/eeQaCaFGIKodWPSnU1HILUE3QTBdNTmz+3Wyn0L/35da8eu2hPRSAAlAACkABKNBWYCnItkfgLVoQq+3z1cZo2anOaygFO4QOe6F45/0yMHYWEp1FOUpRYzqi3IudpSWTxjlgdkaOvaP86CZqXx5NdSrR4zCvQvSYro9rUkip1u7ZHJAt98p8C7D95XM0XwVk8Ye/DDLxP/q1PbPlvcgShGlLGoGNAET3vJbSrJ2/voctipw6sPZbR5E1P0llayp70knTt+B/Es1r0YBk4k52RJJ2FBTVNw6V50nP68Afw1p6Pm1hBWU6L+1BPwrMTAvN8PzaIuAdiNYuGq8yD1yCAlAACkABKAAFDqdAC0xVzxZEtS3jNSF/AIh38+Dpx71gXAYdZzuFS5lkWcSa+i4inBJ+vc/ppwnH1N7StOp5UqXIMdXT+bUnOKZa7zt67Mfmaeh0sXuix/yeUbIXZIp1Bh7ij/lyZLAPkN04KVTqYUqDj8EoMrXvx7FFkWO/CwrJaX7pK4kUiSe3meFLiNC6d48yW3v2GONfqDRh2RsSFsqx0yXQTO/Pno/RvYDtAHCX5rAXf3sERFsoAAWgABSAAgdQwAKSZrcWAK11jBF/myCcUQT3pjYmg+GCnd4Uam+mBNbGVGpnJM3DklJdAmNvKoZBo9GtI8d03C3hmOsdwNRPswrHRONM3/leyNKrtaJhQVEFim3RY77YHKDFO0uJHrveIYLsQUBABku9TQZL0cAs5Vf4oF5fuBeZ+V2JIrt2Ef6CY8p+XgMgc1txUGc0g/3d/LQ04cF063welS8oxFxiXyXlmvpO4XPne35f8IXNgVbC6k4DcTNU9jPTliZYjstJ4F/ey8SoCQY74HPttGaTf7mceAUKQAEoAAWgABQ4QQVGILc2TRMACwip2qtFjhl1lkduQzGHGvebMq5/qRVVFn5kv6aqy27eAcSICD1wXIpgRhhk8+CRUH6pnFbtZ036XXomcAAAIABJREFUDkSOqaZZirgLRssobQmOZ29ke5k6zVLalXOPqfYMVO1HO2lzsqXil6PHzuYIIFNI8/fSqUaRc98dnBggOYP9CMGzIjzkvhdIpuuSovTp3S6PsapWufbGYuca5IdGFlAWZjP71Fv5sC6BY5Vl6Rwq0Jzf04WPig5wLn3YrA3UtQ+12jWA+Khy6AcFoAAUgALnoMDa4DqqWRfwlgYxRLNb862lStNhS0Pp9uuw6wEoWB8H41JEU7Mc/cwglIWgXVc99ZfA4IZwzMaPE5EAnnyWvtIoeAmOqf6nHj3m91IHIDtIGKpmPfcsRCbpm2bfUeQEPvVUawpIxw3JXmvub3otm0cQf4VoMrOdZRvwJ3I9/ZrOIX+SlzIUZMulwJykaSPrEEyuANO9H6btmfRaRHsoAAWgABSAAlCgpcAqENsaRF43QG/epe1pliadkQW32gfEzhgzUI4U5229Kzn0RYNKtFj2cW0XRo2pTe6/BscapBIJKgW5vAJ55JiNH0xJoNfSl+O8U4p4CfLpsmtwzHQ9cPQ4+VJLuRfvhkJ6tbNFI8i7F6xp1q4tA4AFUWRvzL4XeW5PfdCKSnEYV6Kh8aWC74eMJLM5+gWt6Z2WQkkbD/cDoacl0eSi7v4GYj/tqHLqNJqGHadXAdImqyoNsveCeF/RX4cAumIvXmo6bjGCNlAACkABKAAFoMBRKTAAtxb/W1FgaqMXhB04VPi6PvZ6UOz9aKdR6+0IrBIxeqLG1C4FR6qPfJ33mQcWsJp8SI7tC465VmOp1c4GhXkiSEw3j3u3lS8NxA1W/SKk+EVJ+csTmc5eey9c8vP/7u23sWhfZR+yQxkKWdkf7+0jn7yNHEgpINM2LM1XqWjN7KXcaMIXdCwNhENT+35k5l/P+cizgJY9ya4pqXCd6ppRAi3Np70vOdqfp++j5vmXCL6d+JEFsgb2KUsN0wjB9/xjoAyh5bhpDVzN7NlRECz3Wn9lM6C2OrBGO7OAawwGG1AACkABKAAFOhXYCEI7vVjUvAd4SwNZCmdpfdeC4WB7SaS4aKO1v3jXUUyEdjHtNXY2vAet/ca8TSVyTKLGrA/L4l4vckzHsKRWU8lWT60ma8L0FGulR7bTnZqvxVj02C8vX6sMkHeNrGnWru0Bosh+3ETrKuCH6G8GfaVUaz9zOidrqnXWJzpYrtC9BJK57gOQnKbq5yv3kC8A5ez+EWPl94y/0XVgLMNyuU944+jQbAXTLvZrNO6JRKe3/br/ss573VFhDQpAASgABaDAxVJgDWBdqoga+aVGO74YsDYtz7scUi71Ke0p3k1Bh+jl0WJnm2gkwZiOzfdap04jcMz7zLb2BMdsTqbUagqJ3te1Uqu9/vFbhihqhGA/WPa65Z6oReuDwew+r6VX79ZHRpAdeFyEKLKfiPvpTbXO+oykWnsjfvx5dRikGKtbx/WIUff0Rk32SunjhYgwSwOYNSJrHu1qkX5jRFm/j/KPBA3cRmCZrlk+Cl0F/Wq7f7iXyv3NV7rom1s9Btg2zxMNoQAUgAJQAApAAadAE2prOlkptmLDYsIG//1A7OYfu+X9TVDsRWQ/auEtPtisvegX831JhHZuUju+yZtmmB3nJV+XbWO3DeCYjqVBfILQ0X3H8x0s9jhXj82a1yFLrSbrc4zR46ClA2QNDi5SFJnOz8OXPdU69l0JkpnWBJLd67UUcZJu7W34d3Ibkr3l8KOnt6cHB113mXat3yfiaaykX7O50eaN/craeNTTNCfhA/m1HTktp2czVwehdrBbeUIjV47CiRHH0QcKQAEoAAWgwBEqYKHNjd0edcEGwTvnK5uNC5HeMGXum27HBMVK18VQTJzkgMZym+Pq6Wm+9T26Tr0Ik+RG0IpxEallmm8sJMainbM9JdraC8fUz7DeS1Krmb3dXJV0cS1K7JodUfTYuWMCZE8q7K2+5l5kBkKlqCtN+6V7kYlvS1Kt+RTLqdaunZaKPatT2l/t+6UfGqWt+U21oXuSqb/tNHc+OhtPiSbTOcbxC+AbZmTZp5zaKlCqvaSAXR146RcB5U+mNjQXZ1X9uLPbrZpRL4Jx+zVDDygABaAAFIACx6bAKNha5mGH32CtDsGxVcVpCwzv7JiA2DXMZ5qBI21S2V+sjuvAjaTy8jBotKynU3sHSxAp9eLBZuWMYzLfvcDxPF4O/Rz4uW5CrxQSdtNV10Z8OaAdD8ZSq/2A3l4BlPmSy1TsdfYe0/FXAeSdQQlpRQgjMyyDGk8klSm/bjxrwS7f2P3k8LpsP7Jus1yEjLjC/HEFypQvAPiJWyFdO05mtpEEldFkrm9otyCaHE3IL0vE7/LZVoFrNWXYCMv5fZcNzF6wQKYdcm2RZ+lRLs06dlrj4DoUgAJQAApAAShwOgr0w25pbsshOFjOObk/3Vqd1x6gOM3BDsd62nTSWe59Le033vXQz2H2traEY2b/Eu3c5vq+Y9f/AKnVdFx5Z+cQre9d9jZE7+wLFR2uL/n5N789Zfa2qvVWosg5rPRVtGb9G3t3XVuWNmwr2EXHoKnW/HUqZDmSnBW2El8SjESSmR+Mjr1PGUR37kv2Nrx64ac3mqytk2aLj0I0rUSFrbCc32v85rdGmZMe8q2n/26HZ63/aYHwsrna9EQrKAAFoAAUgAKHVmA9EN3XTGzAq3nTM9c1YHjnQ3HMnvRpbyibUs4+cpNyHpV0plaLGntrcp7D+43JPLP9uUIDLfVbTbGOhbF64XhWSonsJpMKmPamVpfmXMha2Acc7+a3N0AuQc1qUWRCOyOp1tS/xHCFaKthPzK3R+BIwD/TRRTFqp3t7Po19yX7VlL72vyydaKui+JtWmS/uM7ak7qRQt0DzKVxw7Bt4NMB1hJ1llNrj7XGh+hpAfcaM4YNKAAFoAAUgAKnp8A40Frn2gO+wWY5a3rJ3uNK394osQDC6LciSjZ/DeoGwVi6IaPG/nqeorwDej39OE2gfGYwjXLP7Rt7jrkfsz9VOHY9nPGYNc1zwvV059m1panVcfTBvcdpvutHjxMgO7rwCyD/uB+vaK2BWQlClIjmgigynUcTMknRLtYvulSYx1aQ7J1I6eBKJDmbH03PVtexFDEOb9K+iLK/XQpp1o29yuRW44+4EVjO3Wc2W6Daui4cVD+nRgC69oHX55P1oxPtoAAUgAJQAApAgWNWYARya/MZBWBqs+VTT3Q42K3uJ6a0RhzRsHsIip39ZLi2z1i6oqVb+zZ1OGb96Ng08lyCxChaDoFy/jKirJ11TP1dAsdeRiU6v/foMV9QNcVd0ZD6ny5H8ncv+Qjy7mcFQHZmGDHY0qxpP9Z/B4rkDVLbi+xt9Kdap7HbkdYsbboTkpk+bM+xn2Q291X3JZNFztLBa9fElxrZrzZQzu+Nec70SUz/vQEwl3zQXBgD1XZUd22gLsm35etj2mzpEWxDASgABaAAFCgr0AK9U9DOVtyrP1pt1abarho4Lkf4PInonU1QTPpnwJifCcWWuQbHehEuN1i0sfZ+Yz+VEPklrhqKV9XgmNlNud+Z9DQyXtSmET1muvFvIubxRGTcEBWni7av9GqnWQuQPTpJKpJQlNyXgCyhpPTHtSXVWgJkGJUV7PIDukvmwleRWjohWUk/VvceF/Yn08rgwZQJkv2i6HPcRzSZjE9vXGtUWa4Nt6F8TFWoUl1j7ZOuza5Z9kTtA3M9SDQ4tvEn90WA9o0lgnkoAAWgABQ4IwVsMLq1IP2wq3lkBWAKUtWZLYHhYNiwnzg11XKzDXuLowE+m31EjZmWStQ4XtcAkbq7BI7dIOV9x/qXAFxXLfo9mlpNNXGjdKRWy3uzluYuTHs1G4W5tPVKgLy7uocoshum8Be5CsmlKLI35OZdKthFx9JSrdn1AiRzVzlAO383gGSmUanCdWG9SvuSc93H0q7V9bNGlcmayYevdk8U0dEIzPLeUB/4HXy6BIqX9K1+UO3lYodIe/EHg0ABKAAFoAAUWKLAOvC5xIPRvj3AK8fo6tuQiBW6qhXjUgAl+GWOEgsbS6LFDIacI3mKdCudOptSx37jOL4Gv3TBNoRj6r+ETRmNJhLN/1yWWh0VN8wv3icScN3v2+w9jmPGCLKnCfejw8pxRJGZf1oKski1pu3X2o/MbBJI5qCeR6OltlpEvJZSHqPTln3JfrD4VqNMqUX5c99CVx2kS/dJlmwgX1BSyeUDvPgFSu3TZE1opuMMsuGxAfGx+VNbSlyDAlAACkABKHCsCnRB5h4mMexPx3cEa8BwBCNFE3UOhQhjBJhGCrUbTwWrZMG3SQ6NgLGflwaNxK68XoNjY2RVA1lt37E2p5GiXOV5inOhB1OrtfWKK6Vq0kh3T53ZHSfvZTYuvRcYIDvq8XbkH9StNGvfJ/mwaqq1oWCXdz1A6exHLdW6MFfvdw6FaW7atRRJ3gySZ4GtaeNRDxMkEzHU/cn8unp/SEBVwFKtSk3HM2QWyOdqlV8bucNlEO+k4s7m1s9LQK1VKbSDAlAACkABKHB6CgzDbWuqHfBLwUeabfpXyUWvuVC0q4Aj9UmDm4yTq1DsZ+uhKFkugbFvR0GMeFOKGqchiucbZ3aD2ROAY+Z7XC8/AX58Vg6w8ZXB6HF3arVcaOkjXV9xw/IUa8JB60aRveHiPmPxjlT38a6Uaj174kcsAD2FZO5zcDSPDtN0awsku+EVgF9jXzKznb7xiCq3vsiIs1ThOqfB7MsUAyyzdSDrr0XV5QO7BY5LoJmOtRpAywmIe0+7jNegABSAAlAACkABKCABcEQRFSxbadFyoEEY9oxSwOXeKHHwScJME4qdF653GYxTG+kzMx/gzhg1jraM+43p2Jpu1sgxn0Nt7rsIcCFdeX65WHm8o2p1VFfToXZvZe354he/wJCLrcAx06gJyOSP92YU2bXlONKCLwskF9ssqGrtXc33LO8TkqkP4T1uhWTWV4B1a3+1X9KYGhAfea21kj6m3+O/2ONT/VJFi+KORJeVe00+u2vg3BXk7axa1Qb2rtFHPvu27XPi7m8rDqxDASgABaDAySnQGWE9tvmVgDf42Yz8yglVACVrWhGjOW4DiD1EKYujvaT4nI+fgyGDojgXQ7quAOPMDo1I96RUe0PJk0IUvQSxvcc5cb/bcEzXhBftOq3Uau3eivPR7q9/+8u/flv2B34xVXpJResZ0zKg1v/6Ho0iMxjs3I/sGUxGh/nvtaJdsX9gUSVVm44RMZNFahWQJQ8jGWFVU669CPFHT8vu25+s+02fkvKLkvrvyTn9SdtMx07iVT+3WvAazfR8+nUCtDRt9anHpVLbko5r2IYNKAAFoAAUgALnqkALUtfUpQmercFWAmA6TNMnU1S3AMS7gYpB53IE0ftXSIlWI9nbgLHzYjf/Uso0F9J7XfnyYCkce/uzOnEcvm+aw29ysOu8YzqQnFPhWuk+0vePrxc9Ls03rMUlKiDvrlr3Iru2RxBFJn5kVa3ptUJhLw0o2/uRk1BZ1HsNSBbaBpW1NORWdNybIlC8m3DnutH3c55WHa62U7ClL+y5XohWtkAv/5KnHvbshdRFQdSFQN363Nv6eq9WW/sD+1AACkABKAAFlijQhLslxvfRtwN4pTu9wfOmVkYQDn4Uv1gwArGESYpygsHcJd1/AxjPxorpxe46HZ0DpxoVpovRud9YzsUaOaaayL3WWrq2Nic2tth37GWI9B1nyKBeLEzty4B4n6j62Nctv+8LcF3ITnCAvDOyKIrsDURfyqm7rmFeAMxQnCn6Jwp2Md8L8OvrblH/BCgGz5Wo6xqQPM/ajVJLMa+llisuch0Nx0Fp6yyPhRJLqVQ0bwNwkrrdNs6rBJEVMu2GZjk5+e4hv49C4SKQrvgzfOnE4Xx43ugIBaAAFIACUGBLBRZA6hZu9YKvBiJVv0wpzdxCNcreAcQ7qzXQla61oFjay6YmCnBl4ytgHNt0RI1zP2oR0hnAOcEWIs95FH0VOPYO833clqrVc7/WfEv3pPfdGD3W7tNK31KRtzIgO5jwrqp7S7PzfMajyMUxClC7g106mhZR9e4LaO+A5BxWc8DuSbfO/ZGp3OmhooIyg3+9bTwXuiNKHiz1gzK5QWYj+h7kNIL24C2BaBVQGxTaAufS/SYj6q0PsFGIbtmtK2btjXZQAApAASgABaDAMSswCrXWOTWjv9LQAAQ76GlVEqtM1Jpim1zV9xU7P3LSzaRqFXWqHmlVA2PvQBwvi6CGK8oeY00DLbrLq0SX0rLtcMw0a81tnh+VuFW12t8bFV0M91vSZix6bD3WKS3PfH+FCHIZGnyXLKVWOd+2FEXO++dwaAGlbP8tue1PGZJVfStfDmgAVdub7Ow3zk5ONpU90AJI9bVq7znWvlDQHvKWe0H9cDCEby3wHLVQC4wZBml8cm0N1tYPTrSDAlAACkABKAAFjl+BbtDVpmSAkZoSTQiONFS20g/D3KgWtO+FYsFrEWpHwNjb6ttrHPvMMul7bf1FDtmMYBdHjpn9I4HjsjY6HJfWkt6BxXUtpFaHvjGCXISCTaLIu9E2TLV25vU06t5069UiyX7K7kc7Bsq7XIdMde+xeA7VQDk/yzp1Ln4BUtmnrPkcZkjdKgMva1V8otaA0gSbHUzbA9Dl+ZOpXKAUZ5PW5c9FXIECUAAKQAEocFAFVgHNg86ADN5I8e6dqwmAIz20RaiNX/ctj4DK0RZD8c6gUpXav8xBlI6d7UeuFdaKWtXgrp1S7XyKe3y9UX0P7xFGjqnOFa2SVJoextRqMla6TXMKjtqJS9kXFTSCXPyDfxCSJRvwP7D1FGM9TVffPxxTihmPKBFQmWrtJxp7MQhOFKtf94TtrnF4pm+hSoSc7nNW7dT37ZYj5Wl8FaRLadduIvzRo+tRTqEPvS2R5eI9ltd6yx3T1rnyjDYD3YYALd0z+9T+7LG3uECQbp80WkIBKAAFoAAU2EiBA+w/7gVeOfO1AViCWklpKwwrfBNNWvYUl/zR9he7tqzataQlPhu1bUc6tfStllJN28qU6rId/UsFmp6sQ3Xa2ls761iujZZaraaUGwuRaWvXSq3O7hdZLE5J+y/BsTq+BGQVYCjUyYji8F5kN5K7A9U9t+KdVmwzuh/ZDxxHCfZbqcjJDxskq/NTILmlQzW6vMb+5LQcmSb+ErsJ2OromcgadeokWo8Q06HaJGsFUGs7f4OOf8D2RqTHR9q+Z5dm27uDEaAAFIACUAAKdCmwFDK7Btu4cRfwSl86Nj9bNbO1a0eHNVhJ7lcigmSOJSh2tg8IxtrcSuBq22/sZxR+WPA7/hL2bPP/uz5KajWPoOf7vbfYdyx10eA4byNu6gYgVzMDtO0HJkAmkKBGeBdCciu1OEiwOiS3osgCjiJEx34KYDOYKkSpd/0HINm507k3WfbRCnn5aTKH2F1XTL/2xkXb/BOhDFZLgTneGaaPoR7A62kbB18A0qYJDDa6SJA+KAG6QQEoAAWgABRYTYFFcLqaF4qhDvBNUGXvZINgQV7zQLWge9mu7psegS0DU3V/sXC3vGe1kipNhx6MmvbvN+aOh2G5Nn1w7Cxyym5WrJZ9eotyZWNGH/aTWq2N7157/S//hojB+lVWAWFPqdYlOGnBIeWTcioyhVZDqrUTI935q0KytM1SwXW4Dp60tBCm8zWdwbYOv/nDdyksF+8t72HxY8MCrHomsZ1aLWNQB3vbr/KZaJ/OKsPBCBSAAlAACkABKLCCAnYOXWEwb8IOtCPttWhu2/WelOtgrdTHGikualEoTsXaW/YZ+w5x8sV05rmFNWos/dbglw59FHDcqUV5jmOFuUarVtM7d2fDAbJHExkJVP4SP/JUa4lYZwvJTggC2OJ5pelSBV8prOXoL0NkObhVB806EfZA6r4BWn5M9Pja/ohBCygABaAAFIACUOCcFOgFXqlNX/8xAG5BbfKp/I1Bzc8eKFbBONtuXIhUDoBxHWj9zAHH/K7U9VgvelxLrdbujwDYRUD2jFWG5N5U63rBrkRgxcgo0dOaap3NYaXK1tRu8qWUTk1vhGUp16U1qWpmBeUZqpugrMCy5ldtz3ICY/1jbQkwM7U7i1MtBWg5GwDxOf3ZgrlCASgABaAAFNivAn3Am+Fy5mxv7bG+8fuBuOgPhVdRjEn1SRlaTaWW+1izfa1EskpbPQW8An18M3ARotv7jR3yMRAvAWKtKBcv5E3D7I00844oevnLgrJOvk9lDRYW5vLqzfqFCLLnnhyIF0Fy9xFB/OinGmBYIbkURZbz7T3+SUKhH2chJAv4tB4HlYCzkpbdCcpN6I2D5h8GPWnYHGjLHyx22LTnINtter/qvG0fd78fn4UvuvbtBMaDAlAACkABKHBBFOgDw31Pugaifb70zdOWQ94VHabubgXFGXXlqelsZp1gXAZBXjAsnuRUjFxTOE3CyLTqYnp3IZ3cvOdY6MT3TPelmAfvc1874Fj6syIcO9ObArJCFRQyckDxkLEoijyPadmP7JrKI6AGC3clv8chOdooFPCyaJPBaR66j+8qiXTZehT2KUvdigYtqdgN8mwFgXsht6ckdb/t9MBq+V3+iDpe0O77WEVrKAAFoAAUgAJQwK6ADTClvd6oL2fOnjF72rb3P1f97jmyh00oV7u+J7UBZFwsZlyCfitqnLWvRI09+7FQaRxbr1TtepQjz3uEY+l7ef+4Fo1eL7Wa+aFlEGiVq2lFcArIJfDpiSJnUeiFUWQJhfTurEWR/VwosLAN1ITp5N7r8cJdyddyJJfLUUm5FhMoRZNL+mwBysWxtOJaWnZ+hRotKdlh0Xrgsx9y+wC13779o3Jpyx6dlo6F/lAACkABKAAFzk2BJXC6tVZ90V8PWD0/PfabOlWiw9Sn0fTpDDhXSqXO7M7O1uDZfrYxXxOp4ZaRYz9yO7U6tliQWp00HI8eZ/7SLxgG4NjZWwrIGjQtg2R7FFmOraVTHwMk537St7sdkj0z1+C7nSJfihJH+BRPx1p70z5077T6U02hbxwdVnqI90JhP+D2AXTZz3Xs9HyYoS0UgAJQAApAAShwWgr0gGh9ZtsBsIcco66G6HCwVJy7YU9xBq89UKxMqDdiLMfPItnzHIop0c3zjaNKq0aOM9gswW9apLjw5bnwe6NVmCvXWtxbjXuotzBXNmcNkCWERXDqKNi1DJATUVlSrV3rxtnAh4NkTofcT7rYMoqtQPCCtGupkfZ7dp6xuBf1LILKnufCnnZntsKGXdCcbk7jU7m1jzg30w/Q0gZA2Lw4aAgFoAAUgAJQAAoYFbASqW6uF7zNAOxoQ/etdn501Z/CVKvp0wU/8lTnBnw1wDr0rsFhX9TY41qym/zT0q7X3HPsR94ucuyXpC+1Wl1GKyAPRo/dmDKC7PmlHYmUoFMtzOSJjN2BlqrWzTTh2WK1XdhHS0YvFe7Kj7paI93aKxp+cl+pLIbo8IFB2S+lmj9dnGPpnuI3RPnzwAqp2n3bqKyVDdobgWart6Sz8eNweTMA+3INYQEKQAEoAAXOT4FlQLoPvXqhl/rUBcAqtQi4qkx4BIaDuTWg2Lkv/WtFmEvQXyyq1S7C5WVs7zUutTtGOM59TULrUfiNUqvVRdb3xqv3lBWQy2DkJ94EZN+IM5H4W53bGE+1zvzpgGTXd6Rwl+8Yf/SodimdmsrSF02W/sq5l+DS9OWDXC/lYVeE10qBr2BGBdqyFNnoVnDWNCIL1f2ZdWgO7pl39+TQAQpAASgABaAAFFhVgSXguoYj3fDr4KI/Cix9bc678Z2DKeJsANfgVwuK/bTrwBZtWcHYGfW96inI60aN/bBatNavLSv2Jb8uGEyr1vSj90QretybWi3nyMY3Ro81G+6117/lHbuzlXL4OJIosoObUgq18HqtSLIEqtoRULLtKCT7edIJLQNlEwDPwzXbqveH/sgeiS7zWdfyr/s+JnpBsgjsKxLxiqb6xEBrKAAFoAAUgAJQ4GQVGILc0mxXgN8WDKlDV4C4BsPZWFoF4uKcFE8Go8XanBn0ZaDpxx4B43wsL15v1FjT7hjhWNdWrJ01tdoZy9dd+8JGve92XyD0ALKHOC291jthKtrUFUV2VvPodK0acg2mV4wky/nyKsxpUXT4rMGvXNC+tOtZsWhEXZOCfk1Q9pNWn3naq1VANX7pIedT/WTrzB7uBeg+XzqdqU7ssBcB9YfVH6NDASgABaDAugqsCpvrutZvzTiZFoBqAzcjwLKTMQu95QsvslQ2qgNPQUIDVJfmq45Do6wGMHbMVkin9teS3/l4/AinzBbtW4oaz4OsBcfSh9q9so/UauaPEY5dH52kZ0AugI95L7InB/fTTLXWopGdqdbaOPTtUI04L4VkoRUbi4WP+Ru0J+U6X44yUDMtpI4iC8AEwLPb5rZLo8t84ZhoFoBtpmkz+/2fO617rddil7+9xmvtQblrqglbUAAKQAEocK4KGIF0bXlaUNkzXjf4BuNGAC6Ch3Ay86OhbRFgtckbU6/7wS4NZqlM7bTIfNHTqfO2jaixFzr+1FKqve2a73o6dny1EnUf07CQ/l3K7rdGjwv3aE/02GnlIsieAtT3lhmSC4DsTDeO7LEU7NJApQZQRwHJfvLxZ81oclWPDUFZG5dMsHAPlR/bTQjOMg7skdkhGLWbr34WNefV80l24LZDOh7YZwwPBaAAFIACUKCkwJqweWiVh2FXOt4Bv6Frj45rwbCDl+LCFvZNG6LH1GRrH/IaYOzmsVLU2GtS3m+cjbVgz7G3VYZbm47rFuZiPhmjx8V7d55bAmRPPtktV/rjuCfV2lJd+OggWeiRFe6S17OCVqzcNNO1FU2WEJovyzoRZTmO9jt13FrwK/appcJXPlFMcGlME699cC0Gv5Vgeu0PV5N+aw8Ke1AACkABKAAFzlSB1SB1bf0GoJf5pFHwAAAK9ElEQVQBThlFM0+LGhgi7tUIZE0TY5Q4mBiLdCYH9gXGTQitRIK19PRi5LgWFU6isRU4NBw7bcR9GX0ywrFmw02Sgn+MIAvgY2C0h4Jd2vD5H/p5ZeseqMvstdKthVOtY6CkL3nkPKlaTmGu7TmWT4kxUHZ+Lki/Dl6sCczep/pPF/ipqfytEcrjL4Zp64feuIvWEdAOCkABKAAFoAAUODYFFsKsdTo9UV9pUwVMAwAn1qpPsinBikBc8imLHqt7VH3vVqRZxrql+9qe5KpNIVAxajzDXjZe4YxjOZd9pFXr+il3sTW12hnM+5tTq2fN4n3BANlRyjZRZA3K1LGq+5FnK51pt4vSrYUmKiTLNhtGk/UlWg+Uvf26Pe0hbE13z/o29sZaeXEpPFO/umwZP5H2BthGf1ZrZl2g1QaEISgABaAAFIACBgWatGWwcYRNlgBuaTrNCPiKEBwBpKVtZcyeSLA2TBtsS8WbvLV2f5lCzL0o7UmuRmcXRI2dz3uC47I+nWnV3hATrnoGthGOMy3iDSnGsgCyg6Ytosiextjkt0i19sOUI7PBB/m3PgOlCvTGSxWwXBpNlnNQpMtisBroxdcUsGlFlcNCWQByGJj1iWXPt14us/isPquNxa2G7bc+IPZ4/cJC/B41xFBQAApAAShwugpsAZ/7VqMJuwUgsPpptj8bNH1PMVicS4MxbR7F4l4GANPOME4SytktB+NsTp1RY8mVeVp4pThWCRaNe4619UjadwKytm+8lFrtqTf7GY0eO3MZIBcAZY29yM60lkh7AEjOgFNJty61iaCYpSnPVyowXjoOKhuLQX0rQizviXYEmMM/72/+MiROt42rFoBstjHCqr/P+n+a4/ebLBa/6zW1iW+9TqA9FIACUAAKQAEosEiBXsAsDtYR1bU6POKbCYAL4CX9soy/tI0JmqrFs+pVqR1cSagtVLFuRqLXjBoLx/JU8nk1KjDc0r48n/Xh2E9ntmuEY9encKxTdi9aAdlDR6HStQYuPVWtPR0y30YjyRpoUsPV9GELJAtfLSnX0qdaNFnzP/m8DJRL2vRElYOWiyLEZEFa4Ne6Hk11wLO/l5f/mH1bPtS2Fjq129YZWIcCUAAKQAEocGAFNoDPQ8yoBTQWn7oAWEBYzX7Lt9Z1ansk5VoHJW9VhWj1ntggYuwc4Mq19hprsltTqtlwg3Bc1+vI4bhwz+oRZE9S2X09AsgalFmiyJoL1qJd2ph0Ms09trflHpYKfAW7FlDOxs2Ov+KSWwp5qfqq9KesZ22vsSEFu6ap9Zr28LSCp7WdG2MBBK4B05YPIdmma34jA6APFIACUAAKQAEocDAFeiBwTSe7oZcO3vHlgXV+1nbBjREg9iCohRrT5JoRXdc0t7FFxFjzl/kXjiOqwLR3twGoljad+8GH06oVX9o65O+MYkq9MXrsxlQjyBWgGIFkdS+sIdVac8MKyS24sECyG1/obt2XzHxvFL3qSbv2doNXllTqDLuyO6m6V1kTYbZQ27O6VoSZOtta09G2TJAFIN368DoUaLf8Gr3esx6jY6AfFIACUAAKQIFRBXrBa3ScffVbBLYtJzvAl5rq0binrXWMKiyXjqnqTqH2mMZ9ygXNffF9TBFpazq1Nzjb5T6svd+45HttbbaGY+bT0tRqoqVczUuu+ZV3lP/OLZ01e8BU690EjgqSvUNM131Ek7kOI6DsLGTv7lFY9tbKCGiBKUsb7fk+0m+kjyJW6+PmpK5fNIA/KfHhLBSAAlAAChxcgU0B9BCzG4TeGgBZprEFCIdxh4DYgVDy3ASsHkGz6WqSrgXGfsRKxHcAjBlQzrOJI7Siy53F06xwrHKpoSgXm8uWcHzJNDlAVhgv3RCAZKdFNZKsCGiBZN+tDtdZFraW+r4ooqzNzi9/CSJ5FL38qGxVRbZAqqVN62G9xMaSvi2/mtc3jGY3x0YDKAAFoAAUgAJQYFsFVgDYUQdHIVYDrhEfLOO32lSrjjeAuD6PIwNjQpTVs40V8szSxsNiAY7V2zbW/donIJegy7InWa0Dlr3oYbMZBVUkWSXl+khBuayJdm/Yosq051rAXINy6ekW4LqFzZ45jXzAHLwPIP7gSwAHoAAUgAJQQFHggPC59Xq0wHF0/C3sWm1a2i0F4sSGWq7AKBQ7KnWmTZHpxp7hzMaRR435vOv7nRV+z0t+F/aK8/3X+R3ete9YdcTbzABZYbs0+opR5CKs5aHSbPZnD8lOPC5L/csAe9VxfYnt/UeAOfRpRZpHIHMr2B3xZfSDah/9ttRpH/5jDCgABaAAFIACWyhgAbYtxt3C5pZz6bVtaW86j9oQIQ5alsdcAsUOp2ao0uxkJJwtbTWdmtDasUaNvYthngNwrICqtvb7hmPnVoggVwG5cnGtol2e/TL6OxlIVsFpYG+yZkePsOeP0HoU3B4Z7oHlCLmVSGIGYYbNrhZotoxd+qA5djA8dv+2+ACHTSgABaAAFIAC56aABRgPqcmIfz19emGYQ1muTHtsGxSXx0n9s/RldYOy4mNtn/GKYJwQ3lDNunO/8b7gmI2z4b5jyeoMkKuQXAOgPRbtKvloLdylgqzy5Nkq5Vr7IiBtITYU22ocDVWaH5/PUlj2s6j9tABPvb4yOC8BaDq31lwO+cF1DGNDn2NYBfgABaAAFIACQYE2JJ23Vkv1Gek/AsItGLZc1wptSRiid4M+tzIUF31opFKr/azp1MoEttprXJrf2pFjN45aFG0Wcg04rix8FqV/w6/8h+zU3yILd0Jy8Q/nGYTU9ODB4590MEzE1QTeFSFZ9WUwmlwE3kFQ5vb6Uqjb202XVbHWdev/EOuJPu8ThAGS/WuJHlAACkABKAAFoIBXYARMe7QbtW+CX+mIBEjjnvG6j/U65KUhWinYxf2thohxM2U46GKF40ZxLQ+a88/CQlzaPce1WCetegSOi+BeOtqrB453qL4DZAcmBLiqIHRykOxnp8GXBVhMBb9mTZqVrr0T7BFhrXZtBuU0XT5OaR85e90eWQ7G69DcDglb1qA0d7+oPY/+1HYUorXRrHMY8/RwvS7qvA6nKEaGAlAACkCBY1JgFAiPaQ6aL2vOawh+PfGoP1bfbO3KQNzi7ZFIcQnKtLluDcaaL1YwLs5DrFg5hdyw5zrP6vbWVzjOqeR/vYib7V4JNiIge9agEdfK238NSCZgs30kOZGUCXiVqZsi0FZQ1o5qEqRXSrsuwaJ1n3Kpf/56X3Q5SLYkykxl74WzavtBiI5zGqXwPX6C9uq1R9cwFBSAAlAACkCBs1HABnaHlWMYeoPblUBt7/zt7ceiw9HlIjHX06erMKml/dbShOmyWyPGClRa06lViG59c9Csxr1HOHYTyN8r2j2zJhy7YUMEWQKyB6Z+SB4p2tUHfVqUM/dTB4bxY6CKPkqRCpCs9u8B5cKC2L9c0NeyBFatPcs9MNuGZn/3WX9GYbDZz+6C1VXWbs2o9ZAD6AQFoAAUgAJQAAqcrAKLwbY18zqDDqd42yG4QETC7xbjtcc7LBQrzKvuv5XRVh0MZ3Esqdct4U4Ujv1dU0xZKN71tergDJDPCZLNwKvIuiSafHBQrrCoDZbbMNsE0daXLwIrW89z7brFh5pdU/+NgXpk3kv7AOKXKoj+UAAKQAEocIoKbA6fhxClAbwe1AyNKr6P97eNa3Gv7UN7r2xVixJ7dUaL9wHG2jza+ljOcD7OyPEWcLyz+f8B7kn9WENaYvIAAAAASUVORK5CYII=;" parent="1" vertex="1">
          <mxGeometry x="749.54" y="429.47" width="372" height="317" as="geometry" />
        </mxCell>
      </root>
    </mxGraphModel>
  </diagram>
</mxfile>
